<?xml version="1.0" encoding="utf-8"?>
<!-- Generator: Adobe Illustrator 15.1.0, SVG Export Plug-In . SVG Version: 6.00 Build 0)  -->
<!DOCTYPE svg PUBLIC "-//W3C//DTD SVG 1.1//EN" "http://www.w3.org/Graphics/SVG/1.1/DTD/svg11.dtd">
<svg version="1.1" id="SemiBold" xmlns="http://www.w3.org/2000/svg" xmlns:xlink="http://www.w3.org/1999/xlink" x="0px" y="0px"
	 width="216.457px" height="75.108px" viewBox="0 0 216.457 75.108" enable-background="new 0 0 216.457 75.108"
	 xml:space="preserve">
<g>
	<path d="M215.707,63.768c0,6.53-4.797,10.591-11.322,10.591H12.571c-6.528,0-11.821-5.298-11.821-11.828V12.574
		C0.75,6.045,6.043,0.75,12.571,0.75h191.813c6.525,0,11.322,5.295,11.322,11.824V63.768z"/>
	<path fill="#FFFFFF" d="M204.385,75.108H12.571C5.64,75.108,0,69.466,0,62.53V12.574C0,5.641,5.64,0,12.571,0h191.813
		c6.77,0,12.072,5.523,12.072,12.574v51.194C216.457,70.551,211.605,75.108,204.385,75.108z M12.571,1.5
		C6.467,1.5,1.5,6.468,1.5,12.574V62.53c0,6.108,4.967,11.078,11.071,11.078h191.813c6.324,0,10.572-3.955,10.572-9.841V12.574
		c0-6.209-4.645-11.074-10.572-11.074H12.571z"/>
</g>
<g>
	<g>
		<path fill="#FFFFFF" d="M147.652,33.585l-1.615,1.522c-0.371,0.205-0.742,0.443-1.113,0.612c-1.121,0.509-2.26,0.637-3.273,0.637
			c-1.078,0-2.768-0.069-4.49-1.316c-2.396-1.688-3.443-4.587-3.443-7.114c0-5.232,4.26-7.798,7.732-7.798
			c1.215,0,2.463,0.304,3.477,0.945c1.686,1.114,2.121,2.563,2.363,3.34l-7.934,3.205l-2.598,0.202
			c0.84,4.289,3.742,6.784,6.949,6.784c1.602,0,2.791-0.521,3.883-1.062C147.588,33.543,147.807,33.429,147.652,33.585z
			 M142.865,25.052c0.645-0.234,0.979-0.437,0.979-0.906c0-1.348-1.523-2.904-3.344-2.904c-1.35,0-3.879,1.05-3.879,4.695
			c0,0.569,0.066,1.175,0.102,1.781L142.865,25.052z"/>
		<path fill="#FFFFFF" d="M131.064,33.323c0,1.312,0.234,1.516,1.344,1.618c0.578,0.068,1.152,0.099,1.725,0.166l-1.248,0.743
			h-5.947c0.779-1.012,0.914-1.112,0.914-1.787V33.31l-0.014-20.063h-2.625l2.527-1.218h4.824c-1.045,0.605-1.357,0.975-1.492,2.155
			L131.064,33.323z"/>
		<path fill="#FFFFFF" d="M121.842,21.784c0.773,0.637,2.393,1.988,2.393,4.553c0,2.499-1.41,3.677-2.83,4.792
			c-0.438,0.438-0.945,0.915-0.945,1.651c0,0.746,0.51,1.151,0.877,1.453l1.219,0.941c1.482,1.251,2.832,2.398,2.832,4.728
			c0,3.176-3.072,6.375-8.877,6.375c-4.889,0-7.253-2.328-7.253-4.824c0-1.217,0.604-2.938,2.601-4.115
			c2.092-1.279,4.928-1.45,6.444-1.55c-0.473-0.612-1.014-1.253-1.014-2.299c0-0.572,0.172-0.913,0.338-1.315
			c-0.369,0.035-0.742,0.071-1.08,0.071c-3.579,0-5.602-2.67-5.602-5.302c0-1.552,0.707-3.273,2.161-4.521
			c1.925-1.584,4.218-1.857,6.041-1.857h6.955l-2.162,1.221L121.842,21.784L121.842,21.784z M119.451,36.765
			c-0.277-0.036-0.443-0.036-0.777-0.036c-0.305,0-2.129,0.066-3.541,0.54c-0.747,0.273-2.906,1.08-2.906,3.479
			c0,2.392,2.331,4.115,5.939,4.115c3.238,0,4.959-1.553,4.959-3.644C123.123,39.497,122.01,38.59,119.451,36.765z M120.42,30.353
			c0.781-0.778,0.848-1.854,0.848-2.466c0-2.427-1.445-6.207-4.252-6.207c-0.875,0-1.823,0.439-2.36,1.118
			c-0.57,0.703-0.742,1.615-0.742,2.492c0,2.26,1.317,6.008,4.217,6.008C118.977,31.298,119.887,30.887,120.42,30.353z"/>
		<path fill="#FFFFFF" d="M100.919,36.287c-5.364,0-8.234-4.178-8.234-7.959c0-4.419,3.608-8.2,8.74-8.2
			c4.961,0,8.068,3.884,8.068,7.962C109.494,32.072,106.422,36.287,100.919,36.287z M105.139,33.557
			c0.816-1.08,1.014-2.428,1.014-3.742c0-2.972-1.416-8.64-5.601-8.64c-1.113,0-2.234,0.435-3.042,1.146
			c-1.318,1.181-1.553,2.664-1.553,4.12c0,3.334,1.647,8.833,5.737,8.833C103.015,35.274,104.362,34.635,105.139,33.557z"/>
		<path fill="#FFFFFF" d="M82.96,36.287c-5.365,0-8.23-4.178-8.23-7.959c0-4.419,3.609-8.2,8.739-8.2
			c4.958,0,8.062,3.884,8.062,7.962C91.531,32.072,88.464,36.287,82.96,36.287z M87.181,33.557c0.81-1.08,1.012-2.428,1.012-3.742
			c0-2.972-1.42-8.64-5.601-8.64c-1.117,0-2.226,0.435-3.036,1.146c-1.32,1.181-1.554,2.664-1.554,4.12
			c0,3.334,1.654,8.833,5.737,8.833C85.057,35.274,86.402,34.635,87.181,33.557z"/>
		<path fill="#FFFFFF" d="M72.585,35.116l-4.524,1.035c-1.833,0.289-3.479,0.544-5.222,0.544c-8.727,0-12.051-6.424-12.051-11.45
			c0-6.14,4.711-11.831,12.778-11.831c1.707,0,3.35,0.251,4.846,0.658c2.371,0.667,3.479,1.487,4.173,1.969l-2.628,2.496
			l-1.108,0.248l0.79-1.26c-1.07-1.045-3.037-2.974-6.77-2.974c-4.991,0-8.757,3.794-8.757,9.333c0,5.949,4.3,11.545,11.194,11.545
			c2.026,0,3.069-0.407,4.016-0.787v-5.1l-4.776,0.257l2.532-1.36h6.703l-0.819,0.789c-0.222,0.188-0.251,0.252-0.313,0.504
			c-0.033,0.288-0.063,1.204-0.063,1.526L72.585,35.116L72.585,35.116z"/>
	</g>
	<g>
		<path fill="#FFFFFF" d="M157.379,33.729v8.597h-1.707V20.453h1.707v2.49c1.111-1.609,3.143-2.886,5.504-2.886
			c4.232,0,7.084,3.211,7.084,8.294c0,5.049-2.852,8.327-7.084,8.327C160.654,36.679,158.66,35.53,157.379,33.729z M168.133,28.352
			c0-3.831-1.998-6.753-5.539-6.753c-2.199,0-4.301,1.729-5.215,3.235v7.001c0.914,1.51,3.016,3.301,5.215,3.301
			C166.135,35.136,168.133,32.189,168.133,28.352z"/>
		<path fill="#FFFFFF" d="M172.297,36.285V14.414h1.707v21.871H172.297z"/>
		<path fill="#FFFFFF" d="M193.158,40.909c0.363,0.162,0.986,0.264,1.383,0.264c1.045,0,1.771-0.428,2.424-1.936l1.246-2.82
			l-6.725-15.964h1.902l5.77,13.834l5.713-13.834h1.93L198.6,39.766c-0.85,1.99-2.188,2.947-4.027,2.947
			c-0.553,0-1.279-0.099-1.707-0.229L193.158,40.909z"/>
		<path fill="#FFFFFF" d="M188.172,36.238c-0.115-0.549-0.201-1.032-0.264-1.437c-0.053-0.403-0.082-0.815-0.082-1.234
			c-0.586,0.859-1.414,1.574-2.475,2.138c-1.059,0.566-2.064,0.845-3.447,0.845c-1.662,0-2.953-0.409-3.875-1.239
			c-0.918-0.829-1.381-1.952-1.381-3.373c0-1.419,0.67-2.571,2.004-3.452c1.334-0.885,3.059-1.324,5.191-1.324h3.982v-1.968
			c0-1.133-0.389-2.023-1.158-2.67c-0.773-0.646-1.859-0.974-3.268-0.974c-1.287,0-2.332,0.299-3.127,0.881
			c-0.787,0.594-1.186,1.33-1.186,2.217h-1.746l-0.037-0.085c-0.062-1.195,0.484-2.245,1.648-3.15
			c1.156-0.905,2.674-1.36,4.541-1.36c1.859,0,3.367,0.448,4.502,1.342c1.135,0.885,1.703,2.164,1.703,3.836v7.811
			c0,0.561,0.025,1.103,0.098,1.631c0.072,0.529,0.188,1.057,0.34,1.567h-1.965V36.238z M182.115,34.994
			c1.449,0,2.49-0.324,3.557-0.965c1.059-0.638,1.777-1.469,2.156-2.475v-3.04h-4c-1.529,0-2.793,0.338-3.789,1.021
			c-0.996,0.68-1.502,1.503-1.502,2.46c0,0.902,0.318,1.625,0.957,2.172C180.131,34.72,181.002,34.994,182.115,34.994z"/>
	</g>
</g>
<g>
	<polygon fill="none" points="28.498,27.46 33.974,21.984 33.972,21.984 28.498,27.46 11.021,9.985 11.02,9.985 28.498,27.463 
		10.993,44.969 10.993,44.969 28.498,27.463 33.998,32.963 34.001,32.963 	"/>
	
		<linearGradient id="SVGID_1_" gradientUnits="userSpaceOnUse" x1="865.2871" y1="509.6699" x2="842.2113" y2="524.1118" gradientTransform="matrix(0.7071 0.7071 0.7071 -0.7071 -947.4174 -225.4017)">
		<stop  offset="0" style="stop-color:#D6FFA1"/>
		<stop  offset="0.3264" style="stop-color:#93E2A7"/>
		<stop  offset="1" style="stop-color:#00A3B5"/>
	</linearGradient>
	<path fill="url(#SVGID_1_)" d="M33.972,21.984L12.636,10.252c-0.604-0.331-1.163-0.408-1.615-0.268L28.499,27.46L33.972,21.984z"/>
	
		<linearGradient id="SVGID_2_" gradientUnits="userSpaceOnUse" x1="851.873" y1="522.0049" x2="881.788" y2="514.1847" gradientTransform="matrix(0.7071 0.7071 0.7071 -0.7071 -947.4174 -225.4017)">
		<stop  offset="0" style="stop-color:#FF177B"/>
		<stop  offset="0.6721" style="stop-color:#FFA976"/>
		<stop  offset="1" style="stop-color:#FFEC73"/>
	</linearGradient>
	<path fill="url(#SVGID_2_)" d="M34.001,32.963l7.283-4.005c1.477-0.815,1.477-2.142,0-2.954l-7.311-4.02l-5.476,5.476
		L34.001,32.963z"/>
	
		<linearGradient id="SVGID_3_" gradientUnits="userSpaceOnUse" x1="868.5713" y1="498.7158" x2="836.1278" y2="517.8036" gradientTransform="matrix(0.7071 0.7071 0.7071 -0.7071 -947.4174 -225.4017)">
		<stop  offset="0" style="stop-color:#63FFD4"/>
		<stop  offset="0.4854" style="stop-color:#32A0BA"/>
		<stop  offset="0.8349" style="stop-color:#1262A9"/>
		<stop  offset="1" style="stop-color:#064AA2"/>
	</linearGradient>
	<path fill="url(#SVGID_3_)" d="M11.02,9.985c-0.649,0.203-1.069,0.86-1.069,1.854l0.004,31.283c0,0.982,0.407,1.631,1.038,1.847
		l17.506-17.506L11.02,9.985z"/>
	
		<linearGradient id="SVGID_4_" gradientUnits="userSpaceOnUse" x1="880.3496" y1="513.8701" x2="860.3746" y2="487.5539" gradientTransform="matrix(0.7071 0.7071 0.7071 -0.7071 -947.4174 -225.4017)">
		<stop  offset="0" style="stop-color:#FF4521"/>
		<stop  offset="0.3411" style="stop-color:#D43E65"/>
		<stop  offset="0.7935" style="stop-color:#9F36B9"/>
		<stop  offset="1" style="stop-color:#8A33DB"/>
	</linearGradient>
	<path fill="url(#SVGID_4_)" d="M10.993,44.969c0.454,0.153,1.024,0.082,1.643-0.258l21.363-11.748l-5.5-5.5L10.993,44.969z"/>
</g>
<g>
	<path fill="#FFFFFF" d="M62.81,59.128c-0.181,2.895,3.223,5.619,5.41,3.246c0.208-0.938-0.362-1.723-0.154-2.163
		c0.774,0.103,1.196-0.146,1.854-0.156c0.559,5.331-4.942,3.302-8.345,3.399c-0.105,1.548-0.551,2.746-2.163,2.783
		c0.247-0.637,0.563-1.92,0-2.476c0.74-0.544,1.937-0.638,2.935-0.926c-1.048-1.896-2.278-6.113,0-8.191
		c1.276-1.163,4.71-1.452,5.255,0.31C68.53,57.946,65.298,59.048,62.81,59.128z"/>
	<path d="M62.81,58.665c-0.056-2.273,0.111-4.321,2.474-4.174C66.945,56.274,65.062,58.845,62.81,58.665z"/>
	<path fill="#FFFFFF" d="M92.488,63.61c-0.107,0.623,0.65,0.381,0.617,0.928c-0.555,0.172-1.562,0.521-2.163,0.154
		c-0.78-2.41,2.21-6.531,1.7-8.811c-0.212-0.938-1.217-1.48-2.474-0.771c1.655,2.396-1.148,4.383-4.173,4.019
		c-2.458-3.015,0.315-3.526,3.401-4.327c1.772-0.46,4.809-1.341,4.947,0.927C94.481,58.067,92.598,61.151,92.488,63.61z"/>
	<path d="M88.778,55.882c0.702,1.178,0.044,2.57-1.083,2.475C85.781,58.19,86.542,54.392,88.778,55.882z"/>
	<path fill="#FFFFFF" d="M55.082,53.409c0.049,0.674,0.179,1.264,0.31,1.855c2.698,1.475,1.396,6.948,3.246,9.271
		c-0.583,0.189-1.233,0.312-2.01,0.311c-1.047-2.354-0.337-6.462-2.008-8.191c-1.405,0.67-2.992,3.354-1.546,4.942
		c-0.482,0.19-0.98,0.362-1.701,0.31c-1.284-2.513,0.75-5.323,2.475-6.336c-0.132-0.59-0.262-1.181-0.311-1.854
		C54.047,53.608,54.525,53.47,55.082,53.409z"/>
	<path fill="#FFFFFF" d="M79.039,52.946c0.338,0.795,0.07,2.195,0.155,3.244c0.878,0.055,1.328-0.322,2.166-0.31
		c-0.715,0.987-1.445,1.959-2.012,3.093c1.055-0.133,1.748-0.624,2.938-0.617c1.135,1.646,0.718,4.844,2.009,6.334
		c-0.73-0.061-1.064,0.276-1.854,0.156c-1.249-1.538,0.008-6.39-3.401-5.257c-0.595,1.349-2.33,3.672-0.926,5.101
		c-0.708,0.064-1.521,0.319-2.163,0c-0.282-3.488,1.972-5.744,3.398-8.035c-0.704-0.088-0.961,0.274-1.7,0.153
		c-0.36-1.079,0.21-3.094-0.618-3.708C77.559,52.946,78.485,52.584,79.039,52.946z"/>
	<path fill="#FFFFFF" d="M105.161,52.481c-0.7,0.94,0.186,2.045,0.154,2.629c-1.217,0.135-1.938-0.227-2.165-1.082
		c-0.942-0.119-1.446,0.203-2.318,0.154c0.065,1.146-0.25,1.91-0.31,2.938c0.686,0.533,1.915-0.394,2.628,0.154
		c0.036,2.223-1.409,4.24-1.856,6.488c-0.121,0.689,0.83,0.305,0.776,0.93c-0.856-0.082-1.764,0.435-2.477,0
		c-0.125-2.211,1.414-4.031,1.7-6.336c-0.266-0.859-1.527-0.279-2.317-0.311c-0.093-1.436,0.249-2.432,0.309-3.711
		c-1.687-0.604-2.365,1.137-4.018,1.084c0.506-0.801,0.358-2.154-0.309-2.628c1.203-0.067,2.199,0.065,2.318,1.081
		c1.871-0.09,3.741-0.176,5.564-0.309C103.575,53.166,103.866,52.321,105.161,52.481z"/>
	<path fill="#FFFFFF" d="M112.888,54.801c0.874-0.155,1.516-0.545,2.627-0.466c1,0.598,1.156,2.037,1.236,3.556
		c2.084,0.388,1.977-1.422,4.02-1.081c-0.727,0.725-0.203,1.941,0,2.318c-1.01,0.499-2.123-0.111-2.316-0.93
		c-0.568,0.105-1.125,0.218-1.855,0.158c0.535,5.221-5.698,3.678-9.428,4.635c-0.004-0.149-0.19-0.119-0.312-0.154
		c-2.395-3.421,0.662-9.217,5.564-8.502C112.973,54.097,112.519,54.86,112.888,54.801z"/>
	<path d="M112.423,61.907c-1.021-1.662,0.051-4.766,0.311-6.643C116.34,54.153,115.742,62.657,112.423,61.907z"/>
	<path d="M111.035,55.11c-0.527,1.248,0.162,7.987-2.475,7.11C106.942,61.681,107.716,54.969,111.035,55.11z"/>
</g>
</svg>
