<?xml version="1.0" encoding="utf-8"?>
<!-- Generator: Adobe Illustrator 15.1.0, SVG Export Plug-In . SVG Version: 6.00 Build 0)  -->
<!DOCTYPE svg PUBLIC "-//W3C//DTD SVG 1.1//EN" "http://www.w3.org/Graphics/SVG/1.1/DTD/svg11.dtd">
<svg version="1.1" id="SemiBold" xmlns="http://www.w3.org/2000/svg" xmlns:xlink="http://www.w3.org/1999/xlink" x="0px" y="0px"
	 width="229.5px" height="91.5px" viewBox="0 0 229.5 91.5" enable-background="new 0 0 229.5 91.5" xml:space="preserve">
<path stroke="#FFFFFF" stroke-width="1.5" stroke-miterlimit="10" d="M221.985,71.05c0,6.53-4.797,10.59-11.322,10.59H18.849
	c-6.528,0-11.821-5.297-11.821-11.827V19.856c0-6.529,5.293-11.824,11.821-11.824h191.814c6.525,0,11.322,5.295,11.322,11.824V71.05
	z"/>
<g>
	<g>
		<path fill="#FFFFFF" d="M153.929,60.867l-1.614,1.522c-0.372,0.205-0.743,0.443-1.113,0.612c-1.121,0.509-2.261,0.637-3.274,0.637
			c-1.078,0-2.768-0.069-4.491-1.316c-2.396-1.688-3.442-4.587-3.442-7.114c0-5.232,4.259-7.798,7.732-7.798
			c1.215,0,2.462,0.304,3.476,0.945c1.686,1.114,2.122,2.563,2.364,3.34l-7.934,3.205l-2.598,0.202
			c0.841,4.289,3.743,6.784,6.95,6.784c1.602,0,2.791-0.522,3.882-1.062C153.866,60.825,154.085,60.711,153.929,60.867z
			 M149.143,52.334c0.645-0.234,0.979-0.437,0.979-0.906c0-1.348-1.525-2.904-3.345-2.904c-1.349,0-3.879,1.05-3.879,4.695
			c0,0.569,0.067,1.175,0.102,1.781L149.143,52.334z"/>
		<path fill="#FFFFFF" d="M137.342,60.605c0,1.312,0.234,1.516,1.343,1.618c0.578,0.068,1.154,0.099,1.725,0.166l-1.248,0.743
			h-5.947c0.78-1.012,0.914-1.112,0.914-1.787v-0.753l-0.013-20.063h-2.626l2.527-1.218h4.826c-1.046,0.605-1.358,0.975-1.493,2.155
			L137.342,60.605z"/>
		<path fill="#FFFFFF" d="M128.119,49.066c0.774,0.637,2.392,1.988,2.392,4.553c0,2.499-1.409,3.677-2.83,4.792
			c-0.436,0.438-0.945,0.915-0.945,1.651c0,0.746,0.51,1.151,0.877,1.453l1.219,0.941c1.482,1.251,2.833,2.398,2.833,4.728
			c0,3.175-3.072,6.375-8.877,6.375c-4.89,0-7.254-2.328-7.254-4.825c0-1.216,0.604-2.937,2.601-4.115
			c2.092-1.279,4.927-1.45,6.444-1.55c-0.474-0.612-1.015-1.253-1.015-2.299c0-0.572,0.172-0.913,0.338-1.315
			c-0.369,0.035-0.741,0.071-1.079,0.071c-3.579,0-5.603-2.67-5.603-5.302c0-1.552,0.708-3.273,2.162-4.521
			c1.924-1.584,4.218-1.857,6.041-1.857h6.954l-2.162,1.221H128.119z M125.728,64.047c-0.276-0.036-0.442-0.036-0.776-0.036
			c-0.306,0-2.129,0.066-3.541,0.54c-0.747,0.273-2.906,1.08-2.906,3.478c0,2.392,2.331,4.116,5.938,4.116
			c3.239,0,4.96-1.553,4.96-3.644C129.401,66.78,128.288,65.872,125.728,64.047z M126.698,57.635
			c0.78-0.778,0.848-1.854,0.848-2.466c0-2.427-1.447-6.207-4.252-6.207c-0.875,0-1.823,0.439-2.361,1.118
			c-0.57,0.703-0.741,1.615-0.741,2.492c0,2.26,1.317,6.008,4.217,6.008C125.254,58.58,126.164,58.169,126.698,57.635z"/>
		<path fill="#FFFFFF" d="M107.197,63.569c-5.364,0-8.234-4.178-8.234-7.959c0-4.419,3.608-8.2,8.74-8.2
			c4.961,0,8.068,3.884,8.068,7.962C115.771,59.354,112.7,63.569,107.197,63.569z M111.417,60.839
			c0.816-1.08,1.014-2.428,1.014-3.742c0-2.972-1.416-8.64-5.601-8.64c-1.113,0-2.234,0.435-3.042,1.146
			c-1.318,1.181-1.553,2.664-1.553,4.12c0,3.334,1.647,8.833,5.737,8.833C109.293,62.556,110.64,61.917,111.417,60.839z"/>
		<path fill="#FFFFFF" d="M89.238,63.569c-5.365,0-8.23-4.178-8.23-7.959c0-4.419,3.609-8.2,8.739-8.2
			c4.958,0,8.062,3.884,8.062,7.962C97.809,59.354,94.742,63.569,89.238,63.569z M93.459,60.839c0.81-1.08,1.012-2.428,1.012-3.742
			c0-2.972-1.42-8.64-5.601-8.64c-1.117,0-2.226,0.435-3.036,1.146c-1.32,1.181-1.554,2.664-1.554,4.12
			c0,3.334,1.654,8.833,5.737,8.833C91.335,62.556,92.68,61.917,93.459,60.839z"/>
		<path fill="#FFFFFF" d="M78.863,62.398l-4.524,1.035c-1.833,0.289-3.479,0.544-5.222,0.544c-8.727,0-12.051-6.424-12.051-11.45
			c0-6.14,4.711-11.831,12.778-11.831c1.707,0,3.35,0.251,4.846,0.658c2.371,0.667,3.479,1.487,4.173,1.969l-2.628,2.496
			l-1.108,0.248l0.79-1.26c-1.07-1.045-3.037-2.974-6.77-2.974c-4.991,0-8.757,3.794-8.757,9.333c0,5.949,4.3,11.545,11.194,11.545
			c2.026,0,3.069-0.407,4.016-0.787v-5.1l-4.776,0.257l2.532-1.36h6.703l-0.819,0.789c-0.222,0.188-0.251,0.252-0.313,0.504
			c-0.033,0.288-0.063,1.204-0.063,1.526V62.398z"/>
	</g>
	<g>
		<path fill="#FFFFFF" d="M163.656,61.011v8.596h-1.707V47.735h1.707v2.49c1.111-1.609,3.144-2.886,5.504-2.886
			c4.232,0,7.084,3.211,7.084,8.294c0,5.049-2.852,8.327-7.084,8.327C166.932,63.961,164.937,62.812,163.656,61.011z M174.41,55.634
			c0-3.831-1.997-6.753-5.538-6.753c-2.199,0-4.302,1.729-5.216,3.235v7.001c0.914,1.51,3.017,3.301,5.216,3.301
			C172.413,62.418,174.41,59.471,174.41,55.634z"/>
		<path fill="#FFFFFF" d="M178.575,63.567V41.696h1.706v21.871H178.575z"/>
		<path fill="#FFFFFF" d="M199.436,68.192c0.364,0.162,0.987,0.263,1.383,0.263c1.044,0,1.771-0.427,2.424-1.936l1.245-2.82
			l-6.725-15.964h1.904l5.769,13.834l5.712-13.834h1.931l-8.201,19.313c-0.851,1.99-2.189,2.947-4.029,2.947
			c-0.552,0-1.279-0.099-1.706-0.229L199.436,68.192z"/>
		<path fill="#FFFFFF" d="M194.449,63.52c-0.114-0.549-0.2-1.032-0.263-1.437c-0.053-0.403-0.082-0.815-0.082-1.234
			c-0.586,0.859-1.415,1.574-2.474,2.138c-1.06,0.566-2.066,0.845-3.448,0.845c-1.663,0-2.953-0.409-3.875-1.239
			c-0.918-0.829-1.38-1.952-1.38-3.373c0-1.419,0.669-2.571,2.003-3.452c1.334-0.885,3.059-1.324,5.192-1.324h3.981v-1.968
			c0-1.133-0.387-2.023-1.157-2.67c-0.774-0.646-1.86-0.974-3.269-0.974c-1.287,0-2.331,0.299-3.126,0.881
			c-0.788,0.594-1.185,1.33-1.185,2.217h-1.747l-0.036-0.085c-0.063-1.195,0.484-2.245,1.647-3.15
			c1.157-0.905,2.675-1.36,4.542-1.36c1.86,0,3.366,0.448,4.502,1.342c1.134,0.885,1.703,2.164,1.703,3.836v7.811
			c0,0.561,0.026,1.103,0.097,1.631c0.072,0.529,0.187,1.057,0.34,1.567H194.449z M188.392,62.276c1.45,0,2.492-0.324,3.558-0.965
			c1.058-0.638,1.777-1.469,2.155-2.475v-3.04h-4c-1.528,0-2.793,0.338-3.788,1.021c-0.997,0.68-1.503,1.503-1.503,2.46
			c0,0.902,0.32,1.625,0.957,2.172C186.408,62.002,187.28,62.276,188.392,62.276z"/>
	</g>
</g>
<g>
	<polygon fill="none" points="34.776,54.742 40.252,49.266 40.25,49.266 34.776,54.742 17.299,37.267 17.298,37.267 34.776,54.745 
		17.271,72.251 17.271,72.251 34.776,54.745 40.276,60.245 40.279,60.245 	"/>
	
		<linearGradient id="SVGID_1_" gradientUnits="userSpaceOnUse" x1="519.5732" y1="-432.9976" x2="496.4961" y2="-447.4402" gradientTransform="matrix(0.7071 0.7071 -0.7071 0.7071 -642.4706 -7.8795)">
		<stop  offset="0" style="stop-color:#D6FFA1"/>
		<stop  offset="0.3264" style="stop-color:#93E2A7"/>
		<stop  offset="1" style="stop-color:#00A3B5"/>
	</linearGradient>
	<path fill="url(#SVGID_1_)" d="M40.25,49.266L18.914,37.534c-0.604-0.331-1.163-0.408-1.615-0.268l17.478,17.476L40.25,49.266z"/>
	
		<linearGradient id="SVGID_2_" gradientUnits="userSpaceOnUse" x1="506.1582" y1="-445.3345" x2="536.076" y2="-437.5135" gradientTransform="matrix(0.7071 0.7071 -0.7071 0.7071 -642.4706 -7.8795)">
		<stop  offset="0" style="stop-color:#FF177B"/>
		<stop  offset="0.6721" style="stop-color:#FFA976"/>
		<stop  offset="1" style="stop-color:#FFEC73"/>
	</linearGradient>
	<path fill="url(#SVGID_2_)" d="M40.279,60.245l7.283-4.005c1.477-0.815,1.477-2.142,0-2.954l-7.311-4.02l-5.476,5.476
		L40.279,60.245z"/>
	
		<linearGradient id="SVGID_3_" gradientUnits="userSpaceOnUse" x1="522.8574" y1="-422.0444" x2="490.413" y2="-441.1328" gradientTransform="matrix(0.7071 0.7071 -0.7071 0.7071 -642.4706 -7.8795)">
		<stop  offset="0" style="stop-color:#63FFD4"/>
		<stop  offset="0.4854" style="stop-color:#32A0BA"/>
		<stop  offset="0.8349" style="stop-color:#1262A9"/>
		<stop  offset="1" style="stop-color:#064AA2"/>
	</linearGradient>
	<path fill="url(#SVGID_3_)" d="M17.298,37.267c-0.649,0.203-1.069,0.86-1.069,1.854l0.004,31.284c0,0.982,0.407,1.63,1.038,1.846
		l17.506-17.506L17.298,37.267z"/>
	
		<linearGradient id="SVGID_4_" gradientUnits="userSpaceOnUse" x1="534.6367" y1="-437.1992" x2="514.66" y2="-410.8809" gradientTransform="matrix(0.7071 0.7071 -0.7071 0.7071 -642.4706 -7.8795)">
		<stop  offset="0" style="stop-color:#FF4521"/>
		<stop  offset="0.3411" style="stop-color:#D43E65"/>
		<stop  offset="0.7935" style="stop-color:#9F36B9"/>
		<stop  offset="1" style="stop-color:#8A33DB"/>
	</linearGradient>
	<path fill="url(#SVGID_4_)" d="M17.271,72.251c0.454,0.154,1.024,0.082,1.643-0.258l21.363-11.748l-5.5-5.5L17.271,72.251z"/>
</g>
<g>
	<g>
		<path fill="#FFFFFF" d="M65.677,28.749c-0.496,0.256-1.536,0.512-2.849,0.512c-3.041,0-5.314-1.921-5.314-5.474
			c0-3.394,2.289-5.667,5.635-5.667c1.328,0,2.192,0.288,2.561,0.48l-0.353,1.137c-0.512-0.256-1.264-0.448-2.16-0.448
			c-2.529,0-4.21,1.616-4.21,4.45c0,2.656,1.521,4.337,4.13,4.337c0.864,0,1.729-0.176,2.289-0.448L65.677,28.749z"/>
		<path fill="#FFFFFF" d="M75.646,18.297v10.788h-1.408v-9.62h-5.01v9.62h-1.409V18.297H75.646z"/>
		<path fill="#FFFFFF" d="M80.202,25.691l-1.12,3.394h-1.44l3.682-10.788h1.664l3.682,10.788h-1.488l-1.152-3.394H80.202z
			 M83.756,24.604l-1.072-3.105c-0.24-0.704-0.4-1.345-0.561-1.969h-0.032c-0.16,0.624-0.319,1.296-0.544,1.952l-1.057,3.122H83.756
			z"/>
		<path fill="#FFFFFF" d="M97.742,24.347c-0.08-1.504-0.177-3.329-0.177-4.657h-0.032c-0.384,1.248-0.815,2.608-1.36,4.098
			l-1.904,5.233h-1.057l-1.761-5.138c-0.512-1.536-0.929-2.913-1.232-4.193h-0.032c-0.032,1.345-0.112,3.137-0.208,4.77
			l-0.288,4.626h-1.328l0.752-10.788h1.776l1.841,5.218c0.448,1.328,0.801,2.513,1.089,3.634h0.032
			c0.288-1.089,0.672-2.273,1.152-3.634l1.921-5.218h1.776l0.672,10.788h-1.376L97.742,24.347z"/>
		<path fill="#FFFFFF" d="M109.724,18.297v10.788h-1.408v-9.62h-5.01v9.62h-1.409V18.297H109.724z"/>
		<path fill="#FFFFFF" d="M112.937,18.297l2.146,4.626c0.271,0.64,0.528,1.264,0.769,1.889h0.048
			c0.191-0.545,0.399-1.169,0.656-1.938l1.696-4.577h1.473l-2.272,5.57c-0.576,1.44-1.249,3.089-2.018,4.081
			c-0.688,0.881-1.473,1.329-2.433,1.329c-0.368,0-0.608-0.032-0.784-0.097l0.128-1.136c0.128,0.031,0.288,0.048,0.528,0.048
			c1.104,0,1.761-1.072,2.112-1.841c0.112-0.24,0.08-0.4-0.048-0.656l-3.585-7.299H112.937z"/>
		<path fill="#FFFFFF" d="M122.586,18.297v4.546c0,1.696-0.032,3.121-0.128,4.562l0.048,0.016c0.528-1.12,1.2-2.288,1.984-3.569
			l3.489-5.554h1.393v10.788h-1.312v-4.594c0-1.745,0.017-3.025,0.128-4.386l-0.048-0.017c-0.528,1.185-1.265,2.434-2.001,3.618
			l-3.377,5.378h-1.488V18.297H122.586z M124.347,16.04c0.063,0.496,0.224,0.992,0.977,0.992c0.735,0,0.912-0.464,0.976-0.992h1.073
			c-0.08,1.072-0.721,1.729-2.081,1.729c-1.312,0-1.938-0.673-2.017-1.729H124.347z"/>
		<path fill="#FFFFFF" d="M133.594,18.297v9.619h4.945v-9.619h1.409v9.651l0.944,0.032l-0.097,3.714h-1.088l-0.096-2.609h-7.428
			V18.297H133.594z"/>
		<path fill="#FFFFFF" d="M148.604,24.027h-4.178v3.889h4.674v1.169h-6.083V18.297h5.843v1.168h-4.434v3.409h4.178V24.027z"/>
		<path fill="#FFFFFF" d="M155.417,18.921c0.736-0.48,1.664-0.816,2.849-0.816c1.873,0,3.169,0.977,3.169,2.641
			c0,1.329-0.976,2.354-2.225,2.642v0.032c1.505,0.16,2.625,1.152,2.642,2.705c0,2.24-1.953,3.137-3.922,3.137
			c-0.977,0-1.985-0.208-2.817-0.704l0.368-1.088c0.593,0.336,1.537,0.656,2.433,0.656c1.585,0,2.466-0.865,2.466-2.049
			c0-1.617-1.553-2.081-2.93-2.081h-0.64v-1.057h0.624c1.425,0,2.545-0.88,2.545-1.984s-0.784-1.713-1.937-1.713
			c-0.833,0-1.665,0.336-2.257,0.704L155.417,18.921z"/>
	</g>
</g>
</svg>
