<?xml version="1.0" encoding="utf-8"?>
<!-- Generator: Adobe Illustrator 15.1.0, SVG Export Plug-In . SVG Version: 6.00 Build 0)  -->
<!DOCTYPE svg PUBLIC "-//W3C//DTD SVG 1.1//EN" "http://www.w3.org/Graphics/SVG/1.1/DTD/svg11.dtd">
<svg version="1.1" id="SemiBold" xmlns="http://www.w3.org/2000/svg" xmlns:xlink="http://www.w3.org/1999/xlink" x="0px" y="0px"
	 width="216.457px" height="75.108px" viewBox="0 0 216.457 75.108" enable-background="new 0 0 216.457 75.108"
	 xml:space="preserve">
<g>
	<path d="M215.707,63.768c0,6.53-4.797,10.591-11.322,10.591H12.571c-6.528,0-11.821-5.298-11.821-11.828V12.574
		C0.75,6.045,6.043,0.75,12.571,0.75h191.813c6.525,0,11.322,5.295,11.322,11.824V63.768z"/>
	<path fill="#FFFFFF" d="M204.385,75.108H12.571C5.64,75.108,0,69.466,0,62.53V12.574C0,5.641,5.64,0,12.571,0h191.813
		c6.77,0,12.072,5.523,12.072,12.574v51.194C216.457,70.551,211.605,75.108,204.385,75.108z M12.571,1.5
		C6.467,1.5,1.5,6.468,1.5,12.574V62.53c0,6.108,4.967,11.078,11.071,11.078h191.813c6.324,0,10.572-3.955,10.572-9.841V12.574
		c0-6.209-4.645-11.074-10.572-11.074H12.571z"/>
</g>
<g>
	<g>
		<path fill="#FFFFFF" d="M147.652,53.585l-1.615,1.521c-0.371,0.205-0.742,0.443-1.113,0.612c-1.121,0.509-2.26,0.638-3.273,0.638
			c-1.078,0-2.768-0.07-4.49-1.316c-2.396-1.688-3.443-4.588-3.443-7.114c0-5.231,4.26-7.798,7.732-7.798
			c1.215,0,2.463,0.304,3.477,0.945c1.686,1.113,2.121,2.562,2.363,3.34l-7.934,3.205l-2.598,0.201
			c0.84,4.289,3.742,6.784,6.949,6.784c1.602,0,2.791-0.521,3.883-1.062C147.588,53.543,147.807,53.429,147.652,53.585z
			 M142.865,45.052c0.645-0.234,0.979-0.438,0.979-0.906c0-1.348-1.523-2.904-3.344-2.904c-1.35,0-3.879,1.051-3.879,4.695
			c0,0.569,0.066,1.176,0.102,1.781L142.865,45.052z"/>
		<path fill="#FFFFFF" d="M131.064,53.323c0,1.312,0.234,1.516,1.344,1.617c0.578,0.068,1.152,0.1,1.725,0.166l-1.248,0.743h-5.947
			c0.779-1.012,0.914-1.112,0.914-1.786V53.31l-0.014-20.063h-2.625l2.527-1.218h4.824c-1.045,0.605-1.357,0.975-1.492,2.155
			L131.064,53.323z"/>
		<path fill="#FFFFFF" d="M121.842,41.784c0.773,0.637,2.393,1.988,2.393,4.553c0,2.499-1.41,3.677-2.83,4.792
			c-0.438,0.438-0.945,0.915-0.945,1.651c0,0.746,0.51,1.15,0.877,1.453l1.219,0.94c1.482,1.251,2.832,2.397,2.832,4.728
			c0,3.176-3.072,6.375-8.877,6.375c-4.889,0-7.253-2.328-7.253-4.824c0-1.217,0.604-2.938,2.601-4.115
			c2.092-1.279,4.928-1.45,6.444-1.551c-0.473-0.611-1.014-1.252-1.014-2.299c0-0.571,0.172-0.912,0.338-1.314
			c-0.369,0.035-0.742,0.07-1.08,0.07c-3.579,0-5.602-2.67-5.602-5.301c0-1.553,0.707-3.273,2.161-4.521
			c1.925-1.584,4.218-1.857,6.041-1.857h6.955l-2.162,1.221H121.842L121.842,41.784z M119.451,56.765
			c-0.277-0.036-0.443-0.036-0.777-0.036c-0.305,0-2.129,0.066-3.541,0.54c-0.747,0.273-2.906,1.08-2.906,3.479
			c0,2.392,2.331,4.115,5.939,4.115c3.238,0,4.959-1.553,4.959-3.644C123.123,59.497,122.01,58.59,119.451,56.765z M120.42,50.353
			c0.781-0.777,0.848-1.854,0.848-2.466c0-2.427-1.445-6.207-4.252-6.207c-0.875,0-1.823,0.438-2.36,1.118
			c-0.57,0.703-0.742,1.615-0.742,2.492c0,2.26,1.317,6.008,4.217,6.008C118.977,51.298,119.887,50.887,120.42,50.353z"/>
		<path fill="#FFFFFF" d="M100.919,56.286c-5.364,0-8.234-4.178-8.234-7.959c0-4.418,3.608-8.199,8.74-8.199
			c4.961,0,8.068,3.884,8.068,7.962C109.494,52.071,106.422,56.286,100.919,56.286z M105.139,53.557
			c0.816-1.08,1.014-2.428,1.014-3.741c0-2.973-1.416-8.641-5.601-8.641c-1.113,0-2.234,0.436-3.042,1.146
			c-1.318,1.181-1.553,2.664-1.553,4.119c0,3.334,1.647,8.834,5.737,8.834C103.015,55.274,104.362,54.635,105.139,53.557z"/>
		<path fill="#FFFFFF" d="M82.96,56.286c-5.365,0-8.23-4.178-8.23-7.959c0-4.418,3.609-8.199,8.739-8.199
			c4.958,0,8.062,3.884,8.062,7.962C91.531,52.071,88.464,56.286,82.96,56.286z M87.181,53.557c0.81-1.08,1.012-2.428,1.012-3.741
			c0-2.973-1.42-8.641-5.601-8.641c-1.117,0-2.226,0.436-3.036,1.146c-1.32,1.181-1.554,2.664-1.554,4.119
			c0,3.334,1.654,8.834,5.737,8.834C85.057,55.274,86.402,54.635,87.181,53.557z"/>
		<path fill="#FFFFFF" d="M72.585,55.116l-4.524,1.035c-1.833,0.289-3.479,0.543-5.222,0.543c-8.727,0-12.051-6.424-12.051-11.449
			c0-6.141,4.711-11.832,12.778-11.832c1.707,0,3.35,0.251,4.846,0.658c2.371,0.667,3.479,1.487,4.173,1.969l-2.628,2.496
			l-1.108,0.248l0.79-1.26c-1.07-1.045-3.037-2.974-6.77-2.974c-4.991,0-8.757,3.794-8.757,9.333c0,5.949,4.3,11.545,11.194,11.545
			c2.026,0,3.069-0.406,4.016-0.787v-5.1l-4.776,0.257l2.532-1.36h6.703l-0.819,0.789c-0.222,0.188-0.251,0.252-0.313,0.504
			c-0.033,0.288-0.063,1.204-0.063,1.526L72.585,55.116L72.585,55.116z"/>
	</g>
	<g>
		<path fill="#FFFFFF" d="M157.379,53.729v8.597h-1.707V40.452h1.707v2.49c1.111-1.608,3.143-2.886,5.504-2.886
			c4.232,0,7.084,3.211,7.084,8.294c0,5.049-2.852,8.327-7.084,8.327C160.654,56.679,158.66,55.53,157.379,53.729z M168.133,48.352
			c0-3.831-1.998-6.753-5.539-6.753c-2.199,0-4.301,1.729-5.215,3.235v7.001c0.914,1.51,3.016,3.301,5.215,3.301
			C166.135,55.136,168.133,52.188,168.133,48.352z"/>
		<path fill="#FFFFFF" d="M172.297,56.284V34.414h1.707v21.871H172.297z"/>
		<path fill="#FFFFFF" d="M193.158,60.909c0.363,0.162,0.986,0.264,1.383,0.264c1.045,0,1.771-0.428,2.424-1.936l1.246-2.82
			l-6.725-15.965h1.902l5.77,13.834l5.713-13.834h1.93L198.6,59.766c-0.85,1.99-2.188,2.947-4.027,2.947
			c-0.553,0-1.279-0.099-1.707-0.229L193.158,60.909z"/>
		<path fill="#FFFFFF" d="M188.172,56.237c-0.115-0.549-0.201-1.031-0.264-1.437c-0.053-0.403-0.082-0.815-0.082-1.233
			c-0.586,0.858-1.414,1.573-2.475,2.137c-1.059,0.566-2.064,0.846-3.447,0.846c-1.662,0-2.953-0.409-3.875-1.239
			c-0.918-0.829-1.381-1.952-1.381-3.372s0.67-2.572,2.004-3.453c1.334-0.885,3.059-1.324,5.191-1.324h3.982v-1.967
			c0-1.134-0.389-2.023-1.158-2.67c-0.773-0.646-1.859-0.975-3.268-0.975c-1.287,0-2.332,0.299-3.127,0.881
			c-0.787,0.594-1.186,1.33-1.186,2.217h-1.746l-0.037-0.084c-0.062-1.195,0.484-2.246,1.648-3.15
			c1.156-0.905,2.674-1.36,4.541-1.36c1.859,0,3.367,0.448,4.502,1.342c1.135,0.886,1.703,2.164,1.703,3.837v7.811
			c0,0.561,0.025,1.103,0.098,1.631c0.072,0.529,0.188,1.057,0.34,1.566h-1.965V56.237z M182.115,54.993
			c1.449,0,2.49-0.323,3.557-0.965c1.059-0.638,1.777-1.469,2.156-2.475v-3.04h-4c-1.529,0-2.793,0.338-3.789,1.021
			c-0.996,0.681-1.502,1.504-1.502,2.461c0,0.902,0.318,1.625,0.957,2.172C180.131,54.72,181.002,54.993,182.115,54.993z"/>
	</g>
</g>
<g>
	<polygon fill="none" points="28.498,47.46 33.974,41.983 33.972,41.983 28.498,47.46 11.021,29.985 11.02,29.985 28.498,47.463 
		10.993,64.969 10.993,64.969 28.498,47.463 33.998,52.963 34.001,52.963 	"/>
	
		<linearGradient id="SVGID_1_" gradientUnits="userSpaceOnUse" x1="879.4287" y1="495.5273" x2="856.3516" y2="509.9699" gradientTransform="matrix(0.7071 0.7071 0.7071 -0.7071 -947.4174 -225.4017)">
		<stop  offset="0" style="stop-color:#D6FFA1"/>
		<stop  offset="0.3264" style="stop-color:#93E2A7"/>
		<stop  offset="1" style="stop-color:#00A3B5"/>
	</linearGradient>
	<path fill="url(#SVGID_1_)" d="M33.972,41.983L12.636,30.252c-0.604-0.331-1.163-0.408-1.615-0.268L28.499,47.46L33.972,41.983z"/>
	
		<linearGradient id="SVGID_2_" gradientUnits="userSpaceOnUse" x1="866.0098" y1="507.8652" x2="895.9336" y2="500.0426" gradientTransform="matrix(0.7071 0.7071 0.7071 -0.7071 -947.4174 -225.4017)">
		<stop  offset="0" style="stop-color:#FF177B"/>
		<stop  offset="0.6721" style="stop-color:#FFA976"/>
		<stop  offset="1" style="stop-color:#FFEC73"/>
	</linearGradient>
	<path fill="url(#SVGID_2_)" d="M34.001,52.963l7.283-4.005c1.477-0.815,1.477-2.143,0-2.954l-7.311-4.021l-5.476,5.477
		L34.001,52.963z"/>
	
		<linearGradient id="SVGID_3_" gradientUnits="userSpaceOnUse" x1="882.7129" y1="484.5742" x2="850.2684" y2="503.6626" gradientTransform="matrix(0.7071 0.7071 0.7071 -0.7071 -947.4174 -225.4017)">
		<stop  offset="0" style="stop-color:#63FFD4"/>
		<stop  offset="0.4854" style="stop-color:#32A0BA"/>
		<stop  offset="0.8349" style="stop-color:#1262A9"/>
		<stop  offset="1" style="stop-color:#064AA2"/>
	</linearGradient>
	<path fill="url(#SVGID_3_)" d="M11.02,29.985c-0.649,0.203-1.069,0.86-1.069,1.854l0.004,31.283c0,0.982,0.407,1.631,1.038,1.847
		l17.506-17.506L11.02,29.985z"/>
	
		<linearGradient id="SVGID_4_" gradientUnits="userSpaceOnUse" x1="894.4922" y1="499.7285" x2="874.5154" y2="473.4102" gradientTransform="matrix(0.7071 0.7071 0.7071 -0.7071 -947.4174 -225.4017)">
		<stop  offset="0" style="stop-color:#FF4521"/>
		<stop  offset="0.3411" style="stop-color:#D43E65"/>
		<stop  offset="0.7935" style="stop-color:#9F36B9"/>
		<stop  offset="1" style="stop-color:#8A33DB"/>
	</linearGradient>
	<path fill="url(#SVGID_4_)" d="M10.993,64.969c0.454,0.153,1.024,0.082,1.643-0.258l21.363-11.748l-5.5-5.5L10.993,64.969z"/>
</g>
<g>
	<g>
		<path fill="#FFFFFF" d="M59.687,11.015v10.788h-1.408v-9.62h-5.01v9.62H51.86V11.015H59.687z"/>
		<path fill="#FFFFFF" d="M62.5,11.143c0.672-0.112,1.553-0.208,2.673-0.208c1.377,0,2.385,0.32,3.025,0.896
			c0.576,0.512,0.944,1.296,0.944,2.257c0,0.977-0.288,1.744-0.833,2.305c-0.752,0.784-1.937,1.185-3.297,1.185
			c-0.416,0-0.801-0.017-1.12-0.096v4.321h-1.393L62.5,11.143L62.5,11.143z M63.893,16.345c0.304,0.08,0.688,0.112,1.152,0.112
			c1.681,0,2.705-0.833,2.705-2.289c0-1.44-1.024-2.129-2.545-2.129c-0.608,0-1.072,0.048-1.312,0.111V16.345z"/>
		<path fill="#FFFFFF" d="M76.982,16.745h-4.178v3.889h4.674v1.169h-6.083V11.015h5.843v1.168h-4.434v3.409h4.178V16.745z"/>
		<path fill="#FFFFFF" d="M87.382,11.015v9.651l0.944,0.032l-0.097,3.697h-1.087l-0.096-2.593h-6.803l-0.097,2.593h-1.088
			l-0.08-3.697l0.8-0.032c0.4-0.736,0.801-1.521,1.057-2.369c0.368-1.248,0.513-2.688,0.513-4.545v-2.737H87.382z M82.644,14.199
			c0,1.729-0.16,3.186-0.544,4.402c-0.225,0.752-0.576,1.473-0.881,2.049h4.771v-8.483h-3.346V14.199z"/>
		<path fill="#FFFFFF" d="M97.798,11.015v10.788h-1.409v-9.62h-3.553v3.266c0,2.337-0.112,4.946-1.617,5.971
			c-0.4,0.256-1.04,0.512-1.664,0.512l-0.177-1.12c0.433-0.064,0.881-0.32,1.137-0.576c0.864-0.833,0.944-2.945,0.944-4.674v-4.546
			L97.798,11.015L97.798,11.015z"/>
		<path fill="#FFFFFF" d="M102.356,18.409l-1.12,3.394h-1.44l3.682-10.788h1.664l3.682,10.788h-1.488l-1.152-3.394H102.356z
			 M105.91,17.322l-1.072-3.105c-0.24-0.704-0.4-1.345-0.561-1.969h-0.032c-0.16,0.624-0.319,1.296-0.544,1.952l-1.057,3.122H105.91
			z"/>
		<path fill="#FFFFFF" d="M116.535,11.015v1.168h-4.338v9.62h-1.41V11.015H116.535z"/>
		<path fill="#FFFFFF" d="M118.58,18.409l-1.121,3.394h-1.439l3.682-10.788h1.664l3.682,10.788h-1.488l-1.15-3.394H118.58z
			 M122.133,17.322l-1.072-3.105c-0.238-0.704-0.398-1.345-0.561-1.969h-0.031c-0.16,0.624-0.32,1.296-0.545,1.952l-1.057,3.122
			H122.133z"/>
		<path fill="#FFFFFF" d="M139.078,21.467c-0.496,0.256-1.537,0.512-2.85,0.512c-3.041,0-5.314-1.921-5.314-5.474
			c0-3.394,2.289-5.667,5.635-5.667c1.328,0,2.193,0.288,2.562,0.48l-0.354,1.137c-0.512-0.256-1.264-0.448-2.16-0.448
			c-2.529,0-4.211,1.616-4.211,4.45c0,2.656,1.521,4.337,4.131,4.337c0.863,0,1.729-0.176,2.289-0.448L139.078,21.467z"/>
		<path fill="#FFFFFF" d="M146.805,16.745h-4.178v3.889h4.674v1.169h-6.082V11.015h5.842v1.168h-4.434v3.409h4.178V16.745z"/>
		<path fill="#FFFFFF" d="M154.035,11.175c0.607-0.145,1.584-0.24,2.545-0.24c1.393,0,2.289,0.24,2.943,0.784
			c0.561,0.416,0.912,1.057,0.912,1.904c0,1.057-0.703,1.969-1.824,2.369v0.048c1.023,0.24,2.227,1.089,2.227,2.689
			c0,0.929-0.369,1.648-0.93,2.161c-0.736,0.688-1.953,1.008-3.713,1.008c-0.961,0-1.697-0.063-2.16-0.128V11.175z M155.428,15.592
			h1.266c1.455,0,2.318-0.784,2.318-1.824c0-1.249-0.943-1.761-2.352-1.761c-0.643,0-1.01,0.048-1.232,0.096V15.592L155.428,15.592z
			 M155.428,20.746c0.287,0.048,0.672,0.064,1.168,0.064c1.439,0,2.77-0.528,2.77-2.097c0-1.457-1.266-2.081-2.785-2.081h-1.152
			V20.746L155.428,20.746z"/>
	</g>
</g>
</svg>
