<?xml version="1.0" encoding="utf-8"?>
<!-- Generator: Adobe Illustrator 15.1.0, SVG Export Plug-In . SVG Version: 6.00 Build 0)  -->
<!DOCTYPE svg PUBLIC "-//W3C//DTD SVG 1.1//EN" "http://www.w3.org/Graphics/SVG/1.1/DTD/svg11.dtd">
<svg version="1.1" id="SemiBold" xmlns="http://www.w3.org/2000/svg" xmlns:xlink="http://www.w3.org/1999/xlink" x="0px" y="0px"
	 width="229.5px" height="91.5px" viewBox="0 0 229.5 91.5" enable-background="new 0 0 229.5 91.5" xml:space="preserve">
<path stroke="#FFFFFF" stroke-width="1.5" stroke-miterlimit="10" d="M221.985,71.05c0,6.53-4.797,10.59-11.322,10.59H18.849
	c-6.528,0-11.821-5.297-11.821-11.827V19.856c0-6.529,5.293-11.824,11.821-11.824h191.814c6.525,0,11.322,5.295,11.322,11.824V71.05
	z"/>
<g>
	<g>
		<path fill="#FFFFFF" d="M153.929,60.867l-1.614,1.522c-0.372,0.205-0.743,0.443-1.113,0.612c-1.121,0.509-2.261,0.637-3.274,0.637
			c-1.078,0-2.768-0.069-4.491-1.316c-2.396-1.688-3.442-4.587-3.442-7.114c0-5.232,4.259-7.798,7.732-7.798
			c1.215,0,2.462,0.304,3.476,0.945c1.686,1.114,2.122,2.563,2.364,3.34l-7.934,3.205l-2.598,0.202
			c0.841,4.289,3.743,6.784,6.95,6.784c1.602,0,2.791-0.522,3.882-1.062C153.866,60.825,154.085,60.711,153.929,60.867z
			 M149.143,52.334c0.645-0.234,0.979-0.437,0.979-0.906c0-1.348-1.525-2.904-3.345-2.904c-1.349,0-3.879,1.05-3.879,4.695
			c0,0.569,0.067,1.175,0.102,1.781L149.143,52.334z"/>
		<path fill="#FFFFFF" d="M137.342,60.605c0,1.312,0.234,1.516,1.343,1.618c0.578,0.068,1.154,0.099,1.725,0.166l-1.248,0.743
			h-5.947c0.78-1.012,0.914-1.112,0.914-1.787v-0.753l-0.013-20.063h-2.626l2.527-1.218h4.826c-1.046,0.605-1.358,0.975-1.493,2.155
			L137.342,60.605z"/>
		<path fill="#FFFFFF" d="M128.119,49.066c0.774,0.637,2.392,1.988,2.392,4.553c0,2.499-1.409,3.677-2.83,4.792
			c-0.436,0.438-0.945,0.915-0.945,1.651c0,0.746,0.51,1.151,0.877,1.453l1.219,0.941c1.482,1.251,2.833,2.398,2.833,4.728
			c0,3.175-3.072,6.375-8.877,6.375c-4.89,0-7.254-2.328-7.254-4.825c0-1.216,0.604-2.937,2.601-4.115
			c2.092-1.279,4.927-1.45,6.444-1.55c-0.474-0.612-1.015-1.253-1.015-2.299c0-0.572,0.172-0.913,0.338-1.315
			c-0.369,0.035-0.741,0.071-1.079,0.071c-3.579,0-5.603-2.67-5.603-5.302c0-1.552,0.708-3.273,2.162-4.521
			c1.924-1.584,4.218-1.857,6.041-1.857h6.954l-2.162,1.221H128.119z M125.728,64.047c-0.276-0.036-0.442-0.036-0.776-0.036
			c-0.306,0-2.129,0.066-3.541,0.54c-0.747,0.273-2.906,1.08-2.906,3.478c0,2.392,2.331,4.116,5.938,4.116
			c3.239,0,4.96-1.553,4.96-3.644C129.401,66.78,128.288,65.872,125.728,64.047z M126.698,57.635
			c0.78-0.778,0.848-1.854,0.848-2.466c0-2.427-1.447-6.207-4.252-6.207c-0.875,0-1.823,0.439-2.361,1.118
			c-0.57,0.703-0.741,1.615-0.741,2.492c0,2.26,1.317,6.008,4.217,6.008C125.254,58.58,126.164,58.169,126.698,57.635z"/>
		<path fill="#FFFFFF" d="M107.197,63.569c-5.364,0-8.234-4.178-8.234-7.959c0-4.419,3.608-8.2,8.74-8.2
			c4.961,0,8.068,3.884,8.068,7.962C115.771,59.354,112.7,63.569,107.197,63.569z M111.417,60.839
			c0.816-1.08,1.014-2.428,1.014-3.742c0-2.972-1.416-8.64-5.601-8.64c-1.113,0-2.234,0.435-3.042,1.146
			c-1.318,1.181-1.553,2.664-1.553,4.12c0,3.334,1.647,8.833,5.737,8.833C109.293,62.556,110.64,61.917,111.417,60.839z"/>
		<path fill="#FFFFFF" d="M89.238,63.569c-5.365,0-8.23-4.178-8.23-7.959c0-4.419,3.609-8.2,8.739-8.2
			c4.958,0,8.062,3.884,8.062,7.962C97.809,59.354,94.742,63.569,89.238,63.569z M93.459,60.839c0.81-1.08,1.012-2.428,1.012-3.742
			c0-2.972-1.42-8.64-5.601-8.64c-1.117,0-2.226,0.435-3.036,1.146c-1.32,1.181-1.554,2.664-1.554,4.12
			c0,3.334,1.654,8.833,5.737,8.833C91.335,62.556,92.68,61.917,93.459,60.839z"/>
		<path fill="#FFFFFF" d="M78.863,62.398l-4.524,1.035c-1.833,0.289-3.479,0.544-5.222,0.544c-8.727,0-12.051-6.424-12.051-11.45
			c0-6.14,4.711-11.831,12.778-11.831c1.707,0,3.35,0.251,4.846,0.658c2.371,0.667,3.479,1.487,4.173,1.969l-2.628,2.496
			l-1.108,0.248l0.79-1.26c-1.07-1.045-3.037-2.974-6.77-2.974c-4.991,0-8.757,3.794-8.757,9.333c0,5.949,4.3,11.545,11.194,11.545
			c2.026,0,3.069-0.407,4.016-0.787v-5.1l-4.776,0.257l2.532-1.36h6.703l-0.819,0.789c-0.222,0.188-0.251,0.252-0.313,0.504
			c-0.033,0.288-0.063,1.204-0.063,1.526V62.398z"/>
	</g>
	<g>
		<path fill="#FFFFFF" d="M163.656,61.011v8.596h-1.707V47.735h1.707v2.49c1.111-1.609,3.144-2.886,5.504-2.886
			c4.232,0,7.084,3.211,7.084,8.294c0,5.049-2.852,8.327-7.084,8.327C166.932,63.961,164.937,62.812,163.656,61.011z M174.41,55.634
			c0-3.831-1.997-6.753-5.538-6.753c-2.199,0-4.302,1.729-5.216,3.235v7.001c0.914,1.51,3.017,3.301,5.216,3.301
			C172.413,62.418,174.41,59.471,174.41,55.634z"/>
		<path fill="#FFFFFF" d="M178.575,63.567V41.696h1.706v21.871H178.575z"/>
		<path fill="#FFFFFF" d="M199.436,68.192c0.364,0.162,0.987,0.263,1.383,0.263c1.044,0,1.771-0.427,2.424-1.936l1.245-2.82
			l-6.725-15.964h1.904l5.769,13.834l5.712-13.834h1.931l-8.201,19.313c-0.851,1.99-2.189,2.947-4.029,2.947
			c-0.552,0-1.279-0.099-1.706-0.229L199.436,68.192z"/>
		<path fill="#FFFFFF" d="M194.449,63.52c-0.114-0.549-0.2-1.032-0.263-1.437c-0.053-0.403-0.082-0.815-0.082-1.234
			c-0.586,0.859-1.415,1.574-2.474,2.138c-1.06,0.566-2.066,0.845-3.448,0.845c-1.663,0-2.953-0.409-3.875-1.239
			c-0.918-0.829-1.38-1.952-1.38-3.373c0-1.419,0.669-2.571,2.003-3.452c1.334-0.885,3.059-1.324,5.192-1.324h3.981v-1.968
			c0-1.133-0.387-2.023-1.157-2.67c-0.774-0.646-1.86-0.974-3.269-0.974c-1.287,0-2.331,0.299-3.126,0.881
			c-0.788,0.594-1.185,1.33-1.185,2.217h-1.747l-0.036-0.085c-0.063-1.195,0.484-2.245,1.647-3.15
			c1.157-0.905,2.675-1.36,4.542-1.36c1.86,0,3.366,0.448,4.502,1.342c1.134,0.885,1.703,2.164,1.703,3.836v7.811
			c0,0.561,0.026,1.103,0.097,1.631c0.072,0.529,0.187,1.057,0.34,1.567H194.449z M188.392,62.276c1.45,0,2.492-0.324,3.558-0.965
			c1.058-0.638,1.777-1.469,2.155-2.475v-3.04h-4c-1.528,0-2.793,0.338-3.788,1.021c-0.997,0.68-1.503,1.503-1.503,2.46
			c0,0.902,0.32,1.625,0.957,2.172C186.408,62.002,187.28,62.276,188.392,62.276z"/>
	</g>
</g>
<g>
	<polygon fill="none" points="34.776,54.742 40.252,49.266 40.25,49.266 34.776,54.742 17.299,37.267 17.298,37.267 34.776,54.745 
		17.271,72.251 17.271,72.251 34.776,54.745 40.276,60.245 40.279,60.245 	"/>
	
		<linearGradient id="SVGID_1_" gradientUnits="userSpaceOnUse" x1="519.5732" y1="-432.9976" x2="496.4961" y2="-447.4402" gradientTransform="matrix(0.7071 0.7071 -0.7071 0.7071 -642.4706 -7.8795)">
		<stop  offset="0" style="stop-color:#D6FFA1"/>
		<stop  offset="0.3264" style="stop-color:#93E2A7"/>
		<stop  offset="1" style="stop-color:#00A3B5"/>
	</linearGradient>
	<path fill="url(#SVGID_1_)" d="M40.25,49.266L18.914,37.534c-0.604-0.331-1.163-0.408-1.615-0.268l17.478,17.476L40.25,49.266z"/>
	
		<linearGradient id="SVGID_2_" gradientUnits="userSpaceOnUse" x1="506.1582" y1="-445.3345" x2="536.076" y2="-437.5135" gradientTransform="matrix(0.7071 0.7071 -0.7071 0.7071 -642.4706 -7.8795)">
		<stop  offset="0" style="stop-color:#FF177B"/>
		<stop  offset="0.6721" style="stop-color:#FFA976"/>
		<stop  offset="1" style="stop-color:#FFEC73"/>
	</linearGradient>
	<path fill="url(#SVGID_2_)" d="M40.279,60.245l7.283-4.005c1.477-0.815,1.477-2.142,0-2.954l-7.311-4.02l-5.476,5.476
		L40.279,60.245z"/>
	
		<linearGradient id="SVGID_3_" gradientUnits="userSpaceOnUse" x1="522.8574" y1="-422.0444" x2="490.413" y2="-441.1328" gradientTransform="matrix(0.7071 0.7071 -0.7071 0.7071 -642.4706 -7.8795)">
		<stop  offset="0" style="stop-color:#63FFD4"/>
		<stop  offset="0.4854" style="stop-color:#32A0BA"/>
		<stop  offset="0.8349" style="stop-color:#1262A9"/>
		<stop  offset="1" style="stop-color:#064AA2"/>
	</linearGradient>
	<path fill="url(#SVGID_3_)" d="M17.298,37.267c-0.649,0.203-1.069,0.86-1.069,1.854l0.004,31.284c0,0.982,0.407,1.63,1.038,1.846
		l17.506-17.506L17.298,37.267z"/>
	
		<linearGradient id="SVGID_4_" gradientUnits="userSpaceOnUse" x1="534.6367" y1="-437.1992" x2="514.66" y2="-410.8809" gradientTransform="matrix(0.7071 0.7071 -0.7071 0.7071 -642.4706 -7.8795)">
		<stop  offset="0" style="stop-color:#FF4521"/>
		<stop  offset="0.3411" style="stop-color:#D43E65"/>
		<stop  offset="0.7935" style="stop-color:#9F36B9"/>
		<stop  offset="1" style="stop-color:#8A33DB"/>
	</linearGradient>
	<path fill="url(#SVGID_4_)" d="M17.271,72.251c0.454,0.154,1.024,0.082,1.643-0.258l21.363-11.748l-5.5-5.5L17.271,72.251z"/>
</g>
<g>
	<g>
		<path fill="#FFFFFF" d="M59.898,25.691l-1.12,3.394h-1.44l3.682-10.788h1.664l3.682,10.788h-1.488l-1.152-3.394H59.898z
			 M63.452,24.604l-1.072-3.105c-0.24-0.704-0.4-1.345-0.561-1.969h-0.032c-0.16,0.624-0.319,1.296-0.544,1.952l-1.057,3.122H63.452
			z"/>
		<path fill="#FFFFFF" d="M73.356,29.085V22.57h-2.913v6.515h-1.697V22.57h-1.168v-1.488h8.627v1.488h-1.152v6.515H73.356z"/>
		<path fill="#FFFFFF" d="M77.657,25.275c0-2.577,1.713-4.098,3.842-4.098c2.225,0,3.729,1.616,3.729,3.97
			c0,2.865-2.001,4.113-3.858,4.113C79.29,29.261,77.657,27.725,77.657,25.275z M83.787,25.195c0-1.312-0.656-2.961-2.32-2.961
			c-1.648,0-2.369,1.536-2.369,2.993c0,1.696,0.96,2.978,2.337,2.978C82.779,28.205,83.787,26.94,83.787,25.195z"/>
		<path fill="#FFFFFF" d="M90.235,24.939c0.768,0.176,1.601,1.168,2.385,2.209l1.408,1.937h-1.633l-1.216-1.648
			c-0.784-1.024-1.505-1.777-2.226-1.793h-0.144v3.441h-1.393v-6.066c0-0.624-0.064-1.408-0.176-1.681h1.344
			c0.145,0.176,0.225,0.672,0.225,1.312v2.129h0.063c1.393-1.312,2.481-2.529,3.394-3.441h1.649v0.064
			c-1.089,1.008-2.321,2.192-3.682,3.489V24.939z"/>
		<path fill="#FFFFFF" d="M99.596,29.117c-0.145,0.096-0.464,0.144-0.769,0.144c-1.248,0-1.793-0.768-1.793-2.4v-4.435h-0.848
			c-0.816,0-1.232,0.064-1.569,0.129l-0.176-0.816c0.256-0.192,0.832-0.4,2.097-0.4h4.466l-0.176,1.088h-2.385v4.402
			c0,1.057,0.416,1.312,0.88,1.312c0.145,0,0.256,0,0.336-0.016L99.596,29.117z"/>
		<path fill="#FFFFFF" d="M103.994,22.618c0.385-0.72,1.28-1.44,2.562-1.44c1.072,0,2.736,0.641,2.736,3.297v4.898
			c0,0.881,0.017,2.241,0.177,2.881h-1.345c-0.192-0.479-0.24-1.809-0.24-2.833v-4.802c0-1.248-0.464-2.289-1.793-2.289
			c-0.912,0-1.633,0.656-1.889,1.44c-0.063,0.16-0.096,0.416-0.096,0.641v4.674h-1.408v-5.65c0-0.784-0.049-1.568-0.225-2.097h1.265
			c0.144,0.288,0.224,0.784,0.224,1.28H103.994z M107.771,18.104l-1.344,2.289h-0.929l0.849-2.289H107.771z"/>
		<path fill="#FFFFFF" d="M117.403,22.234c0.912,0.64,1.44,1.761,1.44,2.929c0,2.85-1.953,4.098-3.714,4.098
			c-2.08,0-3.713-1.521-3.713-3.97c0-2.593,1.648-4.113,3.985-4.113c0.433,0,1.265,0,1.488,0h0.849c0.528,0,1.457,0.016,1.745-0.016
			l-0.048,1.072c-0.368,0-0.896,0-2.033-0.048V22.234z M117.451,25.163c0-1.296-0.672-2.929-2.272-2.929s-2.321,1.536-2.321,2.993
			c0,1.696,0.977,2.978,2.321,2.978C116.442,28.205,117.451,26.924,117.451,25.163z"/>
		<path fill="#FFFFFF" d="M125.515,29.117c-0.145,0.096-0.465,0.144-0.769,0.144c-1.248,0-1.793-0.768-1.793-2.4v-4.435h-0.848
			c-0.816,0-1.232,0.064-1.569,0.129l-0.176-0.816c0.256-0.192,0.832-0.4,2.097-0.4h4.466l-0.176,1.088h-2.385v4.402
			c0,1.057,0.416,1.312,0.88,1.312c0.145,0,0.256,0,0.336-0.016L125.515,29.117z"/>
		<path fill="#FFFFFF" d="M129.993,24.907c-1.008-0.224-1.521-0.88-1.536-1.648c0-1.024,1.024-2.081,3.089-2.081
			c0.992,0,1.793,0.208,2.353,0.576l-0.304,0.944c-0.336-0.224-1.169-0.496-1.937-0.496c-1.089,0-1.793,0.464-1.793,1.152
			c0,0.784,0.944,1.12,2.161,1.12h0.944v0.993h-0.992c-1.393,0-2.434,0.384-2.434,1.328c0,0.912,0.961,1.393,2.097,1.393
			c0.849,0,1.809-0.304,2.273-0.592l0.256,0.96c-0.592,0.4-1.745,0.704-2.833,0.704c-1.553,0-3.266-0.608-3.266-2.353
			c0-0.944,0.784-1.761,1.921-1.937V24.907z"/>
		<path fill="#FFFFFF" d="M144.49,29.117c-0.145,0.096-0.464,0.144-0.769,0.144c-1.248,0-1.793-0.768-1.793-2.4v-4.435h-0.848
			c-0.816,0-1.232,0.064-1.569,0.129l-0.176-0.816c0.256-0.192,0.832-0.4,2.097-0.4h4.466l-0.176,1.088h-2.385v4.402
			c0,1.057,0.416,1.312,0.88,1.312c0.145,0,0.256,0,0.336-0.016L144.49,29.117z"/>
		<path fill="#FFFFFF" d="M146.841,25.275c0-2.577,1.713-4.098,3.842-4.098c2.225,0,3.729,1.616,3.729,3.97
			c0,2.865-2.001,4.113-3.858,4.113C148.474,29.261,146.841,27.725,146.841,25.275z M152.971,25.195c0-1.312-0.656-2.961-2.32-2.961
			c-1.648,0-2.369,1.536-2.369,2.993c0,1.696,0.96,2.978,2.337,2.978C151.963,28.205,152.971,26.94,152.971,25.195z"/>
		<path fill="#FFFFFF" d="M166.539,22.234c0.912,0.64,1.44,1.761,1.44,2.929c0,2.85-1.953,4.098-3.714,4.098
			c-2.08,0-3.713-1.521-3.713-3.97c0-2.593,1.648-4.113,3.985-4.113c0.433,0,1.265,0,1.488,0h0.849c0.528,0,1.457,0.016,1.745-0.016
			l-0.048,1.072c-0.368,0-0.896,0-2.033-0.048V22.234z M166.587,25.163c0-1.296-0.672-2.929-2.272-2.929s-2.321,1.536-2.321,2.993
			c0,1.696,0.977,2.978,2.321,2.978C165.579,28.205,166.587,26.924,166.587,25.163z"/>
		<path fill="#FFFFFF" d="M174.65,29.117c-0.145,0.096-0.464,0.144-0.769,0.144c-1.248,0-1.793-0.768-1.793-2.4v-4.435h-0.848
			c-0.816,0-1.232,0.064-1.569,0.129l-0.176-0.816c0.256-0.192,0.832-0.4,2.097-0.4h4.466l-0.176,1.088h-2.385v4.402
			c0,1.057,0.416,1.312,0.88,1.312c0.145,0,0.256,0,0.336-0.016L174.65,29.117z"/>
		<path fill="#FFFFFF" d="M177,25.275c0-2.577,1.713-4.098,3.842-4.098c2.225,0,3.729,1.616,3.729,3.97
			c0,2.865-2.001,4.113-3.858,4.113C178.633,29.261,177,27.725,177,25.275z M183.13,25.195c0-1.312-0.656-2.961-2.32-2.961
			c-1.648,0-2.369,1.536-2.369,2.993c0,1.696,0.96,2.978,2.337,2.978C182.122,28.205,183.13,26.94,183.13,25.195z"/>
	</g>
</g>
</svg>
