<?xml version="1.0" encoding="utf-8"?>
<!-- Generator: Adobe Illustrator 15.1.0, SVG Export Plug-In . SVG Version: 6.00 Build 0)  -->
<!DOCTYPE svg PUBLIC "-//W3C//DTD SVG 1.1//EN" "http://www.w3.org/Graphics/SVG/1.1/DTD/svg11.dtd">
<svg version="1.1" id="SemiBold" xmlns="http://www.w3.org/2000/svg" xmlns:xlink="http://www.w3.org/1999/xlink" x="0px" y="0px"
	 width="216.457px" height="75.108px" viewBox="0 0 216.457 75.108" enable-background="new 0 0 216.457 75.108"
	 xml:space="preserve">
<g>
	<path d="M215.707,63.768c0,6.53-4.797,10.591-11.322,10.591H12.571c-6.528,0-11.821-5.298-11.821-11.828V12.574
		C0.75,6.045,6.043,0.75,12.571,0.75h191.813c6.525,0,11.322,5.295,11.322,11.824V63.768z"/>
	<path fill="#FFFFFF" d="M204.385,75.108H12.571C5.64,75.108,0,69.466,0,62.53V12.574C0,5.641,5.64,0,12.571,0h191.813
		c6.77,0,12.072,5.523,12.072,12.574v51.194C216.457,70.551,211.605,75.108,204.385,75.108z M12.571,1.5
		C6.467,1.5,1.5,6.468,1.5,12.574V62.53c0,6.108,4.967,11.078,11.071,11.078h191.813c6.324,0,10.572-3.955,10.572-9.841V12.574
		c0-6.209-4.645-11.074-10.572-11.074H12.571z"/>
</g>
<g>
	<g>
		<path fill="#FFFFFF" d="M147.652,53.585l-1.615,1.521c-0.371,0.205-0.742,0.443-1.113,0.612c-1.121,0.509-2.26,0.638-3.273,0.638
			c-1.078,0-2.768-0.07-4.49-1.316c-2.396-1.688-3.443-4.588-3.443-7.114c0-5.231,4.26-7.798,7.732-7.798
			c1.215,0,2.463,0.304,3.477,0.945c1.686,1.113,2.121,2.562,2.363,3.34l-7.934,3.205l-2.598,0.201
			c0.84,4.289,3.742,6.784,6.949,6.784c1.602,0,2.791-0.521,3.883-1.062C147.588,53.543,147.807,53.429,147.652,53.585z
			 M142.865,45.052c0.645-0.234,0.979-0.438,0.979-0.906c0-1.348-1.523-2.904-3.344-2.904c-1.35,0-3.879,1.051-3.879,4.695
			c0,0.569,0.066,1.176,0.102,1.781L142.865,45.052z"/>
		<path fill="#FFFFFF" d="M131.064,53.323c0,1.312,0.234,1.516,1.344,1.617c0.578,0.068,1.152,0.1,1.725,0.166l-1.248,0.743h-5.947
			c0.779-1.012,0.914-1.112,0.914-1.786V53.31l-0.014-20.063h-2.625l2.527-1.218h4.824c-1.045,0.605-1.357,0.975-1.492,2.155
			L131.064,53.323z"/>
		<path fill="#FFFFFF" d="M121.842,41.784c0.773,0.637,2.393,1.988,2.393,4.553c0,2.499-1.41,3.677-2.83,4.792
			c-0.438,0.438-0.945,0.915-0.945,1.651c0,0.746,0.51,1.15,0.877,1.453l1.219,0.94c1.482,1.251,2.832,2.397,2.832,4.728
			c0,3.176-3.072,6.375-8.877,6.375c-4.889,0-7.253-2.328-7.253-4.824c0-1.217,0.604-2.938,2.601-4.115
			c2.092-1.279,4.928-1.45,6.444-1.551c-0.473-0.611-1.014-1.252-1.014-2.299c0-0.571,0.172-0.912,0.338-1.314
			c-0.369,0.035-0.742,0.07-1.08,0.07c-3.579,0-5.602-2.67-5.602-5.301c0-1.553,0.707-3.273,2.161-4.521
			c1.925-1.584,4.218-1.857,6.041-1.857h6.955l-2.162,1.221H121.842L121.842,41.784z M119.451,56.765
			c-0.277-0.036-0.443-0.036-0.777-0.036c-0.305,0-2.129,0.066-3.541,0.54c-0.747,0.273-2.906,1.08-2.906,3.479
			c0,2.392,2.331,4.115,5.939,4.115c3.238,0,4.959-1.553,4.959-3.644C123.123,59.497,122.01,58.59,119.451,56.765z M120.42,50.353
			c0.781-0.777,0.848-1.854,0.848-2.466c0-2.427-1.445-6.207-4.252-6.207c-0.875,0-1.823,0.438-2.36,1.118
			c-0.57,0.703-0.742,1.615-0.742,2.492c0,2.26,1.317,6.008,4.217,6.008C118.977,51.298,119.887,50.887,120.42,50.353z"/>
		<path fill="#FFFFFF" d="M100.919,56.286c-5.364,0-8.234-4.178-8.234-7.959c0-4.418,3.608-8.199,8.74-8.199
			c4.961,0,8.068,3.884,8.068,7.962C109.494,52.071,106.422,56.286,100.919,56.286z M105.139,53.557
			c0.816-1.08,1.014-2.428,1.014-3.741c0-2.973-1.416-8.641-5.601-8.641c-1.113,0-2.234,0.436-3.042,1.146
			c-1.318,1.181-1.553,2.664-1.553,4.119c0,3.334,1.647,8.834,5.737,8.834C103.015,55.274,104.362,54.635,105.139,53.557z"/>
		<path fill="#FFFFFF" d="M82.96,56.286c-5.365,0-8.23-4.178-8.23-7.959c0-4.418,3.609-8.199,8.739-8.199
			c4.958,0,8.062,3.884,8.062,7.962C91.531,52.071,88.464,56.286,82.96,56.286z M87.181,53.557c0.81-1.08,1.012-2.428,1.012-3.741
			c0-2.973-1.42-8.641-5.601-8.641c-1.117,0-2.226,0.436-3.036,1.146c-1.32,1.181-1.554,2.664-1.554,4.119
			c0,3.334,1.654,8.834,5.737,8.834C85.057,55.274,86.402,54.635,87.181,53.557z"/>
		<path fill="#FFFFFF" d="M72.585,55.116l-4.524,1.035c-1.833,0.289-3.479,0.543-5.222,0.543c-8.727,0-12.051-6.424-12.051-11.449
			c0-6.141,4.711-11.832,12.778-11.832c1.707,0,3.35,0.251,4.846,0.658c2.371,0.667,3.479,1.487,4.173,1.969l-2.628,2.496
			l-1.108,0.248l0.79-1.26c-1.07-1.045-3.037-2.974-6.77-2.974c-4.991,0-8.757,3.794-8.757,9.333c0,5.949,4.3,11.545,11.194,11.545
			c2.026,0,3.069-0.406,4.016-0.787v-5.1l-4.776,0.257l2.532-1.36h6.703l-0.819,0.789c-0.222,0.188-0.251,0.252-0.313,0.504
			c-0.033,0.288-0.063,1.204-0.063,1.526L72.585,55.116L72.585,55.116z"/>
	</g>
	<g>
		<path fill="#FFFFFF" d="M157.379,53.729v8.597h-1.707V40.452h1.707v2.49c1.111-1.608,3.143-2.886,5.504-2.886
			c4.232,0,7.084,3.211,7.084,8.294c0,5.049-2.852,8.327-7.084,8.327C160.654,56.679,158.66,55.53,157.379,53.729z M168.133,48.352
			c0-3.831-1.998-6.753-5.539-6.753c-2.199,0-4.301,1.729-5.215,3.235v7.001c0.914,1.51,3.016,3.301,5.215,3.301
			C166.135,55.136,168.133,52.188,168.133,48.352z"/>
		<path fill="#FFFFFF" d="M172.297,56.284V34.414h1.707v21.871H172.297z"/>
		<path fill="#FFFFFF" d="M193.158,60.909c0.363,0.162,0.986,0.264,1.383,0.264c1.045,0,1.771-0.428,2.424-1.936l1.246-2.82
			l-6.725-15.965h1.902l5.77,13.834l5.713-13.834h1.93L198.6,59.766c-0.85,1.99-2.188,2.947-4.027,2.947
			c-0.553,0-1.279-0.099-1.707-0.229L193.158,60.909z"/>
		<path fill="#FFFFFF" d="M188.172,56.237c-0.115-0.549-0.201-1.031-0.264-1.437c-0.053-0.403-0.082-0.815-0.082-1.233
			c-0.586,0.858-1.414,1.573-2.475,2.137c-1.059,0.566-2.064,0.846-3.447,0.846c-1.662,0-2.953-0.409-3.875-1.239
			c-0.918-0.829-1.381-1.952-1.381-3.372s0.67-2.572,2.004-3.453c1.334-0.885,3.059-1.324,5.191-1.324h3.982v-1.967
			c0-1.134-0.389-2.023-1.158-2.67c-0.773-0.646-1.859-0.975-3.268-0.975c-1.287,0-2.332,0.299-3.127,0.881
			c-0.787,0.594-1.186,1.33-1.186,2.217h-1.746l-0.037-0.084c-0.062-1.195,0.484-2.246,1.648-3.15
			c1.156-0.905,2.674-1.36,4.541-1.36c1.859,0,3.367,0.448,4.502,1.342c1.135,0.886,1.703,2.164,1.703,3.837v7.811
			c0,0.561,0.025,1.103,0.098,1.631c0.072,0.529,0.188,1.057,0.34,1.566h-1.965V56.237z M182.115,54.993
			c1.449,0,2.49-0.323,3.557-0.965c1.059-0.638,1.777-1.469,2.156-2.475v-3.04h-4c-1.529,0-2.793,0.338-3.789,1.021
			c-0.996,0.681-1.502,1.504-1.502,2.461c0,0.902,0.318,1.625,0.957,2.172C180.131,54.72,181.002,54.993,182.115,54.993z"/>
	</g>
</g>
<g>
	<polygon fill="none" points="28.498,47.46 33.974,41.983 33.972,41.983 28.498,47.46 11.021,29.985 11.02,29.985 28.498,47.463 
		10.993,64.969 10.993,64.969 28.498,47.463 33.998,52.963 34.001,52.963 	"/>
	
		<linearGradient id="SVGID_1_" gradientUnits="userSpaceOnUse" x1="879.4287" y1="495.5273" x2="856.3516" y2="509.9699" gradientTransform="matrix(0.7071 0.7071 0.7071 -0.7071 -947.4174 -225.4017)">
		<stop  offset="0" style="stop-color:#D6FFA1"/>
		<stop  offset="0.3264" style="stop-color:#93E2A7"/>
		<stop  offset="1" style="stop-color:#00A3B5"/>
	</linearGradient>
	<path fill="url(#SVGID_1_)" d="M33.972,41.983L12.636,30.252c-0.604-0.331-1.163-0.408-1.615-0.268L28.499,47.46L33.972,41.983z"/>
	
		<linearGradient id="SVGID_2_" gradientUnits="userSpaceOnUse" x1="866.0098" y1="507.8652" x2="895.9336" y2="500.0426" gradientTransform="matrix(0.7071 0.7071 0.7071 -0.7071 -947.4174 -225.4017)">
		<stop  offset="0" style="stop-color:#FF177B"/>
		<stop  offset="0.6721" style="stop-color:#FFA976"/>
		<stop  offset="1" style="stop-color:#FFEC73"/>
	</linearGradient>
	<path fill="url(#SVGID_2_)" d="M34.001,52.963l7.283-4.005c1.477-0.815,1.477-2.143,0-2.954l-7.311-4.021l-5.476,5.477
		L34.001,52.963z"/>
	
		<linearGradient id="SVGID_3_" gradientUnits="userSpaceOnUse" x1="882.7129" y1="484.5742" x2="850.2684" y2="503.6626" gradientTransform="matrix(0.7071 0.7071 0.7071 -0.7071 -947.4174 -225.4017)">
		<stop  offset="0" style="stop-color:#63FFD4"/>
		<stop  offset="0.4854" style="stop-color:#32A0BA"/>
		<stop  offset="0.8349" style="stop-color:#1262A9"/>
		<stop  offset="1" style="stop-color:#064AA2"/>
	</linearGradient>
	<path fill="url(#SVGID_3_)" d="M11.02,29.985c-0.649,0.203-1.069,0.86-1.069,1.854l0.004,31.283c0,0.982,0.407,1.631,1.038,1.847
		l17.506-17.506L11.02,29.985z"/>
	
		<linearGradient id="SVGID_4_" gradientUnits="userSpaceOnUse" x1="894.4922" y1="499.7285" x2="874.5154" y2="473.4102" gradientTransform="matrix(0.7071 0.7071 0.7071 -0.7071 -947.4174 -225.4017)">
		<stop  offset="0" style="stop-color:#FF4521"/>
		<stop  offset="0.3411" style="stop-color:#D43E65"/>
		<stop  offset="0.7935" style="stop-color:#9F36B9"/>
		<stop  offset="1" style="stop-color:#8A33DB"/>
	</linearGradient>
	<path fill="url(#SVGID_4_)" d="M10.993,64.969c0.454,0.153,1.024,0.082,1.643-0.258l21.363-11.748l-5.5-5.5L10.993,64.969z"/>
</g>
<g display="none">
	<g display="inline">
		<path fill="#FFFFFF" d="M57.024,23.755c0-3.361,2.497-5.522,5.603-5.522c2.081,0,3.441,0.992,4.29,2.209l-1.521,0.881
			c-0.576-0.801-1.585-1.425-2.77-1.425c-2.112,0-3.682,1.601-3.682,3.857c0,2.225,1.569,3.857,3.682,3.857
			c1.089,0,2.049-0.496,2.529-0.96v-1.649h-3.201v-1.648h5.058v3.985c-1.04,1.169-2.545,1.953-4.386,1.953
			C59.521,29.293,57.024,27.101,57.024,23.755z"/>
		<path fill="#FFFFFF" d="M69.329,29.085V18.408h7.314v1.649h-5.442v2.753h5.331v1.648h-5.331v2.978h5.442v1.648L69.329,29.085
			L69.329,29.085z"/>
		<path fill="#FFFFFF" d="M81.826,29.085v-9.027h-3.233v-1.649h8.339v1.649H83.7v9.027H81.826z"/>
		<path fill="#FFFFFF" d="M93.441,29.085V18.408h1.872v10.677H93.441z"/>
		<path fill="#FFFFFF" d="M100.529,29.085v-9.027h-3.233v-1.649h8.339v1.649h-3.232v9.027H100.529z"/>
		<path fill="#FFFFFF" d="M111.68,23.755c0-3.186,2.257-5.522,5.458-5.522c3.186,0,5.459,2.337,5.459,5.522
			s-2.273,5.522-5.459,5.522C113.937,29.277,111.68,26.94,111.68,23.755z M120.676,23.755c0-2.209-1.393-3.857-3.537-3.857
			c-2.161,0-3.538,1.648-3.538,3.857c0,2.192,1.377,3.857,3.538,3.857C119.283,27.612,120.676,25.947,120.676,23.755z"/>
		<path fill="#FFFFFF" d="M132.227,29.085l-5.569-7.635v7.635h-1.872V18.408h1.921l5.458,7.396v-7.396h1.873v10.677H132.227z"/>
	</g>
</g>
<g>
	<path fill="#F1F1F1" d="M172.082,9.366c0.719,0.227,1.188,0.704,1.916,0.922c-0.229,0.662-0.633,1.153-0.918,1.761
		c-0.707-0.263-1.266-0.679-1.918-0.995C171.467,10.488,171.811,9.962,172.082,9.366z"/>
	<path fill="#F1F1F1" d="M158.742,10.593c0.668,0.306,1.266,0.679,1.918,0.998c-0.242,0.6-0.617,1.07-0.844,1.687
		c-0.68-0.292-1.285-0.657-1.92-0.998C158.152,11.692,158.477,11.174,158.742,10.593z"/>
	<path fill="#F1F1F1" d="M156.057,11.667c0.689,0.256,1.27,0.623,1.916,0.918c-0.115,0.703-0.59,1.046-0.766,1.691
		c-0.75-0.172-1.209-0.631-1.916-0.845C155.434,12.734,155.869,12.324,156.057,11.667z"/>
	<path fill="#F1F1F1" d="M187.025,24.62c0.668,0.306,1.266,0.679,1.918,0.998c-0.242,0.6-0.615,1.069-0.844,1.687
		c-0.68-0.292-1.287-0.657-1.918-0.998C186.436,25.719,186.762,25.2,187.025,24.62z"/>
	<path fill="#F1F1F1" d="M184.34,25.694c0.691,0.256,1.27,0.623,1.918,0.919c-0.117,0.703-0.59,1.046-0.768,1.691
		c-0.75-0.172-1.209-0.631-1.916-0.845C183.719,26.761,184.152,26.351,184.34,25.694z"/>
	<path fill="#F1F1F1" d="M202.826,12.971c3.145,1.258,3.719,5.081,3.529,9.667c-1.896-0.045-3.982,0.098-5.754-0.076
		c-0.053,0.325-0.117,0.803-0.229,1.15c-0.633,1.996-3.23,4.3-5.293,4.45c-1.945,0.144-3.67-0.858-5.217-1.534
		c0.396-0.682,1.594,0.003,2.531,0.077c3.736,0.288,5.984-2.325,7.211-4.68c-0.314-0.633-0.012-1.285-0.076-1.841
		c-0.133-1.14-1.107-1.766-1.535-2.609c0.238-0.529,0.432-1.103,0.613-1.688c1.311,0.889,2.053,2.347,1.994,4.604
		c1.535,0.177,3.4,0.026,5.064,0.077c-0.043-2.747-0.861-4.713-2.99-5.372C202.715,14.446,202.826,13.763,202.826,12.971z"/>
	<path fill="#F1F1F1" d="M141.602,7.625c0.062-0.014,0.07,0.029,0.076,0.078c0.141,1.716,0.475,3.622,0.689,5.599
		c0.35,3.163,0.904,7.041-0.768,8.669c-0.078-2.826-0.357-6.203-0.689-9.207c-0.115-1.026-0.471-2.138-0.383-2.916
		C140.625,8.981,141.451,8.351,141.602,7.625z"/>
	<path fill="#F1F1F1" d="M135.381,10.005c0.729,0.217,1.199,0.691,1.918,0.918c-0.189,0.678-0.645,1.094-0.842,1.764
		c-0.668-0.301-1.256-0.686-1.92-0.995C134.82,11.129,135.1,10.567,135.381,10.005z"/>
	<path fill="#F1F1F1" d="M137.07,14.99c0.125-0.022,0.133,0.071,0.229,0.078c1.842,1.621,2.359,5.153,1.535,7.749
		c-0.586,1.848-3.23,4.297-5.295,4.448c-1.383,0.102-3.021-0.577-4.143-1c-0.375-0.139-0.846-0.204-0.998-0.535
		c0.088-0.625,0.791-0.209,1.074-0.154c2.656,0.514,4.764-0.059,6.445-1.535c0.98-0.86,1.998-2.011,2.225-3.145
		c0.342-1.706-0.869-3.054-1.688-4.218C136.693,16.147,136.887,15.574,137.07,14.99z"/>
	<g>
		<path fill="none" d="M186.354,18.154c0.396,0.423,1.037,0.601,1.688,0.766l-1.414-2.066
			C186.268,17.101,186.16,17.671,186.354,18.154z"/>
		<path fill="none" d="M179.668,21.89c0,0-0.078-0.033-0.191-0.083c-0.113-0.033-0.229-0.066-0.342-0.103
			C179.309,21.771,179.475,21.854,179.668,21.89z"/>
		<path fill="#F1F1F1" d="M176.822,19.619c0.037,0.309,0.111,0.582,0.281,0.76c-0.033-0.005-0.074-0.006-0.111-0.01
			c0.326,0.246,0.67,0.479,1.01,0.679C177.492,20.609,177.104,20.081,176.822,19.619z"/>
		<path fill="#F1F1F1" d="M179.477,21.806c-0.279-0.125-0.85-0.391-1.475-0.758c0.324,0.28,0.713,0.494,1.133,0.656
			C179.248,21.74,179.363,21.773,179.477,21.806z"/>
		<path fill="#F1F1F1" d="M187.887,14.626c-0.127-0.05-0.248-0.042-0.373-0.062l-0.887,2.289l0,0c0.18-0.124,0.42-0.173,0.725-0.078
			c0.584,0.178,0.697,1.472,0.688,2.145l0.021,1.498c0,0-0.734,0.061-1.627-0.084c0.18,0.074,0.443-0.038,0.609,0.045
			c-4.975-0.331-5.678,0.195-8.58-0.43c-0.051-1.203-0.172-3.112-0.518-4.02c0,0,0.023-1.798-0.383-0.536
			c-0.123-0.167-0.439-0.856-0.541-0.537c-0.342,0.523,0.027,0.933-0.238,1.534c0.9,0.333-0.096,2.156,0.037,3.229
			c0.281,0.462,0.078,1.832,0.59,2.271c0.625,0.367,1.977,0.198,2.256,0.323c4.188,0.539,4.504-0.02,9.602,0.236
			C189.123,19.764,189.762,15.353,187.887,14.626z"/>
	</g>
	<g>
		<path fill="#F1F1F1" d="M177.412,6.49c-0.152,0.726-1.602,1.355-1.699,2.225c-0.066,0.579,0.213,1.456,0.305,2.303
			c0.375,3.299,0.727,5.497,0.805,8.602c0.314-0.457,0.4,0.63,0.584,0.246l0.943-1.681C178.002,14.153,177.9,10.22,177.412,6.49z"/>
	</g>
	<g>
		<path fill="#F1F1F1" d="M164.648,14.508l0.061-0.075C164.686,14.44,164.662,14.459,164.648,14.508z"/>
		<path fill="#F1F1F1" d="M174.039,14.277c-2.01-0.782-3.537,2.341-3.221,3.989c0.199,1.046,1.438,1.3,2.379,1.765
			c-4.977-0.331-3.551,0.304-6.766-0.411c-0.045-1.077-0.424-2.729-0.75-3.715l-1.035-1.396c-0.342,0.523-0.574,1.161-0.842,1.762
			c1.16,0.429,0.164,2.964,0.922,3.76c-4.182-0.565-13.336,1.571-13.963-2.301c-0.146-0.9,0.131-1.563,0.381-2.148
			c0.117-0.263,0.67-0.736,0.232-0.922c-0.477,0.043-0.715,0.766-0.924,1.227c-0.24,0.541-0.479,1.181-0.537,1.765
			c-0.705,6.914,10.375,3.705,16.188,4.45h9.316C175.277,19.415,175.914,15.004,174.039,14.277z M172.506,17.804
			c-0.289-0.725,0.084-1.664,0.998-1.378c0.584,0.178,0.697,1.472,0.688,2.145C173.543,18.406,172.902,18.227,172.506,17.804z"/>
	</g>
</g>
</svg>
