<?xml version="1.0" encoding="utf-8"?>
<!-- Generator: Adobe Illustrator 15.1.0, SVG Export Plug-In . SVG Version: 6.00 Build 0)  -->
<!DOCTYPE svg PUBLIC "-//W3C//DTD SVG 1.1//EN" "http://www.w3.org/Graphics/SVG/1.1/DTD/svg11.dtd">
<svg version="1.1" id="SemiBold" xmlns="http://www.w3.org/2000/svg" xmlns:xlink="http://www.w3.org/1999/xlink" x="0px" y="0px"
	 width="229.5px" height="91.5px" viewBox="0 0 229.5 91.5" enable-background="new 0 0 229.5 91.5" xml:space="preserve">
<path stroke="#FFFFFF" stroke-width="1.5" stroke-miterlimit="10" d="M221.985,71.05c0,6.53-4.797,10.59-11.322,10.59H18.849
	c-6.528,0-11.821-5.297-11.821-11.827V19.856c0-6.529,5.293-11.824,11.821-11.824h191.814c6.525,0,11.322,5.295,11.322,11.824V71.05
	z"/>
<g>
	<g>
		<path fill="#FFFFFF" d="M153.929,50.867l-1.614,1.522c-0.372,0.205-0.743,0.443-1.113,0.612c-1.121,0.509-2.261,0.637-3.274,0.637
			c-1.078,0-2.768-0.069-4.491-1.316c-2.396-1.688-3.442-4.587-3.442-7.114c0-5.232,4.259-7.798,7.732-7.798
			c1.215,0,2.462,0.304,3.476,0.945c1.686,1.114,2.122,2.563,2.364,3.34l-7.934,3.205l-2.598,0.202
			c0.841,4.289,3.743,6.784,6.95,6.784c1.602,0,2.791-0.522,3.882-1.062C153.866,50.825,154.085,50.711,153.929,50.867z
			 M149.143,42.334c0.645-0.234,0.979-0.437,0.979-0.906c0-1.348-1.525-2.904-3.345-2.904c-1.349,0-3.879,1.05-3.879,4.695
			c0,0.569,0.067,1.175,0.102,1.781L149.143,42.334z"/>
		<path fill="#FFFFFF" d="M137.342,50.605c0,1.312,0.234,1.516,1.343,1.618c0.578,0.068,1.154,0.099,1.725,0.166l-1.248,0.743
			h-5.947c0.78-1.012,0.914-1.112,0.914-1.787v-0.753l-0.013-20.063h-2.626l2.527-1.218h4.826c-1.046,0.605-1.358,0.975-1.493,2.155
			L137.342,50.605z"/>
		<path fill="#FFFFFF" d="M128.119,39.066c0.774,0.637,2.392,1.988,2.392,4.553c0,2.499-1.409,3.677-2.83,4.792
			c-0.436,0.438-0.945,0.915-0.945,1.651c0,0.746,0.51,1.151,0.877,1.453l1.219,0.941c1.482,1.251,2.833,2.398,2.833,4.728
			c0,3.175-3.072,6.375-8.877,6.375c-4.89,0-7.254-2.328-7.254-4.825c0-1.216,0.604-2.937,2.601-4.115
			c2.092-1.279,4.927-1.45,6.444-1.55c-0.474-0.612-1.015-1.253-1.015-2.299c0-0.572,0.172-0.913,0.338-1.315
			c-0.369,0.035-0.741,0.071-1.079,0.071c-3.579,0-5.603-2.67-5.603-5.302c0-1.552,0.708-3.273,2.162-4.521
			c1.924-1.584,4.218-1.857,6.041-1.857h6.954l-2.162,1.221H128.119z M125.728,54.047c-0.276-0.036-0.442-0.036-0.776-0.036
			c-0.306,0-2.129,0.066-3.541,0.54c-0.747,0.273-2.906,1.08-2.906,3.478c0,2.392,2.331,4.116,5.938,4.116
			c3.239,0,4.96-1.553,4.96-3.644C129.401,56.78,128.288,55.872,125.728,54.047z M126.698,47.635
			c0.78-0.778,0.848-1.854,0.848-2.466c0-2.427-1.447-6.207-4.252-6.207c-0.875,0-1.823,0.439-2.361,1.118
			c-0.57,0.703-0.741,1.615-0.741,2.492c0,2.26,1.317,6.008,4.217,6.008C125.254,48.58,126.164,48.169,126.698,47.635z"/>
		<path fill="#FFFFFF" d="M107.197,53.569c-5.364,0-8.234-4.178-8.234-7.959c0-4.419,3.608-8.2,8.74-8.2
			c4.961,0,8.068,3.884,8.068,7.962C115.771,49.354,112.7,53.569,107.197,53.569z M111.417,50.839
			c0.816-1.08,1.014-2.428,1.014-3.742c0-2.972-1.416-8.64-5.601-8.64c-1.113,0-2.234,0.435-3.042,1.146
			c-1.318,1.181-1.553,2.664-1.553,4.12c0,3.334,1.647,8.833,5.737,8.833C109.293,52.556,110.64,51.917,111.417,50.839z"/>
		<path fill="#FFFFFF" d="M89.238,53.569c-5.365,0-8.23-4.178-8.23-7.959c0-4.419,3.609-8.2,8.739-8.2
			c4.958,0,8.062,3.884,8.062,7.962C97.809,49.354,94.742,53.569,89.238,53.569z M93.459,50.839c0.81-1.08,1.012-2.428,1.012-3.742
			c0-2.972-1.42-8.64-5.601-8.64c-1.117,0-2.226,0.435-3.036,1.146c-1.32,1.181-1.554,2.664-1.554,4.12
			c0,3.334,1.654,8.833,5.737,8.833C91.335,52.556,92.68,51.917,93.459,50.839z"/>
		<path fill="#FFFFFF" d="M78.863,52.398l-4.524,1.035c-1.833,0.289-3.479,0.544-5.222,0.544c-8.727,0-12.051-6.424-12.051-11.45
			c0-6.14,4.711-11.831,12.778-11.831c1.707,0,3.35,0.251,4.846,0.658c2.371,0.667,3.479,1.487,4.173,1.969l-2.628,2.496
			l-1.108,0.248l0.79-1.26c-1.07-1.045-3.037-2.974-6.77-2.974c-4.991,0-8.757,3.794-8.757,9.333c0,5.949,4.3,11.545,11.194,11.545
			c2.026,0,3.069-0.407,4.016-0.787v-5.1l-4.776,0.257l2.532-1.36h6.703l-0.819,0.789c-0.222,0.188-0.251,0.252-0.313,0.504
			c-0.033,0.288-0.063,1.204-0.063,1.526V52.398z"/>
	</g>
	<g>
		<path fill="#FFFFFF" d="M163.656,51.011v8.596h-1.707V37.735h1.707v2.49c1.111-1.609,3.144-2.886,5.504-2.886
			c4.232,0,7.084,3.211,7.084,8.294c0,5.049-2.852,8.327-7.084,8.327C166.932,53.961,164.937,52.812,163.656,51.011z M174.41,45.634
			c0-3.831-1.997-6.753-5.538-6.753c-2.199,0-4.302,1.729-5.216,3.235v7.001c0.914,1.51,3.017,3.301,5.216,3.301
			C172.413,52.418,174.41,49.471,174.41,45.634z"/>
		<path fill="#FFFFFF" d="M178.575,53.567V31.696h1.706v21.871H178.575z"/>
		<path fill="#FFFFFF" d="M199.436,58.192c0.364,0.162,0.987,0.263,1.383,0.263c1.044,0,1.771-0.427,2.424-1.936l1.245-2.82
			l-6.725-15.964h1.904l5.769,13.834l5.712-13.834h1.931l-8.201,19.313c-0.851,1.99-2.189,2.947-4.029,2.947
			c-0.552,0-1.279-0.099-1.706-0.229L199.436,58.192z"/>
		<path fill="#FFFFFF" d="M194.449,53.52c-0.114-0.549-0.2-1.032-0.263-1.437c-0.053-0.403-0.082-0.815-0.082-1.234
			c-0.586,0.859-1.415,1.574-2.474,2.138c-1.06,0.566-2.066,0.845-3.448,0.845c-1.663,0-2.953-0.409-3.875-1.239
			c-0.918-0.829-1.38-1.952-1.38-3.373c0-1.419,0.669-2.571,2.003-3.452c1.334-0.885,3.059-1.324,5.192-1.324h3.981v-1.968
			c0-1.133-0.387-2.023-1.157-2.67c-0.774-0.646-1.86-0.974-3.269-0.974c-1.287,0-2.331,0.299-3.126,0.881
			c-0.788,0.594-1.185,1.33-1.185,2.217h-1.747l-0.036-0.085c-0.063-1.195,0.484-2.245,1.647-3.15
			c1.157-0.905,2.675-1.36,4.542-1.36c1.86,0,3.366,0.448,4.502,1.342c1.134,0.885,1.703,2.164,1.703,3.836v7.811
			c0,0.561,0.026,1.103,0.097,1.631c0.072,0.529,0.187,1.057,0.34,1.567H194.449z M188.392,52.276c1.45,0,2.492-0.324,3.558-0.965
			c1.058-0.638,1.777-1.469,2.155-2.475v-3.04h-4c-1.528,0-2.793,0.338-3.788,1.021c-0.997,0.68-1.503,1.503-1.503,2.46
			c0,0.902,0.32,1.625,0.957,2.172C186.408,52.002,187.28,52.276,188.392,52.276z"/>
	</g>
</g>
<g>
	<polygon fill="none" points="34.776,44.742 40.252,39.266 40.25,39.266 34.776,44.742 17.299,27.267 17.298,27.267 34.776,44.745 
		17.271,62.251 17.271,62.251 34.776,44.745 40.276,50.245 40.279,50.245 	"/>
	
		<linearGradient id="SVGID_1_" gradientUnits="userSpaceOnUse" x1="512.501" y1="-440.0693" x2="489.4249" y2="-454.5113" gradientTransform="matrix(0.7071 0.7071 -0.7071 0.7071 -642.4706 -7.8795)">
		<stop  offset="0" style="stop-color:#D6FFA1"/>
		<stop  offset="0.3264" style="stop-color:#93E2A7"/>
		<stop  offset="1" style="stop-color:#00A3B5"/>
	</linearGradient>
	<path fill="url(#SVGID_1_)" d="M40.25,39.266L18.914,27.534c-0.604-0.331-1.163-0.408-1.615-0.268l17.478,17.476L40.25,39.266z"/>
	
		<linearGradient id="SVGID_2_" gradientUnits="userSpaceOnUse" x1="499.084" y1="-452.4067" x2="529.0049" y2="-444.5851" gradientTransform="matrix(0.7071 0.7071 -0.7071 0.7071 -642.4706 -7.8795)">
		<stop  offset="0" style="stop-color:#FF177B"/>
		<stop  offset="0.6721" style="stop-color:#FFA976"/>
		<stop  offset="1" style="stop-color:#FFEC73"/>
	</linearGradient>
	<path fill="url(#SVGID_2_)" d="M40.279,50.245l7.283-4.005c1.477-0.815,1.477-2.142,0-2.954l-7.311-4.02l-5.476,5.476
		L40.279,50.245z"/>
	
		<linearGradient id="SVGID_3_" gradientUnits="userSpaceOnUse" x1="515.7861" y1="-429.1147" x2="483.3426" y2="-448.2025" gradientTransform="matrix(0.7071 0.7071 -0.7071 0.7071 -642.4706 -7.8795)">
		<stop  offset="0" style="stop-color:#63FFD4"/>
		<stop  offset="0.4854" style="stop-color:#32A0BA"/>
		<stop  offset="0.8349" style="stop-color:#1262A9"/>
		<stop  offset="1" style="stop-color:#064AA2"/>
	</linearGradient>
	<path fill="url(#SVGID_3_)" d="M17.298,27.267c-0.649,0.203-1.069,0.86-1.069,1.854l0.004,31.284c0,0.982,0.407,1.63,1.038,1.846
		l17.506-17.506L17.298,27.267z"/>
	
		<linearGradient id="SVGID_4_" gradientUnits="userSpaceOnUse" x1="527.5664" y1="-444.27" x2="507.5897" y2="-417.9517" gradientTransform="matrix(0.7071 0.7071 -0.7071 0.7071 -642.4706 -7.8795)">
		<stop  offset="0" style="stop-color:#FF4521"/>
		<stop  offset="0.3411" style="stop-color:#D43E65"/>
		<stop  offset="0.7935" style="stop-color:#9F36B9"/>
		<stop  offset="1" style="stop-color:#8A33DB"/>
	</linearGradient>
	<path fill="url(#SVGID_4_)" d="M17.271,62.251c0.454,0.154,1.024,0.082,1.643-0.258l21.363-11.748l-5.5-5.5L17.271,62.251z"/>
</g>
<g>
	<path fill="#FFFFFF" d="M56.517,73.492V71.93h4.016v1.562H56.517z"/>
	<path fill="#FFFFFF" d="M70.173,69.031c0,1.193-0.391,2.107-1.172,2.742c-0.781,0.637-1.894,0.953-3.336,0.953h-1.188V77h-1.867
		V65.578H65.9c1.427,0,2.496,0.293,3.207,0.875C69.818,67.037,70.173,67.896,70.173,69.031z M64.478,71.156h0.992
		c0.958,0,1.661-0.166,2.109-0.5c0.448-0.332,0.672-0.854,0.672-1.562c0-0.656-0.201-1.145-0.602-1.469
		c-0.401-0.322-1.026-0.484-1.875-0.484h-1.297V71.156z"/>
	<path fill="#FFFFFF" d="M79.54,77l-1.14-3.172h-4.367L72.916,77h-1.969l4.273-11.469h2.031L81.524,77H79.54z M77.908,72.219
		l-1.07-3.109c-0.078-0.207-0.187-0.535-0.324-0.984c-0.138-0.447-0.233-0.775-0.285-0.984c-0.141,0.641-0.347,1.342-0.617,2.102
		l-1.031,2.977H77.908z"/>
	<path fill="#FFFFFF" d="M83.032,77V65.578h1.867v9.82h4.836V77H83.032z"/>
	<path fill="#FFFFFF" d="M98.212,65.578h1.938l-4,11.422h-1.969l-3.984-11.422h1.922l2.383,7.102
		c0.125,0.34,0.258,0.775,0.398,1.309c0.141,0.535,0.231,0.932,0.273,1.191c0.067-0.395,0.172-0.854,0.312-1.375
		c0.141-0.52,0.255-0.906,0.344-1.156L98.212,65.578z"/>
	<path fill="#FFFFFF" d="M108.118,77h-6.461V65.578h6.461v1.578h-4.594v3.109h4.305v1.562h-4.305v3.586h4.594V77z"/>
	<path fill="#FFFFFF" d="M110.587,77V65.578h1.867v9.82h4.836V77H110.587z"/>
	<path fill="#FFFFFF" d="M128.212,65.578v7.391c0,0.844-0.181,1.582-0.543,2.215s-0.886,1.121-1.57,1.461
		c-0.685,0.342-1.504,0.512-2.457,0.512c-1.417,0-2.519-0.375-3.305-1.125s-1.18-1.781-1.18-3.094v-7.359h1.875v7.227
		c0,0.943,0.219,1.639,0.656,2.086c0.438,0.449,1.109,0.672,2.016,0.672c1.761,0,2.641-0.924,2.641-2.773v-7.211H128.212z"/>
	<path fill="#FFFFFF" d="M137.72,73.898c0,1.016-0.367,1.812-1.102,2.391s-1.747,0.867-3.039,0.867s-2.349-0.199-3.172-0.602v-1.766
		c0.521,0.246,1.074,0.438,1.66,0.578s1.132,0.211,1.637,0.211c0.739,0,1.285-0.141,1.637-0.422s0.527-0.658,0.527-1.133
		c0-0.426-0.161-0.789-0.484-1.086s-0.989-0.648-2-1.055c-1.042-0.422-1.776-0.902-2.203-1.445
		c-0.427-0.541-0.641-1.191-0.641-1.953c0-0.953,0.339-1.703,1.016-2.25s1.586-0.82,2.727-0.82c1.094,0,2.183,0.24,3.266,0.719
		l-0.594,1.523c-1.016-0.426-1.922-0.641-2.719-0.641c-0.604,0-1.062,0.133-1.375,0.395c-0.312,0.264-0.469,0.611-0.469,1.043
		c0,0.297,0.062,0.551,0.188,0.762s0.331,0.41,0.617,0.598s0.802,0.436,1.547,0.742c0.839,0.35,1.453,0.676,1.844,0.977
		c0.391,0.303,0.677,0.645,0.859,1.023C137.629,72.936,137.72,73.383,137.72,73.898z"/>
	<path fill="#FFFFFF" d="M143.876,77h-1.867v-9.82h-3.359v-1.602h8.586v1.602h-3.359V77z"/>
	<path fill="#FFFFFF" d="M156.071,77l-1.141-3.172h-4.367L149.446,77h-1.969l4.273-11.469h2.031L158.056,77H156.071z
		 M154.438,72.219l-1.07-3.109c-0.078-0.207-0.187-0.535-0.324-0.984c-0.138-0.447-0.233-0.775-0.285-0.984
		c-0.141,0.641-0.347,1.342-0.617,2.102l-1.031,2.977H154.438z"/>
</g>
<g>
	<path fill="#FFFFFF" d="M65.385,24.085h-1.746v-4.794h-4.904v4.794h-1.738V13.448h1.738v4.351h4.904v-4.351h1.746V24.085z"/>
	<path fill="#FFFFFF" d="M74.293,24.085l-1.062-2.954h-4.066l-1.041,2.954h-1.833l3.979-10.68h1.892l3.979,10.68H74.293z
		 M72.773,19.632l-0.997-2.896c-0.072-0.194-0.173-0.5-0.302-0.917c-0.129-0.417-0.217-0.723-0.266-0.917
		c-0.131,0.597-0.322,1.249-0.574,1.957l-0.961,2.772H72.773z"/>
	<path fill="#FFFFFF" d="M85.915,24.085h-2.132l-5.23-8.476h-0.059l0.036,0.473c0.068,0.902,0.102,1.727,0.102,2.474v5.529h-1.578
		V13.448h2.109l5.217,8.432h0.044c-0.01-0.111-0.029-0.518-0.059-1.218c-0.029-0.701-0.044-1.248-0.044-1.641v-5.573h1.594V24.085z"
		/>
	<path fill="#FFFFFF" d="M96.351,24.085h-2.016l-3.339-4.816l-1.026,0.837v3.979h-1.738V13.448h1.738v5.078
		c0.476-0.582,0.948-1.142,1.419-1.681l2.874-3.397h1.979c-1.857,2.183-3.188,3.737-3.994,4.664L96.351,24.085z"/>
	<path fill="#FFFFFF" d="M97.263,24.085V13.448h1.738v10.637H97.263z"/>
</g>
</svg>
