<?xml version="1.0" encoding="utf-8"?>
<!-- Generator: Adobe Illustrator 15.1.0, SVG Export Plug-In . SVG Version: 6.00 Build 0)  -->
<!DOCTYPE svg PUBLIC "-//W3C//DTD SVG 1.1//EN" "http://www.w3.org/Graphics/SVG/1.1/DTD/svg11.dtd">
<svg version="1.1" id="SemiBold" xmlns="http://www.w3.org/2000/svg" xmlns:xlink="http://www.w3.org/1999/xlink" x="0px" y="0px"
	 width="216.457px" height="75.108px" viewBox="0 0 216.457 75.108" enable-background="new 0 0 216.457 75.108"
	 xml:space="preserve">
<g>
	<path d="M215.706,63.768c0,6.531-4.797,10.592-11.32,10.592H12.571c-6.528,0-11.821-5.299-11.821-11.828V12.574
		C0.75,6.045,6.043,0.75,12.571,0.75h191.814c6.523,0,11.32,5.295,11.32,11.824V63.768z"/>
	<path fill="#FFFFFF" d="M204.386,75.109H12.571C5.64,75.109,0,69.467,0,62.531V12.574C0,5.641,5.64,0,12.571,0h191.814
		c6.768,0,12.07,5.523,12.07,12.574v51.194C216.456,70.551,211.606,75.109,204.386,75.109z M12.571,1.5
		C6.467,1.5,1.5,6.468,1.5,12.574v49.958c0,6.107,4.967,11.078,11.071,11.078h191.814c6.322,0,10.57-3.955,10.57-9.842V12.574
		c0-6.209-4.643-11.074-10.57-11.074H12.571z"/>
</g>
<g>
	<g>
		<path fill="#FFFFFF" d="M147.651,43.586l-1.615,1.521c-0.371,0.205-0.742,0.443-1.111,0.611c-1.121,0.51-2.262,0.639-3.275,0.639
			c-1.078,0-2.768-0.07-4.49-1.316c-2.396-1.689-3.441-4.588-3.441-7.115c0-5.232,4.258-7.797,7.73-7.797
			c1.215,0,2.463,0.303,3.477,0.943c1.686,1.115,2.123,2.564,2.363,3.34l-7.934,3.205l-2.598,0.203
			c0.842,4.289,3.742,6.783,6.949,6.783c1.604,0,2.791-0.521,3.883-1.061C147.589,43.543,147.808,43.43,147.651,43.586z
			 M142.864,35.053c0.646-0.234,0.98-0.438,0.98-0.906c0-1.348-1.525-2.904-3.346-2.904c-1.35,0-3.879,1.051-3.879,4.695
			c0,0.568,0.066,1.174,0.102,1.781L142.864,35.053z"/>
		<path fill="#FFFFFF" d="M131.063,43.324c0,1.311,0.234,1.516,1.344,1.617c0.578,0.068,1.154,0.1,1.725,0.166l-1.248,0.742h-5.947
			c0.781-1.012,0.914-1.111,0.914-1.785v-0.754l-0.012-20.064h-2.627l2.527-1.218h4.826c-1.047,0.605-1.359,0.975-1.494,2.155
			L131.063,43.324z"/>
		<path fill="#FFFFFF" d="M121.841,31.783c0.773,0.639,2.393,1.988,2.393,4.555c0,2.498-1.41,3.676-2.83,4.791
			c-0.436,0.439-0.945,0.916-0.945,1.652c0,0.746,0.51,1.15,0.877,1.453l1.219,0.939c1.482,1.252,2.834,2.398,2.834,4.729
			c0,3.176-3.072,6.375-8.877,6.375c-4.891,0-7.254-2.328-7.254-4.824c0-1.217,0.604-2.938,2.6-4.115
			c2.092-1.279,4.928-1.451,6.445-1.551c-0.475-0.611-1.016-1.252-1.016-2.299c0-0.572,0.172-0.912,0.338-1.314
			c-0.369,0.035-0.74,0.07-1.08,0.07c-3.578,0-5.602-2.67-5.602-5.303c0-1.551,0.707-3.271,2.162-4.52
			c1.924-1.584,4.217-1.857,6.041-1.857h6.953l-2.162,1.221h-2.096V31.783z M119.45,46.766c-0.275-0.037-0.441-0.037-0.775-0.037
			c-0.307,0-2.129,0.066-3.541,0.541c-0.748,0.273-2.906,1.08-2.906,3.479c0,2.391,2.33,4.115,5.938,4.115
			c3.238,0,4.959-1.553,4.959-3.645C123.122,49.498,122.011,48.59,119.45,46.766z M120.421,40.354
			c0.779-0.777,0.848-1.854,0.848-2.467c0-2.426-1.447-6.207-4.252-6.207c-0.875,0-1.824,0.439-2.361,1.119
			c-0.57,0.703-0.742,1.613-0.742,2.49c0,2.262,1.318,6.01,4.219,6.01C118.976,41.299,119.886,40.887,120.421,40.354z"/>
		<path fill="#FFFFFF" d="M100.919,46.287c-5.364,0-8.233-4.178-8.233-7.959c0-4.42,3.607-8.199,8.74-8.199
			c4.96,0,8.067,3.883,8.067,7.961C109.493,42.072,106.423,46.287,100.919,46.287z M105.14,43.557
			c0.815-1.08,1.014-2.428,1.014-3.74c0-2.973-1.416-8.641-5.601-8.641c-1.113,0-2.234,0.434-3.043,1.145
			c-1.317,1.182-1.553,2.664-1.553,4.121c0,3.334,1.646,8.834,5.737,8.834C103.015,45.275,104.362,44.635,105.14,43.557z"/>
		<path fill="#FFFFFF" d="M82.96,46.287c-5.365,0-8.23-4.178-8.23-7.959c0-4.42,3.609-8.199,8.739-8.199
			c4.958,0,8.062,3.883,8.062,7.961C91.531,42.072,88.465,46.287,82.96,46.287z M87.181,43.557c0.81-1.08,1.012-2.428,1.012-3.74
			c0-2.973-1.42-8.641-5.601-8.641c-1.117,0-2.226,0.434-3.036,1.145c-1.32,1.182-1.554,2.664-1.554,4.121
			c0,3.334,1.654,8.834,5.737,8.834C85.057,45.275,86.402,44.635,87.181,43.557z"/>
		<path fill="#FFFFFF" d="M72.585,45.117l-4.524,1.035c-1.833,0.289-3.479,0.543-5.222,0.543c-8.727,0-12.051-6.424-12.051-11.451
			c0-6.139,4.711-11.831,12.778-11.831c1.707,0,3.35,0.251,4.846,0.658c2.371,0.667,3.479,1.487,4.173,1.969l-2.628,2.496
			l-1.108,0.248l0.79-1.26c-1.07-1.045-3.037-2.974-6.77-2.974c-4.991,0-8.757,3.794-8.757,9.334c0,5.949,4.3,11.545,11.194,11.545
			c2.026,0,3.069-0.406,4.016-0.787v-5.1l-4.776,0.256l2.532-1.359h6.703l-0.819,0.789c-0.222,0.188-0.251,0.252-0.313,0.504
			c-0.033,0.287-0.063,1.203-0.063,1.525L72.585,45.117L72.585,45.117z"/>
	</g>
	<g>
		<path fill="#FFFFFF" d="M157.378,43.729v8.598h-1.707V30.453h1.707v2.49c1.111-1.609,3.145-2.887,5.504-2.887
			c4.232,0,7.084,3.211,7.084,8.295c0,5.049-2.852,8.326-7.084,8.326C160.653,46.68,158.659,45.531,157.378,43.729z M168.132,38.352
			c0-3.83-1.996-6.752-5.537-6.752c-2.199,0-4.303,1.729-5.217,3.234v7.002c0.914,1.51,3.018,3.301,5.217,3.301
			C166.136,45.137,168.132,42.189,168.132,38.352z"/>
		<path fill="#FFFFFF" d="M172.298,46.285V24.414h1.705v21.872H172.298z"/>
		<path fill="#FFFFFF" d="M193.157,50.91c0.365,0.162,0.988,0.264,1.383,0.264c1.045,0,1.771-0.428,2.426-1.936l1.244-2.82
			l-6.725-15.965h1.904l5.768,13.834l5.713-13.834h1.932l-8.201,19.312c-0.852,1.99-2.189,2.947-4.029,2.947
			c-0.553,0-1.279-0.098-1.707-0.229L193.157,50.91z"/>
		<path fill="#FFFFFF" d="M188.171,46.238c-0.113-0.549-0.199-1.031-0.264-1.438c-0.053-0.402-0.082-0.814-0.082-1.232
			c-0.586,0.857-1.414,1.572-2.473,2.137c-1.061,0.566-2.066,0.846-3.449,0.846c-1.662,0-2.953-0.41-3.875-1.24
			c-0.918-0.828-1.379-1.951-1.379-3.371s0.668-2.572,2.002-3.453c1.334-0.885,3.061-1.324,5.193-1.324h3.98v-1.969
			c0-1.133-0.387-2.021-1.158-2.67c-0.773-0.645-1.859-0.973-3.268-0.973c-1.287,0-2.332,0.299-3.127,0.881
			c-0.787,0.594-1.184,1.33-1.184,2.217h-1.748l-0.035-0.086c-0.064-1.195,0.482-2.244,1.646-3.15
			c1.156-0.904,2.676-1.359,4.541-1.359c1.861,0,3.367,0.449,4.502,1.342c1.135,0.885,1.703,2.164,1.703,3.836v7.812
			c0,0.561,0.027,1.102,0.098,1.631c0.072,0.529,0.188,1.057,0.34,1.566h-1.965V46.238z M182.114,44.994
			c1.449,0,2.492-0.324,3.559-0.965c1.057-0.639,1.775-1.469,2.154-2.475v-3.041h-4c-1.527,0-2.793,0.338-3.789,1.021
			c-0.996,0.68-1.502,1.504-1.502,2.461c0,0.902,0.32,1.625,0.957,2.172C180.13,44.721,181.001,44.994,182.114,44.994z"/>
	</g>
</g>
<g>
	<polygon fill="none" points="28.498,37.461 33.974,31.984 33.972,31.984 28.498,37.461 11.021,19.985 11.02,19.985 28.498,37.463 
		10.993,54.969 10.993,54.969 28.498,37.463 33.998,42.963 34.001,42.963 	"/>
	
		<linearGradient id="SVGID_1_" gradientUnits="userSpaceOnUse" x1="872.3574" y1="502.5977" x2="849.2811" y2="517.0398" gradientTransform="matrix(0.7071 0.7071 0.7071 -0.7071 -947.4174 -225.4017)">
		<stop  offset="0" style="stop-color:#D6FFA1"/>
		<stop  offset="0.3264" style="stop-color:#93E2A7"/>
		<stop  offset="1" style="stop-color:#00A3B5"/>
	</linearGradient>
	<path fill="url(#SVGID_1_)" d="M33.972,31.984L12.636,20.252c-0.604-0.331-1.163-0.408-1.615-0.268l17.478,17.477L33.972,31.984z"
		/>
	
		<linearGradient id="SVGID_2_" gradientUnits="userSpaceOnUse" x1="858.9414" y1="514.9355" x2="888.8623" y2="507.114" gradientTransform="matrix(0.7071 0.7071 0.7071 -0.7071 -947.4174 -225.4017)">
		<stop  offset="0" style="stop-color:#FF177B"/>
		<stop  offset="0.6721" style="stop-color:#FFA976"/>
		<stop  offset="1" style="stop-color:#FFEC73"/>
	</linearGradient>
	<path fill="url(#SVGID_2_)" d="M34.001,42.963l7.283-4.004c1.477-0.816,1.477-2.143,0-2.955l-7.311-4.02l-5.476,5.477
		L34.001,42.963z"/>
	
		<linearGradient id="SVGID_3_" gradientUnits="userSpaceOnUse" x1="875.6436" y1="491.6445" x2="843.2001" y2="510.7324" gradientTransform="matrix(0.7071 0.7071 0.7071 -0.7071 -947.4174 -225.4017)">
		<stop  offset="0" style="stop-color:#63FFD4"/>
		<stop  offset="0.4854" style="stop-color:#32A0BA"/>
		<stop  offset="0.8349" style="stop-color:#1262A9"/>
		<stop  offset="1" style="stop-color:#064AA2"/>
	</linearGradient>
	<path fill="url(#SVGID_3_)" d="M11.02,19.985c-0.649,0.203-1.069,0.86-1.069,1.854l0.004,31.284c0,0.982,0.407,1.631,1.038,1.846
		l17.506-17.506L11.02,19.985z"/>
	
		<linearGradient id="SVGID_4_" gradientUnits="userSpaceOnUse" x1="887.4219" y1="506.7998" x2="867.4451" y2="480.4815" gradientTransform="matrix(0.7071 0.7071 0.7071 -0.7071 -947.4174 -225.4017)">
		<stop  offset="0" style="stop-color:#FF4521"/>
		<stop  offset="0.3411" style="stop-color:#D43E65"/>
		<stop  offset="0.7935" style="stop-color:#9F36B9"/>
		<stop  offset="1" style="stop-color:#8A33DB"/>
	</linearGradient>
	<path fill="url(#SVGID_4_)" d="M10.993,54.969c0.454,0.154,1.024,0.082,1.643-0.258l21.363-11.748l-5.5-5.5L10.993,54.969z"/>
</g>
<g>
	<path fill="#FFFFFF" d="M50.239,66.211v-1.562h4.016v1.562H50.239z"/>
	<path fill="#FFFFFF" d="M63.895,61.75c0,1.193-0.391,2.107-1.172,2.742c-0.781,0.637-1.894,0.953-3.336,0.953h-1.188v4.273h-1.867
		V58.297h3.29c1.427,0,2.496,0.293,3.207,0.875C63.54,59.756,63.895,60.615,63.895,61.75z M58.2,63.875h0.992
		c0.958,0,1.661-0.166,2.109-0.5c0.448-0.332,0.672-0.855,0.672-1.562c0-0.656-0.201-1.145-0.602-1.469
		c-0.401-0.322-1.026-0.484-1.875-0.484h-1.297L58.2,63.875L58.2,63.875z"/>
	<path fill="#FFFFFF" d="M73.262,69.719l-1.14-3.172h-4.367l-1.117,3.172h-1.969l4.273-11.469h2.031l4.273,11.469H73.262z
		 M71.63,64.938l-1.07-3.109c-0.078-0.207-0.187-0.535-0.324-0.984c-0.138-0.445-0.233-0.773-0.285-0.982
		c-0.141,0.641-0.347,1.342-0.617,2.102l-1.031,2.977h3.327V64.938z"/>
	<path fill="#FFFFFF" d="M76.754,69.719V58.297h1.867v9.82h4.836v1.602H76.754z"/>
	<path fill="#FFFFFF" d="M91.934,58.297h1.938l-4,11.422h-1.969l-3.984-11.422h1.922l2.383,7.102
		c0.125,0.34,0.258,0.775,0.397,1.309c0.142,0.535,0.231,0.932,0.272,1.191c0.068-0.395,0.173-0.854,0.312-1.375
		c0.141-0.52,0.256-0.906,0.344-1.156L91.934,58.297z"/>
	<path fill="#FFFFFF" d="M101.84,69.719h-6.461V58.297h6.461v1.578h-4.594v3.109h4.305v1.561h-4.305v3.586h4.594V69.719z"/>
	<path fill="#FFFFFF" d="M104.31,69.719V58.297h1.867v9.82h4.836v1.602H104.31z"/>
	<path fill="#FFFFFF" d="M121.935,58.297v7.391c0,0.844-0.182,1.582-0.543,2.215c-0.363,0.633-0.887,1.121-1.57,1.461
		c-0.686,0.342-1.504,0.512-2.457,0.512c-1.418,0-2.52-0.375-3.305-1.125c-0.787-0.75-1.18-1.781-1.18-3.094v-7.359h1.875v7.229
		c0,0.941,0.219,1.639,0.654,2.086c0.439,0.447,1.109,0.672,2.018,0.672c1.76,0,2.641-0.924,2.641-2.773v-7.211h1.867V58.297z"/>
	<path fill="#FFFFFF" d="M131.442,66.617c0,1.016-0.367,1.811-1.102,2.391c-0.736,0.578-1.748,0.867-3.039,0.867
		c-1.293,0-2.35-0.199-3.172-0.602v-1.768c0.52,0.246,1.072,0.439,1.658,0.578c0.586,0.141,1.133,0.211,1.639,0.211
		c0.738,0,1.283-0.141,1.637-0.422c0.352-0.281,0.527-0.658,0.527-1.133c0-0.426-0.162-0.789-0.484-1.086
		c-0.324-0.297-0.99-0.648-2-1.055c-1.043-0.422-1.777-0.902-2.203-1.445c-0.428-0.541-0.641-1.191-0.641-1.953
		c0-0.953,0.338-1.703,1.016-2.25c0.676-0.547,1.586-0.82,2.727-0.82c1.094,0,2.184,0.24,3.266,0.719l-0.594,1.523
		c-1.016-0.426-1.922-0.641-2.719-0.641c-0.604,0-1.062,0.133-1.375,0.395c-0.312,0.264-0.469,0.611-0.469,1.043
		c0,0.297,0.062,0.551,0.188,0.762c0.127,0.211,0.332,0.41,0.617,0.6c0.285,0.188,0.803,0.436,1.547,0.742
		c0.84,0.35,1.453,0.676,1.844,0.977c0.391,0.303,0.678,0.645,0.859,1.023C131.351,65.654,131.442,66.102,131.442,66.617z"/>
	<path fill="#FFFFFF" d="M137.599,69.719h-1.867v-9.82h-3.359v-1.602h8.586v1.602h-3.359V69.719L137.599,69.719z"/>
	<path fill="#FFFFFF" d="M149.792,69.719l-1.141-3.172h-4.367l-1.117,3.172h-1.969l4.273-11.469h2.031l4.275,11.469H149.792z
		 M148.159,64.938l-1.068-3.109c-0.078-0.207-0.188-0.535-0.324-0.984c-0.139-0.445-0.234-0.773-0.285-0.982
		c-0.141,0.641-0.348,1.342-0.617,2.102l-1.031,2.977h3.326V64.938z"/>
</g>
<g>
	<path fill="#FFFFFF" d="M59.107,16.803h-1.746v-4.794h-4.904v4.794h-1.738V6.166h1.738v4.351h4.904V6.166h1.746V16.803z"/>
	<path fill="#FFFFFF" d="M68.015,16.803l-1.062-2.954h-4.066l-1.041,2.954h-1.833l3.979-10.68h1.892l3.979,10.68H68.015z
		 M66.495,12.35l-0.997-2.896c-0.072-0.194-0.173-0.5-0.302-0.917S64.979,7.814,64.93,7.62c-0.131,0.597-0.322,1.249-0.574,1.957
		l-0.961,2.772L66.495,12.35L66.495,12.35z"/>
	<path fill="#FFFFFF" d="M79.637,16.803h-2.132l-5.23-8.476h-0.059L72.252,8.8c0.068,0.902,0.102,1.727,0.102,2.474v5.529h-1.578
		V6.166h2.109l5.217,8.432h0.044c-0.01-0.111-0.029-0.518-0.059-1.218c-0.029-0.701-0.044-1.248-0.044-1.641V6.166h1.594V16.803z"/>
	<path fill="#FFFFFF" d="M90.073,16.803h-2.017l-3.338-4.816l-1.026,0.837v3.979h-1.738V6.166h1.738v5.078
		c0.476-0.582,0.948-1.142,1.419-1.681l2.874-3.397h1.979c-1.857,2.183-3.188,3.737-3.995,4.664L90.073,16.803z"/>
	<path fill="#FFFFFF" d="M90.985,16.803V6.166h1.737v10.637H90.985z"/>
</g>
</svg>
