<?xml version="1.0" encoding="utf-8"?>
<!-- Generator: Adobe Illustrator 15.1.0, SVG Export Plug-In . SVG Version: 6.00 Build 0)  -->
<!DOCTYPE svg PUBLIC "-//W3C//DTD SVG 1.1//EN" "http://www.w3.org/Graphics/SVG/1.1/DTD/svg11.dtd">
<svg version="1.1" id="SemiBold" xmlns="http://www.w3.org/2000/svg" xmlns:xlink="http://www.w3.org/1999/xlink" x="0px" y="0px"
	 width="229.5px" height="91.5px" viewBox="0 0 229.5 91.5" enable-background="new 0 0 229.5 91.5" xml:space="preserve">
<path stroke="#FFFFFF" stroke-width="1.5" stroke-miterlimit="10" d="M221.985,71.05c0,6.53-4.797,10.59-11.322,10.59H18.849
	c-6.528,0-11.821-5.297-11.821-11.827V19.856c0-6.529,5.293-11.824,11.821-11.824h191.814c6.525,0,11.322,5.295,11.322,11.824V71.05
	z"/>
<g>
	<g>
		<path fill="#FFFFFF" d="M153.929,40.867l-1.614,1.522c-0.372,0.205-0.743,0.443-1.113,0.612c-1.121,0.509-2.261,0.637-3.274,0.637
			c-1.078,0-2.768-0.069-4.491-1.316c-2.396-1.688-3.442-4.587-3.442-7.114c0-5.232,4.259-7.798,7.732-7.798
			c1.215,0,2.462,0.304,3.476,0.945c1.686,1.114,2.122,2.563,2.364,3.34l-7.934,3.205l-2.598,0.202
			c0.841,4.289,3.743,6.784,6.95,6.784c1.602,0,2.791-0.522,3.882-1.062C153.866,40.825,154.085,40.711,153.929,40.867z
			 M149.143,32.334c0.645-0.234,0.979-0.437,0.979-0.906c0-1.348-1.525-2.904-3.345-2.904c-1.349,0-3.879,1.05-3.879,4.695
			c0,0.569,0.067,1.175,0.102,1.781L149.143,32.334z"/>
		<path fill="#FFFFFF" d="M137.342,40.605c0,1.312,0.234,1.516,1.343,1.618c0.578,0.068,1.154,0.099,1.725,0.166l-1.248,0.743
			h-5.947c0.78-1.012,0.914-1.112,0.914-1.787v-0.753l-0.013-20.063h-2.626l2.527-1.218h4.826c-1.046,0.605-1.358,0.975-1.493,2.155
			L137.342,40.605z"/>
		<path fill="#FFFFFF" d="M128.119,29.066c0.774,0.637,2.392,1.988,2.392,4.553c0,2.499-1.409,3.677-2.83,4.792
			c-0.436,0.438-0.945,0.915-0.945,1.651c0,0.746,0.51,1.151,0.877,1.453l1.219,0.941c1.482,1.251,2.833,2.398,2.833,4.728
			c0,3.175-3.072,6.375-8.877,6.375c-4.89,0-7.254-2.328-7.254-4.825c0-1.216,0.604-2.937,2.601-4.115
			c2.092-1.279,4.927-1.45,6.444-1.55c-0.474-0.612-1.015-1.253-1.015-2.299c0-0.572,0.172-0.913,0.338-1.315
			c-0.369,0.035-0.741,0.071-1.079,0.071c-3.579,0-5.603-2.67-5.603-5.302c0-1.552,0.708-3.273,2.162-4.521
			c1.924-1.584,4.218-1.857,6.041-1.857h6.954l-2.162,1.221H128.119z M125.728,44.047c-0.276-0.036-0.442-0.036-0.776-0.036
			c-0.306,0-2.129,0.066-3.541,0.54c-0.747,0.273-2.906,1.08-2.906,3.478c0,2.392,2.331,4.116,5.938,4.116
			c3.239,0,4.96-1.553,4.96-3.644C129.401,46.78,128.288,45.872,125.728,44.047z M126.698,37.635
			c0.78-0.778,0.848-1.854,0.848-2.466c0-2.427-1.447-6.207-4.252-6.207c-0.875,0-1.823,0.439-2.361,1.118
			c-0.57,0.703-0.741,1.615-0.741,2.492c0,2.26,1.317,6.008,4.217,6.008C125.254,38.58,126.164,38.169,126.698,37.635z"/>
		<path fill="#FFFFFF" d="M107.197,43.569c-5.364,0-8.234-4.178-8.234-7.959c0-4.419,3.608-8.2,8.74-8.2
			c4.961,0,8.068,3.884,8.068,7.962C115.771,39.354,112.7,43.569,107.197,43.569z M111.417,40.839
			c0.816-1.08,1.014-2.428,1.014-3.742c0-2.972-1.416-8.64-5.601-8.64c-1.113,0-2.234,0.435-3.042,1.146
			c-1.318,1.181-1.553,2.664-1.553,4.12c0,3.334,1.647,8.833,5.737,8.833C109.293,42.556,110.64,41.917,111.417,40.839z"/>
		<path fill="#FFFFFF" d="M89.238,43.569c-5.365,0-8.23-4.178-8.23-7.959c0-4.419,3.609-8.2,8.739-8.2
			c4.958,0,8.062,3.884,8.062,7.962C97.809,39.354,94.742,43.569,89.238,43.569z M93.459,40.839c0.81-1.08,1.012-2.428,1.012-3.742
			c0-2.972-1.42-8.64-5.601-8.64c-1.117,0-2.226,0.435-3.036,1.146c-1.32,1.181-1.554,2.664-1.554,4.12
			c0,3.334,1.654,8.833,5.737,8.833C91.335,42.556,92.68,41.917,93.459,40.839z"/>
		<path fill="#FFFFFF" d="M78.863,42.398l-4.524,1.035c-1.833,0.289-3.479,0.544-5.222,0.544c-8.727,0-12.051-6.424-12.051-11.45
			c0-6.14,4.711-11.831,12.778-11.831c1.707,0,3.35,0.251,4.846,0.658c2.371,0.667,3.479,1.487,4.173,1.969l-2.628,2.496
			l-1.108,0.248l0.79-1.26c-1.07-1.045-3.037-2.974-6.77-2.974c-4.991,0-8.757,3.794-8.757,9.333c0,5.949,4.3,11.545,11.194,11.545
			c2.026,0,3.069-0.407,4.016-0.787v-5.1l-4.776,0.257l2.532-1.36h6.703l-0.819,0.789c-0.222,0.188-0.251,0.252-0.313,0.504
			c-0.033,0.288-0.063,1.204-0.063,1.526V42.398z"/>
	</g>
	<g>
		<path fill="#FFFFFF" d="M163.656,41.011v8.596h-1.707V27.735h1.707v2.49c1.111-1.609,3.144-2.886,5.504-2.886
			c4.232,0,7.084,3.211,7.084,8.294c0,5.049-2.852,8.327-7.084,8.327C166.932,43.961,164.937,42.812,163.656,41.011z M174.41,35.634
			c0-3.831-1.997-6.753-5.538-6.753c-2.199,0-4.302,1.729-5.216,3.235v7.001c0.914,1.51,3.017,3.301,5.216,3.301
			C172.413,42.418,174.41,39.471,174.41,35.634z"/>
		<path fill="#FFFFFF" d="M178.575,43.567V21.696h1.706v21.871H178.575z"/>
		<path fill="#FFFFFF" d="M199.436,48.192c0.364,0.162,0.987,0.263,1.383,0.263c1.044,0,1.771-0.427,2.424-1.936l1.245-2.82
			l-6.725-15.964h1.904l5.769,13.834l5.712-13.834h1.931l-8.201,19.313c-0.851,1.99-2.189,2.947-4.029,2.947
			c-0.552,0-1.279-0.099-1.706-0.229L199.436,48.192z"/>
		<path fill="#FFFFFF" d="M194.449,43.52c-0.114-0.549-0.2-1.032-0.263-1.437c-0.053-0.403-0.082-0.815-0.082-1.234
			c-0.586,0.859-1.415,1.574-2.474,2.138c-1.06,0.566-2.066,0.845-3.448,0.845c-1.663,0-2.953-0.409-3.875-1.239
			c-0.918-0.829-1.38-1.952-1.38-3.373c0-1.419,0.669-2.571,2.003-3.452c1.334-0.885,3.059-1.324,5.192-1.324h3.981v-1.968
			c0-1.133-0.387-2.023-1.157-2.67c-0.774-0.646-1.86-0.974-3.269-0.974c-1.287,0-2.331,0.299-3.126,0.881
			c-0.788,0.594-1.185,1.33-1.185,2.217h-1.747l-0.036-0.085c-0.063-1.195,0.484-2.245,1.647-3.15
			c1.157-0.905,2.675-1.36,4.542-1.36c1.86,0,3.366,0.448,4.502,1.342c1.134,0.885,1.703,2.164,1.703,3.836v7.811
			c0,0.561,0.026,1.103,0.097,1.631c0.072,0.529,0.187,1.057,0.34,1.567H194.449z M188.392,42.276c1.45,0,2.492-0.324,3.558-0.965
			c1.058-0.638,1.777-1.469,2.155-2.475v-3.04h-4c-1.528,0-2.793,0.338-3.788,1.021c-0.997,0.68-1.503,1.503-1.503,2.46
			c0,0.902,0.32,1.625,0.957,2.172C186.408,42.002,187.28,42.276,188.392,42.276z"/>
	</g>
</g>
<g>
	<polygon fill="none" points="34.776,34.742 40.252,29.266 40.25,29.266 34.776,34.742 17.299,17.267 17.298,17.267 34.776,34.745 
		17.271,52.251 17.271,52.251 34.776,34.745 40.276,40.245 40.279,40.245 	"/>
	
		<linearGradient id="SVGID_1_" gradientUnits="userSpaceOnUse" x1="505.4307" y1="-447.1401" x2="482.3546" y2="-461.5821" gradientTransform="matrix(0.7071 0.7071 -0.7071 0.7071 -642.4706 -7.8795)">
		<stop  offset="0" style="stop-color:#D6FFA1"/>
		<stop  offset="0.3264" style="stop-color:#93E2A7"/>
		<stop  offset="1" style="stop-color:#00A3B5"/>
	</linearGradient>
	<path fill="url(#SVGID_1_)" d="M40.25,29.266L18.914,17.534c-0.604-0.331-1.163-0.408-1.615-0.268l17.478,17.476L40.25,29.266z"/>
	
		<linearGradient id="SVGID_2_" gradientUnits="userSpaceOnUse" x1="492.0166" y1="-459.4771" x2="521.9315" y2="-451.6569" gradientTransform="matrix(0.7071 0.7071 -0.7071 0.7071 -642.4706 -7.8795)">
		<stop  offset="0" style="stop-color:#FF177B"/>
		<stop  offset="0.6721" style="stop-color:#FFA976"/>
		<stop  offset="1" style="stop-color:#FFEC73"/>
	</linearGradient>
	<path fill="url(#SVGID_2_)" d="M40.279,40.245l7.283-4.005c1.477-0.815,1.477-2.142,0-2.954l-7.311-4.02l-5.476,5.476
		L40.279,40.245z"/>
	
		<linearGradient id="SVGID_3_" gradientUnits="userSpaceOnUse" x1="508.7148" y1="-436.1865" x2="476.2704" y2="-455.2749" gradientTransform="matrix(0.7071 0.7071 -0.7071 0.7071 -642.4706 -7.8795)">
		<stop  offset="0" style="stop-color:#63FFD4"/>
		<stop  offset="0.4854" style="stop-color:#32A0BA"/>
		<stop  offset="0.8349" style="stop-color:#1262A9"/>
		<stop  offset="1" style="stop-color:#064AA2"/>
	</linearGradient>
	<path fill="url(#SVGID_3_)" d="M17.298,17.267c-0.649,0.203-1.069,0.86-1.069,1.854l0.004,31.284c0,0.982,0.407,1.63,1.038,1.846
		l17.506-17.506L17.298,17.267z"/>
	
		<linearGradient id="SVGID_4_" gradientUnits="userSpaceOnUse" x1="520.4941" y1="-451.3413" x2="500.5175" y2="-425.023" gradientTransform="matrix(0.7071 0.7071 -0.7071 0.7071 -642.4706 -7.8795)">
		<stop  offset="0" style="stop-color:#FF4521"/>
		<stop  offset="0.3411" style="stop-color:#D43E65"/>
		<stop  offset="0.7935" style="stop-color:#9F36B9"/>
		<stop  offset="1" style="stop-color:#8A33DB"/>
	</linearGradient>
	<path fill="url(#SVGID_4_)" d="M17.271,52.251c0.454,0.154,1.024,0.082,1.643-0.258l21.363-11.748l-5.5-5.5L17.271,52.251z"/>
</g>
<g>
	<g>
		<path fill="#FFFFFF" d="M62.047,66.702h-4.406v-1.414h4.406V66.702z"/>
		<path fill="#FFFFFF" d="M71.627,69.554h1.445v1.531h-9.453v-1.531h6.656v-3.891c0-0.489-0.052-0.934-0.156-1.332
			s-0.286-0.733-0.547-1.004c-0.266-0.276-0.629-0.485-1.09-0.629s-1.051-0.215-1.77-0.215c-0.203,0-0.616,0.017-1.238,0.051
			s-1.137,0.085-1.543,0.152h-0.078v-1.531c0.391-0.062,0.858-0.112,1.402-0.148s1.066-0.055,1.566-0.055
			c1.677,0,2.897,0.359,3.66,1.078s1.145,1.914,1.145,3.586V69.554z"/>
		<path fill="#FFFFFF" d="M79.896,61.179c0.474-0.067,1.14-0.122,1.996-0.164s1.694-0.062,2.512-0.062
			c0.964,0,1.767,0.094,2.41,0.281s1.155,0.472,1.535,0.852s0.649,0.863,0.809,1.449s0.238,1.282,0.238,2.09v5.461h-1.352v-5.414
			c0-0.562-0.062-1.046-0.188-1.449s-0.333-0.735-0.625-0.996c-0.292-0.255-0.671-0.442-1.137-0.562s-1.04-0.18-1.723-0.18
			c-0.297-0.005-0.582-0.001-0.855,0.012s-0.582,0.027-0.926,0.043v6.203c0,0.333-0.035,0.657-0.105,0.973s-0.184,0.579-0.34,0.793
			c-0.172,0.239-0.378,0.422-0.617,0.547s-0.567,0.188-0.984,0.188c-0.151,0-0.341-0.007-0.57-0.02s-0.414-0.032-0.555-0.059v-1.531
			c0.146,0.026,0.301,0.046,0.465,0.059s0.285,0.02,0.363,0.02c0.37,0,0.628-0.074,0.773-0.223s0.219-0.413,0.219-0.793v-6.078
			c-0.286,0.016-0.544,0.035-0.773,0.059s-0.394,0.04-0.492,0.051h-0.078V61.179z"/>
		<path fill="#FFFFFF" d="M95.584,69.608c0.203-0.114,0.386-0.226,0.547-0.332s0.323-0.233,0.484-0.379
			c0.344-0.297,0.661-0.642,0.953-1.035s0.539-0.884,0.742-1.473c0.214-0.63,0.374-1.329,0.48-2.098s0.16-1.801,0.16-3.098h1.352
			c0,1.364-0.074,2.527-0.223,3.488s-0.348,1.762-0.598,2.402c-0.25,0.651-0.542,1.194-0.875,1.629s-0.68,0.812-1.039,1.129
			c-0.755,0.683-1.641,1.212-2.656,1.59s-2.214,0.645-3.594,0.801v-1.586c0.609-0.058,1.171-0.128,1.684-0.211
			s0.98-0.192,1.402-0.328l-2.422-8.914h1.383L95.584,69.608z"/>
		<path fill="#FFFFFF" d="M109.312,65.905c0-1.141-0.28-1.996-0.84-2.566s-1.478-0.855-2.754-0.855c-0.63,0-1.282,0.032-1.957,0.098
			s-1.176,0.113-1.504,0.145h-0.078v-1.547c0.386-0.058,0.929-0.109,1.629-0.156s1.348-0.07,1.941-0.07
			c0.896,0,1.653,0.105,2.273,0.316s1.128,0.522,1.523,0.934c0.391,0.417,0.675,0.929,0.852,1.535s0.266,1.313,0.266,2.121v0.516
			c0,0.797-0.09,1.505-0.27,2.125s-0.462,1.13-0.848,1.531c-0.401,0.417-0.907,0.729-1.52,0.938s-1.371,0.312-2.277,0.312
			c-0.542,0-1.184-0.024-1.926-0.074s-1.29-0.101-1.645-0.152v-1.547h0.078c0.406,0.042,0.921,0.093,1.543,0.152
			s1.262,0.09,1.918,0.09c1.271,0,2.188-0.286,2.75-0.859s0.844-1.427,0.844-2.562V65.905z"/>
	</g>
</g>
</svg>
