<?xml version="1.0" encoding="utf-8"?>
<!-- Generator: Adobe Illustrator 15.1.0, SVG Export Plug-In . SVG Version: 6.00 Build 0)  -->
<!DOCTYPE svg PUBLIC "-//W3C//DTD SVG 1.1//EN" "http://www.w3.org/Graphics/SVG/1.1/DTD/svg11.dtd">
<svg version="1.1" id="SemiBold" xmlns="http://www.w3.org/2000/svg" xmlns:xlink="http://www.w3.org/1999/xlink" x="0px" y="0px"
	 width="216.457px" height="75.108px" viewBox="0 0 216.457 75.108" enable-background="new 0 0 216.457 75.108"
	 xml:space="preserve">
<g>
	<path d="M215.707,63.768c0,6.53-4.797,10.591-11.322,10.591H12.571c-6.528,0-11.821-5.298-11.821-11.828V12.574
		C0.75,6.045,6.043,0.75,12.571,0.75h191.813c6.525,0,11.322,5.295,11.322,11.824V63.768z"/>
	<path fill="#FFFFFF" d="M204.385,75.108H12.571C5.64,75.108,0,69.466,0,62.53V12.574C0,5.641,5.64,0,12.571,0h191.813
		c6.77,0,12.072,5.523,12.072,12.574v51.194C216.457,70.551,211.605,75.108,204.385,75.108z M12.571,1.5
		C6.467,1.5,1.5,6.468,1.5,12.574V62.53c0,6.108,4.967,11.078,11.071,11.078h191.813c6.324,0,10.572-3.955,10.572-9.841V12.574
		c0-6.209-4.645-11.074-10.572-11.074H12.571z"/>
</g>
<g>
	<g>
		<path fill="#FFFFFF" d="M147.652,33.585l-1.615,1.522c-0.371,0.205-0.742,0.443-1.113,0.612c-1.121,0.509-2.26,0.637-3.273,0.637
			c-1.078,0-2.768-0.069-4.49-1.316c-2.396-1.688-3.443-4.587-3.443-7.114c0-5.232,4.26-7.798,7.732-7.798
			c1.215,0,2.463,0.304,3.477,0.945c1.686,1.114,2.121,2.563,2.363,3.34l-7.934,3.205l-2.598,0.202
			c0.84,4.289,3.742,6.784,6.949,6.784c1.602,0,2.791-0.521,3.883-1.062C147.588,33.543,147.807,33.429,147.652,33.585z
			 M142.865,25.052c0.645-0.234,0.979-0.437,0.979-0.906c0-1.348-1.523-2.904-3.344-2.904c-1.35,0-3.879,1.05-3.879,4.695
			c0,0.569,0.066,1.175,0.102,1.781L142.865,25.052z"/>
		<path fill="#FFFFFF" d="M131.064,33.323c0,1.312,0.234,1.516,1.344,1.618c0.578,0.068,1.152,0.099,1.725,0.166l-1.248,0.743
			h-5.947c0.779-1.012,0.914-1.112,0.914-1.787V33.31l-0.014-20.063h-2.625l2.527-1.218h4.824c-1.045,0.605-1.357,0.975-1.492,2.155
			L131.064,33.323z"/>
		<path fill="#FFFFFF" d="M121.842,21.784c0.773,0.637,2.393,1.988,2.393,4.553c0,2.499-1.41,3.677-2.83,4.792
			c-0.438,0.438-0.945,0.915-0.945,1.651c0,0.746,0.51,1.151,0.877,1.453l1.219,0.941c1.482,1.251,2.832,2.398,2.832,4.728
			c0,3.176-3.072,6.375-8.877,6.375c-4.889,0-7.253-2.328-7.253-4.824c0-1.217,0.604-2.938,2.601-4.115
			c2.092-1.279,4.928-1.45,6.444-1.55c-0.473-0.612-1.014-1.253-1.014-2.299c0-0.572,0.172-0.913,0.338-1.315
			c-0.369,0.035-0.742,0.071-1.08,0.071c-3.579,0-5.602-2.67-5.602-5.302c0-1.552,0.707-3.273,2.161-4.521
			c1.925-1.584,4.218-1.857,6.041-1.857h6.955l-2.162,1.221L121.842,21.784L121.842,21.784z M119.451,36.765
			c-0.277-0.036-0.443-0.036-0.777-0.036c-0.305,0-2.129,0.066-3.541,0.54c-0.747,0.273-2.906,1.08-2.906,3.479
			c0,2.392,2.331,4.115,5.939,4.115c3.238,0,4.959-1.553,4.959-3.644C123.123,39.497,122.01,38.59,119.451,36.765z M120.42,30.353
			c0.781-0.778,0.848-1.854,0.848-2.466c0-2.427-1.445-6.207-4.252-6.207c-0.875,0-1.823,0.439-2.36,1.118
			c-0.57,0.703-0.742,1.615-0.742,2.492c0,2.26,1.317,6.008,4.217,6.008C118.977,31.298,119.887,30.887,120.42,30.353z"/>
		<path fill="#FFFFFF" d="M100.919,36.287c-5.364,0-8.234-4.178-8.234-7.959c0-4.419,3.608-8.2,8.74-8.2
			c4.961,0,8.068,3.884,8.068,7.962C109.494,32.072,106.422,36.287,100.919,36.287z M105.139,33.557
			c0.816-1.08,1.014-2.428,1.014-3.742c0-2.972-1.416-8.64-5.601-8.64c-1.113,0-2.234,0.435-3.042,1.146
			c-1.318,1.181-1.553,2.664-1.553,4.12c0,3.334,1.647,8.833,5.737,8.833C103.015,35.274,104.362,34.635,105.139,33.557z"/>
		<path fill="#FFFFFF" d="M82.96,36.287c-5.365,0-8.23-4.178-8.23-7.959c0-4.419,3.609-8.2,8.739-8.2
			c4.958,0,8.062,3.884,8.062,7.962C91.531,32.072,88.464,36.287,82.96,36.287z M87.181,33.557c0.81-1.08,1.012-2.428,1.012-3.742
			c0-2.972-1.42-8.64-5.601-8.64c-1.117,0-2.226,0.435-3.036,1.146c-1.32,1.181-1.554,2.664-1.554,4.12
			c0,3.334,1.654,8.833,5.737,8.833C85.057,35.274,86.402,34.635,87.181,33.557z"/>
		<path fill="#FFFFFF" d="M72.585,35.116l-4.524,1.035c-1.833,0.289-3.479,0.544-5.222,0.544c-8.727,0-12.051-6.424-12.051-11.45
			c0-6.14,4.711-11.831,12.778-11.831c1.707,0,3.35,0.251,4.846,0.658c2.371,0.667,3.479,1.487,4.173,1.969l-2.628,2.496
			l-1.108,0.248l0.79-1.26c-1.07-1.045-3.037-2.974-6.77-2.974c-4.991,0-8.757,3.794-8.757,9.333c0,5.949,4.3,11.545,11.194,11.545
			c2.026,0,3.069-0.407,4.016-0.787v-5.1l-4.776,0.257l2.532-1.36h6.703l-0.819,0.789c-0.222,0.188-0.251,0.252-0.313,0.504
			c-0.033,0.288-0.063,1.204-0.063,1.526L72.585,35.116L72.585,35.116z"/>
	</g>
	<g>
		<path fill="#FFFFFF" d="M157.379,33.729v8.597h-1.707V20.453h1.707v2.49c1.111-1.609,3.143-2.886,5.504-2.886
			c4.232,0,7.084,3.211,7.084,8.294c0,5.049-2.852,8.327-7.084,8.327C160.654,36.679,158.66,35.53,157.379,33.729z M168.133,28.352
			c0-3.831-1.998-6.753-5.539-6.753c-2.199,0-4.301,1.729-5.215,3.235v7.001c0.914,1.51,3.016,3.301,5.215,3.301
			C166.135,35.136,168.133,32.189,168.133,28.352z"/>
		<path fill="#FFFFFF" d="M172.297,36.285V14.414h1.707v21.871H172.297z"/>
		<path fill="#FFFFFF" d="M193.158,40.909c0.363,0.162,0.986,0.264,1.383,0.264c1.045,0,1.771-0.428,2.424-1.936l1.246-2.82
			l-6.725-15.964h1.902l5.77,13.834l5.713-13.834h1.93L198.6,39.766c-0.85,1.99-2.188,2.947-4.027,2.947
			c-0.553,0-1.279-0.099-1.707-0.229L193.158,40.909z"/>
		<path fill="#FFFFFF" d="M188.172,36.238c-0.115-0.549-0.201-1.032-0.264-1.437c-0.053-0.403-0.082-0.815-0.082-1.234
			c-0.586,0.859-1.414,1.574-2.475,2.138c-1.059,0.566-2.064,0.845-3.447,0.845c-1.662,0-2.953-0.409-3.875-1.239
			c-0.918-0.829-1.381-1.952-1.381-3.373c0-1.419,0.67-2.571,2.004-3.452c1.334-0.885,3.059-1.324,5.191-1.324h3.982v-1.968
			c0-1.133-0.389-2.023-1.158-2.67c-0.773-0.646-1.859-0.974-3.268-0.974c-1.287,0-2.332,0.299-3.127,0.881
			c-0.787,0.594-1.186,1.33-1.186,2.217h-1.746l-0.037-0.085c-0.062-1.195,0.484-2.245,1.648-3.15
			c1.156-0.905,2.674-1.36,4.541-1.36c1.859,0,3.367,0.448,4.502,1.342c1.135,0.885,1.703,2.164,1.703,3.836v7.811
			c0,0.561,0.025,1.103,0.098,1.631c0.072,0.529,0.188,1.057,0.34,1.567h-1.965V36.238z M182.115,34.994
			c1.449,0,2.49-0.324,3.557-0.965c1.059-0.638,1.777-1.469,2.156-2.475v-3.04h-4c-1.529,0-2.793,0.338-3.789,1.021
			c-0.996,0.68-1.502,1.503-1.502,2.46c0,0.902,0.318,1.625,0.957,2.172C180.131,34.72,181.002,34.994,182.115,34.994z"/>
	</g>
</g>
<g>
	<polygon fill="none" points="28.498,27.46 33.974,21.984 33.972,21.984 28.498,27.46 11.021,9.985 11.02,9.985 28.498,27.463 
		10.993,44.969 10.993,44.969 28.498,27.463 33.998,32.963 34.001,32.963 	"/>
	
		<linearGradient id="SVGID_1_" gradientUnits="userSpaceOnUse" x1="865.2871" y1="509.6699" x2="842.2113" y2="524.1118" gradientTransform="matrix(0.7071 0.7071 0.7071 -0.7071 -947.4174 -225.4017)">
		<stop  offset="0" style="stop-color:#D6FFA1"/>
		<stop  offset="0.3264" style="stop-color:#93E2A7"/>
		<stop  offset="1" style="stop-color:#00A3B5"/>
	</linearGradient>
	<path fill="url(#SVGID_1_)" d="M33.972,21.984L12.636,10.252c-0.604-0.331-1.163-0.408-1.615-0.268L28.499,27.46L33.972,21.984z"/>
	
		<linearGradient id="SVGID_2_" gradientUnits="userSpaceOnUse" x1="851.873" y1="522.0049" x2="881.788" y2="514.1847" gradientTransform="matrix(0.7071 0.7071 0.7071 -0.7071 -947.4174 -225.4017)">
		<stop  offset="0" style="stop-color:#FF177B"/>
		<stop  offset="0.6721" style="stop-color:#FFA976"/>
		<stop  offset="1" style="stop-color:#FFEC73"/>
	</linearGradient>
	<path fill="url(#SVGID_2_)" d="M34.001,32.963l7.283-4.005c1.477-0.815,1.477-2.142,0-2.954l-7.311-4.02l-5.476,5.476
		L34.001,32.963z"/>
	
		<linearGradient id="SVGID_3_" gradientUnits="userSpaceOnUse" x1="868.5713" y1="498.7158" x2="836.1278" y2="517.8036" gradientTransform="matrix(0.7071 0.7071 0.7071 -0.7071 -947.4174 -225.4017)">
		<stop  offset="0" style="stop-color:#63FFD4"/>
		<stop  offset="0.4854" style="stop-color:#32A0BA"/>
		<stop  offset="0.8349" style="stop-color:#1262A9"/>
		<stop  offset="1" style="stop-color:#064AA2"/>
	</linearGradient>
	<path fill="url(#SVGID_3_)" d="M11.02,9.985c-0.649,0.203-1.069,0.86-1.069,1.854l0.004,31.283c0,0.982,0.407,1.631,1.038,1.847
		l17.506-17.506L11.02,9.985z"/>
	
		<linearGradient id="SVGID_4_" gradientUnits="userSpaceOnUse" x1="880.3496" y1="513.8701" x2="860.3746" y2="487.5539" gradientTransform="matrix(0.7071 0.7071 0.7071 -0.7071 -947.4174 -225.4017)">
		<stop  offset="0" style="stop-color:#FF4521"/>
		<stop  offset="0.3411" style="stop-color:#D43E65"/>
		<stop  offset="0.7935" style="stop-color:#9F36B9"/>
		<stop  offset="1" style="stop-color:#8A33DB"/>
	</linearGradient>
	<path fill="url(#SVGID_4_)" d="M10.993,44.969c0.454,0.153,1.024,0.082,1.643-0.258l21.363-11.748l-5.5-5.5L10.993,44.969z"/>
</g>
<g>
	<g>
		<path fill="#FFFFFF" d="M55.769,59.42h-4.406v-1.414h4.406V59.42z"/>
		<path fill="#FFFFFF" d="M65.349,62.272h1.445v1.53h-9.453v-1.53h6.656v-3.892c0-0.489-0.052-0.935-0.156-1.332
			s-0.286-0.733-0.547-1.004c-0.266-0.276-0.629-0.485-1.09-0.629s-1.051-0.216-1.77-0.216c-0.203,0-0.616,0.018-1.238,0.052
			s-1.137,0.085-1.543,0.151h-0.078v-1.531c0.391-0.062,0.858-0.111,1.402-0.147s1.066-0.055,1.566-0.055
			c1.677,0,2.897,0.358,3.66,1.077c0.763,0.72,1.145,1.914,1.145,3.587L65.349,62.272L65.349,62.272z"/>
		<path fill="#FFFFFF" d="M73.618,53.897c0.474-0.068,1.14-0.123,1.996-0.164c0.856-0.043,1.694-0.062,2.512-0.062
			c0.964,0,1.767,0.094,2.41,0.281c0.643,0.187,1.155,0.472,1.535,0.852s0.649,0.863,0.809,1.449c0.16,0.586,0.238,1.281,0.238,2.09
			v5.461h-1.352V58.39c0-0.562-0.062-1.046-0.188-1.449c-0.126-0.402-0.333-0.734-0.625-0.996c-0.292-0.254-0.671-0.441-1.137-0.562
			c-0.466-0.12-1.04-0.181-1.723-0.181c-0.297-0.004-0.582,0-0.855,0.013s-0.582,0.026-0.926,0.043v6.203
			c0,0.333-0.035,0.657-0.105,0.973c-0.07,0.316-0.184,0.579-0.34,0.793c-0.172,0.239-0.378,0.423-0.617,0.548
			c-0.239,0.125-0.567,0.188-0.984,0.188c-0.151,0-0.341-0.008-0.57-0.02c-0.229-0.014-0.414-0.033-0.555-0.06v-1.531
			c0.146,0.026,0.301,0.046,0.465,0.06c0.164,0.013,0.285,0.02,0.363,0.02c0.37,0,0.628-0.074,0.773-0.223
			c0.145-0.149,0.219-0.413,0.219-0.793v-6.078c-0.286,0.016-0.544,0.035-0.773,0.059c-0.229,0.024-0.394,0.04-0.492,0.051h-0.078
			V53.897z"/>
		<path fill="#FFFFFF" d="M89.306,62.325c0.203-0.113,0.386-0.226,0.547-0.332c0.161-0.105,0.323-0.232,0.484-0.379
			c0.344-0.297,0.661-0.642,0.953-1.035c0.292-0.393,0.539-0.883,0.742-1.473c0.214-0.63,0.374-1.328,0.48-2.098
			s0.16-1.801,0.16-3.098h1.352c0,1.363-0.074,2.527-0.223,3.488s-0.348,1.762-0.598,2.401c-0.25,0.651-0.542,1.194-0.875,1.629
			s-0.68,0.812-1.039,1.129c-0.755,0.683-1.641,1.212-2.656,1.591c-1.015,0.377-2.214,0.645-3.594,0.801v-1.586
			c0.609-0.059,1.171-0.129,1.684-0.211c0.513-0.084,0.98-0.192,1.402-0.328l-2.422-8.914h1.383L89.306,62.325z"/>
		<path fill="#FFFFFF" d="M103.034,58.622c0-1.141-0.28-1.995-0.84-2.565c-0.56-0.569-1.478-0.854-2.754-0.854
			c-0.63,0-1.282,0.031-1.957,0.098c-0.675,0.066-1.176,0.113-1.504,0.145h-0.078v-1.547c0.386-0.058,0.929-0.109,1.629-0.156
			c0.7-0.047,1.348-0.069,1.941-0.069c0.896,0,1.653,0.104,2.273,0.315s1.128,0.522,1.523,0.935
			c0.391,0.417,0.675,0.929,0.852,1.535c0.177,0.606,0.266,1.312,0.266,2.12v0.517c0,0.797-0.09,1.505-0.27,2.125
			s-0.462,1.13-0.848,1.531c-0.401,0.417-0.907,0.729-1.52,0.938C101.134,63.897,100.376,64,99.47,64
			c-0.542,0-1.184-0.024-1.926-0.074c-0.742-0.05-1.29-0.101-1.645-0.151v-1.548h0.078c0.406,0.042,0.921,0.093,1.543,0.152
			s1.262,0.09,1.918,0.09c1.271,0,2.188-0.286,2.75-0.858c0.562-0.574,0.844-1.428,0.844-2.562v-0.426H103.034z"/>
	</g>
</g>
</svg>
