<?xml version="1.0" encoding="utf-8"?>
<!-- Generator: Adobe Illustrator 15.1.0, SVG Export Plug-In . SVG Version: 6.00 Build 0)  -->
<!DOCTYPE svg PUBLIC "-//W3C//DTD SVG 1.1//EN" "http://www.w3.org/Graphics/SVG/1.1/DTD/svg11.dtd">
<svg version="1.1" id="SemiBold" xmlns="http://www.w3.org/2000/svg" xmlns:xlink="http://www.w3.org/1999/xlink" x="0px" y="0px"
	 width="216.457px" height="75.109px" viewBox="0 0 216.457 75.109" enable-background="new 0 0 216.457 75.109"
	 xml:space="preserve">
<g>
	<path d="M215.708,63.768c0,6.531-4.797,10.592-11.322,10.592H12.571c-6.528,0-11.821-5.299-11.821-11.828V12.574
		C0.75,6.045,6.043,0.75,12.571,0.75h191.814c6.525,0,11.322,5.295,11.322,11.824V63.768z"/>
	<path fill="#FFFFFF" d="M204.386,75.109H12.571C5.64,75.109,0,69.467,0,62.531V12.574C0,5.641,5.64,0,12.571,0h191.814
		c6.77,0,12.072,5.523,12.072,12.574v51.193C216.458,70.551,211.606,75.109,204.386,75.109z M12.571,1.5
		C6.467,1.5,1.5,6.469,1.5,12.574v49.957c0,6.107,4.967,11.078,11.071,11.078h191.814c6.324,0,10.572-3.955,10.572-9.842V12.574
		c0-6.209-4.645-11.074-10.572-11.074H12.571z"/>
</g>
<g>
	<g>
		<path fill="#FFFFFF" d="M147.653,43.586l-1.615,1.521c-0.371,0.205-0.742,0.443-1.113,0.611c-1.121,0.51-2.26,0.639-3.273,0.639
			c-1.078,0-2.768-0.07-4.49-1.316c-2.396-1.689-3.443-4.588-3.443-7.115c0-5.231,4.26-7.797,7.732-7.797
			c1.215,0,2.463,0.303,3.477,0.944c1.686,1.114,2.121,2.563,2.363,3.34l-7.934,3.205l-2.598,0.202
			c0.84,4.289,3.742,6.783,6.949,6.783c1.602,0,2.791-0.521,3.883-1.061C147.589,43.543,147.808,43.43,147.653,43.586z
			 M142.866,35.053c0.645-0.234,0.979-0.438,0.979-0.906c0-1.348-1.523-2.904-3.344-2.904c-1.35,0-3.879,1.051-3.879,4.695
			c0,0.568,0.066,1.175,0.102,1.781L142.866,35.053z"/>
		<path fill="#FFFFFF" d="M131.065,43.324c0,1.311,0.234,1.516,1.344,1.617c0.578,0.068,1.152,0.1,1.725,0.166l-1.248,0.742h-5.947
			c0.779-1.012,0.914-1.111,0.914-1.785v-0.754l-0.014-20.063h-2.625l2.527-1.218h4.824c-1.045,0.605-1.357,0.975-1.492,2.154
			L131.065,43.324z"/>
		<path fill="#FFFFFF" d="M121.843,31.784c0.773,0.638,2.393,1.988,2.393,4.554c0,2.498-1.41,3.676-2.83,4.791
			c-0.438,0.439-0.945,0.916-0.945,1.652c0,0.746,0.51,1.15,0.877,1.453l1.219,0.939c1.482,1.252,2.832,2.398,2.832,4.729
			c0,3.176-3.072,6.375-8.877,6.375c-4.891,0-7.254-2.328-7.254-4.824c0-1.217,0.604-2.938,2.6-4.115
			c2.092-1.279,4.93-1.451,6.445-1.551c-0.473-0.611-1.014-1.252-1.014-2.299c0-0.572,0.172-0.912,0.338-1.314
			c-0.369,0.035-0.742,0.07-1.08,0.07c-3.58,0-5.604-2.67-5.604-5.302c0-1.552,0.707-3.272,2.162-4.521
			c1.924-1.584,4.219-1.857,6.041-1.857h6.955l-2.162,1.221L121.843,31.784L121.843,31.784z M119.452,46.766
			c-0.277-0.037-0.443-0.037-0.777-0.037c-0.305,0-2.129,0.066-3.541,0.541c-0.748,0.273-2.906,1.08-2.906,3.479
			c0,2.391,2.33,4.115,5.939,4.115c3.238,0,4.959-1.553,4.959-3.645C123.124,49.498,122.011,48.59,119.452,46.766z M120.421,40.354
			c0.781-0.777,0.848-1.854,0.848-2.467c0-2.426-1.445-6.207-4.252-6.207c-0.875,0-1.824,0.439-2.361,1.119
			c-0.57,0.703-0.742,1.614-0.742,2.491c0,2.261,1.318,6.009,4.219,6.009C118.978,41.299,119.888,40.887,120.421,40.354z"/>
		<path fill="#FFFFFF" d="M100.919,46.287c-5.363,0-8.234-4.178-8.234-7.959c0-4.419,3.608-8.199,8.74-8.199
			c4.961,0,8.068,3.883,8.068,7.961C109.493,42.072,106.423,46.287,100.919,46.287z M105.14,43.557
			c0.815-1.08,1.014-2.428,1.014-3.74c0-2.973-1.416-8.641-5.602-8.641c-1.113,0-2.233,0.435-3.041,1.146
			c-1.318,1.181-1.554,2.664-1.554,4.12c0,3.334,1.647,8.834,5.737,8.834C103.015,45.275,104.362,44.635,105.14,43.557z"/>
		<path fill="#FFFFFF" d="M82.96,46.287c-5.365,0-8.23-4.178-8.23-7.959c0-4.419,3.609-8.199,8.74-8.199
			c4.957,0,8.062,3.883,8.062,7.961C91.531,42.072,88.464,46.287,82.96,46.287z M87.181,43.557c0.811-1.08,1.013-2.428,1.013-3.74
			c0-2.973-1.421-8.641-5.601-8.641c-1.117,0-2.227,0.435-3.037,1.146c-1.319,1.181-1.554,2.664-1.554,4.12
			c0,3.334,1.654,8.834,5.737,8.834C85.058,45.275,86.402,44.635,87.181,43.557z"/>
		<path fill="#FFFFFF" d="M72.585,45.117l-4.523,1.035c-1.834,0.289-3.479,0.543-5.223,0.543c-8.727,0-12.051-6.424-12.051-11.45
			c0-6.14,4.711-11.831,12.777-11.831c1.707,0,3.351,0.251,4.847,0.658c2.371,0.667,3.479,1.486,4.173,1.969l-2.628,2.496
			l-1.108,0.248l0.791-1.26c-1.07-1.045-3.037-2.975-6.771-2.975c-4.991,0-8.757,3.795-8.757,9.334
			c0,5.949,4.3,11.545,11.193,11.545c2.026,0,3.069-0.406,4.017-0.787v-5.1l-4.776,0.256l2.532-1.359h6.703l-0.819,0.789
			c-0.222,0.188-0.251,0.252-0.312,0.504c-0.033,0.287-0.063,1.203-0.063,1.525L72.585,45.117L72.585,45.117z"/>
	</g>
	<g>
		<path fill="#FFFFFF" d="M157.38,43.729v8.598h-1.707V30.453h1.707v2.49c1.111-1.609,3.143-2.887,5.504-2.887
			c4.232,0,7.084,3.211,7.084,8.295c0,5.049-2.852,8.326-7.084,8.326C160.655,46.68,158.661,45.531,157.38,43.729z M168.134,38.352
			c0-3.83-1.998-6.752-5.539-6.752c-2.199,0-4.301,1.729-5.215,3.234v7.002c0.914,1.51,3.016,3.301,5.215,3.301
			C166.136,45.137,168.134,42.189,168.134,38.352z"/>
		<path fill="#FFFFFF" d="M172.298,46.285V24.414h1.707v21.871H172.298z"/>
		<path fill="#FFFFFF" d="M193.159,50.91c0.363,0.162,0.986,0.264,1.383,0.264c1.045,0,1.771-0.428,2.424-1.936l1.246-2.82
			l-6.725-15.965h1.902l5.77,13.834l5.713-13.834h1.93l-8.201,19.312c-0.85,1.99-2.188,2.947-4.027,2.947
			c-0.553,0-1.279-0.098-1.707-0.229L193.159,50.91z"/>
		<path fill="#FFFFFF" d="M188.173,46.238c-0.115-0.549-0.201-1.031-0.264-1.438c-0.053-0.402-0.082-0.814-0.082-1.232
			c-0.586,0.857-1.414,1.572-2.475,2.137c-1.059,0.566-2.064,0.846-3.447,0.846c-1.662,0-2.953-0.41-3.875-1.24
			c-0.918-0.828-1.381-1.951-1.381-3.371s0.67-2.572,2.004-3.453c1.334-0.885,3.059-1.324,5.191-1.324h3.982v-1.968
			c0-1.134-0.389-2.022-1.158-2.67c-0.773-0.646-1.859-0.974-3.268-0.974c-1.287,0-2.332,0.299-3.127,0.881
			c-0.787,0.594-1.186,1.33-1.186,2.217h-1.746l-0.037-0.085c-0.062-1.195,0.484-2.245,1.648-3.15
			c1.156-0.905,2.674-1.36,4.541-1.36c1.859,0,3.367,0.449,4.502,1.342c1.135,0.886,1.703,2.164,1.703,3.837v7.812
			c0,0.561,0.025,1.102,0.098,1.631s0.188,1.057,0.34,1.566h-1.965V46.238z M182.116,44.994c1.449,0,2.49-0.324,3.557-0.965
			c1.059-0.639,1.777-1.469,2.156-2.475v-3.041h-4c-1.529,0-2.793,0.338-3.789,1.021c-0.996,0.68-1.502,1.504-1.502,2.461
			c0,0.902,0.318,1.625,0.957,2.172C180.132,44.721,181.003,44.994,182.116,44.994z"/>
	</g>
</g>
<g>
	<polygon fill="none" points="28.498,37.461 33.974,31.984 33.972,31.984 28.498,37.461 11.021,19.985 11.021,19.985 28.498,37.463 
		10.993,54.969 10.993,54.969 28.498,37.463 33.998,42.963 34.001,42.963 	"/>
	
		<linearGradient id="SVGID_1_" gradientUnits="userSpaceOnUse" x1="872.3574" y1="502.5977" x2="849.2813" y2="517.0397" gradientTransform="matrix(0.7071 0.7071 0.7071 -0.7071 -947.4174 -225.4017)">
		<stop  offset="0" style="stop-color:#D6FFA1"/>
		<stop  offset="0.3264" style="stop-color:#93E2A7"/>
		<stop  offset="1" style="stop-color:#00A3B5"/>
	</linearGradient>
	<path fill="url(#SVGID_1_)" d="M33.972,31.984L12.636,20.252c-0.604-0.33-1.162-0.408-1.615-0.268l17.479,17.477L33.972,31.984z"/>
	
		<linearGradient id="SVGID_2_" gradientUnits="userSpaceOnUse" x1="858.9404" y1="514.9346" x2="888.8613" y2="507.113" gradientTransform="matrix(0.7071 0.7071 0.7071 -0.7071 -947.4174 -225.4017)">
		<stop  offset="0" style="stop-color:#FF177B"/>
		<stop  offset="0.6721" style="stop-color:#FFA976"/>
		<stop  offset="1" style="stop-color:#FFEC73"/>
	</linearGradient>
	<path fill="url(#SVGID_2_)" d="M34.001,42.963l7.283-4.004c1.477-0.816,1.477-2.143,0-2.955l-7.311-4.02l-5.477,5.477
		L34.001,42.963z"/>
	
		<linearGradient id="SVGID_3_" gradientUnits="userSpaceOnUse" x1="875.6436" y1="491.6445" x2="843.2001" y2="510.7324" gradientTransform="matrix(0.7071 0.7071 0.7071 -0.7071 -947.4174 -225.4017)">
		<stop  offset="0" style="stop-color:#63FFD4"/>
		<stop  offset="0.4854" style="stop-color:#32A0BA"/>
		<stop  offset="0.8349" style="stop-color:#1262A9"/>
		<stop  offset="1" style="stop-color:#064AA2"/>
	</linearGradient>
	<path fill="url(#SVGID_3_)" d="M11.021,19.985c-0.649,0.203-1.069,0.86-1.069,1.854l0.004,31.283c0,0.982,0.407,1.631,1.038,1.846
		l17.506-17.506L11.021,19.985z"/>
	
		<linearGradient id="SVGID_4_" gradientUnits="userSpaceOnUse" x1="887.4219" y1="506.7998" x2="867.4451" y2="480.4815" gradientTransform="matrix(0.7071 0.7071 0.7071 -0.7071 -947.4174 -225.4017)">
		<stop  offset="0" style="stop-color:#FF4521"/>
		<stop  offset="0.3411" style="stop-color:#D43E65"/>
		<stop  offset="0.7935" style="stop-color:#9F36B9"/>
		<stop  offset="1" style="stop-color:#8A33DB"/>
	</linearGradient>
	<path fill="url(#SVGID_4_)" d="M10.993,54.969c0.454,0.154,1.023,0.082,1.643-0.258l21.363-11.748l-5.5-5.5L10.993,54.969z"/>
</g>
<g>
	<g>
		<path fill="#FFFFFF" d="M59.815,60.516h-1.771v7.932h-1.203v-2.318c-0.533,0.355-1.127,0.533-1.783,0.533
			c-0.779,0-1.457-0.234-2.03-0.705c-0.615-0.496-0.923-1.127-0.923-1.893v-3.549h-0.861v-1.094h8.572V60.516z M56.841,64.83v-4.314
			h-3.533v3.248c0,0.564,0.203,1.004,0.607,1.318c0.348,0.266,0.771,0.396,1.271,0.396C55.798,65.479,56.349,65.264,56.841,64.83z"
			/>
		<path fill="#FFFFFF" d="M66.377,60.516H63.89v2.012c0,0.773-0.062,1.346-0.186,1.715c-0.214,0.639-0.629,0.957-1.244,0.957
			l2.756,3.227l-0.931,0.787L59.903,64.1l0.938-0.779l0.744,0.875c0.036,0.041,0.109,0.062,0.219,0.062
			c0.588,0,0.883-0.467,0.883-1.4v-2.34h-3.049v-1.094h6.739V60.516z"/>
		<path fill="#FFFFFF" d="M81.772,60.516h-1.771v7.932h-1.203v-2.318c-0.533,0.355-1.127,0.533-1.783,0.533
			c-0.779,0-1.457-0.234-2.03-0.705c-0.615-0.496-0.923-1.127-0.923-1.893v-3.549H73.2v-1.094h8.572V60.516z M78.798,64.83v-4.314
			h-3.533v3.248c0,0.564,0.203,1.004,0.607,1.318c0.348,0.266,0.771,0.396,1.271,0.396C77.755,65.479,78.306,65.264,78.798,64.83z"
			/>
		<path fill="#FFFFFF" d="M80.418,71.748l-0.562,0.711l-3.109-2.441l0.561-0.711L80.418,71.748z"/>
		<path fill="#FFFFFF" d="M88.334,60.516h-2.487v2.012c0,0.773-0.062,1.346-0.186,1.715c-0.214,0.639-0.629,0.957-1.244,0.957
			l2.756,3.227l-0.931,0.787L81.86,64.1l0.938-0.779l0.744,0.875c0.036,0.041,0.109,0.062,0.219,0.062
			c0.588,0,0.883-0.467,0.883-1.4v-2.34h-3.049v-1.094h6.739V60.516z"/>
		<path fill="#FFFFFF" d="M91.985,60.516h-1.771v7.932h-1.203v-7.932h-0.854v-1.094h3.828V60.516z"/>
		<path fill="#FFFFFF" d="M100.38,60.516h-1.771v7.932h-1.203v-2.318c-0.533,0.355-1.128,0.533-1.784,0.533
			c-0.778,0-1.456-0.234-2.03-0.705c-0.615-0.496-0.923-1.127-0.923-1.893v-3.549h-0.86v-1.094h8.572V60.516z M97.406,64.83v-4.314
			h-3.534v3.248c0,0.564,0.203,1.004,0.607,1.318c0.348,0.266,0.771,0.396,1.271,0.396C96.362,65.479,96.913,65.264,97.406,64.83z"
			/>
		<path fill="#FFFFFF" d="M99.026,71.748l-0.561,0.711l-3.111-2.441l0.562-0.711L99.026,71.748z"/>
		<path fill="#FFFFFF" d="M109.69,60.516h-1.771v7.932h-1.203v-4.396h-3.445c-0.432,0-0.778,0.127-1.039,0.383
			c-0.26,0.256-0.389,0.592-0.389,1.012c0,0.584,0.233,1.146,0.703,1.688c0.109,0.133,0.567,0.559,1.375,1.279l-0.943,0.812
			c-1.56-1.408-2.338-2.643-2.338-3.697c0-0.783,0.213-1.408,0.639-1.873c0.427-0.465,1.029-0.697,1.809-0.697h3.631v-2.441h-6.516
			v-1.094h9.488V60.516z"/>
		<path fill="#FFFFFF" d="M127.642,60.516h-5.051v1.971c0.391-0.27,0.863-0.404,1.414-0.404c0.799,0,1.428,0.209,1.887,0.629
			c0.506,0.461,0.76,1.129,0.76,2.004c0,0.527-0.129,1.045-0.383,1.551c-0.246,0.488-0.58,0.898-0.998,1.23l-0.67-0.922
			c0.553-0.506,0.826-1.127,0.826-1.859c0-0.471-0.135-0.842-0.402-1.119c-0.27-0.273-0.631-0.412-1.088-0.412
			c-0.592,0-1.041,0.217-1.346,0.648v4.615h-1.203v-2.461c-0.703,0.51-1.393,0.766-2.072,0.766c-0.76,0-1.354-0.229-1.775-0.691
			c-0.406-0.434-0.609-1.014-0.609-1.742c0-0.762,0.24-1.363,0.719-1.812c0.459-0.428,1.049-0.643,1.764-0.643
			c0.215,0,0.445,0.037,0.697,0.109v1.086c-0.246-0.086-0.479-0.129-0.697-0.129c-0.865,0-1.299,0.463-1.299,1.389
			c0,0.367,0.104,0.678,0.314,0.93c0.225,0.264,0.52,0.395,0.889,0.395c0.363,0,0.752-0.107,1.162-0.324s0.713-0.475,0.908-0.775
			v-4.025h-4.873v-1.094h11.129v1.092H127.642z"/>
		<path fill="#FFFFFF" d="M134.204,60.516h-2.488v2.012c0,0.773-0.061,1.346-0.184,1.715c-0.215,0.639-0.629,0.957-1.244,0.957
			l2.754,3.227l-0.93,0.787l-4.383-5.113l0.938-0.779l0.746,0.875c0.035,0.041,0.107,0.062,0.219,0.062
			c0.588,0,0.881-0.467,0.881-1.4v-2.34h-3.049v-1.094h6.74V60.516z"/>
		<path fill="#FFFFFF" d="M132.728,59.648l-0.725,0.725l-3.746-3.916l0.82-0.828L132.728,59.648z"/>
		<path fill="#FFFFFF" d="M132.784,56.49l-0.951,0.949l-0.957-0.949l0.957-0.951L132.784,56.49z"/>
	</g>
	<g>
		<path fill="#FFFFFF" d="M58.841,8.766H56.29v2.271h-3.097c-0.196,0-0.357,0.071-0.485,0.212s-0.191,0.311-0.191,0.506
			c0,0.232,0.088,0.422,0.261,0.567c0.159,0.132,0.362,0.198,0.608,0.198c0.24,0,0.588-0.039,1.039-0.116
			c0.45-0.077,0.771-0.116,0.963-0.116c0.68,0,1.237,0.167,1.676,0.499c0.474,0.365,0.711,0.866,0.711,1.504
			c0,0.816-0.357,1.466-1.073,1.948c-0.62,0.419-1.358,0.634-2.215,0.643l1.422,2.059l-1.046,0.636l-1.791-2.856
			c-0.296-0.041-0.617-0.176-0.965-0.403c-0.322-0.209-0.582-0.444-0.778-0.704l0.868-0.793c0.173,0.264,0.465,0.495,0.875,0.689
			c0.393,0.188,0.754,0.28,1.087,0.28c1.612,0,2.42-0.489,2.42-1.47c0-0.264-0.11-0.488-0.335-0.67
			c-0.214-0.168-0.456-0.254-0.725-0.254c-0.196,0-0.506,0.039-0.926,0.117c-0.422,0.078-0.73,0.115-0.928,0.115
			c-0.67,0-1.208-0.15-1.613-0.451c-0.445-0.332-0.67-0.807-0.67-1.422c0-0.537,0.164-0.971,0.489-1.299s0.763-0.492,1.31-0.492
			h1.906V8.768h-4.095V7.674h7.849V8.766z"/>
		<path fill="#FFFFFF" d="M69.067,8.766h-1.771v7.931h-1.203v-3.761h-3.582c-0.178,0.488-0.523,0.787-1.039,0.896l2.406,2.844
			l-0.93,0.787l-4.02-4.744l0.937-0.787l0.745,0.89c0.021,0.026,0.072,0.041,0.15,0.041c0.633,0,0.949-0.72,0.949-2.16V8.768h-3.048
			V7.674h10.404L69.067,8.766L69.067,8.766z M66.093,11.842V8.766h-3.179v1.936c0,0.482-0.021,0.864-0.062,1.143h3.24V11.842z"/>
		<path fill="#FFFFFF" d="M67.591,7.898l-0.726,0.725l-3.746-3.917l0.819-0.827L67.591,7.898z"/>
		<path fill="#FFFFFF" d="M67.591,7.898l-0.726,0.725l-3.746-3.917l0.819-0.827L67.591,7.898z"/>
		<path fill="#FFFFFF" d="M67.646,4.739l-0.95,0.95l-0.957-0.95l0.957-0.95L67.646,4.739z"/>
	</g>
</g>
</svg>
