<?xml version="1.0" encoding="utf-8"?>
<!-- Generator: Adobe Illustrator 15.1.0, SVG Export Plug-In . SVG Version: 6.00 Build 0)  -->
<!DOCTYPE svg PUBLIC "-//W3C//DTD SVG 1.1//EN" "http://www.w3.org/Graphics/SVG/1.1/DTD/svg11.dtd">
<svg version="1.1" id="SemiBold" xmlns="http://www.w3.org/2000/svg" xmlns:xlink="http://www.w3.org/1999/xlink" x="0px" y="0px"
	 width="229.5px" height="91.5px" viewBox="0 0 229.5 91.5" enable-background="new 0 0 229.5 91.5" xml:space="preserve">
<path stroke="#FFFFFF" stroke-width="1.5" stroke-miterlimit="10" d="M221.985,71.05c0,6.53-4.797,10.59-11.322,10.59H18.849
	c-6.528,0-11.821-5.297-11.821-11.827V19.856c0-6.529,5.293-11.824,11.821-11.824h191.814c6.525,0,11.322,5.295,11.322,11.824V71.05
	z"/>
<g>
	<g>
		<path fill="#FFFFFF" d="M153.929,40.867l-1.614,1.522c-0.372,0.205-0.743,0.443-1.113,0.612c-1.121,0.509-2.261,0.637-3.274,0.637
			c-1.078,0-2.768-0.069-4.491-1.316c-2.396-1.688-3.442-4.587-3.442-7.114c0-5.232,4.259-7.798,7.732-7.798
			c1.215,0,2.462,0.304,3.476,0.945c1.686,1.114,2.122,2.563,2.364,3.34l-7.934,3.205l-2.598,0.202
			c0.841,4.289,3.743,6.784,6.95,6.784c1.602,0,2.791-0.522,3.882-1.062C153.866,40.825,154.085,40.711,153.929,40.867z
			 M149.143,32.334c0.645-0.234,0.979-0.437,0.979-0.906c0-1.348-1.525-2.904-3.345-2.904c-1.349,0-3.879,1.05-3.879,4.695
			c0,0.569,0.067,1.175,0.102,1.781L149.143,32.334z"/>
		<path fill="#FFFFFF" d="M137.342,40.605c0,1.312,0.234,1.516,1.343,1.618c0.578,0.068,1.154,0.099,1.725,0.166l-1.248,0.743
			h-5.947c0.78-1.012,0.914-1.112,0.914-1.787v-0.753l-0.013-20.063h-2.626l2.527-1.218h4.826c-1.046,0.605-1.358,0.975-1.493,2.155
			L137.342,40.605z"/>
		<path fill="#FFFFFF" d="M128.119,29.066c0.774,0.637,2.392,1.988,2.392,4.553c0,2.499-1.409,3.677-2.83,4.792
			c-0.436,0.438-0.945,0.915-0.945,1.651c0,0.746,0.51,1.151,0.877,1.453l1.219,0.941c1.482,1.251,2.833,2.398,2.833,4.728
			c0,3.175-3.072,6.375-8.877,6.375c-4.89,0-7.254-2.328-7.254-4.825c0-1.216,0.604-2.937,2.601-4.115
			c2.092-1.279,4.927-1.45,6.444-1.55c-0.474-0.612-1.015-1.253-1.015-2.299c0-0.572,0.172-0.913,0.338-1.315
			c-0.369,0.035-0.741,0.071-1.079,0.071c-3.579,0-5.603-2.67-5.603-5.302c0-1.552,0.708-3.273,2.162-4.521
			c1.924-1.584,4.218-1.857,6.041-1.857h6.954l-2.162,1.221H128.119z M125.728,44.047c-0.276-0.036-0.442-0.036-0.776-0.036
			c-0.306,0-2.129,0.066-3.541,0.54c-0.747,0.273-2.906,1.08-2.906,3.478c0,2.392,2.331,4.116,5.938,4.116
			c3.239,0,4.96-1.553,4.96-3.644C129.401,46.78,128.288,45.872,125.728,44.047z M126.698,37.635
			c0.78-0.778,0.848-1.854,0.848-2.466c0-2.427-1.447-6.207-4.252-6.207c-0.875,0-1.823,0.439-2.361,1.118
			c-0.57,0.703-0.741,1.615-0.741,2.492c0,2.26,1.317,6.008,4.217,6.008C125.254,38.58,126.164,38.169,126.698,37.635z"/>
		<path fill="#FFFFFF" d="M107.197,43.569c-5.364,0-8.234-4.178-8.234-7.959c0-4.419,3.608-8.2,8.74-8.2
			c4.961,0,8.068,3.884,8.068,7.962C115.771,39.354,112.7,43.569,107.197,43.569z M111.417,40.839
			c0.816-1.08,1.014-2.428,1.014-3.742c0-2.972-1.416-8.64-5.601-8.64c-1.113,0-2.234,0.435-3.042,1.146
			c-1.318,1.181-1.553,2.664-1.553,4.12c0,3.334,1.647,8.833,5.737,8.833C109.293,42.556,110.64,41.917,111.417,40.839z"/>
		<path fill="#FFFFFF" d="M89.238,43.569c-5.365,0-8.23-4.178-8.23-7.959c0-4.419,3.609-8.2,8.739-8.2
			c4.958,0,8.062,3.884,8.062,7.962C97.809,39.354,94.742,43.569,89.238,43.569z M93.459,40.839c0.81-1.08,1.012-2.428,1.012-3.742
			c0-2.972-1.42-8.64-5.601-8.64c-1.117,0-2.226,0.435-3.036,1.146c-1.32,1.181-1.554,2.664-1.554,4.12
			c0,3.334,1.654,8.833,5.737,8.833C91.335,42.556,92.68,41.917,93.459,40.839z"/>
		<path fill="#FFFFFF" d="M78.863,42.398l-4.524,1.035c-1.833,0.289-3.479,0.544-5.222,0.544c-8.727,0-12.051-6.424-12.051-11.45
			c0-6.14,4.711-11.831,12.778-11.831c1.707,0,3.35,0.251,4.846,0.658c2.371,0.667,3.479,1.487,4.173,1.969l-2.628,2.496
			l-1.108,0.248l0.79-1.26c-1.07-1.045-3.037-2.974-6.77-2.974c-4.991,0-8.757,3.794-8.757,9.333c0,5.949,4.3,11.545,11.194,11.545
			c2.026,0,3.069-0.407,4.016-0.787v-5.1l-4.776,0.257l2.532-1.36h6.703l-0.819,0.789c-0.222,0.188-0.251,0.252-0.313,0.504
			c-0.033,0.288-0.063,1.204-0.063,1.526V42.398z"/>
	</g>
	<g>
		<path fill="#FFFFFF" d="M163.656,41.011v8.596h-1.707V27.735h1.707v2.49c1.111-1.609,3.144-2.886,5.504-2.886
			c4.232,0,7.084,3.211,7.084,8.294c0,5.049-2.852,8.327-7.084,8.327C166.932,43.961,164.937,42.812,163.656,41.011z M174.41,35.634
			c0-3.831-1.997-6.753-5.538-6.753c-2.199,0-4.302,1.729-5.216,3.235v7.001c0.914,1.51,3.017,3.301,5.216,3.301
			C172.413,42.418,174.41,39.471,174.41,35.634z"/>
		<path fill="#FFFFFF" d="M178.575,43.567V21.696h1.706v21.871H178.575z"/>
		<path fill="#FFFFFF" d="M199.436,48.192c0.364,0.162,0.987,0.263,1.383,0.263c1.044,0,1.771-0.427,2.424-1.936l1.245-2.82
			l-6.725-15.964h1.904l5.769,13.834l5.712-13.834h1.931l-8.201,19.313c-0.851,1.99-2.189,2.947-4.029,2.947
			c-0.552,0-1.279-0.099-1.706-0.229L199.436,48.192z"/>
		<path fill="#FFFFFF" d="M194.449,43.52c-0.114-0.549-0.2-1.032-0.263-1.437c-0.053-0.403-0.082-0.815-0.082-1.234
			c-0.586,0.859-1.415,1.574-2.474,2.138c-1.06,0.566-2.066,0.845-3.448,0.845c-1.663,0-2.953-0.409-3.875-1.239
			c-0.918-0.829-1.38-1.952-1.38-3.373c0-1.419,0.669-2.571,2.003-3.452c1.334-0.885,3.059-1.324,5.192-1.324h3.981v-1.968
			c0-1.133-0.387-2.023-1.157-2.67c-0.774-0.646-1.86-0.974-3.269-0.974c-1.287,0-2.331,0.299-3.126,0.881
			c-0.788,0.594-1.185,1.33-1.185,2.217h-1.747l-0.036-0.085c-0.063-1.195,0.484-2.245,1.647-3.15
			c1.157-0.905,2.675-1.36,4.542-1.36c1.86,0,3.366,0.448,4.502,1.342c1.134,0.885,1.703,2.164,1.703,3.836v7.811
			c0,0.561,0.026,1.103,0.097,1.631c0.072,0.529,0.187,1.057,0.34,1.567H194.449z M188.392,42.276c1.45,0,2.492-0.324,3.558-0.965
			c1.058-0.638,1.777-1.469,2.155-2.475v-3.04h-4c-1.528,0-2.793,0.338-3.788,1.021c-0.997,0.68-1.503,1.503-1.503,2.46
			c0,0.902,0.32,1.625,0.957,2.172C186.408,42.002,187.28,42.276,188.392,42.276z"/>
	</g>
</g>
<g>
	<polygon fill="none" points="34.776,34.742 40.252,29.266 40.25,29.266 34.776,34.742 17.299,17.267 17.298,17.267 34.776,34.745 
		17.271,52.251 17.271,52.251 34.776,34.745 40.276,40.245 40.279,40.245 	"/>
	
		<linearGradient id="SVGID_1_" gradientUnits="userSpaceOnUse" x1="505.4307" y1="-447.1401" x2="482.3546" y2="-461.5821" gradientTransform="matrix(0.7071 0.7071 -0.7071 0.7071 -642.4706 -7.8795)">
		<stop  offset="0" style="stop-color:#D6FFA1"/>
		<stop  offset="0.3264" style="stop-color:#93E2A7"/>
		<stop  offset="1" style="stop-color:#00A3B5"/>
	</linearGradient>
	<path fill="url(#SVGID_1_)" d="M40.25,29.266L18.914,17.534c-0.604-0.331-1.163-0.408-1.615-0.268l17.478,17.476L40.25,29.266z"/>
	
		<linearGradient id="SVGID_2_" gradientUnits="userSpaceOnUse" x1="492.0166" y1="-459.4771" x2="521.9315" y2="-451.6569" gradientTransform="matrix(0.7071 0.7071 -0.7071 0.7071 -642.4706 -7.8795)">
		<stop  offset="0" style="stop-color:#FF177B"/>
		<stop  offset="0.6721" style="stop-color:#FFA976"/>
		<stop  offset="1" style="stop-color:#FFEC73"/>
	</linearGradient>
	<path fill="url(#SVGID_2_)" d="M40.279,40.245l7.283-4.005c1.477-0.815,1.477-2.142,0-2.954l-7.311-4.02l-5.476,5.476
		L40.279,40.245z"/>
	
		<linearGradient id="SVGID_3_" gradientUnits="userSpaceOnUse" x1="508.7148" y1="-436.1865" x2="476.2704" y2="-455.2749" gradientTransform="matrix(0.7071 0.7071 -0.7071 0.7071 -642.4706 -7.8795)">
		<stop  offset="0" style="stop-color:#63FFD4"/>
		<stop  offset="0.4854" style="stop-color:#32A0BA"/>
		<stop  offset="0.8349" style="stop-color:#1262A9"/>
		<stop  offset="1" style="stop-color:#064AA2"/>
	</linearGradient>
	<path fill="url(#SVGID_3_)" d="M17.298,17.267c-0.649,0.203-1.069,0.86-1.069,1.854l0.004,31.284c0,0.982,0.407,1.63,1.038,1.846
		l17.506-17.506L17.298,17.267z"/>
	
		<linearGradient id="SVGID_4_" gradientUnits="userSpaceOnUse" x1="520.4941" y1="-451.3413" x2="500.5175" y2="-425.023" gradientTransform="matrix(0.7071 0.7071 -0.7071 0.7071 -642.4706 -7.8795)">
		<stop  offset="0" style="stop-color:#FF4521"/>
		<stop  offset="0.3411" style="stop-color:#D43E65"/>
		<stop  offset="0.7935" style="stop-color:#9F36B9"/>
		<stop  offset="1" style="stop-color:#8A33DB"/>
	</linearGradient>
	<path fill="url(#SVGID_4_)" d="M17.271,52.251c0.454,0.154,1.024,0.082,1.643-0.258l21.363-11.748l-5.5-5.5L17.271,52.251z"/>
</g>
<g>
	<g>
		<path fill="#FFFFFF" d="M57.771,61.736c1.2-0.048,11.061-0.752,13.142-0.769l0.016,1.201c-0.208-0.017-0.4-0.017-0.592-0.017
			c-0.929,0-1.713,0.16-2.737,0.816c-2.401,1.44-4.722,4.018-4.722,6.083c0,2.24,1.568,3.569,5.538,4.081l-0.528,1.121
			c-4.546-0.656-6.242-2.354-6.242-5.202c0-2.258,2.225-4.994,5.153-6.835c-1.761,0.128-6.482,0.479-8.547,0.672
			c-0.048,0.128-0.225,0.24-0.353,0.256L57.771,61.736z M68.143,64.89c0.769,0.576,1.681,1.521,2.177,2.209l-0.608,0.496
			c-0.448-0.704-1.424-1.696-2.112-2.225L68.143,64.89z M69.871,63.481c0.784,0.576,1.713,1.504,2.177,2.209L71.44,66.17
			c-0.433-0.64-1.361-1.633-2.113-2.209L69.871,63.481z"/>
		<path fill="#FFFFFF" d="M88.191,68.315v1.056h-6.771v3.569c0,0.816-0.24,1.137-0.816,1.313c-0.592,0.191-1.633,0.208-3.361,0.191
			c-0.08-0.304-0.288-0.769-0.464-1.072c0.768,0.032,1.504,0.032,2.064,0.032c1.36,0,1.473,0,1.473-0.465v-3.569h-6.738v-1.056
			h6.738V65.61H74.65v-1.024h5.666v-2.594c-1.761,0.208-3.617,0.368-5.33,0.465c-0.032-0.272-0.16-0.688-0.288-0.929
			c3.873-0.256,8.531-0.769,10.9-1.616l0.929,0.912c-0.049,0.032-0.097,0.048-0.192,0.048c-0.032,0-0.08,0-0.145-0.016
			c-1.152,0.384-2.721,0.688-4.449,0.944c-0.032,0.111-0.112,0.16-0.32,0.191v2.594h5.858v1.024h-5.858v2.705H88.191z"/>
		<path fill="#FFFFFF" d="M93.468,60.76c-0.048,0.177-0.208,0.272-0.528,0.256c-0.561,2.609-0.849,5.475-0.849,7.203
			c0,1.201,0.048,2.417,0.208,3.17c0.305-0.785,0.992-2.466,1.217-3.025l0.672,0.704c-0.656,1.616-1.136,2.529-1.36,3.249
			c-0.08,0.272-0.128,0.528-0.128,0.753c0,0.176,0.032,0.336,0.08,0.496l-1.137,0.208c-0.512-1.521-0.704-3.378-0.704-5.507
			c0-2.097,0.336-5.025,0.849-7.795L93.468,60.76z M103.664,72.461c-0.577,0.032-1.169,0.048-1.761,0.048
			c-1.137,0-2.209-0.064-2.978-0.176c-1.969-0.288-2.881-1.377-2.881-2.657c0-1.104,0.607-2.033,1.504-3.09l1.041,0.448
			c-0.801,0.833-1.36,1.601-1.36,2.514c0,1.856,2.721,1.856,4.386,1.856c0.672,0,1.393-0.032,2.064-0.08L103.664,72.461z
			 M96.253,62.681c2.064-0.048,4.85-0.24,6.979-0.608l0.096,1.121c-1.984,0.336-5.202,0.544-7.043,0.592L96.253,62.681z"/>
		<path fill="#FFFFFF" d="M113.116,60.568h1.088c0,2.864,0.368,9.075,6.835,12.917c-0.24,0.191-0.672,0.64-0.864,0.912
			c-4.161-2.529-5.891-6.194-6.595-9.315c-1.152,4.273-3.233,7.475-6.595,9.331c-0.208-0.224-0.624-0.624-0.896-0.815
			c3.538-1.841,5.603-5.251,6.611-9.908l0.656,0.16c-0.128-0.801-0.192-1.537-0.208-2.178h-4.082v-1.088h4.05V60.568z"/>
		<path fill="#FFFFFF" d="M123.21,63.241c1.297,0,2.481-0.112,3.009-0.24c0.032-0.961,0.049-1.488,0.112-2.945l1.648,0.128
			c-0.031,0.176-0.176,0.288-0.447,0.32c-0.064,0.704-0.129,1.696-0.16,2.289l0.496,0.192c-0.385,0.768-0.545,1.712-0.641,2.288
			c1.761-1.648,3.714-2.816,5.042-2.816c1.505,0,2.257,1.056,2.257,2.913c0,0.208-0.016,0.416-0.032,0.624
			c-0.111,1.408-0.271,3.409-0.271,4.689c0,0.961,0.112,1.473,0.784,1.473c0.48,0,1.44-0.479,2.129-1.072
			c0.032,0.32,0.16,0.977,0.224,1.217c-0.816,0.592-1.776,1.04-2.513,1.04c-1.345,0-1.793-0.8-1.793-2.465
			c0-0.832,0.288-5.234,0.288-5.25c0-1.393-0.479-2.017-1.265-2.017c-1.2,0-3.217,1.296-4.882,3.057c0,2.321,0,5.171,0.017,7.348
			h-1.121c0.017-0.929,0-5.49,0.017-6.515c-0.561,1.12-1.649,2.577-2.913,3.857l-0.576-1.009c1.328-1.248,2.816-3.186,3.521-4.834
			c0-0.464,0.016-0.896,0.031-1.408c-0.56,0.128-1.729,0.256-2.945,0.271L123.21,63.241z"/>
		<path fill="#FFFFFF" d="M150.702,73.005c-1.376-1.089-3.121-2.129-4.802-2.673c0.032,0.624-0.08,1.44-0.208,1.856
			c-0.128,1.329-1.36,1.841-2.833,1.841c-2.065,0-3.697-1.009-3.714-2.625c-0.032-1.616,1.665-2.609,3.682-2.625
			c0.561,0,1.28,0.032,1.873,0.144c0-0.432-0.08-0.8-0.097-1.168c-0.144-2.097-0.271-5.458-0.288-7.764l1.665,0.097
			c0,0.16-0.145,0.304-0.416,0.336c-0.017,0.433,0,2.545,0,3.025c1.04,0,3.377-0.176,5.313-0.513l0.112,1.137
			c-1.824,0.288-4.193,0.448-5.41,0.464c0,0.913,0.032,1.281,0.272,4.595c2.064,0.607,4.018,1.696,5.586,2.849L150.702,73.005z
			 M142.795,69.739c-1.536,0.032-2.608,0.673-2.608,1.585c0,1.169,1.264,1.681,2.545,1.681c1.12,0,2.049-0.4,2.049-1.536
			c0-0.368,0-1.024-0.032-1.489C144.107,69.788,143.403,69.739,142.795,69.739z"/>
		<path fill="#FFFFFF" d="M154.09,65.466c2.401-0.656,5.427-1.312,6.627-1.312c2.401,0,3.81,1.28,3.81,3.649v0.128
			c-0.032,2.913-2.321,5.042-6.915,6.274c-0.144-0.271-0.479-0.704-0.72-0.976c4.098-0.977,6.418-2.897,6.418-5.331
			c0-1.536-0.736-2.641-2.641-2.641c-1.28,0-3.826,0.576-5.795,1.265c0.017,0.128-0.144,0.288-0.304,0.368L154.09,65.466z
			 M156.331,59.928c2.192,0.192,4.722,0.656,6.435,1.248l-0.336,1.121c-1.697-0.576-4.29-1.104-6.371-1.281L156.331,59.928z"/>
	</g>
</g>
</svg>
