<?xml version="1.0" encoding="utf-8"?>
<!-- Generator: Adobe Illustrator 15.1.0, SVG Export Plug-In . SVG Version: 6.00 Build 0)  -->
<!DOCTYPE svg PUBLIC "-//W3C//DTD SVG 1.1//EN" "http://www.w3.org/Graphics/SVG/1.1/DTD/svg11.dtd">
<svg version="1.1" id="SemiBold" xmlns="http://www.w3.org/2000/svg" xmlns:xlink="http://www.w3.org/1999/xlink" x="0px" y="0px"
	 width="216.457px" height="75.108px" viewBox="0 0 216.457 75.108" enable-background="new 0 0 216.457 75.108"
	 xml:space="preserve">
<g>
	<path d="M215.707,63.768c0,6.53-4.797,10.591-11.322,10.591H12.571c-6.528,0-11.821-5.298-11.821-11.828V12.574
		C0.75,6.045,6.043,0.75,12.571,0.75h191.813c6.525,0,11.322,5.295,11.322,11.824V63.768z"/>
	<path fill="#FFFFFF" d="M204.385,75.108H12.571C5.64,75.108,0,69.466,0,62.53V12.574C0,5.641,5.64,0,12.571,0h191.813
		c6.77,0,12.072,5.523,12.072,12.574v51.194C216.457,70.551,211.605,75.108,204.385,75.108z M12.571,1.5
		C6.467,1.5,1.5,6.468,1.5,12.574V62.53c0,6.108,4.967,11.078,11.071,11.078h191.813c6.324,0,10.572-3.955,10.572-9.841V12.574
		c0-6.209-4.645-11.074-10.572-11.074H12.571z"/>
</g>
<g>
	<g>
		<path fill="#FFFFFF" d="M147.652,33.585l-1.615,1.522c-0.371,0.205-0.742,0.443-1.113,0.612c-1.121,0.509-2.26,0.637-3.273,0.637
			c-1.078,0-2.768-0.069-4.49-1.316c-2.396-1.688-3.443-4.587-3.443-7.114c0-5.232,4.26-7.798,7.732-7.798
			c1.215,0,2.463,0.304,3.477,0.945c1.686,1.114,2.121,2.563,2.363,3.34l-7.934,3.205l-2.598,0.202
			c0.84,4.289,3.742,6.784,6.949,6.784c1.602,0,2.791-0.521,3.883-1.062C147.588,33.543,147.807,33.429,147.652,33.585z
			 M142.865,25.052c0.645-0.234,0.979-0.437,0.979-0.906c0-1.348-1.523-2.904-3.344-2.904c-1.35,0-3.879,1.05-3.879,4.695
			c0,0.569,0.066,1.175,0.102,1.781L142.865,25.052z"/>
		<path fill="#FFFFFF" d="M131.064,33.323c0,1.312,0.234,1.516,1.344,1.618c0.578,0.068,1.152,0.099,1.725,0.166l-1.248,0.743
			h-5.947c0.779-1.012,0.914-1.112,0.914-1.787V33.31l-0.014-20.063h-2.625l2.527-1.218h4.824c-1.045,0.605-1.357,0.975-1.492,2.155
			L131.064,33.323z"/>
		<path fill="#FFFFFF" d="M121.842,21.784c0.773,0.637,2.393,1.988,2.393,4.553c0,2.499-1.41,3.677-2.83,4.792
			c-0.438,0.438-0.945,0.915-0.945,1.651c0,0.746,0.51,1.151,0.877,1.453l1.219,0.941c1.482,1.251,2.832,2.398,2.832,4.728
			c0,3.176-3.072,6.375-8.877,6.375c-4.889,0-7.253-2.328-7.253-4.824c0-1.217,0.604-2.938,2.601-4.115
			c2.092-1.279,4.928-1.45,6.444-1.55c-0.473-0.612-1.014-1.253-1.014-2.299c0-0.572,0.172-0.913,0.338-1.315
			c-0.369,0.035-0.742,0.071-1.08,0.071c-3.579,0-5.602-2.67-5.602-5.302c0-1.552,0.707-3.273,2.161-4.521
			c1.925-1.584,4.218-1.857,6.041-1.857h6.955l-2.162,1.221L121.842,21.784L121.842,21.784z M119.451,36.765
			c-0.277-0.036-0.443-0.036-0.777-0.036c-0.305,0-2.129,0.066-3.541,0.54c-0.747,0.273-2.906,1.08-2.906,3.479
			c0,2.392,2.331,4.115,5.939,4.115c3.238,0,4.959-1.553,4.959-3.644C123.123,39.497,122.01,38.59,119.451,36.765z M120.42,30.353
			c0.781-0.778,0.848-1.854,0.848-2.466c0-2.427-1.445-6.207-4.252-6.207c-0.875,0-1.823,0.439-2.36,1.118
			c-0.57,0.703-0.742,1.615-0.742,2.492c0,2.26,1.317,6.008,4.217,6.008C118.977,31.298,119.887,30.887,120.42,30.353z"/>
		<path fill="#FFFFFF" d="M100.919,36.287c-5.364,0-8.234-4.178-8.234-7.959c0-4.419,3.608-8.2,8.74-8.2
			c4.961,0,8.068,3.884,8.068,7.962C109.494,32.072,106.422,36.287,100.919,36.287z M105.139,33.557
			c0.816-1.08,1.014-2.428,1.014-3.742c0-2.972-1.416-8.64-5.601-8.64c-1.113,0-2.234,0.435-3.042,1.146
			c-1.318,1.181-1.553,2.664-1.553,4.12c0,3.334,1.647,8.833,5.737,8.833C103.015,35.274,104.362,34.635,105.139,33.557z"/>
		<path fill="#FFFFFF" d="M82.96,36.287c-5.365,0-8.23-4.178-8.23-7.959c0-4.419,3.609-8.2,8.739-8.2
			c4.958,0,8.062,3.884,8.062,7.962C91.531,32.072,88.464,36.287,82.96,36.287z M87.181,33.557c0.81-1.08,1.012-2.428,1.012-3.742
			c0-2.972-1.42-8.64-5.601-8.64c-1.117,0-2.226,0.435-3.036,1.146c-1.32,1.181-1.554,2.664-1.554,4.12
			c0,3.334,1.654,8.833,5.737,8.833C85.057,35.274,86.402,34.635,87.181,33.557z"/>
		<path fill="#FFFFFF" d="M72.585,35.116l-4.524,1.035c-1.833,0.289-3.479,0.544-5.222,0.544c-8.727,0-12.051-6.424-12.051-11.45
			c0-6.14,4.711-11.831,12.778-11.831c1.707,0,3.35,0.251,4.846,0.658c2.371,0.667,3.479,1.487,4.173,1.969l-2.628,2.496
			l-1.108,0.248l0.79-1.26c-1.07-1.045-3.037-2.974-6.77-2.974c-4.991,0-8.757,3.794-8.757,9.333c0,5.949,4.3,11.545,11.194,11.545
			c2.026,0,3.069-0.407,4.016-0.787v-5.1l-4.776,0.257l2.532-1.36h6.703l-0.819,0.789c-0.222,0.188-0.251,0.252-0.313,0.504
			c-0.033,0.288-0.063,1.204-0.063,1.526L72.585,35.116L72.585,35.116z"/>
	</g>
	<g>
		<path fill="#FFFFFF" d="M157.379,33.729v8.597h-1.707V20.453h1.707v2.49c1.111-1.609,3.143-2.886,5.504-2.886
			c4.232,0,7.084,3.211,7.084,8.294c0,5.049-2.852,8.327-7.084,8.327C160.654,36.679,158.66,35.53,157.379,33.729z M168.133,28.352
			c0-3.831-1.998-6.753-5.539-6.753c-2.199,0-4.301,1.729-5.215,3.235v7.001c0.914,1.51,3.016,3.301,5.215,3.301
			C166.135,35.136,168.133,32.189,168.133,28.352z"/>
		<path fill="#FFFFFF" d="M172.297,36.285V14.414h1.707v21.871H172.297z"/>
		<path fill="#FFFFFF" d="M193.158,40.909c0.363,0.162,0.986,0.264,1.383,0.264c1.045,0,1.771-0.428,2.424-1.936l1.246-2.82
			l-6.725-15.964h1.902l5.77,13.834l5.713-13.834h1.93L198.6,39.766c-0.85,1.99-2.188,2.947-4.027,2.947
			c-0.553,0-1.279-0.099-1.707-0.229L193.158,40.909z"/>
		<path fill="#FFFFFF" d="M188.172,36.238c-0.115-0.549-0.201-1.032-0.264-1.437c-0.053-0.403-0.082-0.815-0.082-1.234
			c-0.586,0.859-1.414,1.574-2.475,2.138c-1.059,0.566-2.064,0.845-3.447,0.845c-1.662,0-2.953-0.409-3.875-1.239
			c-0.918-0.829-1.381-1.952-1.381-3.373c0-1.419,0.67-2.571,2.004-3.452c1.334-0.885,3.059-1.324,5.191-1.324h3.982v-1.968
			c0-1.133-0.389-2.023-1.158-2.67c-0.773-0.646-1.859-0.974-3.268-0.974c-1.287,0-2.332,0.299-3.127,0.881
			c-0.787,0.594-1.186,1.33-1.186,2.217h-1.746l-0.037-0.085c-0.062-1.195,0.484-2.245,1.648-3.15
			c1.156-0.905,2.674-1.36,4.541-1.36c1.859,0,3.367,0.448,4.502,1.342c1.135,0.885,1.703,2.164,1.703,3.836v7.811
			c0,0.561,0.025,1.103,0.098,1.631c0.072,0.529,0.188,1.057,0.34,1.567h-1.965V36.238z M182.115,34.994
			c1.449,0,2.49-0.324,3.557-0.965c1.059-0.638,1.777-1.469,2.156-2.475v-3.04h-4c-1.529,0-2.793,0.338-3.789,1.021
			c-0.996,0.68-1.502,1.503-1.502,2.46c0,0.902,0.318,1.625,0.957,2.172C180.131,34.72,181.002,34.994,182.115,34.994z"/>
	</g>
</g>
<g>
	<polygon fill="none" points="28.498,27.46 33.974,21.984 33.972,21.984 28.498,27.46 11.021,9.985 11.02,9.985 28.498,27.463 
		10.993,44.969 10.993,44.969 28.498,27.463 33.998,32.963 34.001,32.963 	"/>
	
		<linearGradient id="SVGID_1_" gradientUnits="userSpaceOnUse" x1="865.2871" y1="509.6699" x2="842.2113" y2="524.1118" gradientTransform="matrix(0.7071 0.7071 0.7071 -0.7071 -947.4174 -225.4017)">
		<stop  offset="0" style="stop-color:#D6FFA1"/>
		<stop  offset="0.3264" style="stop-color:#93E2A7"/>
		<stop  offset="1" style="stop-color:#00A3B5"/>
	</linearGradient>
	<path fill="url(#SVGID_1_)" d="M33.972,21.984L12.636,10.252c-0.604-0.331-1.163-0.408-1.615-0.268L28.499,27.46L33.972,21.984z"/>
	
		<linearGradient id="SVGID_2_" gradientUnits="userSpaceOnUse" x1="851.873" y1="522.0049" x2="881.788" y2="514.1847" gradientTransform="matrix(0.7071 0.7071 0.7071 -0.7071 -947.4174 -225.4017)">
		<stop  offset="0" style="stop-color:#FF177B"/>
		<stop  offset="0.6721" style="stop-color:#FFA976"/>
		<stop  offset="1" style="stop-color:#FFEC73"/>
	</linearGradient>
	<path fill="url(#SVGID_2_)" d="M34.001,32.963l7.283-4.005c1.477-0.815,1.477-2.142,0-2.954l-7.311-4.02l-5.476,5.476
		L34.001,32.963z"/>
	
		<linearGradient id="SVGID_3_" gradientUnits="userSpaceOnUse" x1="868.5713" y1="498.7158" x2="836.1278" y2="517.8036" gradientTransform="matrix(0.7071 0.7071 0.7071 -0.7071 -947.4174 -225.4017)">
		<stop  offset="0" style="stop-color:#63FFD4"/>
		<stop  offset="0.4854" style="stop-color:#32A0BA"/>
		<stop  offset="0.8349" style="stop-color:#1262A9"/>
		<stop  offset="1" style="stop-color:#064AA2"/>
	</linearGradient>
	<path fill="url(#SVGID_3_)" d="M11.02,9.985c-0.649,0.203-1.069,0.86-1.069,1.854l0.004,31.283c0,0.982,0.407,1.631,1.038,1.847
		l17.506-17.506L11.02,9.985z"/>
	
		<linearGradient id="SVGID_4_" gradientUnits="userSpaceOnUse" x1="880.3496" y1="513.8701" x2="860.3746" y2="487.5539" gradientTransform="matrix(0.7071 0.7071 0.7071 -0.7071 -947.4174 -225.4017)">
		<stop  offset="0" style="stop-color:#FF4521"/>
		<stop  offset="0.3411" style="stop-color:#D43E65"/>
		<stop  offset="0.7935" style="stop-color:#9F36B9"/>
		<stop  offset="1" style="stop-color:#8A33DB"/>
	</linearGradient>
	<path fill="url(#SVGID_4_)" d="M10.993,44.969c0.454,0.153,1.024,0.082,1.643-0.258l21.363-11.748l-5.5-5.5L10.993,44.969z"/>
</g>
<g>
	<g>
		<path fill="#FFFFFF" d="M51.493,54.454c1.2-0.049,11.061-0.752,13.142-0.77l0.016,1.201c-0.208-0.018-0.4-0.018-0.592-0.018
			c-0.929,0-1.713,0.16-2.737,0.816c-2.401,1.44-4.722,4.018-4.722,6.083c0,2.24,1.568,3.569,5.538,4.081L61.61,66.97
			c-4.546-0.656-6.242-2.354-6.242-5.202c0-2.258,2.225-4.993,5.153-6.835c-1.761,0.128-6.482,0.479-8.547,0.672
			c-0.048,0.129-0.225,0.24-0.353,0.256L51.493,54.454z M61.865,57.608c0.769,0.575,1.681,1.521,2.177,2.209l-0.608,0.496
			c-0.448-0.705-1.424-1.697-2.112-2.226L61.865,57.608z M63.593,56.198c0.784,0.576,1.713,1.504,2.177,2.209l-0.608,0.48
			c-0.433-0.641-1.361-1.633-2.113-2.209L63.593,56.198z"/>
		<path fill="#FFFFFF" d="M81.913,61.032v1.057h-6.771v3.568c0,0.816-0.24,1.138-0.816,1.313c-0.592,0.19-1.633,0.208-3.361,0.19
			c-0.08-0.303-0.288-0.769-0.464-1.071c0.768,0.032,1.504,0.032,2.064,0.032c1.36,0,1.473,0,1.473-0.465v-3.569H67.3v-1.056h6.738
			v-2.705h-5.666v-1.023h5.666V54.71c-1.761,0.208-3.617,0.367-5.33,0.465c-0.032-0.271-0.16-0.688-0.288-0.93
			c3.873-0.256,8.531-0.769,10.9-1.615l0.929,0.912c-0.049,0.031-0.097,0.048-0.192,0.048c-0.032,0-0.08,0-0.145-0.017
			c-1.152,0.385-2.721,0.688-4.449,0.944c-0.032,0.111-0.112,0.16-0.32,0.191v2.594h5.858v1.024h-5.858v2.705H81.913L81.913,61.032z
			"/>
		<path fill="#FFFFFF" d="M87.19,53.478c-0.048,0.178-0.208,0.272-0.528,0.256c-0.561,2.609-0.849,5.476-0.849,7.203
			c0,1.201,0.048,2.417,0.208,3.17c0.305-0.785,0.992-2.466,1.217-3.024l0.672,0.704c-0.656,1.615-1.136,2.529-1.36,3.248
			c-0.08,0.272-0.128,0.529-0.128,0.754c0,0.176,0.032,0.336,0.08,0.496l-1.137,0.207c-0.512-1.521-0.704-3.377-0.704-5.506
			c0-2.098,0.336-5.025,0.849-7.795L87.19,53.478z M97.386,65.179c-0.577,0.032-1.169,0.048-1.761,0.048
			c-1.137,0-2.209-0.063-2.978-0.176c-1.969-0.288-2.881-1.377-2.881-2.657c0-1.104,0.607-2.033,1.504-3.09l1.041,0.448
			c-0.801,0.833-1.36,1.601-1.36,2.514c0,1.856,2.721,1.856,4.386,1.856c0.672,0,1.393-0.032,2.064-0.08L97.386,65.179z
			 M89.975,55.399c2.064-0.049,4.85-0.24,6.979-0.608l0.096,1.12c-1.984,0.336-5.202,0.545-7.043,0.593L89.975,55.399z"/>
		<path fill="#FFFFFF" d="M106.838,53.286h1.088c0,2.863,0.368,9.074,6.835,12.916c-0.24,0.191-0.672,0.641-0.864,0.912
			c-4.161-2.528-5.891-6.193-6.595-9.314c-1.152,4.273-3.233,7.475-6.595,9.331c-0.208-0.224-0.624-0.624-0.896-0.815
			c3.538-1.841,5.603-5.25,6.611-9.908l0.656,0.16c-0.128-0.801-0.192-1.537-0.208-2.178h-4.082v-1.088h4.05V53.286z"/>
		<path fill="#FFFFFF" d="M116.932,55.959c1.297,0,2.482-0.112,3.01-0.24c0.031-0.961,0.049-1.487,0.111-2.944l1.648,0.127
			c-0.031,0.176-0.176,0.289-0.447,0.32c-0.064,0.704-0.129,1.696-0.16,2.289l0.496,0.191c-0.385,0.769-0.545,1.713-0.641,2.289
			c1.762-1.648,3.715-2.816,5.043-2.816c1.504,0,2.256,1.057,2.256,2.913c0,0.208-0.016,0.416-0.031,0.624
			c-0.111,1.408-0.271,3.408-0.271,4.689c0,0.961,0.111,1.473,0.783,1.473c0.48,0,1.441-0.479,2.131-1.072
			c0.031,0.32,0.158,0.977,0.223,1.217c-0.816,0.592-1.775,1.04-2.512,1.04c-1.346,0-1.793-0.8-1.793-2.465
			c0-0.832,0.287-5.233,0.287-5.25c0-1.394-0.479-2.017-1.266-2.017c-1.199,0-3.217,1.296-4.881,3.057c0,2.32,0,5.171,0.016,7.348
			h-1.121c0.018-0.929,0-5.49,0.018-6.515c-0.561,1.12-1.648,2.577-2.912,3.856l-0.576-1.008c1.328-1.248,2.816-3.187,3.521-4.834
			c0-0.465,0.016-0.896,0.029-1.408c-0.559,0.127-1.729,0.256-2.943,0.271L116.932,55.959z"/>
		<path fill="#FFFFFF" d="M144.424,65.723c-1.375-1.089-3.121-2.129-4.801-2.673c0.031,0.624-0.08,1.439-0.209,1.855
			c-0.127,1.33-1.359,1.842-2.832,1.842c-2.066,0-3.697-1.01-3.715-2.625c-0.031-1.616,1.666-2.609,3.682-2.625
			c0.562,0,1.281,0.031,1.873,0.144c0-0.432-0.08-0.8-0.096-1.168c-0.145-2.097-0.271-5.458-0.289-7.764l1.666,0.097
			c0,0.16-0.146,0.305-0.416,0.336c-0.018,0.434,0,2.545,0,3.025c1.039,0,3.377-0.176,5.312-0.514l0.111,1.138
			c-1.824,0.288-4.193,0.448-5.41,0.464c0,0.913,0.033,1.281,0.273,4.595c2.062,0.607,4.018,1.696,5.586,2.849L144.424,65.723z
			 M136.518,62.457c-1.537,0.032-2.607,0.673-2.607,1.585c0,1.169,1.264,1.681,2.545,1.681c1.119,0,2.049-0.399,2.049-1.536
			c0-0.367,0-1.023-0.033-1.488C137.83,62.506,137.125,62.457,136.518,62.457z"/>
		<path fill="#FFFFFF" d="M147.812,58.184c2.4-0.655,5.428-1.312,6.627-1.312c2.4,0,3.811,1.279,3.811,3.648v0.129
			c-0.033,2.912-2.322,5.041-6.916,6.273c-0.145-0.271-0.479-0.704-0.719-0.977c4.098-0.977,6.418-2.896,6.418-5.33
			c0-1.537-0.736-2.642-2.643-2.642c-1.279,0-3.826,0.576-5.795,1.265c0.018,0.129-0.143,0.289-0.303,0.369L147.812,58.184z
			 M150.053,52.646c2.193,0.192,4.723,0.656,6.436,1.248l-0.336,1.121c-1.697-0.576-4.289-1.104-6.371-1.281L150.053,52.646z"/>
	</g>
</g>
</svg>
