<?xml version="1.0" encoding="utf-8"?>
<!-- Generator: Adobe Illustrator 15.1.0, SVG Export Plug-In . SVG Version: 6.00 Build 0)  -->
<!DOCTYPE svg PUBLIC "-//W3C//DTD SVG 1.1//EN" "http://www.w3.org/Graphics/SVG/1.1/DTD/svg11.dtd">
<svg version="1.1" id="SemiBold" xmlns="http://www.w3.org/2000/svg" xmlns:xlink="http://www.w3.org/1999/xlink" x="0px" y="0px"
	 width="216.457px" height="75.108px" viewBox="0 0 216.457 75.108" enable-background="new 0 0 216.457 75.108"
	 xml:space="preserve">
<g>
	<path d="M215.707,63.768c0,6.529-4.797,10.59-11.322,10.59H12.571c-6.528,0-11.821-5.297-11.821-11.828V12.573
		C0.75,6.045,6.043,0.75,12.571,0.75h191.813c6.525,0,11.322,5.295,11.322,11.823V63.768z"/>
	<path fill="#FFFFFF" d="M204.385,75.107H12.571C5.64,75.107,0,69.465,0,62.529V12.573C0,5.641,5.64,0,12.571,0h191.813
		c6.77,0,12.072,5.522,12.072,12.573v51.194C216.457,70.551,211.605,75.107,204.385,75.107z M12.571,1.5
		C6.467,1.5,1.5,6.467,1.5,12.573v49.956c0,6.109,4.967,11.078,11.071,11.078h191.813c6.324,0,10.572-3.955,10.572-9.84V12.573
		c0-6.21-4.645-11.073-10.572-11.073H12.571z"/>
</g>
<g>
	<g>
		<path fill="#FFFFFF" d="M147.652,32.584l-1.615,1.522c-0.371,0.204-0.742,0.442-1.113,0.612c-1.121,0.508-2.26,0.637-3.273,0.637
			c-1.078,0-2.768-0.069-4.49-1.316c-2.396-1.688-3.443-4.587-3.443-7.113c0-5.232,4.26-7.799,7.732-7.799
			c1.215,0,2.463,0.305,3.477,0.945c1.686,1.113,2.121,2.562,2.363,3.34l-7.934,3.205l-2.598,0.202
			c0.84,4.289,3.742,6.784,6.949,6.784c1.602,0,2.791-0.521,3.883-1.062C147.588,32.543,147.807,32.428,147.652,32.584z
			 M142.865,24.051c0.645-0.233,0.979-0.437,0.979-0.905c0-1.349-1.523-2.904-3.344-2.904c-1.35,0-3.879,1.05-3.879,4.694
			c0,0.57,0.066,1.176,0.102,1.781L142.865,24.051z"/>
		<path fill="#FFFFFF" d="M131.064,32.322c0,1.312,0.234,1.516,1.344,1.618c0.578,0.067,1.152,0.099,1.725,0.166l-1.248,0.743
			h-5.947c0.779-1.012,0.914-1.112,0.914-1.787v-0.754l-0.014-20.062h-2.625l2.527-1.218h4.824
			c-1.045,0.604-1.357,0.976-1.492,2.155L131.064,32.322z"/>
		<path fill="#FFFFFF" d="M121.842,20.783c0.773,0.637,2.393,1.988,2.393,4.553c0,2.5-1.41,3.678-2.83,4.793
			c-0.438,0.438-0.945,0.914-0.945,1.65c0,0.746,0.51,1.15,0.877,1.453l1.219,0.941c1.482,1.25,2.832,2.397,2.832,4.728
			c0,3.175-3.072,6.374-8.877,6.374c-4.889,0-7.254-2.328-7.254-4.824c0-1.217,0.605-2.938,2.602-4.115
			c2.092-1.279,4.928-1.449,6.443-1.55c-0.473-0.612-1.014-1.253-1.014-2.299c0-0.571,0.172-0.913,0.338-1.315
			c-0.369,0.035-0.742,0.071-1.08,0.071c-3.578,0-5.602-2.67-5.602-5.302c0-1.553,0.707-3.273,2.16-4.521
			c1.926-1.584,4.219-1.856,6.041-1.856h6.955l-2.162,1.221L121.842,20.783L121.842,20.783z M119.451,35.764
			c-0.277-0.035-0.443-0.035-0.777-0.035c-0.305,0-2.129,0.066-3.541,0.539c-0.746,0.273-2.906,1.08-2.906,3.479
			c0,2.393,2.332,4.115,5.939,4.115c3.238,0,4.959-1.553,4.959-3.643C123.123,38.497,122.01,37.59,119.451,35.764z M120.42,29.352
			c0.781-0.777,0.848-1.854,0.848-2.465c0-2.428-1.445-6.207-4.252-6.207c-0.875,0-1.822,0.438-2.359,1.117
			c-0.57,0.703-0.742,1.615-0.742,2.492c0,2.26,1.316,6.008,4.217,6.008C118.977,30.297,119.887,29.887,120.42,29.352z"/>
		<path fill="#FFFFFF" d="M100.919,35.286c-5.364,0-8.233-4.178-8.233-7.959c0-4.419,3.607-8.2,8.74-8.2
			c4.961,0,8.068,3.885,8.068,7.963C109.494,31.071,106.422,35.286,100.919,35.286z M105.139,32.557
			c0.816-1.08,1.015-2.428,1.015-3.742c0-2.973-1.416-8.641-5.601-8.641c-1.113,0-2.234,0.436-3.043,1.146
			c-1.317,1.182-1.553,2.664-1.553,4.12c0,3.334,1.646,8.833,5.737,8.833C103.016,34.273,104.362,33.635,105.139,32.557z"/>
		<path fill="#FFFFFF" d="M82.96,35.286c-5.364,0-8.229-4.178-8.229-7.959c0-4.419,3.609-8.2,8.738-8.2
			c4.959,0,8.062,3.885,8.062,7.963C91.531,31.071,88.465,35.286,82.96,35.286z M87.182,32.557c0.81-1.08,1.012-2.428,1.012-3.742
			c0-2.973-1.42-8.641-5.602-8.641c-1.117,0-2.226,0.436-3.035,1.146c-1.32,1.182-1.555,2.664-1.555,4.12
			c0,3.334,1.654,8.833,5.737,8.833C85.057,34.273,86.402,33.635,87.182,32.557z"/>
		<path fill="#FFFFFF" d="M72.585,34.115l-4.524,1.035c-1.832,0.289-3.479,0.544-5.221,0.544c-8.728,0-12.052-6.424-12.052-11.45
			c0-6.14,4.711-11.831,12.778-11.831c1.707,0,3.35,0.251,4.846,0.658c2.371,0.667,3.479,1.487,4.173,1.97l-2.628,2.495
			l-1.107,0.248l0.789-1.26c-1.069-1.045-3.037-2.974-6.77-2.974c-4.991,0-8.757,3.793-8.757,9.332
			c0,5.949,4.3,11.545,11.194,11.545c2.025,0,3.068-0.406,4.016-0.787v-5.1l-4.775,0.258l2.531-1.36h6.703l-0.818,0.788
			c-0.223,0.189-0.252,0.253-0.314,0.505c-0.032,0.288-0.062,1.204-0.062,1.526L72.585,34.115L72.585,34.115z"/>
	</g>
	<g>
		<path fill="#FFFFFF" d="M157.379,32.729v8.596h-1.707V19.452h1.707v2.49c1.111-1.608,3.143-2.886,5.504-2.886
			c4.232,0,7.084,3.211,7.084,8.293c0,5.05-2.852,8.328-7.084,8.328C160.654,35.678,158.66,34.529,157.379,32.729z M168.133,27.352
			c0-3.831-1.998-6.754-5.539-6.754c-2.199,0-4.301,1.729-5.215,3.236v7c0.914,1.51,3.016,3.301,5.215,3.301
			C166.135,34.135,168.133,31.188,168.133,27.352z"/>
		<path fill="#FFFFFF" d="M172.297,35.284V13.413h1.707v21.871H172.297z"/>
		<path fill="#FFFFFF" d="M193.158,39.908c0.363,0.162,0.986,0.264,1.383,0.264c1.045,0,1.771-0.428,2.424-1.936l1.246-2.82
			l-6.725-15.964h1.902l5.77,13.834l5.713-13.834h1.93L198.6,38.766c-0.85,1.99-2.188,2.947-4.027,2.947
			c-0.553,0-1.279-0.1-1.707-0.23L193.158,39.908z"/>
		<path fill="#FFFFFF" d="M188.172,35.237c-0.115-0.549-0.201-1.032-0.264-1.437c-0.053-0.403-0.082-0.815-0.082-1.234
			c-0.586,0.859-1.414,1.574-2.475,2.138c-1.059,0.566-2.064,0.845-3.447,0.845c-1.662,0-2.953-0.408-3.875-1.238
			c-0.918-0.829-1.381-1.952-1.381-3.373c0-1.42,0.67-2.571,2.004-3.452c1.334-0.886,3.059-1.324,5.191-1.324h3.982v-1.968
			c0-1.133-0.389-2.023-1.158-2.67c-0.773-0.646-1.859-0.975-3.268-0.975c-1.287,0-2.332,0.299-3.127,0.881
			c-0.787,0.595-1.186,1.33-1.186,2.218h-1.746l-0.037-0.085c-0.062-1.195,0.484-2.245,1.648-3.15
			c1.156-0.904,2.674-1.359,4.541-1.359c1.859,0,3.367,0.447,4.502,1.342c1.135,0.885,1.703,2.164,1.703,3.836v7.811
			c0,0.561,0.025,1.104,0.098,1.631c0.072,0.529,0.188,1.058,0.34,1.567h-1.965V35.237z M182.115,33.993
			c1.449,0,2.49-0.323,3.557-0.965c1.059-0.638,1.777-1.47,2.156-2.476v-3.039h-4c-1.529,0-2.793,0.338-3.789,1.021
			c-0.996,0.681-1.502,1.503-1.502,2.46c0,0.902,0.318,1.625,0.957,2.172C180.131,33.719,181.002,33.993,182.115,33.993z"/>
	</g>
</g>
<g>
	<polygon fill="none" points="28.498,26.459 33.975,20.983 33.973,20.983 28.498,26.459 11.021,8.984 11.02,8.984 28.498,26.463 
		10.993,43.969 10.993,43.969 28.498,26.463 33.998,31.963 34.001,31.963 	"/>
	
		<linearGradient id="SVGID_1_" gradientUnits="userSpaceOnUse" x1="864.5791" y1="510.3779" x2="841.5032" y2="524.8197" gradientTransform="matrix(0.7071 0.7071 0.7071 -0.7071 -947.4174 -225.4017)">
		<stop  offset="0" style="stop-color:#D6FFA1"/>
		<stop  offset="0.3264" style="stop-color:#93E2A7"/>
		<stop  offset="1" style="stop-color:#00A3B5"/>
	</linearGradient>
	<path fill="url(#SVGID_1_)" d="M33.973,20.983L12.636,9.252c-0.604-0.332-1.163-0.408-1.615-0.269l17.478,17.476L33.973,20.983z"/>
	
		<linearGradient id="SVGID_2_" gradientUnits="userSpaceOnUse" x1="851.1631" y1="522.7129" x2="881.0824" y2="514.8916" gradientTransform="matrix(0.7071 0.7071 0.7071 -0.7071 -947.4174 -225.4017)">
		<stop  offset="0" style="stop-color:#FF177B"/>
		<stop  offset="0.6721" style="stop-color:#FFA976"/>
		<stop  offset="1" style="stop-color:#FFEC73"/>
	</linearGradient>
	<path fill="url(#SVGID_2_)" d="M34.001,31.963l7.283-4.006c1.478-0.814,1.478-2.142,0-2.953l-7.312-4.021l-5.476,5.476
		L34.001,31.963z"/>
	
		<linearGradient id="SVGID_3_" gradientUnits="userSpaceOnUse" x1="867.8633" y1="499.4238" x2="835.4188" y2="518.5122" gradientTransform="matrix(0.7071 0.7071 0.7071 -0.7071 -947.4174 -225.4017)">
		<stop  offset="0" style="stop-color:#63FFD4"/>
		<stop  offset="0.4854" style="stop-color:#32A0BA"/>
		<stop  offset="0.8349" style="stop-color:#1262A9"/>
		<stop  offset="1" style="stop-color:#064AA2"/>
	</linearGradient>
	<path fill="url(#SVGID_3_)" d="M11.02,8.984c-0.649,0.203-1.069,0.859-1.069,1.854l0.004,31.283c0,0.982,0.407,1.631,1.038,1.848
		l17.506-17.506L11.02,8.984z"/>
	
		<linearGradient id="SVGID_4_" gradientUnits="userSpaceOnUse" x1="879.6426" y1="514.5781" x2="859.6651" y2="488.2588" gradientTransform="matrix(0.7071 0.7071 0.7071 -0.7071 -947.4174 -225.4017)">
		<stop  offset="0" style="stop-color:#FF4521"/>
		<stop  offset="0.3411" style="stop-color:#D43E65"/>
		<stop  offset="0.7935" style="stop-color:#9F36B9"/>
		<stop  offset="1" style="stop-color:#8A33DB"/>
	</linearGradient>
	<path fill="url(#SVGID_4_)" d="M10.993,43.969c0.454,0.152,1.024,0.082,1.643-0.258l21.363-11.748l-5.5-5.5L10.993,43.969z"/>
</g>
<g display="none">
	<g display="inline">
		<path fill="#FFFFFF" d="M57.024,23.755c0-3.361,2.497-5.522,5.603-5.522c2.081,0,3.441,0.992,4.29,2.209l-1.521,0.881
			c-0.576-0.801-1.585-1.425-2.77-1.425c-2.112,0-3.682,1.601-3.682,3.857c0,2.225,1.569,3.857,3.682,3.857
			c1.089,0,2.049-0.496,2.529-0.96v-1.649h-3.201v-1.648h5.058v3.985c-1.04,1.169-2.545,1.953-4.386,1.953
			C59.521,29.293,57.024,27.101,57.024,23.755z"/>
		<path fill="#FFFFFF" d="M69.329,29.085V18.408h7.314v1.649h-5.442v2.753h5.331v1.648h-5.331v2.978h5.442v1.648L69.329,29.085
			L69.329,29.085z"/>
		<path fill="#FFFFFF" d="M81.826,29.085v-9.027h-3.233v-1.649h8.339v1.649H83.7v9.027H81.826z"/>
		<path fill="#FFFFFF" d="M93.441,29.085V18.408h1.872v10.677H93.441z"/>
		<path fill="#FFFFFF" d="M100.529,29.085v-9.027h-3.233v-1.649h8.339v1.649h-3.232v9.027H100.529z"/>
		<path fill="#FFFFFF" d="M111.68,23.755c0-3.186,2.257-5.522,5.458-5.522c3.186,0,5.459,2.337,5.459,5.522
			s-2.273,5.522-5.459,5.522C113.937,29.277,111.68,26.94,111.68,23.755z M120.676,23.755c0-2.209-1.393-3.857-3.537-3.857
			c-2.161,0-3.538,1.648-3.538,3.857c0,2.192,1.377,3.857,3.538,3.857C119.283,27.612,120.676,25.947,120.676,23.755z"/>
		<path fill="#FFFFFF" d="M132.227,29.085l-5.569-7.635v7.635h-1.872V18.408h1.921l5.458,7.396v-7.396h1.873v10.677H132.227z"/>
	</g>
</g>
<g>
	<path fill="#FFFFFF" d="M60.18,61.301c-0.567,0-1.136,0-1.703,0c-0.121-0.357-0.25-0.703-0.242-1.201
		c-1.497,1.053-4.053,2.318-5.956,0.799c-1.043-0.832-1.493-3.135-0.364-4.531c1.23-1.521,4.028-1.016,6.077-1.867
		c0.667-3.703-4.702-3.176-4.862-0.664c-0.66,0.1-0.984-0.166-1.58-0.135c-0.143-3.719,6.668-4.574,7.9-1.867
		C60.701,54.582,58.749,58.752,60.18,61.301z M53.01,58.502c0.022,0.664,0.709,1.449,1.457,1.598
		c2.104,0.414,4.239-1.861,3.403-4.133C56.361,56.924,52.922,56.109,53.01,58.502z"/>
	<path fill="#FFFFFF" d="M63.825,60.232c0,1.732,0,3.467,0,5.199c-0.556-0.059-1.338,0.137-1.701-0.131c0-4.891,0-9.777,0-14.666
		c0.526,0,1.054,0,1.58,0c0,0.354,0,0.709,0,1.066c1.101-1.396,3.417-1.682,4.74-0.934c3.723,2.098,2.683,11.008-2.188,10.801
		C65.129,61.52,64.555,60.961,63.825,60.232z M67.715,59.568c2.123-1.561,1.633-8.564-1.945-7.602
		C61.997,52.982,63.766,62.473,67.715,59.568z"/>
	<path fill="#FFFFFF" d="M170.535,56.367c-2.434,0-4.861,0-7.293,0c-0.479,3.893,4.848,4.818,5.59,1.469
		c0.537,0.031,0.941,0.209,1.582,0.131c-0.479,4.375-6.518,4.682-8.268,1.332c-1.359-2.605-0.697-7.049,1.58-8.398
		C167.221,48.832,171.066,51.918,170.535,56.367z M163.363,54.898c1.783-0.088,3.889,0.18,5.471-0.133
		C168.84,50.994,163.234,51.023,163.363,54.898z"/>
	<path fill="#FFFFFF" d="M196.057,61.301c-0.564,0-1.133,0-1.699,0c-0.121-0.357-0.252-0.703-0.244-1.201
		c-1.496,1.053-4.053,2.318-5.955,0.799c-1.045-0.832-1.494-3.135-0.363-4.531c1.229-1.521,4.029-1.016,6.076-1.867
		c0.666-3.703-4.703-3.176-4.861-0.664c-0.66,0.1-0.986-0.166-1.58-0.135c-0.143-3.719,6.666-4.574,7.9-1.867
		C196.578,54.582,194.629,58.752,196.057,61.301z M188.889,58.502c0.023,0.664,0.709,1.449,1.455,1.598
		c2.107,0.414,4.24-1.861,3.404-4.133C192.24,56.924,188.801,56.109,188.889,58.502z"/>
	<path fill="#FFFFFF" d="M72.575,50.635c0.567,0,1.134,0,1.702,0c0,1.51,0,3.02,0,4.531c2.855-0.246,1.258-5.375,5.105-4.531
		c0,0.488,0,0.977,0,1.465c-0.519-0.076-0.804,0.098-1.217,0.135c-0.845,1.027-0.781,3.057-2.188,3.465
		c1.061,0.707,1.75,1.701,2.553,3.201c0.992,1.857,1.514,3.135,1.216,6.531c-0.481-0.051-1.166,0.121-1.459-0.131
		c0-1.246,0-2.488,0-3.732c-1.631-1.367-1.662-4.49-3.888-5.201c-0.283,1.379-0.042,3.332-0.123,4.936c-0.567,0-1.135,0-1.702,0
		C72.575,57.744,72.575,54.191,72.575,50.635z"/>
	<path fill="#FFFFFF" d="M82.419,50.635c0,1.332,0,2.666,0,4c2.854,0.17,5.537,0.057,6.199,2.398
		c1.226,4.336-3.761,4.631-7.899,4.268c0-3.557,0-7.109,0-10.666C81.285,50.635,81.852,50.635,82.419,50.635z M87.038,57.967
		c-0.021-1.912-2.444-1.754-4.619-1.736c0,1.158,0,2.312,0,3.469C84.699,59.777,87.059,59.893,87.038,57.967z"/>
	<path fill="#FFFFFF" d="M91.657,50.635c-0.282,3.291-0.042,7.152-0.122,10.666c-0.527,0-1.052,0-1.581,0c0-3.557,0-7.109,0-10.666
		C90.521,50.635,91.09,50.635,91.657,50.635z"/>
	<path fill="#FFFFFF" d="M102.354,50.635c0,3.557,0,7.109,0,10.666c-0.567,0-1.135,0-1.703,0c0-3.066,0-6.135,0-9.201
		c-1.334,0-2.672,0-4.012,0c-0.103,3.826,1.096,10.451-3.523,9.201c0-0.535,0-1.068,0-1.602c0.561-0.008,1.188,0.061,1.581-0.131
		c0.465-2.559,0.151-5.969,0.243-8.934C97.41,50.635,99.881,50.635,102.354,50.635z"/>
	<path fill="#FFFFFF" d="M106.485,50.635c0,1.332,0,2.666,0,4c2.854,0.17,5.536,0.057,6.196,2.398
		c1.229,4.336-3.76,4.631-7.899,4.268c0-3.557,0-7.109,0-10.666C105.35,50.635,105.916,50.635,106.485,50.635z M111.104,57.967
		c-0.021-1.912-2.444-1.754-4.618-1.736c0,1.158,0,2.312,0,3.469C108.762,59.777,111.123,59.893,111.104,57.967z"/>
	<path fill="#FFFFFF" d="M115.721,50.635c-0.279,3.291-0.041,7.152-0.123,10.666c-0.525,0-1.051,0-1.578,0c0-3.557,0-7.109,0-10.666
		C114.588,50.635,115.154,50.635,115.721,50.635z"/>
	<path fill="#FFFFFF" d="M122.529,50.635c3.693-0.723,2.234,4.213,4.982,4.531c0.283-1.244,0.039-3.066,0.119-4.531
		c0.529,0,1.055,0,1.582,0c0,1.51,0,3.02,0,4.531c2.355-0.078,1.805-3.352,3.279-4.396c0.602-0.098,1.211-0.186,1.945-0.135
		c-0.148,0.201-0.238,1.146,0,1.332c-2.369-0.109-1.684,3.133-3.402,3.732c1.746,1.283,2.627,3.518,3.646,5.602
		c-0.607,0-1.215,0-1.822,0c-1.129-1.697-1.402-4.328-3.523-4.934c-0.283,1.377-0.043,3.332-0.123,4.934c-0.527,0-1.053,0-1.582,0
		c0-1.646,0-3.289,0-4.934c-2.277,0.479-2.445,3.271-3.645,4.934c-0.607,0-1.215,0-1.822,0c1.088-1.963,1.771-4.367,3.645-5.467
		c-1.053-0.711-1.453-2.141-1.943-3.465c-0.412-0.127-0.713-0.375-1.336-0.271C122.529,51.611,122.529,51.123,122.529,50.635z"/>
	<path fill="#FFFFFF" d="M134.924,50.635c0.607,0,1.217,0,1.82,0c0.746,2.828,1.74,5.381,2.557,8.133
		c1.094-2.531,1.893-5.389,2.795-8.133c0.566,0,1.133,0,1.699,0c-1.051,4.957-4.137,8.314-3.523,14.666
		c-0.361,0.268-1.145,0.072-1.701,0.131C138.967,59.258,136.127,55.496,134.924,50.635z"/>
	<path fill="#FFFFFF" d="M145.254,50.635c0.568,0,1.133,0,1.703,0c0,1.51,0,3.02,0,4.531c2.854-0.246,1.256-5.375,5.104-4.531
		c0,0.488,0,0.977,0,1.465c-2.514-0.311-1.516,3.225-3.4,3.6c1.869,1.148,2.504,3.65,3.766,5.467
		c-0.367,0.311-1.254,0.051-1.822,0.137c-1.242-1.572-1.471-4.256-3.523-4.936c-0.285,1.379-0.043,3.332-0.123,4.936
		c-0.568,0-1.133,0-1.703,0C145.254,57.744,145.254,54.191,145.254,50.635z"/>
	<path fill="#FFFFFF" d="M160.447,50.635c0,0.488,0,0.977,0,1.465c-1.012,0-2.025,0-3.037,0c-0.285,2.799-0.041,6.178-0.121,9.201
		c-0.555-0.059-1.338,0.133-1.705-0.135c0-3.021,0-6.043,0-9.066c-1.01,0-2.023,0-3.037,0c0-0.488,0-0.977,0-1.465
		C155.18,50.635,157.812,50.635,160.447,50.635z"/>
	<path fill="#FFFFFF" d="M180.135,50.635c-0.281,3.291-0.039,7.152-0.119,10.666c-0.525,0-1.053,0-1.582,0c0-3.023,0-6.045,0-9.066
		c-1.182-0.305-2.867-0.051-4.252-0.135c-0.285,2.799-0.041,6.178-0.121,9.201c-0.568,0-1.137,0-1.703,0c0-3.557,0-7.109,0-10.666
		C174.951,50.635,177.543,50.635,180.135,50.635z"/>
	<path fill="#FFFFFF" d="M206.389,50.635c0,3.557,0,7.109,0,10.666c-0.568,0-1.135,0-1.701,0c0-3.066,0-6.135,0-9.201
		c-1.338,0-2.676,0-4.01,0c-0.723,3.564,1.641,10.514-3.523,9.201c0-0.535,0-1.068,0-1.602c0.557-0.008,1.188,0.061,1.578-0.131
		c0.463-2.559,0.15-5.969,0.242-8.934C201.445,50.635,203.918,50.635,206.389,50.635z"/>
</g>
</svg>
