<?xml version="1.0" encoding="utf-8"?>
<!-- Generator: Adobe Illustrator 15.1.0, SVG Export Plug-In . SVG Version: 6.00 Build 0)  -->
<!DOCTYPE svg PUBLIC "-//W3C//DTD SVG 1.1//EN" "http://www.w3.org/Graphics/SVG/1.1/DTD/svg11.dtd">
<svg version="1.1" id="SemiBold" xmlns="http://www.w3.org/2000/svg" xmlns:xlink="http://www.w3.org/1999/xlink" x="0px" y="0px"
	 width="229.5px" height="91.5px" viewBox="0 0 229.5 91.5" enable-background="new 0 0 229.5 91.5" xml:space="preserve">
<path stroke="#FFFFFF" stroke-width="1.5" stroke-miterlimit="10" d="M221.985,71.05c0,6.53-4.797,10.59-11.322,10.59H18.849
	c-6.528,0-11.821-5.297-11.821-11.827V19.856c0-6.529,5.293-11.824,11.821-11.824h191.814c6.525,0,11.322,5.295,11.322,11.824V71.05
	z"/>
<g>
	<g>
		<path fill="#FFFFFF" d="M153.929,39.867l-1.614,1.522c-0.372,0.205-0.743,0.443-1.113,0.612c-1.121,0.509-2.261,0.637-3.274,0.637
			c-1.078,0-2.768-0.069-4.491-1.316c-2.396-1.688-3.442-4.587-3.442-7.114c0-5.232,4.259-7.798,7.732-7.798
			c1.215,0,2.462,0.304,3.476,0.945c1.686,1.114,2.122,2.563,2.364,3.34l-7.934,3.205l-2.598,0.202
			c0.841,4.289,3.743,6.784,6.95,6.784c1.602,0,2.791-0.522,3.882-1.062C153.866,39.825,154.085,39.711,153.929,39.867z
			 M149.143,31.334c0.645-0.234,0.979-0.437,0.979-0.906c0-1.348-1.525-2.904-3.345-2.904c-1.349,0-3.879,1.05-3.879,4.695
			c0,0.569,0.067,1.175,0.102,1.781L149.143,31.334z"/>
		<path fill="#FFFFFF" d="M137.342,39.605c0,1.312,0.234,1.516,1.343,1.618c0.578,0.068,1.154,0.099,1.725,0.166l-1.248,0.743
			h-5.947c0.78-1.012,0.914-1.112,0.914-1.787v-0.753l-0.013-20.063h-2.626l2.527-1.218h4.826c-1.046,0.605-1.358,0.975-1.493,2.155
			L137.342,39.605z"/>
		<path fill="#FFFFFF" d="M128.119,28.066c0.774,0.637,2.392,1.988,2.392,4.553c0,2.499-1.409,3.677-2.83,4.792
			c-0.436,0.438-0.945,0.915-0.945,1.651c0,0.746,0.51,1.151,0.877,1.453l1.219,0.941c1.482,1.251,2.833,2.398,2.833,4.728
			c0,3.175-3.072,6.375-8.877,6.375c-4.89,0-7.254-2.328-7.254-4.825c0-1.216,0.604-2.937,2.601-4.115
			c2.092-1.279,4.927-1.45,6.444-1.55c-0.474-0.612-1.015-1.253-1.015-2.299c0-0.572,0.172-0.913,0.338-1.315
			c-0.369,0.035-0.741,0.071-1.079,0.071c-3.579,0-5.603-2.67-5.603-5.302c0-1.552,0.708-3.273,2.162-4.521
			c1.924-1.584,4.218-1.857,6.041-1.857h6.954l-2.162,1.221H128.119z M125.728,43.047c-0.276-0.036-0.442-0.036-0.776-0.036
			c-0.306,0-2.129,0.066-3.541,0.54c-0.747,0.273-2.906,1.08-2.906,3.478c0,2.392,2.331,4.116,5.938,4.116
			c3.239,0,4.96-1.553,4.96-3.644C129.401,45.78,128.288,44.872,125.728,43.047z M126.698,36.635
			c0.78-0.778,0.848-1.854,0.848-2.466c0-2.427-1.447-6.207-4.252-6.207c-0.875,0-1.823,0.439-2.361,1.118
			c-0.57,0.703-0.741,1.615-0.741,2.492c0,2.26,1.317,6.008,4.217,6.008C125.254,37.58,126.164,37.169,126.698,36.635z"/>
		<path fill="#FFFFFF" d="M107.197,42.569c-5.364,0-8.234-4.178-8.234-7.959c0-4.419,3.608-8.2,8.74-8.2
			c4.961,0,8.068,3.884,8.068,7.962C115.771,38.354,112.7,42.569,107.197,42.569z M111.417,39.839
			c0.816-1.08,1.014-2.428,1.014-3.742c0-2.972-1.416-8.64-5.601-8.64c-1.113,0-2.234,0.435-3.042,1.146
			c-1.318,1.181-1.553,2.664-1.553,4.12c0,3.334,1.647,8.833,5.737,8.833C109.293,41.556,110.64,40.917,111.417,39.839z"/>
		<path fill="#FFFFFF" d="M89.238,42.569c-5.365,0-8.23-4.178-8.23-7.959c0-4.419,3.609-8.2,8.739-8.2
			c4.958,0,8.062,3.884,8.062,7.962C97.809,38.354,94.742,42.569,89.238,42.569z M93.459,39.839c0.81-1.08,1.012-2.428,1.012-3.742
			c0-2.972-1.42-8.64-5.601-8.64c-1.117,0-2.226,0.435-3.036,1.146c-1.32,1.181-1.554,2.664-1.554,4.12
			c0,3.334,1.654,8.833,5.737,8.833C91.335,41.556,92.68,40.917,93.459,39.839z"/>
		<path fill="#FFFFFF" d="M78.863,41.398l-4.524,1.035c-1.833,0.289-3.479,0.544-5.222,0.544c-8.727,0-12.051-6.424-12.051-11.45
			c0-6.14,4.711-11.831,12.778-11.831c1.707,0,3.35,0.251,4.846,0.658c2.371,0.667,3.479,1.487,4.173,1.969l-2.628,2.496
			l-1.108,0.248l0.79-1.26c-1.07-1.045-3.037-2.974-6.77-2.974c-4.991,0-8.757,3.794-8.757,9.333c0,5.949,4.3,11.545,11.194,11.545
			c2.026,0,3.069-0.407,4.016-0.787v-5.1l-4.776,0.257l2.532-1.36h6.703l-0.819,0.789c-0.222,0.188-0.251,0.252-0.313,0.504
			c-0.033,0.288-0.063,1.204-0.063,1.526V41.398z"/>
	</g>
	<g>
		<path fill="#FFFFFF" d="M163.656,40.011v8.596h-1.707V26.735h1.707v2.49c1.111-1.609,3.144-2.886,5.504-2.886
			c4.232,0,7.084,3.211,7.084,8.294c0,5.049-2.852,8.327-7.084,8.327C166.932,42.961,164.937,41.812,163.656,40.011z M174.41,34.634
			c0-3.831-1.997-6.753-5.538-6.753c-2.199,0-4.302,1.729-5.216,3.235v7.001c0.914,1.51,3.017,3.301,5.216,3.301
			C172.413,41.418,174.41,38.471,174.41,34.634z"/>
		<path fill="#FFFFFF" d="M178.575,42.567V20.696h1.706v21.871H178.575z"/>
		<path fill="#FFFFFF" d="M199.436,47.192c0.364,0.162,0.987,0.263,1.383,0.263c1.044,0,1.771-0.427,2.424-1.936l1.245-2.82
			l-6.725-15.964h1.904l5.769,13.834l5.712-13.834h1.931l-8.201,19.313c-0.851,1.99-2.189,2.947-4.029,2.947
			c-0.552,0-1.279-0.099-1.706-0.229L199.436,47.192z"/>
		<path fill="#FFFFFF" d="M194.449,42.52c-0.114-0.549-0.2-1.032-0.263-1.437c-0.053-0.403-0.082-0.815-0.082-1.234
			c-0.586,0.859-1.415,1.574-2.474,2.138c-1.06,0.566-2.066,0.845-3.448,0.845c-1.663,0-2.953-0.409-3.875-1.239
			c-0.918-0.829-1.38-1.952-1.38-3.373c0-1.419,0.669-2.571,2.003-3.452c1.334-0.885,3.059-1.324,5.192-1.324h3.981v-1.968
			c0-1.133-0.387-2.023-1.157-2.67c-0.774-0.646-1.86-0.974-3.269-0.974c-1.287,0-2.331,0.299-3.126,0.881
			c-0.788,0.594-1.185,1.33-1.185,2.217h-1.747l-0.036-0.085c-0.063-1.195,0.484-2.245,1.647-3.15
			c1.157-0.905,2.675-1.36,4.542-1.36c1.86,0,3.366,0.448,4.502,1.342c1.134,0.885,1.703,2.164,1.703,3.836v7.811
			c0,0.561,0.026,1.103,0.097,1.631c0.072,0.529,0.187,1.057,0.34,1.567H194.449z M188.392,41.276c1.45,0,2.492-0.324,3.558-0.965
			c1.058-0.638,1.777-1.469,2.155-2.475v-3.04h-4c-1.528,0-2.793,0.338-3.788,1.021c-0.997,0.68-1.503,1.503-1.503,2.46
			c0,0.902,0.32,1.625,0.957,2.172C186.408,41.002,187.28,41.276,188.392,41.276z"/>
	</g>
</g>
<g>
	<polygon fill="none" points="34.776,33.742 40.252,28.266 40.25,28.266 34.776,33.742 17.299,16.267 17.298,16.267 34.776,33.745 
		17.271,51.251 17.271,51.251 34.776,33.745 40.276,39.245 40.279,39.245 	"/>
	
		<linearGradient id="SVGID_1_" gradientUnits="userSpaceOnUse" x1="504.7236" y1="-447.8477" x2="481.6475" y2="-462.2896" gradientTransform="matrix(0.7071 0.7071 -0.7071 0.7071 -642.4706 -7.8795)">
		<stop  offset="0" style="stop-color:#D6FFA1"/>
		<stop  offset="0.3264" style="stop-color:#93E2A7"/>
		<stop  offset="1" style="stop-color:#00A3B5"/>
	</linearGradient>
	<path fill="url(#SVGID_1_)" d="M40.25,28.266L18.914,16.534c-0.604-0.331-1.163-0.408-1.615-0.268l17.478,17.476L40.25,28.266z"/>
	
		<linearGradient id="SVGID_2_" gradientUnits="userSpaceOnUse" x1="491.3086" y1="-460.1836" x2="521.2264" y2="-452.3627" gradientTransform="matrix(0.7071 0.7071 -0.7071 0.7071 -642.4706 -7.8795)">
		<stop  offset="0" style="stop-color:#FF177B"/>
		<stop  offset="0.6721" style="stop-color:#FFA976"/>
		<stop  offset="1" style="stop-color:#FFEC73"/>
	</linearGradient>
	<path fill="url(#SVGID_2_)" d="M40.279,39.245l7.283-4.005c1.477-0.815,1.477-2.142,0-2.954l-7.311-4.02l-5.476,5.476
		L40.279,39.245z"/>
	
		<linearGradient id="SVGID_3_" gradientUnits="userSpaceOnUse" x1="508.0068" y1="-436.8936" x2="475.5633" y2="-455.9814" gradientTransform="matrix(0.7071 0.7071 -0.7071 0.7071 -642.4706 -7.8795)">
		<stop  offset="0" style="stop-color:#63FFD4"/>
		<stop  offset="0.4854" style="stop-color:#32A0BA"/>
		<stop  offset="0.8349" style="stop-color:#1262A9"/>
		<stop  offset="1" style="stop-color:#064AA2"/>
	</linearGradient>
	<path fill="url(#SVGID_3_)" d="M17.298,16.267c-0.649,0.203-1.069,0.86-1.069,1.854l0.004,31.284c0,0.982,0.407,1.63,1.038,1.846
		l17.506-17.506L17.298,16.267z"/>
	
		<linearGradient id="SVGID_4_" gradientUnits="userSpaceOnUse" x1="519.7881" y1="-452.0483" x2="499.8114" y2="-425.73" gradientTransform="matrix(0.7071 0.7071 -0.7071 0.7071 -642.4706 -7.8795)">
		<stop  offset="0" style="stop-color:#FF4521"/>
		<stop  offset="0.3411" style="stop-color:#D43E65"/>
		<stop  offset="0.7935" style="stop-color:#9F36B9"/>
		<stop  offset="1" style="stop-color:#8A33DB"/>
	</linearGradient>
	<path fill="url(#SVGID_4_)" d="M17.271,51.251c0.454,0.154,1.024,0.082,1.643-0.258l21.363-11.748l-5.5-5.5L17.271,51.251z"/>
</g>
<g display="none">
	<g display="inline">
		<path fill="#FFFFFF" d="M57.024,23.755c0-3.361,2.497-5.522,5.603-5.522c2.081,0,3.441,0.992,4.29,2.209l-1.521,0.881
			c-0.576-0.801-1.585-1.425-2.77-1.425c-2.112,0-3.682,1.601-3.682,3.857c0,2.225,1.569,3.857,3.682,3.857
			c1.089,0,2.049-0.496,2.529-0.96v-1.649h-3.201v-1.648h5.058v3.985c-1.04,1.169-2.545,1.953-4.386,1.953
			C59.521,29.293,57.024,27.101,57.024,23.755z"/>
		<path fill="#FFFFFF" d="M69.329,29.085V18.408h7.314v1.649h-5.442v2.753h5.331v1.648h-5.331v2.978h5.442v1.648H69.329z"/>
		<path fill="#FFFFFF" d="M81.826,29.085v-9.027h-3.233v-1.649h8.339v1.649h-3.232v9.027H81.826z"/>
		<path fill="#FFFFFF" d="M93.441,29.085V18.408h1.872v10.677H93.441z"/>
		<path fill="#FFFFFF" d="M100.529,29.085v-9.027h-3.233v-1.649h8.339v1.649h-3.232v9.027H100.529z"/>
		<path fill="#FFFFFF" d="M111.68,23.755c0-3.186,2.257-5.522,5.459-5.522c3.185,0,5.458,2.337,5.458,5.522
			s-2.273,5.522-5.458,5.522C113.937,29.277,111.68,26.94,111.68,23.755z M120.676,23.755c0-2.209-1.393-3.857-3.537-3.857
			c-2.161,0-3.538,1.648-3.538,3.857c0,2.192,1.377,3.857,3.538,3.857C119.283,27.612,120.676,25.947,120.676,23.755z"/>
		<path fill="#FFFFFF" d="M132.227,29.085l-5.57-7.635v7.635h-1.872V18.408h1.921l5.458,7.396v-7.396h1.873v10.677H132.227z"/>
	</g>
</g>
<g>
	<path fill-rule="evenodd" clip-rule="evenodd" fill="#FFFFFF" d="M66.457,68.584c-0.567,0-1.135,0-1.702,0
		c-0.121-0.357-0.25-0.703-0.243-1.201c-1.497,1.053-4.052,2.318-5.956,0.799c-1.043-0.832-1.493-3.135-0.364-4.531
		c1.23-1.523,4.028-1.016,6.077-1.869c0.667-3.703-4.702-3.174-4.862-0.664c-0.66,0.1-0.984-0.165-1.58-0.133
		c-0.143-3.719,6.667-4.576,7.9-1.869C66.979,61.865,65.027,66.034,66.457,68.584z M59.287,65.784
		c0.023,0.665,0.709,1.451,1.458,1.599c2.104,0.414,4.239-1.862,3.403-4.133C62.639,64.207,59.199,63.392,59.287,65.784z"/>
	<path fill-rule="evenodd" clip-rule="evenodd" fill="#FFFFFF" d="M70.103,67.515c0,1.733,0,3.467,0,5.2
		c-0.555-0.059-1.338,0.137-1.701-0.131c0-4.891,0-9.778,0-14.666c0.526,0,1.053,0,1.58,0c0,0.354,0,0.709,0,1.066
		c1.101-1.396,3.417-1.681,4.74-0.933c3.723,2.098,2.683,11.007-2.188,10.8C71.407,68.802,70.833,68.244,70.103,67.515z
		 M73.992,66.852c2.124-1.562,1.633-8.565-1.944-7.602C68.275,60.266,70.044,69.756,73.992,66.852z"/>
	<path fill-rule="evenodd" clip-rule="evenodd" fill="#FFFFFF" d="M176.812,63.65c-2.432,0-4.861,0-7.293,0
		c-0.477,3.892,4.848,4.818,5.591,1.468c0.536,0.032,0.941,0.21,1.582,0.132c-0.478,4.374-6.517,4.682-8.267,1.332
		c-1.361-2.605-0.698-7.049,1.58-8.398C173.498,56.115,177.344,59.201,176.812,63.65z M169.641,62.182
		c1.783-0.088,3.888,0.18,5.47-0.133C175.118,58.278,169.511,58.307,169.641,62.182z"/>
	<path fill-rule="evenodd" clip-rule="evenodd" fill="#FFFFFF" d="M202.335,68.584c-0.566,0-1.133,0-1.7,0
		c-0.121-0.357-0.252-0.703-0.244-1.201c-1.497,1.053-4.053,2.318-5.955,0.799c-1.045-0.832-1.494-3.135-0.364-4.531
		c1.229-1.523,4.029-1.016,6.077-1.869c0.666-3.703-4.703-3.174-4.862-0.664c-0.659,0.1-0.985-0.165-1.58-0.133
		c-0.143-3.719,6.666-4.576,7.9-1.869C202.856,61.865,200.907,66.034,202.335,68.584z M195.166,65.784
		c0.023,0.665,0.709,1.451,1.456,1.599c2.106,0.414,4.239-1.862,3.404-4.133C198.518,64.207,195.079,63.392,195.166,65.784z"/>
	<path fill-rule="evenodd" clip-rule="evenodd" fill="#FFFFFF" d="M78.853,57.918c0.568,0,1.134,0,1.702,0c0,1.51,0,3.02,0,4.531
		c2.855-0.246,1.258-5.375,5.105-4.531c0,0.488,0,0.977,0,1.464c-0.518-0.076-0.803,0.098-1.216,0.136
		c-0.845,1.027-0.781,3.055-2.187,3.465c1.06,0.707,1.75,1.7,2.552,3.201c0.993,1.856,1.514,3.135,1.216,6.531
		c-0.481-0.051-1.166,0.121-1.459-0.131c0-1.246,0-2.489,0-3.732c-1.631-1.367-1.662-4.49-3.888-5.201
		c-0.283,1.378-0.042,3.332-0.123,4.934c-0.567,0-1.134,0-1.702,0C78.853,65.028,78.853,61.475,78.853,57.918z"/>
	<path fill-rule="evenodd" clip-rule="evenodd" fill="#FFFFFF" d="M88.697,57.918c0,1.332,0,2.666,0,3.999
		c2.854,0.171,5.537,0.058,6.199,2.399c1.225,4.336-3.761,4.631-7.899,4.268c0-3.556,0-7.109,0-10.666
		C87.563,57.918,88.13,57.918,88.697,57.918z M93.316,65.25c-0.021-1.912-2.444-1.754-4.619-1.736c0,1.157,0,2.312,0,3.469
		C90.977,67.061,93.336,67.176,93.316,65.25z"/>
	<path fill-rule="evenodd" clip-rule="evenodd" fill="#FFFFFF" d="M97.935,57.918c-0.282,3.29-0.042,7.153-0.122,10.666
		c-0.527,0-1.052,0-1.581,0c0-3.556,0-7.109,0-10.666C96.799,57.918,97.367,57.918,97.935,57.918z"/>
	<path fill-rule="evenodd" clip-rule="evenodd" fill="#FFFFFF" d="M108.631,57.918c0,3.557,0,7.11,0,10.666
		c-0.567,0-1.135,0-1.703,0c0-3.066,0-6.135,0-9.202c-1.334,0-2.672,0-4.011,0c-0.103,3.826,1.095,10.451-3.524,9.202
		c0-0.535,0-1.069,0-1.602c0.561-0.007,1.188,0.061,1.581-0.131c0.465-2.559,0.152-5.968,0.243-8.934
		C103.688,57.918,106.158,57.918,108.631,57.918z"/>
	<path fill-rule="evenodd" clip-rule="evenodd" fill="#FFFFFF" d="M112.763,57.918c0,1.332,0,2.666,0,3.999
		c2.854,0.171,5.536,0.058,6.196,2.399c1.228,4.336-3.759,4.631-7.899,4.268c0-3.556,0-7.109,0-10.666
		C111.628,57.918,112.194,57.918,112.763,57.918z M117.381,65.25c-0.022-1.912-2.444-1.754-4.618-1.736c0,1.157,0,2.312,0,3.469
		C115.04,67.061,117.401,67.176,117.381,65.25z"/>
	<path fill-rule="evenodd" clip-rule="evenodd" fill="#FFFFFF" d="M121.999,57.918c-0.28,3.29-0.042,7.153-0.123,10.666
		c-0.526,0-1.052,0-1.578,0c0-3.556,0-7.109,0-10.666C120.865,57.918,121.432,57.918,121.999,57.918z"/>
	<path fill-rule="evenodd" clip-rule="evenodd" fill="#FFFFFF" d="M128.806,57.918c3.695-0.722,2.235,4.213,4.983,4.531
		c0.283-1.244,0.04-3.067,0.119-4.531c0.529,0,1.055,0,1.582,0c0,1.51,0,3.02,0,4.531c2.355-0.079,1.806-3.352,3.28-4.397
		c0.602-0.097,1.211-0.185,1.946-0.134c-0.149,0.201-0.24,1.146,0,1.332c-2.37-0.109-1.685,3.133-3.403,3.732
		c1.746,1.283,2.627,3.518,3.646,5.602c-0.607,0-1.215,0-1.823,0c-1.128-1.697-1.402-4.328-3.523-4.934
		c-0.283,1.378-0.042,3.332-0.122,4.934c-0.527,0-1.053,0-1.582,0c0-1.646,0-3.289,0-4.934c-2.277,0.479-2.445,3.271-3.645,4.934
		c-0.607,0-1.215,0-1.823,0c1.088-1.963,1.772-4.367,3.646-5.467c-1.053-0.711-1.454-2.141-1.944-3.465
		c-0.412-0.126-0.713-0.375-1.336-0.271C128.806,58.895,128.806,58.406,128.806,57.918z"/>
	<path fill-rule="evenodd" clip-rule="evenodd" fill="#FFFFFF" d="M141.201,57.918c0.607,0,1.217,0,1.821,0
		c0.746,2.828,1.74,5.38,2.556,8.133c1.095-2.532,1.892-5.389,2.795-8.133c0.566,0,1.133,0,1.7,0
		c-1.052,4.957-4.137,8.314-3.523,14.666c-0.363,0.268-1.146,0.072-1.702,0.131C145.244,66.541,142.405,62.779,141.201,57.918z"/>
	<path fill-rule="evenodd" clip-rule="evenodd" fill="#FFFFFF" d="M151.531,57.918c0.569,0,1.134,0,1.703,0c0,1.51,0,3.02,0,4.531
		c2.854-0.246,1.257-5.375,5.104-4.531c0,0.488,0,0.977,0,1.464c-2.514-0.31-1.516,3.226-3.401,3.601
		c1.869,1.147,2.505,3.65,3.766,5.466c-0.367,0.31-1.253,0.05-1.822,0.136c-1.243-1.571-1.47-4.256-3.524-4.934
		c-0.284,1.378-0.042,3.332-0.122,4.934c-0.569,0-1.134,0-1.703,0C151.531,65.028,151.531,61.475,151.531,57.918z"/>
	<path fill-rule="evenodd" clip-rule="evenodd" fill="#FFFFFF" d="M166.725,57.918c0,0.488,0,0.977,0,1.464
		c-1.011,0-2.025,0-3.037,0c-0.285,2.8-0.042,6.179-0.122,9.202c-0.555-0.058-1.338,0.133-1.704-0.136c0-3.021,0-6.042,0-9.066
		c-1.01,0-2.023,0-3.037,0c0-0.487,0-0.976,0-1.464C161.458,57.918,164.09,57.918,166.725,57.918z"/>
	<path fill-rule="evenodd" clip-rule="evenodd" fill="#FFFFFF" d="M186.413,57.918c-0.281,3.29-0.04,7.153-0.12,10.666
		c-0.526,0-1.053,0-1.581,0c0-3.023,0-6.046,0-9.066c-1.183-0.305-2.868-0.051-4.253-0.136c-0.284,2.8-0.041,6.179-0.121,9.202
		c-0.568,0-1.136,0-1.703,0c0-3.556,0-7.109,0-10.666C181.229,57.918,183.82,57.918,186.413,57.918z"/>
	<path fill-rule="evenodd" clip-rule="evenodd" fill="#FFFFFF" d="M212.666,57.918c0,3.557,0,7.11,0,10.666
		c-0.568,0-1.134,0-1.701,0c0-3.066,0-6.135,0-9.202c-1.338,0-2.675,0-4.01,0c-0.723,3.565,1.641,10.515-3.524,9.202
		c0-0.535,0-1.069,0-1.602c0.558-0.007,1.188,0.061,1.579-0.131c0.463-2.559,0.151-5.968,0.243-8.934
		C207.722,57.918,210.195,57.918,212.666,57.918z"/>
</g>
</svg>
