<?xml version="1.0" encoding="utf-8"?>
<!-- Generator: Adobe Illustrator 15.1.0, SVG Export Plug-In . SVG Version: 6.00 Build 0)  -->
<!DOCTYPE svg PUBLIC "-//W3C//DTD SVG 1.1//EN" "http://www.w3.org/Graphics/SVG/1.1/DTD/svg11.dtd">
<svg version="1.1" id="SemiBold" xmlns="http://www.w3.org/2000/svg" xmlns:xlink="http://www.w3.org/1999/xlink" x="0px" y="0px"
	 width="216.457px" height="75.107px" viewBox="0 0 216.457 75.107" enable-background="new 0 0 216.457 75.107"
	 xml:space="preserve">
<g>
	<path d="M215.707,63.767c0,6.531-4.797,10.592-11.322,10.592H12.571c-6.528,0-11.821-5.299-11.821-11.828V12.573
		c0-6.528,5.293-11.823,11.821-11.823h191.813c6.525,0,11.322,5.295,11.322,11.823V63.767z"/>
	<path fill="#FFFFFF" d="M204.385,75.109H12.571C5.639,75.109,0,69.466,0,62.531V12.573C0,5.64,5.64-0.001,12.571-0.001h191.813
		c6.77,0,12.072,5.522,12.072,12.573v51.194C216.457,70.55,211.605,75.109,204.385,75.109z M12.571,1.499
		C6.467,1.499,1.5,6.467,1.5,12.573v49.958c0,6.107,4.967,11.078,11.071,11.078h191.813c6.324,0,10.572-3.955,10.572-9.842V12.573
		c0-6.209-4.645-11.073-10.572-11.073H12.571z"/>
</g>
<g>
	<g>
		<path fill="#FFFFFF" d="M147.652,53.585l-1.615,1.52c-0.371,0.205-0.742,0.443-1.111,0.613c-1.121,0.508-2.262,0.637-3.273,0.637
			c-1.078,0-2.77-0.07-4.49-1.316c-2.396-1.688-3.443-4.588-3.443-7.113c0-5.23,4.26-7.797,7.732-7.797
			c1.215,0,2.463,0.303,3.477,0.943c1.686,1.113,2.121,2.562,2.363,3.34l-7.936,3.205l-2.598,0.201
			c0.842,4.289,3.742,6.785,6.949,6.785c1.604,0,2.791-0.521,3.883-1.062C147.588,53.542,147.807,53.429,147.652,53.585z
			 M142.865,45.052c0.646-0.234,0.979-0.439,0.979-0.906c0-1.348-1.523-2.904-3.344-2.904c-1.352,0-3.879,1.051-3.879,4.695
			c0,0.568,0.064,1.176,0.102,1.781L142.865,45.052z"/>
		<path fill="#FFFFFF" d="M131.064,53.322c0,1.312,0.234,1.518,1.344,1.617c0.578,0.068,1.152,0.1,1.725,0.166l-1.248,0.744h-5.947
			c0.781-1.012,0.914-1.113,0.914-1.787v-0.754l-0.012-20.063h-2.627l2.527-1.219h4.824c-1.045,0.605-1.357,0.977-1.492,2.156
			L131.064,53.322z"/>
		<path fill="#FFFFFF" d="M121.842,41.782c0.773,0.639,2.393,1.988,2.393,4.555c0,2.498-1.41,3.676-2.83,4.791
			c-0.438,0.438-0.945,0.916-0.945,1.65c0,0.746,0.51,1.15,0.877,1.453l1.219,0.941c1.482,1.25,2.834,2.396,2.834,4.727
			c0,3.176-3.072,6.375-8.877,6.375c-4.891,0-7.254-2.328-7.254-4.824c0-1.217,0.604-2.938,2.602-4.113
			c2.092-1.279,4.928-1.451,6.443-1.553c-0.475-0.609-1.016-1.252-1.016-2.299c0-0.57,0.172-0.912,0.338-1.312
			c-0.369,0.035-0.74,0.068-1.08,0.068c-3.578,0-5.602-2.67-5.602-5.301c0-1.553,0.707-3.271,2.16-4.52
			c1.926-1.584,4.219-1.857,6.041-1.857h6.955l-2.162,1.221h-2.096V41.782z M119.451,56.765c-0.275-0.037-0.441-0.037-0.775-0.037
			c-0.307,0-2.129,0.066-3.541,0.541c-0.748,0.273-2.906,1.08-2.906,3.479c0,2.393,2.33,4.115,5.938,4.115
			c3.238,0,4.959-1.553,4.959-3.645C123.123,59.495,122.01,58.589,119.451,56.765z M120.42,50.353
			c0.781-0.777,0.848-1.854,0.848-2.467c0-2.426-1.445-6.207-4.252-6.207c-0.875,0-1.822,0.438-2.359,1.119
			c-0.57,0.703-0.742,1.613-0.742,2.49c0,2.262,1.316,6.01,4.219,6.01C118.977,51.298,119.887,50.886,120.42,50.353z"/>
		<path fill="#FFFFFF" d="M100.918,56.284c-5.363,0-8.233-4.178-8.233-7.959c0-4.418,3.608-8.197,8.74-8.197
			c4.961,0,8.069,3.883,8.069,7.961C109.494,52.072,106.422,56.284,100.918,56.284z M105.139,53.556
			c0.815-1.08,1.015-2.428,1.015-3.74c0-2.973-1.416-8.641-5.602-8.641c-1.113,0-2.233,0.436-3.042,1.145
			c-1.318,1.182-1.553,2.664-1.553,4.119c0,3.334,1.646,8.834,5.736,8.834C103.015,55.275,104.363,54.634,105.139,53.556z"/>
		<path fill="#FFFFFF" d="M82.959,56.284c-5.364,0-8.229-4.178-8.229-7.959c0-4.418,3.609-8.197,8.739-8.197
			c4.958,0,8.062,3.883,8.062,7.961C91.532,52.072,88.464,56.284,82.959,56.284z M87.181,53.556c0.81-1.08,1.013-2.428,1.013-3.74
			c0-2.973-1.421-8.641-5.602-8.641c-1.117,0-2.227,0.436-3.036,1.145c-1.319,1.182-1.554,2.664-1.554,4.119
			c0,3.334,1.654,8.834,5.736,8.834C85.057,55.275,86.403,54.634,87.181,53.556z"/>
		<path fill="#FFFFFF" d="M72.584,55.115l-4.523,1.035c-1.833,0.289-3.479,0.543-5.222,0.543c-8.727,0-12.051-6.424-12.051-11.449
			c0-6.141,4.711-11.833,12.778-11.833c1.707,0,3.35,0.252,4.846,0.658c2.371,0.668,3.479,1.488,4.172,1.969l-2.627,2.497
			l-1.108,0.248l0.79-1.26c-1.07-1.045-3.037-2.973-6.77-2.973c-4.991,0-8.757,3.793-8.757,9.333c0,5.949,4.3,11.545,11.194,11.545
			c2.026,0,3.069-0.406,4.016-0.787v-5.1l-4.776,0.258l2.532-1.361h6.704l-0.819,0.791c-0.222,0.188-0.251,0.252-0.313,0.504
			c-0.033,0.287-0.062,1.203-0.062,1.525L72.584,55.115L72.584,55.115z"/>
	</g>
	<g>
		<path fill="#FFFFFF" d="M157.379,53.728v8.598h-1.707V40.45h1.707v2.49c1.111-1.607,3.143-2.885,5.504-2.885
			c4.232,0,7.084,3.211,7.084,8.293c0,5.049-2.852,8.328-7.084,8.328C160.654,56.679,158.66,55.529,157.379,53.728z M168.133,48.351
			c0-3.83-1.998-6.752-5.539-6.752c-2.199,0-4.301,1.729-5.215,3.234v7.002c0.914,1.51,3.016,3.301,5.215,3.301
			C166.135,55.136,168.133,52.189,168.133,48.351z"/>
		<path fill="#FFFFFF" d="M172.297,56.282v-21.87h1.707v21.872h-1.707V56.282z"/>
		<path fill="#FFFFFF" d="M193.158,60.907c0.363,0.162,0.986,0.266,1.383,0.266c1.045,0,1.771-0.43,2.426-1.938l1.244-2.818
			l-6.725-15.967h1.902l5.77,13.834l5.713-13.834h1.932l-8.201,19.314c-0.852,1.99-2.188,2.947-4.027,2.947
			c-0.555,0-1.279-0.1-1.707-0.23L193.158,60.907z"/>
		<path fill="#FFFFFF" d="M188.172,56.238c-0.115-0.549-0.201-1.031-0.264-1.438c-0.055-0.402-0.082-0.814-0.082-1.232
			c-0.586,0.857-1.414,1.572-2.475,2.137c-1.061,0.566-2.064,0.846-3.447,0.846c-1.662,0-2.953-0.408-3.875-1.238
			c-0.918-0.83-1.381-1.953-1.381-3.373s0.67-2.572,2.004-3.453c1.334-0.885,3.059-1.324,5.191-1.324h3.98v-1.967
			c0-1.133-0.389-2.021-1.158-2.67c-0.773-0.645-1.859-0.975-3.268-0.975c-1.287,0-2.332,0.299-3.127,0.881
			c-0.787,0.594-1.186,1.33-1.186,2.217h-1.746l-0.037-0.084c-0.062-1.195,0.484-2.246,1.648-3.15
			c1.154-0.904,2.674-1.359,4.541-1.359c1.859,0,3.367,0.449,4.502,1.342c1.135,0.887,1.703,2.164,1.703,3.838v7.811
			c0,0.561,0.025,1.104,0.098,1.631c0.072,0.529,0.188,1.057,0.34,1.566h-1.965v-0.004H188.172z M182.115,54.991
			c1.449,0,2.49-0.322,3.559-0.965c1.057-0.637,1.775-1.469,2.154-2.475v-3.039h-4c-1.527,0-2.793,0.338-3.789,1.02
			s-1.502,1.504-1.502,2.461c0,0.902,0.318,1.625,0.957,2.174C180.131,54.72,181.002,54.991,182.115,54.991z"/>
	</g>
</g>
<g>
	<polygon fill="none" points="28.498,47.46 33.974,41.984 33.972,41.984 28.498,47.46 11.021,29.983 11.02,29.983 28.498,47.462 
		10.993,64.968 10.993,64.968 28.498,47.462 33.998,52.962 34.001,52.962 	"/>
	
		<linearGradient id="SVGID_1_" gradientUnits="userSpaceOnUse" x1="1252.7598" y1="-215.8586" x2="1229.6827" y2="-230.3012" gradientTransform="matrix(0.7071 0.7071 -0.7071 0.7071 -1013.6454 -687.1373)">
		<stop  offset="0" style="stop-color:#D6FFA1"/>
		<stop  offset="0.3264" style="stop-color:#93E2A7"/>
		<stop  offset="1" style="stop-color:#00A3B5"/>
	</linearGradient>
	<path fill="url(#SVGID_1_)" d="M33.972,41.984L12.636,30.251c-0.604-0.33-1.163-0.408-1.615-0.268L28.499,47.46L33.972,41.984z"/>
	
		<linearGradient id="SVGID_2_" gradientUnits="userSpaceOnUse" x1="1239.3389" y1="-228.1956" x2="1269.2627" y2="-220.373" gradientTransform="matrix(0.7071 0.7071 -0.7071 0.7071 -1013.6454 -687.1373)">
		<stop  offset="0" style="stop-color:#FF177B"/>
		<stop  offset="0.6721" style="stop-color:#FFA976"/>
		<stop  offset="1" style="stop-color:#FFEC73"/>
	</linearGradient>
	<path fill="url(#SVGID_2_)" d="M34.001,52.962l7.283-4.004c1.477-0.816,1.477-2.145,0-2.955l-7.311-4.021l-5.476,5.479
		L34.001,52.962z"/>
	
		<linearGradient id="SVGID_3_" gradientUnits="userSpaceOnUse" x1="1256.0459" y1="-204.9041" x2="1223.5996" y2="-223.9935" gradientTransform="matrix(0.7071 0.7071 -0.7071 0.7071 -1013.6454 -687.1373)">
		<stop  offset="0" style="stop-color:#63FFD4"/>
		<stop  offset="0.4854" style="stop-color:#32A0BA"/>
		<stop  offset="0.8349" style="stop-color:#1262A9"/>
		<stop  offset="1" style="stop-color:#064AA2"/>
	</linearGradient>
	<path fill="url(#SVGID_3_)" d="M11.02,29.983c-0.649,0.203-1.069,0.861-1.069,1.855L9.955,63.12c0,0.982,0.407,1.633,1.038,1.848
		l17.506-17.506L11.02,29.983z"/>
	
		<linearGradient id="SVGID_4_" gradientUnits="userSpaceOnUse" x1="1267.8223" y1="-220.0603" x2="1247.8446" y2="-193.7409" gradientTransform="matrix(0.7071 0.7071 -0.7071 0.7071 -1013.6454 -687.1373)">
		<stop  offset="0" style="stop-color:#FF4521"/>
		<stop  offset="0.3411" style="stop-color:#D43E65"/>
		<stop  offset="0.7935" style="stop-color:#9F36B9"/>
		<stop  offset="1" style="stop-color:#8A33DB"/>
	</linearGradient>
	<path fill="url(#SVGID_4_)" d="M10.993,64.968c0.454,0.152,1.024,0.082,1.643-0.258l21.363-11.748l-5.5-5.5L10.993,64.968z"/>
</g>
<g>
	<g>
		<path fill="#FFFFFF" d="M51.796,21.802V11.125h1.872v10.676H51.796z"/>
		<path fill="#FFFFFF" d="M56.34,21.802V11.125h7.314v1.648h-5.442v2.753h5.331v1.648h-5.331v2.978h5.442v1.648H56.34L56.34,21.802z
			"/>
		<path fill="#FFFFFF" d="M65.844,21.802V11.125h1.872v9.028h4.706v1.648H65.844L65.844,21.802z"/>
		<path fill="#FFFFFF" d="M81.959,21.802l-0.785-2.064h-4.896l-0.785,2.064h-2.129l4.193-10.676h2.337l4.194,10.676H81.959z
			 M75.813,9.828V8.837h5.811v0.991H75.813z M78.726,12.998l-1.921,5.09h3.842L78.726,12.998z"/>
		<path fill="#FFFFFF" d="M85.636,21.802V11.125h3.97c3.346,0,5.586,2.209,5.586,5.331c0,3.151-2.24,5.345-5.57,5.345H85.636z
			 M93.271,16.456c0-2.05-1.28-3.683-3.649-3.683h-2.112v7.379h2.098C91.926,20.153,93.271,18.488,93.271,16.456z"/>
		<path fill="#FFFFFF" d="M97.396,21.802V11.125h7.314v1.648h-5.442v2.753h5.331v1.648h-5.331v2.978h5.442v1.648H97.396
			L97.396,21.802z M98.1,9.828V8.837h5.812v0.991H98.1z"/>
		<path fill="#FFFFFF" d="M109.574,21.802v-9.027h-3.233v-1.648h8.338v1.648h-3.23v9.027H109.574z"/>
		<path fill="#FFFFFF" d="M128.631,21.802l-5.57-7.634v7.634h-1.873V11.125h1.922l5.459,7.396v-7.396h1.871v10.676H128.631z"/>
		<path fill="#FFFFFF" d="M132.643,16.472c0-3.187,2.256-5.522,5.459-5.522c3.186,0,5.457,2.337,5.457,5.522
			c0,3.185-2.271,5.521-5.457,5.521C134.898,21.993,132.643,19.656,132.643,16.472z M141.639,16.472
			c0-2.209-1.393-3.857-3.537-3.857c-2.162,0-3.539,1.648-3.539,3.857c0,2.191,1.377,3.857,3.539,3.857
			C140.246,20.329,141.639,18.663,141.639,16.472z"/>
	</g>
</g>
</svg>
