<?xml version="1.0" encoding="utf-8"?>
<!-- Generator: Adobe Illustrator 15.1.0, SVG Export Plug-In . SVG Version: 6.00 Build 0)  -->
<!DOCTYPE svg PUBLIC "-//W3C//DTD SVG 1.1//EN" "http://www.w3.org/Graphics/SVG/1.1/DTD/svg11.dtd">
<svg version="1.1" id="SemiBold" xmlns="http://www.w3.org/2000/svg" xmlns:xlink="http://www.w3.org/1999/xlink" x="0px" y="0px"
	 width="216.457px" height="75.108px" viewBox="0 0 216.457 75.108" enable-background="new 0 0 216.457 75.108"
	 xml:space="preserve">
<g>
	<path d="M215.707,63.769c0,6.529-4.797,10.59-11.32,10.59H12.571c-6.528,0-11.821-5.297-11.821-11.828V12.574
		C0.75,6.045,6.043,0.75,12.571,0.75h191.815c6.523,0,11.32,5.295,11.32,11.824V63.769z"/>
	<path fill="#FFFFFF" d="M204.387,75.108H12.571C5.64,75.108,0,69.466,0,62.53V12.574C0,5.641,5.64,0,12.571,0h191.815
		c6.768,0,12.07,5.523,12.07,12.574v51.195C216.457,70.552,211.607,75.108,204.387,75.108z M12.571,1.5
		C6.467,1.5,1.5,6.468,1.5,12.574V62.53c0,6.109,4.967,11.078,11.071,11.078h191.815c6.322,0,10.57-3.955,10.57-9.84V12.574
		c0-6.209-4.643-11.074-10.57-11.074H12.571z"/>
</g>
<g>
	<g>
		<path fill="#FFFFFF" d="M147.652,53.585l-1.615,1.521c-0.371,0.205-0.742,0.443-1.111,0.613c-1.121,0.508-2.262,0.637-3.275,0.637
			c-1.078,0-2.768-0.07-4.49-1.316c-2.396-1.688-3.441-4.588-3.441-7.113c0-5.232,4.258-7.799,7.73-7.799
			c1.215,0,2.463,0.304,3.477,0.945c1.686,1.113,2.123,2.562,2.363,3.34l-7.934,3.205l-2.598,0.201
			c0.842,4.289,3.742,6.785,6.949,6.785c1.604,0,2.791-0.521,3.883-1.062C147.59,53.544,147.809,53.429,147.652,53.585z
			 M142.865,45.052c0.646-0.234,0.98-0.438,0.98-0.906c0-1.348-1.525-2.904-3.346-2.904c-1.35,0-3.879,1.051-3.879,4.695
			c0,0.57,0.066,1.176,0.102,1.781L142.865,45.052z"/>
		<path fill="#FFFFFF" d="M131.064,53.323c0,1.312,0.234,1.516,1.344,1.617c0.578,0.068,1.154,0.1,1.725,0.166l-1.248,0.744h-5.947
			c0.781-1.012,0.914-1.113,0.914-1.787V53.31l-0.012-20.063h-2.627l2.527-1.218h4.826c-1.047,0.605-1.359,0.975-1.494,2.155
			L131.064,53.323z"/>
		<path fill="#FFFFFF" d="M121.842,41.784c0.773,0.637,2.393,1.988,2.393,4.553c0,2.5-1.41,3.678-2.83,4.793
			c-0.436,0.438-0.945,0.914-0.945,1.65c0,0.746,0.51,1.15,0.877,1.453l1.219,0.941c1.482,1.25,2.834,2.396,2.834,4.727
			c0,3.176-3.072,6.375-8.877,6.375c-4.891,0-7.254-2.328-7.254-4.824c0-1.217,0.604-2.938,2.6-4.115
			c2.092-1.279,4.928-1.449,6.446-1.551c-0.475-0.611-1.016-1.252-1.016-2.299c0-0.57,0.172-0.912,0.338-1.314
			c-0.369,0.035-0.74,0.07-1.08,0.07c-3.579,0-5.602-2.67-5.602-5.301c0-1.553,0.707-3.273,2.162-4.521
			c1.924-1.584,4.217-1.857,6.042-1.857h6.953l-2.162,1.221H121.842L121.842,41.784z M119.451,56.765
			c-0.275-0.035-0.441-0.035-0.775-0.035c-0.307,0-2.129,0.066-3.542,0.539c-0.748,0.273-2.906,1.08-2.906,3.479
			c0,2.393,2.33,4.115,5.938,4.115c3.238,0,4.959-1.553,4.959-3.643C123.123,59.497,122.012,58.591,119.451,56.765z M120.422,50.353
			c0.779-0.777,0.848-1.854,0.848-2.465c0-2.428-1.447-6.208-4.252-6.208c-0.875,0-1.825,0.438-2.362,1.118
			c-0.57,0.703-0.742,1.615-0.742,2.492c0,2.26,1.318,6.008,4.219,6.008C118.977,51.298,119.887,50.888,120.422,50.353z"/>
		<path fill="#FFFFFF" d="M100.919,56.286c-5.364,0-8.234-4.178-8.234-7.959c0-4.418,3.607-8.199,8.74-8.199
			c4.961,0,8.068,3.885,8.068,7.963C109.494,52.071,106.422,56.286,100.919,56.286z M105.139,53.558
			c0.815-1.08,1.015-2.428,1.015-3.742c0-2.973-1.416-8.641-5.602-8.641c-1.113,0-2.234,0.436-3.042,1.146
			c-1.317,1.181-1.554,2.664-1.554,4.119c0,3.334,1.647,8.834,5.738,8.834C103.015,55.274,104.363,54.636,105.139,53.558z"/>
		<path fill="#FFFFFF" d="M82.96,56.286c-5.365,0-8.23-4.178-8.23-7.959c0-4.418,3.609-8.199,8.739-8.199
			c4.958,0,8.062,3.885,8.062,7.963C91.531,52.071,88.464,56.286,82.96,56.286z M87.181,53.558c0.811-1.08,1.012-2.428,1.012-3.742
			c0-2.973-1.42-8.641-5.601-8.641c-1.117,0-2.226,0.436-3.036,1.146c-1.32,1.181-1.555,2.664-1.555,4.119
			c0,3.334,1.654,8.834,5.738,8.834C85.057,55.274,86.402,54.636,87.181,53.558z"/>
		<path fill="#FFFFFF" d="M72.585,55.116l-4.524,1.035c-1.833,0.289-3.479,0.543-5.222,0.543c-8.727,0-12.051-6.424-12.051-11.449
			c0-6.141,4.711-11.832,12.778-11.832c1.707,0,3.35,0.251,4.846,0.658c2.371,0.667,3.479,1.487,4.174,1.969l-2.629,2.495
			l-1.107,0.248l0.79-1.26c-1.069-1.045-3.037-2.974-6.771-2.974c-4.99,0-8.756,3.794-8.756,9.333
			c0,5.949,4.299,11.545,11.193,11.545c2.025,0,3.068-0.406,4.016-0.787v-5.1L64.546,49.8l2.531-1.361h6.703l-0.818,0.789
			c-0.223,0.189-0.252,0.252-0.313,0.504c-0.032,0.289-0.063,1.205-0.063,1.527V55.116L72.585,55.116z"/>
	</g>
	<g>
		<path fill="#FFFFFF" d="M157.379,53.729v8.596h-1.707V40.452h1.707v2.49c1.111-1.608,3.145-2.886,5.504-2.886
			c4.232,0,7.084,3.211,7.084,8.294c0,5.049-2.852,8.328-7.084,8.328C160.654,56.679,158.66,55.53,157.379,53.729z M168.133,48.353
			c0-3.832-1.996-6.754-5.537-6.754c-2.199,0-4.303,1.729-5.217,3.236v7c0.914,1.51,3.018,3.301,5.217,3.301
			C166.137,55.136,168.133,52.188,168.133,48.353z"/>
		<path fill="#FFFFFF" d="M172.299,56.284V34.414h1.705v21.871H172.299z"/>
		<path fill="#FFFFFF" d="M193.158,60.909c0.365,0.162,0.988,0.264,1.383,0.264c1.045,0,1.771-0.428,2.426-1.936l1.244-2.82
			l-6.725-15.965h1.904l5.768,13.834l5.713-13.834h1.932l-8.201,19.314c-0.852,1.99-2.189,2.947-4.029,2.947
			c-0.553,0-1.279-0.1-1.707-0.23L193.158,60.909z"/>
		<path fill="#FFFFFF" d="M188.172,56.237c-0.113-0.549-0.199-1.031-0.264-1.436c-0.053-0.404-0.082-0.816-0.082-1.234
			c-0.586,0.859-1.414,1.574-2.473,2.137c-1.061,0.566-2.066,0.846-3.449,0.846c-1.662,0-2.953-0.408-3.875-1.238
			c-0.918-0.83-1.379-1.953-1.379-3.373s0.668-2.572,2.002-3.453c1.334-0.885,3.061-1.324,5.193-1.324h3.98v-1.967
			c0-1.133-0.387-2.023-1.158-2.67c-0.773-0.646-1.859-0.975-3.268-0.975c-1.287,0-2.332,0.299-3.127,0.881
			c-0.787,0.594-1.184,1.33-1.184,2.217h-1.748l-0.035-0.084c-0.064-1.195,0.482-2.246,1.646-3.15
			c1.156-0.905,2.676-1.36,4.541-1.36c1.861,0,3.367,0.448,4.502,1.342c1.135,0.886,1.703,2.164,1.703,3.837v7.811
			c0,0.561,0.027,1.104,0.098,1.631c0.072,0.529,0.188,1.057,0.34,1.566h-1.965V56.237z M182.115,54.993
			c1.449,0,2.492-0.322,3.559-0.965c1.057-0.637,1.775-1.469,2.154-2.475v-3.039h-4c-1.527,0-2.793,0.338-3.789,1.02
			s-1.502,1.504-1.502,2.461c0,0.902,0.32,1.625,0.957,2.172C180.131,54.72,181.002,54.993,182.115,54.993z"/>
	</g>
</g>
<g>
	<polygon fill="none" points="28.498,47.46 33.974,41.983 33.972,41.983 28.498,47.46 11.021,29.985 11.02,29.985 28.498,47.464 
		10.993,64.97 10.993,64.97 28.498,47.464 33.998,52.964 34.001,52.964 	"/>
	
		<linearGradient id="SVGID_1_" gradientUnits="userSpaceOnUse" x1="879.4287" y1="495.5273" x2="856.3516" y2="509.9699" gradientTransform="matrix(0.7071 0.7071 0.7071 -0.7071 -947.4174 -225.4017)">
		<stop  offset="0" style="stop-color:#D6FFA1"/>
		<stop  offset="0.3264" style="stop-color:#93E2A7"/>
		<stop  offset="1" style="stop-color:#00A3B5"/>
	</linearGradient>
	<path fill="url(#SVGID_1_)" d="M33.972,41.983L12.636,30.252c-0.604-0.331-1.163-0.408-1.615-0.268L28.499,47.46L33.972,41.983z"/>
	
		<linearGradient id="SVGID_2_" gradientUnits="userSpaceOnUse" x1="866.0098" y1="507.8652" x2="895.9336" y2="500.0426" gradientTransform="matrix(0.7071 0.7071 0.7071 -0.7071 -947.4174 -225.4017)">
		<stop  offset="0" style="stop-color:#FF177B"/>
		<stop  offset="0.6721" style="stop-color:#FFA976"/>
		<stop  offset="1" style="stop-color:#FFEC73"/>
	</linearGradient>
	<path fill="url(#SVGID_2_)" d="M34.001,52.964l7.283-4.006c1.477-0.814,1.477-2.143,0-2.953l-7.311-4.021l-5.476,5.477
		L34.001,52.964z"/>
	
		<linearGradient id="SVGID_3_" gradientUnits="userSpaceOnUse" x1="882.7139" y1="484.5742" x2="850.2685" y2="503.6632" gradientTransform="matrix(0.7071 0.7071 0.7071 -0.7071 -947.4174 -225.4017)">
		<stop  offset="0" style="stop-color:#63FFD4"/>
		<stop  offset="0.4854" style="stop-color:#32A0BA"/>
		<stop  offset="0.8349" style="stop-color:#1262A9"/>
		<stop  offset="1" style="stop-color:#064AA2"/>
	</linearGradient>
	<path fill="url(#SVGID_3_)" d="M11.02,29.985c-0.649,0.203-1.069,0.86-1.069,1.854l0.004,31.283c0,0.982,0.407,1.631,1.038,1.848
		l17.506-17.506L11.02,29.985z"/>
	
		<linearGradient id="SVGID_4_" gradientUnits="userSpaceOnUse" x1="894.4932" y1="499.7275" x2="874.5164" y2="473.4092" gradientTransform="matrix(0.7071 0.7071 0.7071 -0.7071 -947.4174 -225.4017)">
		<stop  offset="0" style="stop-color:#FF4521"/>
		<stop  offset="0.3411" style="stop-color:#D43E65"/>
		<stop  offset="0.7935" style="stop-color:#9F36B9"/>
		<stop  offset="1" style="stop-color:#8A33DB"/>
	</linearGradient>
	<path fill="url(#SVGID_4_)" d="M10.993,64.97c0.454,0.152,1.024,0.082,1.643-0.258l21.363-11.748l-5.5-5.5L10.993,64.97z"/>
</g>
<g>
	<g>
		<path fill="#FFFFFF" d="M51.796,21.803V11.126h3.97c3.345,0,5.586,2.209,5.586,5.331c0,3.152-2.241,5.346-5.569,5.346H51.796z
			 M59.431,16.457c0-2.049-1.279-3.682-3.648-3.682h-2.113v7.379h2.098C58.085,20.155,59.431,18.489,59.431,16.457z"/>
		<path fill="#FFFFFF" d="M70.488,21.803l-0.785-2.064h-4.896l-0.784,2.064h-2.13l4.193-10.677h2.337l4.192,10.677H70.488z
			 M67.254,12.999l-1.921,5.09h3.842L67.254,12.999z"/>
		<path fill="#FFFFFF" d="M74.164,21.803V11.126h4.707c2.24,0,3.473,1.521,3.473,3.346c0,1.809-1.248,3.329-3.473,3.329h-2.834
			v4.002H74.164z M80.422,14.472c0-1.024-0.752-1.696-1.81-1.696h-2.576v3.377h2.576C79.67,16.153,80.422,15.481,80.422,14.472z"/>
		<path fill="#FFFFFF" d="M90.599,21.803l-0.785-2.064h-4.896l-0.784,2.064h-2.129l4.192-10.677h2.338l4.192,10.677H90.599z
			 M87.367,12.999l-1.922,5.09h3.842L87.367,12.999z"/>
		<path fill="#FFFFFF" d="M95.781,21.803v-9.027h-3.232v-1.649h8.339v1.649h-3.231v9.027H95.781z"/>
		<path fill="#FFFFFF" d="M109.255,21.803l-3.571-4.514l-0.944,1.104v3.409h-1.871V11.126h1.871V16.2l4.178-5.074h2.322
			l-4.338,5.026l4.674,5.65L109.255,21.803L109.255,21.803z"/>
		<path fill="#FFFFFF" d="M120.695,21.803l-0.785-2.064h-4.897l-0.783,2.064h-2.129l4.192-10.677h2.338l4.193,10.677H120.695z
			 M117.461,12.999l-1.92,5.09h3.842L117.461,12.999z"/>
		<path fill="#FFFFFF" d="M131.814,21.803l-5.57-7.635v7.635h-1.871V11.126h1.92l5.459,7.396v-7.396h1.873v10.677H131.814z"/>
		<path fill="#FFFFFF" d="M143.734,21.803l-5.57-7.635v7.635h-1.871V11.126h1.922l5.457,7.396v-7.396h1.873v10.677H143.734z"/>
		<path fill="#FFFFFF" d="M151.252,21.803v-4.434l-4.145-6.243h2.145l2.93,4.562l2.93-4.562h2.145l-4.129,6.243v4.434H151.252z"/>
		<path fill="#FFFFFF" d="M165.256,21.803l-0.785-2.064h-4.898l-0.783,2.064h-2.129l4.193-10.677h2.336l4.195,10.677H165.256z
			 M162.021,12.999l-1.92,5.09h3.842L162.021,12.999z"/>
	</g>
</g>
</svg>
