<?xml version="1.0" encoding="utf-8"?>
<!-- Generator: Adobe Illustrator 15.1.0, SVG Export Plug-In . SVG Version: 6.00 Build 0)  -->
<!DOCTYPE svg PUBLIC "-//W3C//DTD SVG 1.1//EN" "http://www.w3.org/Graphics/SVG/1.1/DTD/svg11.dtd">
<svg version="1.1" id="SemiBold" xmlns="http://www.w3.org/2000/svg" xmlns:xlink="http://www.w3.org/1999/xlink" x="0px" y="0px"
	 width="216.457px" height="75.108px" viewBox="0 -0.354 216.457 75.108" enable-background="new 0 -0.354 216.457 75.108"
	 xml:space="preserve">
<g>
	<path d="M215.707,63.413c0,6.53-4.797,10.591-11.322,10.591H12.571c-6.528,0-11.821-5.298-11.821-11.828V12.219
		c0-6.529,5.293-11.824,11.821-11.824h191.813c6.525,0,11.322,5.295,11.322,11.824V63.413z"/>
	<path fill="#FFFFFF" d="M204.385,74.754H12.571C5.64,74.754,0,69.111,0,62.176V12.219C0,5.286,5.64-0.354,12.571-0.354h191.813
		c6.77,0,12.072,5.523,12.072,12.574v51.194C216.457,70.196,211.605,74.754,204.385,74.754z M12.571,1.146
		C6.467,1.146,1.5,6.113,1.5,12.219v49.957c0,6.108,4.967,11.078,11.071,11.078h191.813c6.324,0,10.572-3.955,10.572-9.841V12.219
		c0-6.209-4.645-11.074-10.572-11.074H12.571z"/>
</g>
<g>
	<g>
		<path fill="#FFFFFF" d="M147.652,53.23l-1.615,1.521c-0.371,0.205-0.742,0.443-1.113,0.612c-1.121,0.509-2.26,0.638-3.273,0.638
			c-1.078,0-2.768-0.07-4.49-1.316c-2.396-1.688-3.443-4.588-3.443-7.114c0-5.231,4.26-7.798,7.732-7.798
			c1.215,0,2.463,0.304,3.477,0.945c1.686,1.113,2.121,2.562,2.363,3.34l-7.934,3.205l-2.598,0.201
			c0.84,4.289,3.742,6.784,6.949,6.784c1.602,0,2.791-0.521,3.883-1.062C147.588,53.188,147.807,53.074,147.652,53.23z
			 M142.865,44.697c0.645-0.234,0.979-0.438,0.979-0.906c0-1.348-1.523-2.904-3.344-2.904c-1.35,0-3.879,1.051-3.879,4.695
			c0,0.569,0.066,1.176,0.102,1.781L142.865,44.697z"/>
		<path fill="#FFFFFF" d="M131.064,52.969c0,1.312,0.234,1.516,1.344,1.617c0.578,0.068,1.152,0.1,1.725,0.166l-1.248,0.743h-5.947
			c0.779-1.012,0.914-1.112,0.914-1.786v-0.754l-0.014-20.063h-2.625l2.527-1.218h4.824c-1.045,0.605-1.357,0.975-1.492,2.155
			L131.064,52.969z"/>
		<path fill="#FFFFFF" d="M121.842,41.43c0.773,0.637,2.393,1.988,2.393,4.553c0,2.499-1.41,3.677-2.83,4.792
			c-0.438,0.438-0.945,0.915-0.945,1.651c0,0.746,0.51,1.15,0.877,1.453l1.219,0.94c1.482,1.251,2.832,2.397,2.832,4.728
			c0,3.176-3.072,6.375-8.877,6.375c-4.889,0-7.253-2.328-7.253-4.824c0-1.217,0.604-2.938,2.601-4.115
			c2.092-1.279,4.928-1.45,6.444-1.551c-0.473-0.611-1.014-1.252-1.014-2.299c0-0.571,0.172-0.912,0.338-1.314
			c-0.369,0.035-0.742,0.07-1.08,0.07c-3.579,0-5.602-2.67-5.602-5.301c0-1.553,0.707-3.273,2.161-4.521
			c1.925-1.584,4.218-1.857,6.041-1.857h6.955l-2.162,1.221H121.842L121.842,41.43z M119.451,56.41
			c-0.277-0.036-0.443-0.036-0.777-0.036c-0.305,0-2.129,0.066-3.541,0.54c-0.747,0.273-2.906,1.08-2.906,3.479
			c0,2.392,2.331,4.115,5.939,4.115c3.238,0,4.959-1.553,4.959-3.644C123.123,59.143,122.01,58.235,119.451,56.41z M120.42,49.998
			c0.781-0.777,0.848-1.854,0.848-2.466c0-2.427-1.445-6.207-4.252-6.207c-0.875,0-1.823,0.438-2.36,1.118
			c-0.57,0.703-0.742,1.615-0.742,2.492c0,2.26,1.317,6.008,4.217,6.008C118.977,50.943,119.887,50.532,120.42,49.998z"/>
		<path fill="#FFFFFF" d="M100.919,55.932c-5.364,0-8.234-4.178-8.234-7.959c0-4.418,3.608-8.199,8.74-8.199
			c4.961,0,8.068,3.884,8.068,7.962C109.494,51.717,106.422,55.932,100.919,55.932z M105.139,53.202
			c0.816-1.08,1.014-2.428,1.014-3.741c0-2.973-1.416-8.641-5.601-8.641c-1.113,0-2.234,0.436-3.042,1.146
			c-1.318,1.181-1.553,2.664-1.553,4.119c0,3.334,1.647,8.834,5.737,8.834C103.015,54.92,104.362,54.28,105.139,53.202z"/>
		<path fill="#FFFFFF" d="M82.96,55.932c-5.365,0-8.23-4.178-8.23-7.959c0-4.418,3.609-8.199,8.739-8.199
			c4.958,0,8.062,3.884,8.062,7.962C91.531,51.717,88.464,55.932,82.96,55.932z M87.181,53.202c0.81-1.08,1.012-2.428,1.012-3.741
			c0-2.973-1.42-8.641-5.601-8.641c-1.117,0-2.226,0.436-3.036,1.146c-1.32,1.181-1.554,2.664-1.554,4.119
			c0,3.334,1.654,8.834,5.737,8.834C85.057,54.92,86.402,54.28,87.181,53.202z"/>
		<path fill="#FFFFFF" d="M72.585,54.762l-4.524,1.035c-1.833,0.289-3.479,0.543-5.222,0.543c-8.727,0-12.051-6.424-12.051-11.449
			c0-6.141,4.711-11.832,12.778-11.832c1.707,0,3.35,0.251,4.846,0.658c2.371,0.667,3.479,1.487,4.173,1.969l-2.628,2.496
			l-1.108,0.248l0.79-1.26c-1.07-1.045-3.037-2.974-6.77-2.974c-4.991,0-8.757,3.794-8.757,9.333c0,5.949,4.3,11.545,11.194,11.545
			c2.026,0,3.069-0.406,4.016-0.787v-5.1l-4.776,0.257l2.532-1.36h6.703l-0.819,0.789c-0.222,0.188-0.251,0.252-0.313,0.504
			c-0.033,0.288-0.063,1.204-0.063,1.526L72.585,54.762L72.585,54.762z"/>
	</g>
	<g>
		<path fill="#FFFFFF" d="M157.379,53.374v8.597h-1.707V40.098h1.707v2.49c1.111-1.608,3.143-2.886,5.504-2.886
			c4.232,0,7.084,3.211,7.084,8.294c0,5.049-2.852,8.327-7.084,8.327C160.654,56.324,158.66,55.176,157.379,53.374z M168.133,47.997
			c0-3.831-1.998-6.753-5.539-6.753c-2.199,0-4.301,1.729-5.215,3.235v7.001c0.914,1.51,3.016,3.301,5.215,3.301
			C166.135,54.781,168.133,51.834,168.133,47.997z"/>
		<path fill="#FFFFFF" d="M172.297,55.93V34.059h1.707V55.93H172.297z"/>
		<path fill="#FFFFFF" d="M193.158,60.555c0.363,0.162,0.986,0.264,1.383,0.264c1.045,0,1.771-0.428,2.424-1.936l1.246-2.82
			l-6.725-15.965h1.902l5.77,13.834l5.713-13.834h1.93L198.6,59.411c-0.85,1.99-2.188,2.947-4.027,2.947
			c-0.553,0-1.279-0.099-1.707-0.229L193.158,60.555z"/>
		<path fill="#FFFFFF" d="M188.172,55.883c-0.115-0.549-0.201-1.031-0.264-1.437c-0.053-0.403-0.082-0.815-0.082-1.233
			c-0.586,0.858-1.414,1.573-2.475,2.137c-1.059,0.566-2.064,0.846-3.447,0.846c-1.662,0-2.953-0.409-3.875-1.239
			c-0.918-0.829-1.381-1.952-1.381-3.372s0.67-2.572,2.004-3.453c1.334-0.885,3.059-1.324,5.191-1.324h3.982V44.84
			c0-1.134-0.389-2.023-1.158-2.67c-0.773-0.646-1.859-0.975-3.268-0.975c-1.287,0-2.332,0.299-3.127,0.881
			c-0.787,0.594-1.186,1.33-1.186,2.217h-1.746l-0.037-0.084c-0.062-1.195,0.484-2.246,1.648-3.15
			c1.156-0.905,2.674-1.36,4.541-1.36c1.859,0,3.367,0.448,4.502,1.342c1.135,0.886,1.703,2.164,1.703,3.837v7.811
			c0,0.561,0.025,1.103,0.098,1.631c0.072,0.529,0.188,1.057,0.34,1.566h-1.965V55.883z M182.115,54.639
			c1.449,0,2.49-0.323,3.557-0.965c1.059-0.638,1.777-1.469,2.156-2.475v-3.04h-4c-1.529,0-2.793,0.338-3.789,1.021
			c-0.996,0.681-1.502,1.504-1.502,2.461c0,0.902,0.318,1.625,0.957,2.172C180.131,54.365,181.002,54.639,182.115,54.639z"/>
	</g>
</g>
<g>
	<polygon fill="none" points="28.498,47.105 33.974,41.629 33.972,41.629 28.498,47.105 11.021,29.63 11.02,29.63 28.498,47.108 
		10.993,64.614 10.993,64.614 28.498,47.108 33.998,52.608 34.001,52.608 	"/>
	
		<linearGradient id="SVGID_1_" gradientUnits="userSpaceOnUse" x1="879.1787" y1="495.7773" x2="856.1016" y2="510.2199" gradientTransform="matrix(0.7071 0.7071 0.7071 -0.7071 -947.4174 -225.4017)">
		<stop  offset="0" style="stop-color:#D6FFA1"/>
		<stop  offset="0.3264" style="stop-color:#93E2A7"/>
		<stop  offset="1" style="stop-color:#00A3B5"/>
	</linearGradient>
	<path fill="url(#SVGID_1_)" d="M33.972,41.629L12.636,29.897c-0.604-0.331-1.163-0.408-1.615-0.268l17.478,17.476L33.972,41.629z"
		/>
	
		<linearGradient id="SVGID_2_" gradientUnits="userSpaceOnUse" x1="865.7607" y1="508.1152" x2="895.6815" y2="500.2934" gradientTransform="matrix(0.7071 0.7071 0.7071 -0.7071 -947.4174 -225.4017)">
		<stop  offset="0" style="stop-color:#FF177B"/>
		<stop  offset="0.6721" style="stop-color:#FFA976"/>
		<stop  offset="1" style="stop-color:#FFEC73"/>
	</linearGradient>
	<path fill="url(#SVGID_2_)" d="M34.001,52.608l7.283-4.005c1.477-0.815,1.477-2.143,0-2.954l-7.311-4.021l-5.476,5.477
		L34.001,52.608z"/>
	
		<linearGradient id="SVGID_3_" gradientUnits="userSpaceOnUse" x1="882.4629" y1="484.8242" x2="850.0184" y2="503.9126" gradientTransform="matrix(0.7071 0.7071 0.7071 -0.7071 -947.4174 -225.4017)">
		<stop  offset="0" style="stop-color:#63FFD4"/>
		<stop  offset="0.4854" style="stop-color:#32A0BA"/>
		<stop  offset="0.8349" style="stop-color:#1262A9"/>
		<stop  offset="1" style="stop-color:#064AA2"/>
	</linearGradient>
	<path fill="url(#SVGID_3_)" d="M11.02,29.63c-0.649,0.203-1.069,0.86-1.069,1.854l0.004,31.283c0,0.982,0.407,1.631,1.038,1.847
		l17.506-17.506L11.02,29.63z"/>
	
		<linearGradient id="SVGID_4_" gradientUnits="userSpaceOnUse" x1="894.2422" y1="499.9795" x2="874.2639" y2="473.6591" gradientTransform="matrix(0.7071 0.7071 0.7071 -0.7071 -947.4174 -225.4017)">
		<stop  offset="0" style="stop-color:#FF4521"/>
		<stop  offset="0.3411" style="stop-color:#D43E65"/>
		<stop  offset="0.7935" style="stop-color:#9F36B9"/>
		<stop  offset="1" style="stop-color:#8A33DB"/>
	</linearGradient>
	<path fill="url(#SVGID_4_)" d="M10.993,64.614c0.454,0.153,1.024,0.082,1.643-0.258l21.363-11.748l-5.5-5.5L10.993,64.614z"/>
</g>
<g>
	<path fill="#FFFFFF" d="M60.309,10.406v11.457h-1.496V11.647h-5.32v10.216h-1.496V10.406H60.309z"/>
	<path fill="#FFFFFF" d="M62.877,10.542c0.714-0.119,1.648-0.221,2.839-0.221c1.462,0,2.532,0.34,3.213,0.952
		c0.611,0.544,1.002,1.377,1.002,2.396c0,1.037-0.306,1.853-0.884,2.448c-0.799,0.833-2.057,1.258-3.501,1.258
		c-0.442,0-0.851-0.017-1.19-0.102v4.59h-1.479V10.542z M64.356,16.067c0.323,0.085,0.731,0.119,1.224,0.119
		c1.785,0,2.873-0.884,2.873-2.431c0-1.53-1.088-2.261-2.702-2.261c-0.646,0-1.14,0.051-1.395,0.119V16.067z"/>
	<path fill="#FFFFFF" d="M77.836,16.491h-4.437v4.131h4.964v1.241h-6.46V10.406h6.205v1.241h-4.709v3.621h4.437V16.491z"/>
	<path fill="#FFFFFF" d="M80.863,10.406l2.277,4.913c0.289,0.68,0.562,1.343,0.816,2.006h0.051c0.204-0.578,0.425-1.241,0.697-2.057
		l1.802-4.862h1.563l-2.413,5.916c-0.612,1.53-1.326,3.281-2.143,4.334c-0.73,0.935-1.563,1.411-2.583,1.411
		c-0.392,0-0.646-0.034-0.833-0.103l0.136-1.207c0.136,0.034,0.306,0.051,0.561,0.051c1.173,0,1.87-1.139,2.244-1.955
		c0.119-0.255,0.085-0.425-0.051-0.697l-3.808-7.751L80.863,10.406L80.863,10.406z"/>
	<path fill="#FFFFFF" d="M89.04,11.069c0.782-0.51,1.769-0.867,3.026-0.867c1.988,0,3.365,1.037,3.365,2.805
		c0,1.411-1.037,2.499-2.362,2.805v0.034c1.598,0.17,2.787,1.224,2.805,2.873c0,2.379-2.074,3.331-4.165,3.331
		c-1.037,0-2.107-0.221-2.991-0.748l0.391-1.156c0.629,0.357,1.632,0.697,2.584,0.697c1.683,0,2.617-0.918,2.617-2.176
		c0-1.717-1.648-2.209-3.11-2.209h-0.68v-1.122h0.663c1.513,0,2.702-0.935,2.702-2.108c0-1.173-0.833-1.819-2.057-1.819
		c-0.884,0-1.768,0.357-2.396,0.748L89.04,11.069z"/>
	<path fill="#FFFFFF" d="M107.502,16.832c-0.085-1.598-0.188-3.536-0.188-4.947h-0.034c-0.407,1.326-0.866,2.771-1.444,4.352
		l-2.023,5.559h-1.121l-1.87-5.457c-0.544-1.632-0.986-3.094-1.309-4.454h-0.034c-0.034,1.428-0.119,3.332-0.221,5.065l-0.307,4.913
		h-1.41l0.799-11.457h1.887l1.954,5.542c0.477,1.411,0.851,2.669,1.156,3.859h0.034c0.306-1.156,0.714-2.414,1.224-3.859l2.04-5.542
		h1.887l0.714,11.457h-1.462L107.502,16.832z"/>
	<path fill="#FFFFFF" d="M112.91,10.406v4.828c0,1.802-0.035,3.315-0.137,4.845l0.051,0.017c0.562-1.19,1.275-2.431,2.108-3.791
		l3.705-5.898h1.48v11.456h-1.395v-4.878c0-1.853,0.018-3.213,0.137-4.658l-0.053-0.017c-0.561,1.258-1.342,2.584-2.125,3.842
		l-3.585,5.711h-1.581V10.406H112.91z"/>
	<path fill="#FFFFFF" d="M124.877,11.664h-3.484v-1.258h8.48v1.258h-3.5v10.199h-1.496V11.664L124.877,11.664z"/>
	<path fill="#FFFFFF" d="M137.064,16.491h-4.436v4.131h4.963v1.241h-6.459V10.406h6.205v1.241h-4.709v3.621h4.436V16.491z"/>
	<path fill="#FFFFFF" d="M153.688,16.015c0,3.927-2.395,6.034-5.318,6.034c-3.043,0-5.15-2.362-5.15-5.83
		c0-3.638,2.242-6.017,5.303-6.017C151.666,10.202,153.688,12.599,153.688,16.015z M144.781,16.187c0,2.464,1.326,4.657,3.672,4.657
		s3.672-2.159,3.672-4.759c0-2.295-1.189-4.675-3.654-4.675S144.781,13.688,144.781,16.187z"/>
	<path fill="#FFFFFF" d="M155.611,10.576c0.645-0.153,1.682-0.255,2.701-0.255c1.479,0,2.432,0.255,3.127,0.833
		c0.596,0.442,0.971,1.122,0.971,2.023c0,1.122-0.748,2.091-1.939,2.516v0.051c1.088,0.255,2.363,1.156,2.363,2.855
		c0,0.986-0.391,1.751-0.986,2.295c-0.781,0.731-2.074,1.07-3.941,1.07c-1.021,0-1.803-0.067-2.295-0.136V10.576L155.611,10.576z
		 M157.088,15.268h1.344c1.547,0,2.465-0.833,2.465-1.938c0-1.326-1.004-1.87-2.498-1.87c-0.682,0-1.07,0.051-1.311,0.102V15.268z
		 M157.088,20.741c0.307,0.051,0.715,0.068,1.242,0.068c1.529,0,2.939-0.561,2.939-2.227c0-1.547-1.344-2.209-2.959-2.209h-1.223
		V20.741L157.088,20.741z"/>
	<path fill="#FFFFFF" d="M174.479,16.015c0,3.927-2.395,6.034-5.318,6.034c-3.043,0-5.15-2.362-5.15-5.83
		c0-3.638,2.242-6.017,5.303-6.017C172.457,10.202,174.479,12.599,174.479,16.015z M165.572,16.187c0,2.464,1.326,4.657,3.672,4.657
		s3.672-2.159,3.672-4.759c0-2.295-1.189-4.675-3.654-4.675S165.572,13.688,165.572,16.187z"/>
	<path fill="#FFFFFF" d="M188.777,21.506c-0.527,0.272-1.633,0.543-3.027,0.543c-3.229,0-5.643-2.04-5.643-5.813
		c0-3.604,2.432-6.018,5.982-6.018c1.41,0,2.328,0.306,2.721,0.51l-0.375,1.207c-0.543-0.272-1.342-0.476-2.295-0.476
		c-2.686,0-4.471,1.717-4.471,4.726c0,2.822,1.615,4.606,4.387,4.606c0.918,0,1.836-0.187,2.432-0.476L188.777,21.506z"/>
	<path fill="#FFFFFF" d="M192.568,18.259l-1.189,3.604h-1.531l3.91-11.457h1.77l3.908,11.457h-1.582l-1.223-3.604H192.568z
		 M196.34,17.104l-1.139-3.297c-0.254-0.748-0.424-1.428-0.596-2.091h-0.033c-0.17,0.663-0.34,1.377-0.578,2.074l-1.121,3.314
		H196.34z"/>
</g>
</svg>
