<?xml version="1.0" encoding="utf-8"?>
<!-- Generator: Adobe Illustrator 15.1.0, SVG Export Plug-In . SVG Version: 6.00 Build 0)  -->
<!DOCTYPE svg PUBLIC "-//W3C//DTD SVG 1.1//EN" "http://www.w3.org/Graphics/SVG/1.1/DTD/svg11.dtd">
<svg version="1.1" id="SemiBold" xmlns="http://www.w3.org/2000/svg" xmlns:xlink="http://www.w3.org/1999/xlink" x="0px" y="0px"
	 width="216.457px" height="75.108px" viewBox="0.001 -0.287 216.457 75.108" enable-background="new 0.001 -0.287 216.457 75.108"
	 xml:space="preserve">
<g>
	<path d="M215.708,63.48c0,6.53-4.797,10.591-11.321,10.591H12.573c-6.528,0-11.821-5.298-11.821-11.828V12.287
		c0-6.529,5.293-11.824,11.821-11.824h191.814c6.524,0,11.321,5.295,11.321,11.824V63.48z"/>
	<path fill="#FFFFFF" d="M204.387,74.821H12.573c-6.932,0-12.571-5.643-12.571-12.578V12.287c0-6.933,5.64-12.574,12.571-12.574
		h191.814c6.769,0,12.071,5.523,12.071,12.574V63.48C216.458,70.264,211.607,74.821,204.387,74.821z M12.573,1.213
		c-6.104,0-11.071,4.968-11.071,11.074v49.957c0,6.108,4.967,11.078,11.071,11.078h191.814c6.323,0,10.571-3.955,10.571-9.841
		V12.287c0-6.209-4.644-11.074-10.571-11.074H12.573z"/>
</g>
<g>
	<g>
		<path fill="#FFFFFF" d="M147.653,53.298l-1.615,1.521c-0.371,0.205-0.742,0.443-1.112,0.612c-1.121,0.509-2.261,0.638-3.274,0.638
			c-1.078,0-2.768-0.07-4.49-1.316c-2.396-1.688-3.442-4.588-3.442-7.114c0-5.231,4.259-7.798,7.731-7.798
			c1.215,0,2.463,0.304,3.477,0.945c1.686,1.113,2.122,2.562,2.363,3.34l-7.934,3.205l-2.598,0.201
			c0.841,4.289,3.742,6.784,6.949,6.784c1.603,0,2.791-0.521,3.883-1.062C147.59,53.256,147.809,53.142,147.653,53.298z
			 M142.866,44.765c0.646-0.234,0.979-0.438,0.979-0.906c0-1.348-1.524-2.904-3.345-2.904c-1.35,0-3.879,1.051-3.879,4.695
			c0,0.569,0.066,1.176,0.102,1.781L142.866,44.765z"/>
		<path fill="#FFFFFF" d="M131.065,53.036c0,1.312,0.234,1.516,1.344,1.617c0.578,0.068,1.153,0.1,1.725,0.166l-1.248,0.743h-5.947
			c0.78-1.012,0.914-1.112,0.914-1.786v-0.754l-0.013-20.063h-2.626l2.527-1.218h4.825c-1.046,0.605-1.358,0.975-1.493,2.155
			L131.065,53.036z"/>
		<path fill="#FFFFFF" d="M121.843,41.497c0.773,0.637,2.393,1.988,2.393,4.553c0,2.499-1.41,3.677-2.83,4.792
			c-0.437,0.438-0.945,0.915-0.945,1.651c0,0.746,0.51,1.15,0.877,1.453l1.219,0.94c1.482,1.251,2.833,2.397,2.833,4.728
			c0,3.176-3.072,6.375-8.877,6.375c-4.89,0-7.254-2.328-7.254-4.824c0-1.217,0.604-2.938,2.601-4.115
			c2.092-1.279,4.928-1.45,6.444-1.551c-0.474-0.611-1.015-1.252-1.015-2.299c0-0.571,0.172-0.912,0.338-1.314
			c-0.369,0.035-0.741,0.07-1.08,0.07c-3.578,0-5.602-2.67-5.602-5.301c0-1.553,0.707-3.273,2.161-4.521
			c1.925-1.584,4.218-1.857,6.041-1.857h6.954l-2.162,1.221H121.843L121.843,41.497z M119.452,56.478
			c-0.276-0.036-0.442-0.036-0.776-0.036c-0.306,0-2.129,0.066-3.541,0.54c-0.747,0.273-2.906,1.08-2.906,3.479
			c0,2.392,2.331,4.115,5.938,4.115c3.238,0,4.959-1.553,4.959-3.644C123.124,59.21,122.012,58.303,119.452,56.478z M120.422,50.065
			c0.78-0.777,0.848-1.854,0.848-2.466c0-2.427-1.446-6.207-4.252-6.207c-0.875,0-1.823,0.438-2.36,1.118
			c-0.57,0.703-0.742,1.615-0.742,2.492c0,2.26,1.317,6.008,4.218,6.008C118.978,51.011,119.888,50.6,120.422,50.065z"/>
		<path fill="#FFFFFF" d="M100.92,55.999c-5.364,0-8.234-4.178-8.234-7.959c0-4.418,3.608-8.199,8.74-8.199
			c4.961,0,8.068,3.884,8.068,7.962C109.495,51.784,106.424,55.999,100.92,55.999z M105.141,53.27
			c0.816-1.08,1.014-2.428,1.014-3.741c0-2.973-1.416-8.641-5.601-8.641c-1.113,0-2.234,0.436-3.042,1.146
			c-1.318,1.181-1.553,2.664-1.553,4.119c0,3.334,1.647,8.834,5.737,8.834C103.017,54.987,104.364,54.348,105.141,53.27z"/>
		<path fill="#FFFFFF" d="M82.961,55.999c-5.365,0-8.23-4.178-8.23-7.959c0-4.418,3.609-8.199,8.739-8.199
			c4.958,0,8.062,3.884,8.062,7.962C91.533,51.784,88.466,55.999,82.961,55.999z M87.183,53.27c0.81-1.08,1.012-2.428,1.012-3.741
			c0-2.973-1.42-8.641-5.601-8.641c-1.117,0-2.226,0.436-3.036,1.146c-1.32,1.181-1.554,2.664-1.554,4.119
			c0,3.334,1.654,8.834,5.737,8.834C85.059,54.987,86.404,54.348,87.183,53.27z"/>
		<path fill="#FFFFFF" d="M72.586,54.829l-4.524,1.035c-1.833,0.289-3.479,0.543-5.222,0.543c-8.727,0-12.051-6.424-12.051-11.449
			c0-6.141,4.711-11.832,12.778-11.832c1.707,0,3.35,0.251,4.846,0.658c2.371,0.667,3.479,1.487,4.173,1.969l-2.628,2.496
			l-1.108,0.248l0.79-1.26c-1.07-1.045-3.037-2.974-6.77-2.974c-4.991,0-8.757,3.794-8.757,9.333c0,5.949,4.3,11.545,11.194,11.545
			c2.026,0,3.069-0.406,4.016-0.787v-5.1l-4.776,0.257l2.532-1.36h6.703l-0.819,0.789c-0.222,0.188-0.251,0.252-0.313,0.504
			c-0.033,0.288-0.063,1.204-0.063,1.526L72.586,54.829L72.586,54.829z"/>
	</g>
	<g>
		<path fill="#FFFFFF" d="M157.38,53.441v8.597h-1.707V40.165h1.707v2.49c1.111-1.608,3.144-2.886,5.504-2.886
			c4.232,0,7.084,3.211,7.084,8.294c0,5.049-2.852,8.327-7.084,8.327C160.655,56.392,158.661,55.243,157.38,53.441z M168.134,48.064
			c0-3.831-1.997-6.753-5.538-6.753c-2.199,0-4.302,1.729-5.216,3.235v7.001c0.914,1.51,3.017,3.301,5.216,3.301
			C166.137,54.849,168.134,51.901,168.134,48.064z"/>
		<path fill="#FFFFFF" d="M172.299,55.997V34.126h1.706v21.871H172.299z"/>
		<path fill="#FFFFFF" d="M193.159,60.622c0.364,0.162,0.987,0.264,1.383,0.264c1.045,0,1.771-0.428,2.425-1.936l1.245-2.82
			l-6.725-15.965h1.903l5.769,13.834l5.713-13.834h1.931l-8.201,19.313c-0.851,1.99-2.188,2.947-4.028,2.947
			c-0.553,0-1.279-0.099-1.707-0.229L193.159,60.622z"/>
		<path fill="#FFFFFF" d="M188.173,55.95c-0.114-0.549-0.2-1.031-0.264-1.437c-0.053-0.403-0.082-0.815-0.082-1.233
			c-0.586,0.858-1.414,1.573-2.474,2.137c-1.06,0.566-2.065,0.846-3.448,0.846c-1.662,0-2.953-0.409-3.875-1.239
			c-0.918-0.829-1.38-1.952-1.38-3.372s0.669-2.572,2.003-3.453c1.334-0.885,3.06-1.324,5.192-1.324h3.981v-1.967
			c0-1.134-0.388-2.023-1.158-2.67c-0.773-0.646-1.859-0.975-3.268-0.975c-1.287,0-2.332,0.299-3.127,0.881
			c-0.787,0.594-1.185,1.33-1.185,2.217h-1.747l-0.036-0.084c-0.063-1.195,0.483-2.246,1.647-3.15
			c1.156-0.905,2.675-1.36,4.541-1.36c1.86,0,3.367,0.448,4.502,1.342c1.135,0.886,1.703,2.164,1.703,3.837v7.811
			c0,0.561,0.026,1.103,0.098,1.631c0.072,0.529,0.188,1.057,0.34,1.566h-1.965V55.95z M182.116,54.706
			c1.449,0,2.491-0.323,3.558-0.965c1.058-0.638,1.776-1.469,2.155-2.475v-3.04h-4c-1.528,0-2.793,0.338-3.789,1.021
			c-0.996,0.681-1.502,1.504-1.502,2.461c0,0.902,0.319,1.625,0.957,2.172C180.132,54.433,181.003,54.706,182.116,54.706z"/>
	</g>
</g>
<g>
	<polygon fill="none" points="28.5,47.173 33.976,41.696 33.974,41.696 28.5,47.173 11.022,29.698 11.021,29.698 28.5,47.176 
		10.995,64.682 10.995,64.682 28.5,47.176 34,52.676 34.002,52.676 	"/>
	
		<linearGradient id="SVGID_1_" gradientUnits="userSpaceOnUse" x1="879.2275" y1="495.7305" x2="856.1505" y2="510.1731" gradientTransform="matrix(0.7071 0.7071 0.7071 -0.7071 -947.4174 -225.4017)">
		<stop  offset="0" style="stop-color:#D6FFA1"/>
		<stop  offset="0.3264" style="stop-color:#93E2A7"/>
		<stop  offset="1" style="stop-color:#00A3B5"/>
	</linearGradient>
	<path fill="url(#SVGID_1_)" d="M33.974,41.696L12.638,29.965c-0.604-0.331-1.163-0.408-1.615-0.268L28.5,47.173L33.974,41.696z"/>
	
		<linearGradient id="SVGID_2_" gradientUnits="userSpaceOnUse" x1="865.8086" y1="508.0684" x2="895.7294" y2="500.2466" gradientTransform="matrix(0.7071 0.7071 0.7071 -0.7071 -947.4174 -225.4017)">
		<stop  offset="0" style="stop-color:#FF177B"/>
		<stop  offset="0.6721" style="stop-color:#FFA976"/>
		<stop  offset="1" style="stop-color:#FFEC73"/>
	</linearGradient>
	<path fill="url(#SVGID_2_)" d="M34.002,52.676l7.283-4.005c1.477-0.815,1.477-2.143,0-2.954l-7.311-4.021l-5.476,5.477
		L34.002,52.676z"/>
	
		<linearGradient id="SVGID_3_" gradientUnits="userSpaceOnUse" x1="882.5117" y1="484.7783" x2="850.0673" y2="503.8667" gradientTransform="matrix(0.7071 0.7071 0.7071 -0.7071 -947.4174 -225.4017)">
		<stop  offset="0" style="stop-color:#63FFD4"/>
		<stop  offset="0.4854" style="stop-color:#32A0BA"/>
		<stop  offset="0.8349" style="stop-color:#1262A9"/>
		<stop  offset="1" style="stop-color:#064AA2"/>
	</linearGradient>
	<path fill="url(#SVGID_3_)" d="M11.021,29.698c-0.649,0.203-1.069,0.86-1.069,1.854l0.004,31.283c0,0.982,0.407,1.631,1.038,1.847
		L28.5,47.176L11.021,29.698z"/>
	
		<linearGradient id="SVGID_4_" gradientUnits="userSpaceOnUse" x1="894.291" y1="499.9316" x2="874.3127" y2="473.6112" gradientTransform="matrix(0.7071 0.7071 0.7071 -0.7071 -947.4174 -225.4017)">
		<stop  offset="0" style="stop-color:#FF4521"/>
		<stop  offset="0.3411" style="stop-color:#D43E65"/>
		<stop  offset="0.7935" style="stop-color:#9F36B9"/>
		<stop  offset="1" style="stop-color:#8A33DB"/>
	</linearGradient>
	<path fill="url(#SVGID_4_)" d="M10.995,64.682c0.454,0.153,1.024,0.082,1.643-0.258L34,52.676l-5.5-5.5L10.995,64.682z"/>
</g>
<g>
	<g>
		<path fill="#FFFFFF" d="M52.432,10.059v4.794h5.542v-4.794h1.495v11.457h-1.495v-5.371h-5.542v5.371h-1.496V10.059H52.432z"/>
		<path fill="#FFFFFF" d="M63.04,17.912l-1.189,3.604h-1.53l3.91-11.457h1.768l3.909,11.457h-1.581l-1.224-3.604H63.04L63.04,17.912
			z M62.75,8.427c0-0.459,0.357-0.85,0.833-0.85c0.477,0,0.816,0.374,0.816,0.85c0,0.477-0.323,0.867-0.833,0.867
			C63.091,9.293,62.75,8.904,62.75,8.427z M66.813,16.756l-1.139-3.298c-0.255-0.747-0.425-1.428-0.595-2.091h-0.034
			c-0.17,0.663-0.34,1.377-0.578,2.074l-1.122,3.314L66.813,16.756L66.813,16.756z M65.913,8.427c0-0.459,0.356-0.85,0.85-0.85
			c0.476,0,0.816,0.374,0.816,0.85c0,0.477-0.323,0.867-0.851,0.867C66.252,9.293,65.913,8.904,65.913,8.427z"/>
		<path fill="#FFFFFF" d="M80.328,16.485c-0.085-1.598-0.188-3.536-0.188-4.946h-0.034c-0.407,1.325-0.866,2.771-1.444,4.352
			l-2.023,5.558h-1.121l-1.87-5.456c-0.544-1.632-0.986-3.094-1.309-4.453h-0.034c-0.034,1.428-0.119,3.331-0.221,5.065
			l-0.307,4.912h-1.41l0.799-11.457h1.887l1.954,5.542c0.477,1.41,0.851,2.668,1.156,3.858h0.034
			c0.306-1.156,0.714-2.414,1.224-3.858l2.04-5.542h1.887l0.714,11.457H80.6L80.328,16.485z"/>
		<path fill="#FFFFFF" d="M85.497,11.316h-3.484v-1.258h8.481v1.258h-3.5v10.199h-1.496L85.497,11.316L85.497,11.316z"/>
		<path fill="#FFFFFF" d="M91.498,17.912l-1.189,3.604h-1.53l3.91-11.457h1.768l3.909,11.457h-1.58l-1.225-3.604H91.498
			L91.498,17.912z M95.271,16.756l-1.139-3.298c-0.255-0.747-0.425-1.428-0.595-2.091h-0.034c-0.17,0.663-0.34,1.377-0.578,2.074
			l-1.122,3.314L95.271,16.756L95.271,16.756z"/>
		<path fill="#FFFFFF" d="M101.954,10.195c0.714-0.118,1.648-0.221,2.839-0.221c1.462,0,2.532,0.34,3.213,0.952
			c0.611,0.544,1.002,1.377,1.002,2.396c0,1.037-0.306,1.853-0.884,2.448c-0.799,0.833-2.057,1.258-3.501,1.258
			c-0.442,0-0.851-0.018-1.19-0.103v4.59h-1.479V10.195z M103.433,15.719c0.323,0.085,0.731,0.119,1.224,0.119
			c1.785,0,2.873-0.884,2.873-2.431c0-1.529-1.088-2.261-2.702-2.261c-0.646,0-1.14,0.051-1.395,0.119V15.719z"/>
		<path fill="#FFFFFF" d="M110.573,17.912l-1.189,3.604h-1.53l3.91-11.457h1.769l3.908,11.457h-1.58l-1.225-3.604H110.573
			L110.573,17.912z M114.346,16.756l-1.14-3.298c-0.254-0.747-0.424-1.428-0.594-2.091h-0.035c-0.17,0.663-0.34,1.377-0.578,2.074
			l-1.121,3.314L114.346,16.756L114.346,16.756z M114.346,8.138c0,0.851-0.696,1.496-1.683,1.496c-1.021,0-1.701-0.663-1.701-1.496
			c0-0.85,0.646-1.547,1.719-1.547C113.7,6.591,114.346,7.271,114.346,8.138z M111.829,8.138c0,0.442,0.324,0.867,0.816,0.867
			s0.814-0.391,0.814-0.901c0-0.492-0.322-0.9-0.832-0.9S111.829,7.646,111.829,8.138z"/>
	</g>
</g>
</svg>
