<?xml version="1.0" encoding="utf-8"?>
<!-- Generator: Adobe Illustrator 15.1.0, SVG Export Plug-In . SVG Version: 6.00 Build 0)  -->
<!DOCTYPE svg PUBLIC "-//W3C//DTD SVG 1.1//EN" "http://www.w3.org/Graphics/SVG/1.1/DTD/svg11.dtd">
<svg version="1.1" id="SemiBold" xmlns="http://www.w3.org/2000/svg" xmlns:xlink="http://www.w3.org/1999/xlink" x="0px" y="0px"
	 width="216.457px" height="75.108px" viewBox="0 0 216.457 75.108" enable-background="new 0 0 216.457 75.108"
	 xml:space="preserve">
<g>
	<path d="M215.706,63.768c0,6.53-4.797,10.591-11.321,10.591H12.571c-6.528,0-11.821-5.298-11.821-11.828V12.574
		C0.75,6.045,6.042,0.75,12.571,0.75h191.814c6.524,0,11.321,5.295,11.321,11.824V63.768z"/>
	<path fill="#FFFFFF" d="M204.385,75.108H12.571C5.639,75.108,0,69.466,0,62.53V12.574C0,5.641,5.639,0,12.571,0h191.814
		c6.769,0,12.071,5.523,12.071,12.574v51.194C216.456,70.551,211.605,75.108,204.385,75.108z M12.571,1.5
		C6.466,1.5,1.5,6.468,1.5,12.574V62.53c0,6.108,4.967,11.078,11.071,11.078h191.814c6.323,0,10.571-3.955,10.571-9.841V12.574
		c0-6.209-4.644-11.074-10.571-11.074H12.571z"/>
</g>
<g>
	<g>
		<path fill="#FFFFFF" d="M147.651,53.585l-1.615,1.521c-0.371,0.205-0.742,0.443-1.112,0.612c-1.121,0.509-2.261,0.638-3.274,0.638
			c-1.078,0-2.768-0.07-4.49-1.316c-2.396-1.688-3.442-4.588-3.442-7.114c0-5.231,4.259-7.798,7.731-7.798
			c1.215,0,2.463,0.304,3.477,0.945c1.686,1.113,2.122,2.562,2.363,3.34l-7.934,3.205l-2.598,0.201
			c0.841,4.289,3.742,6.784,6.949,6.784c1.603,0,2.791-0.521,3.883-1.062C147.588,53.543,147.807,53.429,147.651,53.585z
			 M142.864,45.052c0.646-0.234,0.979-0.438,0.979-0.906c0-1.348-1.524-2.904-3.345-2.904c-1.35,0-3.879,1.051-3.879,4.695
			c0,0.569,0.066,1.176,0.102,1.781L142.864,45.052z"/>
		<path fill="#FFFFFF" d="M131.063,53.323c0,1.312,0.234,1.516,1.344,1.617c0.578,0.068,1.153,0.1,1.725,0.166l-1.248,0.743h-5.947
			c0.78-1.012,0.914-1.112,0.914-1.786V53.31l-0.013-20.063h-2.626l2.527-1.218h4.825c-1.046,0.605-1.358,0.975-1.493,2.155
			L131.063,53.323z"/>
		<path fill="#FFFFFF" d="M121.841,41.784c0.773,0.637,2.393,1.988,2.393,4.553c0,2.499-1.41,3.677-2.83,4.792
			c-0.437,0.438-0.945,0.915-0.945,1.651c0,0.746,0.51,1.15,0.877,1.453l1.219,0.94c1.482,1.251,2.833,2.397,2.833,4.728
			c0,3.176-3.072,6.375-8.877,6.375c-4.89,0-7.254-2.328-7.254-4.824c0-1.217,0.604-2.938,2.601-4.115
			c2.092-1.279,4.928-1.45,6.444-1.551c-0.474-0.611-1.015-1.252-1.015-2.299c0-0.571,0.172-0.912,0.338-1.314
			c-0.369,0.035-0.741,0.07-1.08,0.07c-3.578,0-5.602-2.67-5.602-5.301c0-1.553,0.707-3.273,2.161-4.521
			c1.925-1.584,4.218-1.857,6.041-1.857h6.954l-2.162,1.221H121.841L121.841,41.784z M119.45,56.765
			c-0.276-0.036-0.442-0.036-0.776-0.036c-0.306,0-2.129,0.066-3.541,0.54c-0.747,0.273-2.906,1.08-2.906,3.479
			c0,2.392,2.331,4.115,5.938,4.115c3.238,0,4.959-1.553,4.959-3.644C123.122,59.497,122.01,58.59,119.45,56.765z M120.42,50.353
			c0.78-0.777,0.848-1.854,0.848-2.466c0-2.427-1.446-6.207-4.252-6.207c-0.875,0-1.823,0.438-2.36,1.118
			c-0.57,0.703-0.742,1.615-0.742,2.492c0,2.26,1.317,6.008,4.218,6.008C118.976,51.298,119.886,50.887,120.42,50.353z"/>
		<path fill="#FFFFFF" d="M100.918,56.286c-5.364,0-8.234-4.178-8.234-7.959c0-4.418,3.608-8.199,8.74-8.199
			c4.961,0,8.068,3.884,8.068,7.962C109.493,52.071,106.422,56.286,100.918,56.286z M105.139,53.557
			c0.816-1.08,1.014-2.428,1.014-3.741c0-2.973-1.416-8.641-5.601-8.641c-1.113,0-2.234,0.436-3.042,1.146
			c-1.318,1.181-1.553,2.664-1.553,4.119c0,3.334,1.647,8.834,5.737,8.834C103.015,55.274,104.362,54.635,105.139,53.557z"/>
		<path fill="#FFFFFF" d="M82.959,56.286c-5.365,0-8.23-4.178-8.23-7.959c0-4.418,3.609-8.199,8.739-8.199
			c4.958,0,8.062,3.884,8.062,7.962C91.531,52.071,88.464,56.286,82.959,56.286z M87.181,53.557c0.81-1.08,1.012-2.428,1.012-3.741
			c0-2.973-1.42-8.641-5.601-8.641c-1.117,0-2.226,0.436-3.036,1.146c-1.32,1.181-1.554,2.664-1.554,4.119
			c0,3.334,1.654,8.834,5.737,8.834C85.057,55.274,86.402,54.635,87.181,53.557z"/>
		<path fill="#FFFFFF" d="M72.584,55.116l-4.524,1.035c-1.833,0.289-3.479,0.543-5.222,0.543c-8.727,0-12.051-6.424-12.051-11.449
			c0-6.141,4.711-11.832,12.778-11.832c1.707,0,3.35,0.251,4.846,0.658c2.371,0.667,3.479,1.487,4.173,1.969l-2.628,2.496
			l-1.108,0.248l0.79-1.26c-1.07-1.045-3.037-2.974-6.77-2.974c-4.991,0-8.757,3.794-8.757,9.333c0,5.949,4.3,11.545,11.194,11.545
			c2.026,0,3.069-0.406,4.016-0.787v-5.1l-4.776,0.257l2.532-1.36h6.703l-0.819,0.789c-0.222,0.188-0.251,0.252-0.313,0.504
			c-0.033,0.288-0.063,1.204-0.063,1.526L72.584,55.116L72.584,55.116z"/>
	</g>
	<g>
		<path fill="#FFFFFF" d="M157.378,53.729v8.597h-1.707V40.452h1.707v2.49c1.111-1.608,3.144-2.886,5.504-2.886
			c4.232,0,7.084,3.211,7.084,8.294c0,5.049-2.852,8.327-7.084,8.327C160.653,56.679,158.659,55.53,157.378,53.729z M168.132,48.352
			c0-3.831-1.997-6.753-5.538-6.753c-2.199,0-4.302,1.729-5.216,3.235v7.001c0.914,1.51,3.017,3.301,5.216,3.301
			C166.135,55.136,168.132,52.188,168.132,48.352z"/>
		<path fill="#FFFFFF" d="M172.297,56.284V34.414h1.706v21.871H172.297z"/>
		<path fill="#FFFFFF" d="M193.157,60.909c0.364,0.162,0.987,0.264,1.383,0.264c1.045,0,1.771-0.428,2.425-1.936l1.245-2.82
			l-6.725-15.965h1.903l5.769,13.834l5.713-13.834h1.931L198.6,59.766c-0.851,1.99-2.188,2.947-4.028,2.947
			c-0.553,0-1.279-0.099-1.707-0.229L193.157,60.909z"/>
		<path fill="#FFFFFF" d="M188.171,56.237c-0.114-0.549-0.2-1.031-0.264-1.437c-0.053-0.403-0.082-0.815-0.082-1.233
			c-0.586,0.858-1.414,1.573-2.474,2.137c-1.06,0.566-2.065,0.846-3.448,0.846c-1.662,0-2.953-0.409-3.875-1.239
			c-0.918-0.829-1.38-1.952-1.38-3.372s0.669-2.572,2.003-3.453c1.334-0.885,3.06-1.324,5.192-1.324h3.981v-1.967
			c0-1.134-0.388-2.023-1.158-2.67c-0.773-0.646-1.859-0.975-3.268-0.975c-1.287,0-2.332,0.299-3.127,0.881
			c-0.787,0.594-1.185,1.33-1.185,2.217h-1.747l-0.036-0.084c-0.063-1.195,0.483-2.246,1.647-3.15
			c1.156-0.905,2.675-1.36,4.541-1.36c1.86,0,3.367,0.448,4.502,1.342c1.135,0.886,1.703,2.164,1.703,3.837v7.811
			c0,0.561,0.026,1.103,0.098,1.631c0.072,0.529,0.188,1.057,0.34,1.566h-1.965V56.237z M182.114,54.993
			c1.449,0,2.491-0.323,3.558-0.965c1.058-0.638,1.776-1.469,2.155-2.475v-3.04h-4c-1.528,0-2.793,0.338-3.789,1.021
			c-0.996,0.681-1.502,1.504-1.502,2.461c0,0.902,0.319,1.625,0.957,2.172C180.13,54.72,181.001,54.993,182.114,54.993z"/>
	</g>
</g>
<g>
	<polygon fill="none" points="28.498,47.46 33.974,41.983 33.972,41.983 28.498,47.46 11.021,29.985 11.02,29.985 28.498,47.463 
		10.993,64.969 10.993,64.969 28.498,47.463 33.998,52.963 34,52.963 	"/>
	
		<linearGradient id="SVGID_1_" gradientUnits="userSpaceOnUse" x1="879.4287" y1="495.5273" x2="856.3516" y2="509.9699" gradientTransform="matrix(0.7071 0.7071 0.7071 -0.7071 -947.4174 -225.4017)">
		<stop  offset="0" style="stop-color:#D6FFA1"/>
		<stop  offset="0.3264" style="stop-color:#93E2A7"/>
		<stop  offset="1" style="stop-color:#00A3B5"/>
	</linearGradient>
	<path fill="url(#SVGID_1_)" d="M33.972,41.983L12.636,30.252c-0.604-0.331-1.163-0.408-1.615-0.268L28.499,47.46L33.972,41.983z"/>
	
		<linearGradient id="SVGID_2_" gradientUnits="userSpaceOnUse" x1="866.0107" y1="507.8643" x2="895.9315" y2="500.0424" gradientTransform="matrix(0.7071 0.7071 0.7071 -0.7071 -947.4174 -225.4017)">
		<stop  offset="0" style="stop-color:#FF177B"/>
		<stop  offset="0.6721" style="stop-color:#FFA976"/>
		<stop  offset="1" style="stop-color:#FFEC73"/>
	</linearGradient>
	<path fill="url(#SVGID_2_)" d="M34,52.963l7.283-4.005c1.477-0.815,1.477-2.143,0-2.954l-7.311-4.021l-5.476,5.477L34,52.963z"/>
	
		<linearGradient id="SVGID_3_" gradientUnits="userSpaceOnUse" x1="882.7129" y1="484.5742" x2="850.2684" y2="503.6626" gradientTransform="matrix(0.7071 0.7071 0.7071 -0.7071 -947.4174 -225.4017)">
		<stop  offset="0" style="stop-color:#63FFD4"/>
		<stop  offset="0.4854" style="stop-color:#32A0BA"/>
		<stop  offset="0.8349" style="stop-color:#1262A9"/>
		<stop  offset="1" style="stop-color:#064AA2"/>
	</linearGradient>
	<path fill="url(#SVGID_3_)" d="M11.02,29.985c-0.649,0.203-1.069,0.86-1.069,1.854l0.004,31.283c0,0.982,0.407,1.631,1.038,1.847
		l17.506-17.506L11.02,29.985z"/>
	
		<linearGradient id="SVGID_4_" gradientUnits="userSpaceOnUse" x1="894.4922" y1="499.7285" x2="874.5146" y2="473.4092" gradientTransform="matrix(0.7071 0.7071 0.7071 -0.7071 -947.4174 -225.4017)">
		<stop  offset="0" style="stop-color:#FF4521"/>
		<stop  offset="0.3411" style="stop-color:#D43E65"/>
		<stop  offset="0.7935" style="stop-color:#9F36B9"/>
		<stop  offset="1" style="stop-color:#8A33DB"/>
	</linearGradient>
	<path fill="url(#SVGID_4_)" d="M10.993,64.969c0.454,0.153,1.024,0.082,1.643-0.258l21.363-11.748l-5.5-5.5L10.993,64.969z"/>
</g>
<g>
	<g>
		<path fill="#FFFFFF" d="M57.206,14.155c-0.464,0.094-0.945,0.141-1.445,0.141l-1.742-0.078c-0.521,0-0.926,0.085-1.215,0.254
			s-0.434,0.379-0.434,0.629c0.167-0.031,0.406-0.047,0.719-0.047c1.146,0,1.938,0.237,2.379,0.711
			c0.441,0.474,0.66,1.266,0.66,2.375v1.695c0,0.646-0.184,1.156-0.551,1.531s-0.86,0.562-1.48,0.562
			c-0.406,0-0.755-0.146-1.047-0.438s-0.438-0.641-0.438-1.047c0-0.406,0.146-0.753,0.438-1.039s0.641-0.43,1.047-0.43
			c0.214,0,0.401,0.031,0.562,0.094v-0.93c0-0.708-0.125-1.219-0.375-1.531s-0.648-0.469-1.195-0.469
			c-0.224,0-0.479,0.015-0.766,0.043c-0.287,0.028-0.534,0.062-0.742,0.098l-0.555,0.102h-0.047v-0.547
			c0-0.911,0.227-1.62,0.68-2.125c0.453-0.505,1.239-0.758,2.359-0.758l1.742,0.07c0.234,0,0.477-0.026,0.727-0.078l0.648-0.148
			h0.07L57.206,14.155L57.206,14.155z M54.097,21.053c0.167,0,0.308-0.059,0.422-0.176c0.114-0.117,0.172-0.262,0.172-0.434
			c0-0.161-0.059-0.298-0.176-0.41s-0.257-0.168-0.418-0.168s-0.3,0.058-0.414,0.172c-0.114,0.114-0.172,0.25-0.172,0.406
			c0,0.172,0.058,0.316,0.172,0.434C53.797,20.995,53.936,21.053,54.097,21.053z"/>
		<path fill="#FFFFFF" d="M59.076,9.655c-0.255,0.859-0.772,1.542-1.551,2.047c-0.779,0.505-1.681,0.758-2.707,0.758
			c-0.75,0-1.343-0.163-1.777-0.488c-0.434-0.325-0.652-0.762-0.652-1.309c0-0.406,0.147-0.755,0.441-1.047s0.645-0.438,1.051-0.438
			c0.401,0,0.746,0.146,1.035,0.438s0.434,0.641,0.434,1.047c0,0.433-0.102,0.769-0.305,1.008c0.688,0,1.34-0.216,1.957-0.648
			c0.617-0.432,0.973-0.888,1.066-1.367L59.076,9.655L59.076,9.655z M53.88,11.256c0.156,0,0.29-0.059,0.402-0.176
			c0.112-0.117,0.168-0.257,0.168-0.418c0-0.161-0.056-0.301-0.168-0.418c-0.112-0.117-0.246-0.176-0.402-0.176
			c-0.172,0-0.316,0.059-0.434,0.176c-0.118,0.117-0.176,0.257-0.176,0.418c0,0.161,0.059,0.301,0.176,0.418
			C53.562,11.197,53.708,11.256,53.88,11.256z"/>
		<path fill="#FFFFFF" d="M67.092,21.803h-7.359v-1.391h1.281v-4.719c-0.161,0.062-0.349,0.094-0.562,0.094
			c-0.406,0-0.755-0.145-1.047-0.434c-0.292-0.289-0.438-0.634-0.438-1.035c0-0.411,0.146-0.763,0.438-1.055
			s0.641-0.438,1.047-0.438c0.62,0,1.113,0.188,1.48,0.566s0.551,0.887,0.551,1.527v5.492h3.141v-7.344h1.469L67.092,21.803
			L67.092,21.803z M60.451,14.889c0.161,0,0.301-0.056,0.418-0.168c0.117-0.112,0.176-0.246,0.176-0.402
			c0-0.172-0.058-0.316-0.172-0.434c-0.114-0.118-0.255-0.176-0.422-0.176c-0.161,0-0.3,0.059-0.414,0.176
			c-0.114,0.117-0.172,0.262-0.172,0.434c0,0.156,0.058,0.29,0.172,0.402C60.151,14.833,60.29,14.889,60.451,14.889z"/>
		<path fill="#FFFFFF" d="M74.422,19.069c0.161-0.062,0.349-0.094,0.562-0.094c0.406,0,0.755,0.144,1.047,0.43
			s0.438,0.633,0.438,1.039c0,0.406-0.147,0.755-0.441,1.047s-0.642,0.438-1.043,0.438c-0.62,0-1.114-0.188-1.484-0.562
			c-0.37-0.374-0.555-0.886-0.555-1.531v-8.719c0-0.578-0.094-0.867-0.281-0.867c-0.078,0-0.146,0.059-0.203,0.176
			c-0.057,0.117-0.13,0.421-0.219,0.91c-0.161,0.906-0.348,1.499-0.559,1.777s-0.468,0.418-0.77,0.418
			c-0.286,0-0.526-0.128-0.719-0.383c-0.193-0.255-0.349-0.817-0.469-1.688c-0.073-0.526-0.144-0.854-0.211-0.984
			c-0.067-0.13-0.151-0.195-0.25-0.195h-0.188V8.922h0.203c0.359,0,0.653,0.159,0.883,0.477c0.23,0.318,0.398,0.966,0.508,1.945
			c0.067,0.573,0.148,0.859,0.242,0.859c0.099,0,0.19-0.284,0.273-0.852c0.146-0.979,0.347-1.629,0.602-1.949s0.573-0.48,0.953-0.48
			c0.5,0,0.905,0.195,1.215,0.586s0.465,0.917,0.465,1.578L74.422,19.069L74.422,19.069z M74.985,21.053
			c0.161,0,0.3-0.059,0.414-0.176c0.114-0.117,0.172-0.262,0.172-0.434c0-0.156-0.059-0.292-0.176-0.406
			c-0.117-0.114-0.254-0.172-0.41-0.172c-0.161,0-0.301,0.058-0.418,0.172c-0.117,0.114-0.176,0.25-0.176,0.406
			c0,0.172,0.058,0.316,0.172,0.434C74.677,20.995,74.818,21.053,74.985,21.053z"/>
		<path fill="#FFFFFF" d="M85.915,21.803h-1.477v-5.039c0-1.698-0.769-2.547-2.305-2.547c-0.734,0-1.302,0.218-1.703,0.652
			s-0.602,1.012-0.602,1.73c0,0.63,0.117,1.362,0.352,2.195c0.062,0.208,0.153,0.742,0.273,1.602l0.828-0.797
			c0.276-0.271,0.458-0.513,0.547-0.727c-0.364-0.094-0.649-0.272-0.855-0.535c-0.206-0.263-0.309-0.569-0.309-0.918
			c0-0.406,0.144-0.754,0.43-1.043c0.286-0.289,0.633-0.434,1.039-0.434c0.422,0,0.773,0.149,1.055,0.449
			c0.282,0.3,0.422,0.673,0.422,1.121c0,0.489-0.163,1.012-0.488,1.566c-0.325,0.554-0.968,1.243-1.926,2.066
			c-0.281,0.239-0.519,0.458-0.711,0.656h-1.469v-0.672c0-0.433-0.099-1.12-0.297-2.062c-0.229-1.073-0.344-1.891-0.344-2.453
			c0-1.13,0.324-2.044,0.973-2.742c0.649-0.698,1.577-1.047,2.785-1.047c2.521,0,3.781,1.312,3.781,3.938L85.915,21.803
			L85.915,21.803z M82.165,18.014c0.161,0,0.301-0.058,0.418-0.172c0.117-0.114,0.176-0.25,0.176-0.406
			c0-0.172-0.058-0.316-0.172-0.434c-0.114-0.118-0.255-0.176-0.422-0.176c-0.161,0-0.3,0.059-0.414,0.176
			c-0.114,0.117-0.172,0.262-0.172,0.434c0,0.156,0.058,0.292,0.172,0.406C81.865,17.956,82.004,18.014,82.165,18.014z"/>
		<path fill="#FFFFFF" d="M86.261,9.748c-0.683,1.406-2.065,2.263-4.148,2.57l0.383-0.844c-0.229-0.031-0.417-0.134-0.562-0.309
			c-0.145-0.175-0.219-0.376-0.219-0.605c0-0.25,0.085-0.465,0.254-0.645c0.169-0.18,0.379-0.27,0.629-0.27
			c0.239,0,0.445,0.09,0.617,0.27c0.172,0.18,0.258,0.395,0.258,0.645c0,0.364-0.106,0.669-0.32,0.914
			c0.864-0.224,1.57-0.8,2.117-1.727L86.261,9.748L86.261,9.748z M82.597,10.834c0.067,0,0.129-0.027,0.184-0.082
			c0.055-0.055,0.082-0.118,0.082-0.191c0-0.073-0.027-0.137-0.082-0.191c-0.055-0.054-0.116-0.082-0.184-0.082
			c-0.073,0-0.137,0.027-0.191,0.082c-0.054,0.055-0.082,0.118-0.082,0.191c0,0.073,0.027,0.137,0.082,0.191
			C82.46,10.806,82.523,10.834,82.597,10.834z"/>
		<path fill="#FFFFFF" d="M95.615,21.803H94.06c-0.188-0.594-0.401-1.147-0.641-1.66c-0.24-0.513-0.505-0.988-0.797-1.426
			c-0.339,0.479-0.761,0.719-1.266,0.719c-0.406,0-0.755-0.145-1.047-0.434s-0.438-0.637-0.438-1.043
			c0-0.401,0.146-0.749,0.438-1.043c0.292-0.294,0.641-0.441,1.047-0.441c0.594,0,1.108,0.228,1.543,0.684
			c0.435,0.456,0.853,1.179,1.254,2.168v-2.945c0-0.729-0.183-1.29-0.547-1.684c-0.364-0.394-0.88-0.59-1.547-0.59
			c-1.073,0-2.122,0.347-3.148,1.039h-0.102v-1.649c1.125-0.448,2.198-0.672,3.219-0.672c1.177,0,2.069,0.306,2.676,0.918
			c0.607,0.612,0.91,1.491,0.91,2.637L95.615,21.803L95.615,21.803z M91.356,18.537c0.161,0,0.301-0.056,0.418-0.168
			c0.117-0.112,0.176-0.249,0.176-0.41c0-0.167-0.059-0.309-0.176-0.426c-0.117-0.117-0.257-0.176-0.418-0.176
			c-0.161,0-0.301,0.059-0.418,0.176c-0.117,0.117-0.176,0.259-0.176,0.426c0,0.161,0.059,0.298,0.176,0.41
			C91.056,18.481,91.196,18.537,91.356,18.537z"/>
		<path fill="#FFFFFF" d="M103.771,21.803h-1.469v-5.602c0-0.672-0.16-1.187-0.48-1.543c-0.32-0.356-0.762-0.535-1.324-0.535
			c-0.859,0-1.739,0.266-2.641,0.797h-0.102v-1.547c0.922-0.354,1.836-0.531,2.742-0.531c2.183,0,3.273,1.089,3.273,3.266
			L103.771,21.803L103.771,21.803z"/>
		<path fill="#FFFFFF" d="M113.696,21.803h-1.478v-5.039c0-0.948-0.167-1.609-0.5-1.984s-0.854-0.562-1.562-0.562
			c-1.1,0-1.762,0.448-1.984,1.344h1.492v1.039c-0.934,0.349-1.398,1.117-1.398,2.305v2.898h-1.469v-2.641
			c0-1.359,0.458-2.19,1.375-2.492h-1.539v-0.055c0-1.141,0.305-2.058,0.914-2.75c0.609-0.692,1.479-1.039,2.609-1.039
			c1.229,0,2.125,0.312,2.69,0.934s0.849,1.624,0.849,3.004V21.803z"/>
	</g>
</g>
</svg>
