<?xml version="1.0" encoding="utf-8"?>
<!-- Generator: Adobe Illustrator 15.1.0, SVG Export Plug-In . SVG Version: 6.00 Build 0)  -->
<!DOCTYPE svg PUBLIC "-//W3C//DTD SVG 1.1//EN" "http://www.w3.org/Graphics/SVG/1.1/DTD/svg11.dtd">
<svg version="1.1" id="SemiBold" xmlns="http://www.w3.org/2000/svg" xmlns:xlink="http://www.w3.org/1999/xlink" x="0px" y="0px"
	 width="216.457px" height="75.108px" viewBox="0 0 216.457 75.108" enable-background="new 0 0 216.457 75.108"
	 xml:space="preserve">
<g>
	<path d="M215.707,63.768c0,6.53-4.797,10.591-11.321,10.591H12.572c-6.528,0-11.821-5.298-11.821-11.828V12.574
		C0.75,6.045,6.043,0.75,12.572,0.75h191.814c6.524,0,11.321,5.295,11.321,11.824V63.768z"/>
	<path fill="#FFFFFF" d="M204.386,75.108H12.572C5.64,75.108,0,69.466,0,62.53V12.574C0,5.641,5.64,0,12.572,0h191.814
		c6.769,0,12.071,5.523,12.071,12.574v51.194C216.457,70.551,211.606,75.108,204.386,75.108z M12.572,1.5
		C6.467,1.5,1.5,6.468,1.5,12.574V62.53c0,6.108,4.967,11.078,11.071,11.078h191.814c6.323,0,10.571-3.955,10.571-9.841V12.574
		c0-6.209-4.644-11.074-10.571-11.074H12.572z"/>
</g>
<g>
	<g>
		<path fill="#FFFFFF" d="M147.652,33.585l-1.615,1.522c-0.371,0.205-0.742,0.443-1.112,0.612c-1.121,0.509-2.261,0.637-3.274,0.637
			c-1.078,0-2.768-0.069-4.49-1.316c-2.396-1.688-3.442-4.587-3.442-7.114c0-5.232,4.259-7.798,7.731-7.798
			c1.215,0,2.463,0.304,3.477,0.945c1.686,1.114,2.122,2.563,2.363,3.34l-7.934,3.205l-2.598,0.202
			c0.841,4.289,3.742,6.784,6.949,6.784c1.603,0,2.791-0.521,3.883-1.062C147.589,33.543,147.808,33.429,147.652,33.585z
			 M142.865,25.052c0.646-0.234,0.979-0.437,0.979-0.906c0-1.348-1.524-2.904-3.345-2.904c-1.35,0-3.879,1.05-3.879,4.695
			c0,0.569,0.066,1.175,0.102,1.781L142.865,25.052z"/>
		<path fill="#FFFFFF" d="M131.064,33.323c0,1.312,0.234,1.516,1.344,1.618c0.578,0.068,1.153,0.099,1.725,0.166l-1.248,0.743
			h-5.947c0.78-1.012,0.914-1.112,0.914-1.787V33.31l-0.013-20.063h-2.626l2.527-1.218h4.825c-1.046,0.605-1.358,0.975-1.493,2.155
			L131.064,33.323z"/>
		<path fill="#FFFFFF" d="M121.842,21.784c0.773,0.637,2.393,1.988,2.393,4.553c0,2.499-1.41,3.677-2.83,4.792
			c-0.437,0.438-0.945,0.915-0.945,1.651c0,0.746,0.51,1.151,0.877,1.453l1.219,0.941c1.482,1.251,2.833,2.398,2.833,4.728
			c0,3.176-3.072,6.375-8.877,6.375c-4.89,0-7.254-2.328-7.254-4.824c0-1.217,0.604-2.938,2.601-4.115
			c2.092-1.279,4.928-1.45,6.444-1.55c-0.474-0.612-1.015-1.253-1.015-2.299c0-0.572,0.172-0.913,0.338-1.315
			c-0.369,0.035-0.741,0.071-1.08,0.071c-3.578,0-5.602-2.67-5.602-5.302c0-1.552,0.707-3.273,2.161-4.521
			c1.925-1.584,4.218-1.857,6.041-1.857h6.954l-2.162,1.221L121.842,21.784L121.842,21.784z M119.451,36.765
			c-0.276-0.036-0.442-0.036-0.776-0.036c-0.306,0-2.129,0.066-3.541,0.54c-0.747,0.273-2.906,1.08-2.906,3.479
			c0,2.392,2.331,4.115,5.938,4.115c3.238,0,4.959-1.553,4.959-3.644C123.123,39.497,122.011,38.59,119.451,36.765z M120.421,30.353
			c0.78-0.778,0.848-1.854,0.848-2.466c0-2.427-1.446-6.207-4.252-6.207c-0.875,0-1.823,0.439-2.36,1.118
			c-0.57,0.703-0.742,1.615-0.742,2.492c0,2.26,1.317,6.008,4.218,6.008C118.977,31.298,119.887,30.887,120.421,30.353z"/>
		<path fill="#FFFFFF" d="M100.919,36.287c-5.364,0-8.234-4.178-8.234-7.959c0-4.419,3.608-8.2,8.74-8.2
			c4.961,0,8.068,3.884,8.068,7.962C109.494,32.072,106.423,36.287,100.919,36.287z M105.14,33.557
			c0.816-1.08,1.014-2.428,1.014-3.742c0-2.972-1.416-8.64-5.601-8.64c-1.113,0-2.234,0.435-3.042,1.146
			c-1.318,1.181-1.553,2.664-1.553,4.12c0,3.334,1.647,8.833,5.737,8.833C103.016,35.274,104.363,34.635,105.14,33.557z"/>
		<path fill="#FFFFFF" d="M82.96,36.287c-5.365,0-8.23-4.178-8.23-7.959c0-4.419,3.609-8.2,8.739-8.2
			c4.958,0,8.062,3.884,8.062,7.962C91.532,32.072,88.465,36.287,82.96,36.287z M87.182,33.557c0.81-1.08,1.012-2.428,1.012-3.742
			c0-2.972-1.42-8.64-5.601-8.64c-1.117,0-2.226,0.435-3.036,1.146c-1.32,1.181-1.554,2.664-1.554,4.12
			c0,3.334,1.654,8.833,5.737,8.833C85.058,35.274,86.403,34.635,87.182,33.557z"/>
		<path fill="#FFFFFF" d="M72.585,35.116l-4.524,1.035c-1.833,0.289-3.479,0.544-5.222,0.544c-8.727,0-12.051-6.424-12.051-11.45
			c0-6.14,4.711-11.831,12.778-11.831c1.707,0,3.35,0.251,4.846,0.658c2.371,0.667,3.479,1.487,4.173,1.969l-2.628,2.496
			l-1.108,0.248l0.79-1.26c-1.07-1.045-3.037-2.974-6.77-2.974c-4.991,0-8.757,3.794-8.757,9.333c0,5.949,4.3,11.545,11.194,11.545
			c2.026,0,3.069-0.407,4.016-0.787v-5.1l-4.776,0.257l2.532-1.36h6.703l-0.819,0.789c-0.222,0.188-0.251,0.252-0.313,0.504
			c-0.033,0.288-0.063,1.204-0.063,1.526L72.585,35.116L72.585,35.116z"/>
	</g>
	<g>
		<path fill="#FFFFFF" d="M157.379,33.729v8.597h-1.707V20.453h1.707v2.49c1.111-1.609,3.144-2.886,5.504-2.886
			c4.232,0,7.084,3.211,7.084,8.294c0,5.049-2.852,8.327-7.084,8.327C160.654,36.679,158.66,35.53,157.379,33.729z M168.133,28.352
			c0-3.831-1.997-6.753-5.538-6.753c-2.199,0-4.302,1.729-5.216,3.235v7.001c0.914,1.51,3.017,3.301,5.216,3.301
			C166.136,35.136,168.133,32.189,168.133,28.352z"/>
		<path fill="#FFFFFF" d="M172.298,36.285V14.414h1.706v21.871H172.298z"/>
		<path fill="#FFFFFF" d="M193.158,40.909c0.364,0.162,0.987,0.264,1.383,0.264c1.045,0,1.771-0.428,2.425-1.936l1.245-2.82
			l-6.725-15.964h1.903l5.769,13.834l5.713-13.834h1.931l-8.201,19.313c-0.851,1.99-2.188,2.947-4.028,2.947
			c-0.553,0-1.279-0.099-1.707-0.229L193.158,40.909z"/>
		<path fill="#FFFFFF" d="M188.172,36.238c-0.114-0.549-0.2-1.032-0.264-1.437c-0.053-0.403-0.082-0.815-0.082-1.234
			c-0.586,0.859-1.414,1.574-2.474,2.138c-1.06,0.566-2.065,0.845-3.448,0.845c-1.662,0-2.953-0.409-3.875-1.239
			c-0.918-0.829-1.38-1.952-1.38-3.373c0-1.419,0.669-2.571,2.003-3.452c1.334-0.885,3.06-1.324,5.192-1.324h3.981v-1.968
			c0-1.133-0.388-2.023-1.158-2.67c-0.773-0.646-1.859-0.974-3.268-0.974c-1.287,0-2.332,0.299-3.127,0.881
			c-0.787,0.594-1.185,1.33-1.185,2.217h-1.747l-0.036-0.085c-0.063-1.195,0.483-2.245,1.647-3.15
			c1.156-0.905,2.675-1.36,4.541-1.36c1.86,0,3.367,0.448,4.502,1.342c1.135,0.885,1.703,2.164,1.703,3.836v7.811
			c0,0.561,0.026,1.103,0.098,1.631c0.072,0.529,0.188,1.057,0.34,1.567h-1.965V36.238z M182.115,34.994
			c1.449,0,2.491-0.324,3.558-0.965c1.058-0.638,1.776-1.469,2.155-2.475v-3.04h-4c-1.528,0-2.793,0.338-3.789,1.021
			c-0.996,0.68-1.502,1.503-1.502,2.46c0,0.902,0.319,1.625,0.957,2.172C180.131,34.72,181.002,34.994,182.115,34.994z"/>
	</g>
</g>
<g>
	<polygon fill="none" points="28.499,27.46 33.975,21.984 33.973,21.984 28.499,27.46 11.021,9.985 11.021,9.985 28.499,27.463 
		10.994,44.969 10.994,44.969 28.499,27.463 33.999,32.963 34.001,32.963 	"/>
	
		<linearGradient id="SVGID_1_" gradientUnits="userSpaceOnUse" x1="865.2871" y1="509.6699" x2="842.2113" y2="524.1118" gradientTransform="matrix(0.7071 0.7071 0.7071 -0.7071 -947.4174 -225.4017)">
		<stop  offset="0" style="stop-color:#D6FFA1"/>
		<stop  offset="0.3264" style="stop-color:#93E2A7"/>
		<stop  offset="1" style="stop-color:#00A3B5"/>
	</linearGradient>
	<path fill="url(#SVGID_1_)" d="M33.973,21.984L12.637,10.252c-0.604-0.331-1.163-0.408-1.615-0.268L28.5,27.46L33.973,21.984z"/>
	
		<linearGradient id="SVGID_2_" gradientUnits="userSpaceOnUse" x1="851.873" y1="522.0059" x2="881.788" y2="514.1857" gradientTransform="matrix(0.7071 0.7071 0.7071 -0.7071 -947.4174 -225.4017)">
		<stop  offset="0" style="stop-color:#FF177B"/>
		<stop  offset="0.6721" style="stop-color:#FFA976"/>
		<stop  offset="1" style="stop-color:#FFEC73"/>
	</linearGradient>
	<path fill="url(#SVGID_2_)" d="M34.001,32.963l7.283-4.005c1.477-0.815,1.477-2.142,0-2.954l-7.311-4.02l-5.476,5.476
		L34.001,32.963z"/>
	
		<linearGradient id="SVGID_3_" gradientUnits="userSpaceOnUse" x1="868.5713" y1="498.7158" x2="836.1287" y2="517.8031" gradientTransform="matrix(0.7071 0.7071 0.7071 -0.7071 -947.4174 -225.4017)">
		<stop  offset="0" style="stop-color:#63FFD4"/>
		<stop  offset="0.4854" style="stop-color:#32A0BA"/>
		<stop  offset="0.8349" style="stop-color:#1262A9"/>
		<stop  offset="1" style="stop-color:#064AA2"/>
	</linearGradient>
	<path fill="url(#SVGID_3_)" d="M11.021,9.985c-0.649,0.203-1.069,0.86-1.069,1.854l0.004,31.283c0,0.982,0.407,1.631,1.038,1.847
		L28.5,27.463L11.021,9.985z"/>
	
		<linearGradient id="SVGID_4_" gradientUnits="userSpaceOnUse" x1="880.3496" y1="513.8701" x2="860.3746" y2="487.5539" gradientTransform="matrix(0.7071 0.7071 0.7071 -0.7071 -947.4174 -225.4017)">
		<stop  offset="0" style="stop-color:#FF4521"/>
		<stop  offset="0.3411" style="stop-color:#D43E65"/>
		<stop  offset="0.7935" style="stop-color:#9F36B9"/>
		<stop  offset="1" style="stop-color:#8A33DB"/>
	</linearGradient>
	<path fill="url(#SVGID_4_)" d="M10.994,44.969c0.454,0.153,1.024,0.082,1.643-0.258L34,32.963l-5.5-5.5L10.994,44.969z"/>
</g>
<g>
	<g>
		<path fill="#FFFFFF" d="M52.868,51.68c0-0.44,0.374-0.851,0.85-0.851c0.459,0,0.816,0.408,0.816,0.851
			c0,0.459-0.357,0.867-0.833,0.867C53.224,52.547,52.868,52.139,52.868,51.68z M54.431,53.346v11.457h-1.496V53.346H54.431z"/>
		<path fill="#FFFFFF" d="M56.147,53.346h1.496v10.216h4.896v1.241h-6.392V53.346z"/>
		<path fill="#FFFFFF" d="M69.253,59.432h-4.437v4.13h4.964v1.241h-6.46V53.346h6.205v1.241h-4.709v3.62h4.437V59.432z"/>
		<path fill="#FFFFFF" d="M73.521,51.68c0-0.44,0.374-0.851,0.85-0.851c0.459,0,0.816,0.408,0.816,0.851
			c0,0.459-0.357,0.867-0.833,0.867C73.877,52.547,73.521,52.139,73.521,51.68z M75.084,53.346v11.457h-1.496V53.346H75.084z"/>
		<path fill="#FFFFFF" d="M76.82,64.803V53.346h1.632l3.654,5.797c0.833,1.343,1.513,2.55,2.04,3.724l0.051-0.019
			c-0.136-1.528-0.17-2.924-0.17-4.708v-4.794h1.394v11.457h-1.495l-3.638-5.813c-0.799-1.273-1.564-2.584-2.125-3.823l-0.051,0.017
			c0.085,1.445,0.102,2.821,0.102,4.727v4.896H76.82V64.803z"/>
		<path fill="#FFFFFF" d="M87.156,53.516c0.9-0.151,1.972-0.255,3.145-0.255c2.125,0,3.638,0.51,4.641,1.428
			c1.037,0.937,1.632,2.262,1.632,4.114c0,1.869-0.595,3.399-1.648,4.453c-1.088,1.071-2.856,1.647-5.083,1.647
			c-1.071,0-1.938-0.051-2.686-0.136L87.156,53.516L87.156,53.516z M88.634,63.647c0.374,0.051,0.918,0.067,1.496,0.067
			c3.179,0,4.879-1.769,4.879-4.861c0.017-2.702-1.514-4.42-4.641-4.42c-0.766,0-1.343,0.068-1.734,0.153V63.647z"/>
		<path fill="#FFFFFF" d="M97.542,51.68c0-0.44,0.374-0.851,0.85-0.851c0.459,0,0.816,0.408,0.816,0.851
			c0,0.459-0.357,0.867-0.833,0.867S97.542,52.139,97.542,51.68z M99.105,53.346v11.457H97.61V53.346H99.105z"/>
		<path fill="#FFFFFF" d="M100.84,53.499c0.748-0.137,1.836-0.238,2.839-0.238c1.58,0,2.617,0.307,3.314,0.936
			c0.561,0.511,0.9,1.291,0.9,2.192c0,1.496-0.951,2.499-2.142,2.906v0.052c0.867,0.307,1.395,1.121,1.666,2.312
			c0.374,1.598,0.646,2.701,0.884,3.145h-1.529c-0.188-0.34-0.442-1.309-0.748-2.736c-0.34-1.58-0.969-2.176-2.312-2.228h-1.395
			v4.964h-1.479V53.499H100.84z M102.319,58.718h1.513c1.581,0,2.584-0.867,2.584-2.176c0-1.479-1.07-2.125-2.635-2.125
			c-0.714,0-1.207,0.051-1.462,0.119V58.718z"/>
		<path fill="#FFFFFF" d="M109.051,51.68c0-0.44,0.374-0.851,0.85-0.851c0.459,0,0.816,0.408,0.816,0.851
			c0,0.459-0.357,0.867-0.833,0.867S109.051,52.139,109.051,51.68z M110.615,53.346v11.457h-1.496V53.346H110.615z"/>
		<path fill="#FFFFFF" d="M112.349,64.803V53.346h1.632l3.654,5.797c0.833,1.343,1.513,2.55,2.04,3.724l0.051-0.019
			c-0.136-1.528-0.17-2.924-0.17-4.708v-4.794h1.394v11.457h-1.494l-3.639-5.813c-0.799-1.273-1.564-2.584-2.125-3.823l-0.051,0.017
			c0.085,1.445,0.102,2.821,0.102,4.727v4.896h-1.394V64.803z"/>
	</g>
</g>
</svg>
