<?xml version="1.0" encoding="utf-8"?>
<!-- Generator: Adobe Illustrator 15.1.0, SVG Export Plug-In . SVG Version: 6.00 Build 0)  -->
<!DOCTYPE svg PUBLIC "-//W3C//DTD SVG 1.1//EN" "http://www.w3.org/Graphics/SVG/1.1/DTD/svg11.dtd">
<svg version="1.1" id="SemiBold" xmlns="http://www.w3.org/2000/svg" xmlns:xlink="http://www.w3.org/1999/xlink" x="0px" y="0px"
	 width="216.457px" height="75.107px" viewBox="0 0 216.457 75.107" enable-background="new 0 0 216.457 75.107"
	 xml:space="preserve">
<g>
	<path d="M215.707,63.767c0,6.531-4.797,10.592-11.321,10.592H12.572c-6.528,0-11.821-5.299-11.821-11.828V12.573
		C0.75,6.045,6.043,0.75,12.572,0.75h191.814c6.524,0,11.321,5.295,11.321,11.823V63.767z"/>
	<path fill="#FFFFFF" d="M204.386,75.109H12.572C5.64,75.109,0,69.466,0,62.531V12.573C0,5.64,5.641,0,12.572,0h191.814
		c6.769,0,12.071,5.522,12.071,12.573v51.194C216.457,70.55,211.606,75.109,204.386,75.109z M12.572,1.5
		C6.468,1.5,1.5,6.468,1.5,12.573v49.958c0,6.107,4.967,11.078,11.071,11.078h191.814c6.323,0,10.571-3.955,10.571-9.842V12.573
		c0-6.209-4.645-11.073-10.571-11.073H12.572z"/>
</g>
<g>
	<g>
		<path fill="#FFFFFF" d="M147.652,53.585l-1.615,1.52c-0.371,0.205-0.742,0.443-1.111,0.613c-1.121,0.508-2.262,0.637-3.273,0.637
			c-1.078,0-2.769-0.07-4.49-1.316c-2.396-1.688-3.442-4.588-3.442-7.113c0-5.23,4.259-7.797,7.731-7.797
			c1.215,0,2.463,0.303,3.477,0.943c1.686,1.113,2.122,2.562,2.363,3.34l-7.935,3.205l-2.598,0.201
			c0.841,4.289,3.741,6.785,6.948,6.785c1.604,0,2.791-0.521,3.884-1.062C147.589,53.542,147.808,53.429,147.652,53.585z
			 M142.865,45.052c0.646-0.234,0.979-0.439,0.979-0.906c0-1.348-1.524-2.904-3.345-2.904c-1.351,0-3.879,1.051-3.879,4.695
			c0,0.568,0.065,1.176,0.102,1.781L142.865,45.052z"/>
		<path fill="#FFFFFF" d="M131.064,53.322c0,1.312,0.234,1.518,1.344,1.617c0.578,0.068,1.153,0.1,1.726,0.166l-1.248,0.744h-5.947
			c0.78-1.012,0.914-1.113,0.914-1.787v-0.754l-0.013-20.063h-2.626l2.526-1.218h4.825c-1.046,0.605-1.358,0.976-1.493,2.155
			L131.064,53.322z"/>
		<path fill="#FFFFFF" d="M121.842,41.782c0.773,0.639,2.393,1.988,2.393,4.555c0,2.498-1.41,3.676-2.83,4.791
			c-0.437,0.438-0.945,0.916-0.945,1.65c0,0.746,0.511,1.15,0.877,1.453l1.22,0.941c1.481,1.25,2.833,2.396,2.833,4.727
			c0,3.176-3.072,6.375-8.877,6.375c-4.891,0-7.254-2.328-7.254-4.824c0-1.217,0.604-2.938,2.602-4.113
			c2.092-1.279,4.928-1.451,6.443-1.553c-0.475-0.609-1.016-1.252-1.016-2.299c0-0.57,0.172-0.912,0.338-1.312
			c-0.368,0.035-0.74,0.068-1.079,0.068c-3.578,0-5.603-2.67-5.603-5.301c0-1.553,0.707-3.271,2.161-4.52
			c1.925-1.584,4.218-1.857,6.041-1.857h6.954l-2.162,1.221h-2.096V41.782z M119.451,56.765c-0.275-0.037-0.441-0.037-0.775-0.037
			c-0.307,0-2.129,0.066-3.541,0.541c-0.747,0.273-2.906,1.08-2.906,3.479c0,2.393,2.331,4.115,5.938,4.115
			c3.238,0,4.959-1.553,4.959-3.645C123.123,59.495,122.011,58.589,119.451,56.765z M120.421,50.353
			c0.78-0.777,0.848-1.854,0.848-2.467c0-2.426-1.446-6.207-4.252-6.207c-0.875,0-1.823,0.438-2.36,1.119
			c-0.57,0.703-0.742,1.613-0.742,2.49c0,2.262,1.317,6.01,4.219,6.01C118.977,51.298,119.887,50.886,120.421,50.353z"/>
		<path fill="#FFFFFF" d="M100.919,56.284c-5.364,0-8.234-4.178-8.234-7.959c0-4.418,3.608-8.197,8.74-8.197
			c4.961,0,8.068,3.883,8.068,7.961C109.494,52.072,106.423,56.284,100.919,56.284z M105.14,53.556
			c0.815-1.08,1.015-2.428,1.015-3.74c0-2.973-1.416-8.641-5.602-8.641c-1.113,0-2.234,0.436-3.042,1.145
			c-1.318,1.182-1.553,2.664-1.553,4.119c0,3.334,1.647,8.834,5.737,8.834C103.016,55.275,104.363,54.634,105.14,53.556z"/>
		<path fill="#FFFFFF" d="M82.96,56.284c-5.365,0-8.23-4.178-8.23-7.959c0-4.418,3.609-8.197,8.739-8.197
			c4.958,0,8.062,3.883,8.062,7.961C91.532,52.072,88.465,56.284,82.96,56.284z M87.182,53.556c0.81-1.08,1.012-2.428,1.012-3.74
			c0-2.973-1.42-8.641-5.601-8.641c-1.117,0-2.226,0.436-3.036,1.145c-1.32,1.182-1.554,2.664-1.554,4.119
			c0,3.334,1.654,8.834,5.737,8.834C85.058,55.275,86.403,54.634,87.182,53.556z"/>
		<path fill="#FFFFFF" d="M72.585,55.115l-4.524,1.035c-1.833,0.289-3.479,0.543-5.222,0.543c-8.727,0-12.051-6.424-12.051-11.449
			c0-6.141,4.711-11.832,12.778-11.832c1.707,0,3.35,0.251,4.846,0.658c2.371,0.667,3.479,1.487,4.173,1.969l-2.628,2.496
			l-1.108,0.248l0.79-1.259c-1.07-1.045-3.037-2.974-6.77-2.974c-4.991,0-8.757,3.793-8.757,9.333c0,5.949,4.3,11.545,11.194,11.545
			c2.026,0,3.069-0.406,4.016-0.787v-5.1l-4.776,0.258l2.532-1.361h6.703l-0.819,0.791c-0.222,0.188-0.251,0.252-0.313,0.504
			c-0.033,0.287-0.063,1.203-0.063,1.525L72.585,55.115L72.585,55.115z"/>
	</g>
	<g>
		<path fill="#FFFFFF" d="M157.379,53.728v8.598h-1.707V40.45h1.707v2.49c1.111-1.607,3.144-2.885,5.504-2.885
			c4.232,0,7.084,3.211,7.084,8.293c0,5.049-2.852,8.328-7.084,8.328C160.654,56.679,158.66,55.529,157.379,53.728z M168.133,48.351
			c0-3.83-1.997-6.752-5.538-6.752c-2.199,0-4.302,1.729-5.216,3.234v7.002c0.914,1.51,3.017,3.301,5.216,3.301
			C166.136,55.136,168.133,52.189,168.133,48.351z"/>
		<path fill="#FFFFFF" d="M172.298,56.282v-21.87h1.706v21.872h-1.706V56.282z"/>
		<path fill="#FFFFFF" d="M193.158,60.907c0.364,0.162,0.987,0.266,1.383,0.266c1.045,0,1.771-0.43,2.426-1.938l1.244-2.818
			l-6.725-15.967h1.903l5.769,13.834l5.713-13.834h1.932l-8.201,19.314c-0.852,1.99-2.188,2.947-4.027,2.947
			c-0.554,0-1.279-0.1-1.707-0.23L193.158,60.907z"/>
		<path fill="#FFFFFF" d="M188.172,56.238c-0.114-0.549-0.2-1.031-0.264-1.438c-0.054-0.402-0.082-0.814-0.082-1.232
			c-0.586,0.857-1.414,1.572-2.475,2.137c-1.061,0.566-2.064,0.846-3.447,0.846c-1.662,0-2.953-0.408-3.875-1.238
			c-0.918-0.83-1.381-1.953-1.381-3.373s0.67-2.572,2.004-3.453c1.334-0.885,3.059-1.324,5.191-1.324h3.98v-1.967
			c0-1.133-0.388-2.021-1.158-2.67c-0.772-0.645-1.858-0.975-3.268-0.975c-1.287,0-2.332,0.299-3.127,0.881
			c-0.787,0.594-1.186,1.33-1.186,2.217h-1.746l-0.036-0.084c-0.063-1.195,0.483-2.246,1.647-3.15
			c1.155-0.904,2.674-1.359,4.541-1.359c1.859,0,3.367,0.449,4.502,1.342c1.135,0.887,1.703,2.164,1.703,3.838v7.811
			c0,0.561,0.025,1.104,0.098,1.631c0.072,0.529,0.188,1.057,0.34,1.566h-1.965v-0.004H188.172z M182.115,54.991
			c1.449,0,2.491-0.322,3.559-0.965c1.058-0.637,1.775-1.469,2.154-2.475v-3.039h-4c-1.527,0-2.793,0.338-3.789,1.02
			s-1.502,1.504-1.502,2.461c0,0.902,0.319,1.625,0.957,2.174C180.131,54.72,181.002,54.991,182.115,54.991z"/>
	</g>
</g>
<g>
	<polygon fill="none" points="28.499,47.46 33.975,41.984 33.973,41.984 28.499,47.46 11.021,29.984 11.021,29.984 28.499,47.462 
		10.994,64.968 10.994,64.968 28.499,47.462 33.999,52.962 34.001,52.962 	"/>
	
		<linearGradient id="SVGID_1_" gradientUnits="userSpaceOnUse" x1="1252.7607" y1="-215.8582" x2="1229.6826" y2="-230.3014" gradientTransform="matrix(0.7071 0.7071 -0.7071 0.7071 -1013.6454 -687.1373)">
		<stop  offset="0" style="stop-color:#D6FFA1"/>
		<stop  offset="0.3264" style="stop-color:#93E2A7"/>
		<stop  offset="1" style="stop-color:#00A3B5"/>
	</linearGradient>
	<path fill="url(#SVGID_1_)" d="M33.973,41.984L12.637,30.252c-0.604-0.331-1.163-0.408-1.615-0.269L28.5,47.46L33.973,41.984z"/>
	
		<linearGradient id="SVGID_2_" gradientUnits="userSpaceOnUse" x1="1239.3398" y1="-228.1965" x2="1269.2637" y2="-220.374" gradientTransform="matrix(0.7071 0.7071 -0.7071 0.7071 -1013.6454 -687.1373)">
		<stop  offset="0" style="stop-color:#FF177B"/>
		<stop  offset="0.6721" style="stop-color:#FFA976"/>
		<stop  offset="1" style="stop-color:#FFEC73"/>
	</linearGradient>
	<path fill="url(#SVGID_2_)" d="M34.001,52.962l7.283-4.004c1.477-0.816,1.477-2.145,0-2.955l-7.311-4.021l-5.476,5.479
		L34.001,52.962z"/>
	
		<linearGradient id="SVGID_3_" gradientUnits="userSpaceOnUse" x1="1256.0459" y1="-204.905" x2="1223.6006" y2="-223.994" gradientTransform="matrix(0.7071 0.7071 -0.7071 0.7071 -1013.6454 -687.1373)">
		<stop  offset="0" style="stop-color:#63FFD4"/>
		<stop  offset="0.4854" style="stop-color:#32A0BA"/>
		<stop  offset="0.8349" style="stop-color:#1262A9"/>
		<stop  offset="1" style="stop-color:#064AA2"/>
	</linearGradient>
	<path fill="url(#SVGID_3_)" d="M11.021,29.984c-0.649,0.203-1.069,0.86-1.069,1.854L9.956,63.12c0,0.982,0.407,1.633,1.038,1.848
		L28.5,47.462L11.021,29.984z"/>
	
		<linearGradient id="SVGID_4_" gradientUnits="userSpaceOnUse" x1="1267.8223" y1="-220.0603" x2="1247.8451" y2="-193.7414" gradientTransform="matrix(0.7071 0.7071 -0.7071 0.7071 -1013.6454 -687.1373)">
		<stop  offset="0" style="stop-color:#FF4521"/>
		<stop  offset="0.3411" style="stop-color:#D43E65"/>
		<stop  offset="0.7935" style="stop-color:#9F36B9"/>
		<stop  offset="1" style="stop-color:#8A33DB"/>
	</linearGradient>
	<path fill="url(#SVGID_4_)" d="M10.994,64.968c0.454,0.152,1.024,0.082,1.643-0.258L34,52.962l-5.5-5.5L10.994,64.968z"/>
</g>
<g>
	<g>
		<path fill="#FFFFFF" d="M57.764,11.051c-0.789,0-1.482,0.003-2.079,0.008c-0.598,0.006-1.123,0.014-1.576,0.024
			c-0.454,0.011-0.849,0.022-1.185,0.039s-0.647,0.034-0.936,0.057v-1.04c0.32,0.021,0.666,0.04,1.04,0.056
			c0.373,0.018,0.813,0.03,1.32,0.04c0.506,0.011,1.106,0.021,1.8,0.024c0.693,0.006,1.525,0.008,2.496,0.008
			c0.928,0,1.738-0.002,2.432-0.008c0.693-0.005,1.301-0.015,1.824-0.024c0.522-0.01,0.979-0.022,1.368-0.04
			c0.389-0.016,0.743-0.034,1.063-0.056v1.04c-0.299-0.021-0.632-0.04-1-0.057c-0.368-0.017-0.808-0.028-1.32-0.039
			c-0.512-0.012-1.114-0.02-1.808-0.024c-0.693-0.005-1.504-0.008-2.432-0.008v9.456c0,0.459,0.01,0.912,0.031,1.359
			s0.059,0.911,0.112,1.393h-1.296c0.054-0.48,0.091-0.938,0.112-1.368c0.021-0.432,0.031-0.895,0.031-1.384v-9.456H57.764z
			 M63.875,18.442c-0.299-0.373-0.592-0.725-0.88-1.056c-0.288-0.33-0.59-0.658-0.904-0.984c-0.314-0.325-0.65-0.658-1.008-1
			c-0.357-0.341-0.76-0.714-1.208-1.119l0.592-0.607c0.47,0.416,0.898,0.803,1.288,1.16c0.39,0.356,0.755,0.697,1.097,1.022
			c0.341,0.326,0.664,0.645,0.968,0.952c0.304,0.31,0.605,0.624,0.904,0.944L63.875,18.442z"/>
		<path fill="#FFFFFF" d="M72.901,12.41h3.744c-0.021-0.555-0.04-1.034-0.056-1.439c-0.017-0.405-0.032-0.752-0.048-1.04
			c-0.017-0.288-0.032-0.522-0.049-0.704c-0.016-0.181-0.029-0.33-0.04-0.448c0.246,0.032,0.445,0.051,0.601,0.058
			c0.154,0.005,0.322,0.003,0.504-0.009c0.149-0.011,0.234,0.029,0.256,0.119c0.021,0.091-0.037,0.206-0.176,0.346
			c-0.043,0.042-0.075,0.108-0.096,0.199s-0.038,0.245-0.049,0.464c-0.011,0.22-0.011,0.522,0,0.912
			c0.011,0.39,0.027,0.903,0.049,1.544c0.416,0,0.831-0.006,1.247-0.017s0.819-0.021,1.208-0.032c0.39-0.01,0.75-0.022,1.08-0.04
			c0.331-0.016,0.613-0.034,0.849-0.056v0.944c-0.235-0.021-0.515-0.04-0.84-0.058c-0.326-0.016-0.681-0.028-1.064-0.04
			c-0.384-0.01-0.784-0.021-1.2-0.03c-0.416-0.011-0.832-0.018-1.248-0.018c0.021,0.513,0.054,1.035,0.097,1.568
			c0.042,0.533,0.096,1.051,0.159,1.552c0.064,0.502,0.139,0.968,0.225,1.4c0.085,0.432,0.176,0.803,0.271,1.111
			c0.139-0.257,0.285-0.567,0.44-0.937c0.154-0.368,0.299-0.76,0.432-1.176c0.134-0.416,0.254-0.829,0.36-1.24
			c0.106-0.41,0.176-0.786,0.208-1.128c0.202,0.148,0.413,0.271,0.632,0.368c0.219,0.096,0.387,0.153,0.504,0.176
			c0.149,0.032,0.222,0.099,0.216,0.2c-0.005,0.102-0.071,0.179-0.199,0.23c-0.203,0.064-0.411,0.391-0.624,0.978
			c-0.587,1.558-1.1,2.715-1.536,3.472c0.405,0.79,0.765,1.387,1.08,1.792c0.314,0.405,0.578,0.643,0.792,0.712
			c0.213,0.069,0.378-0.016,0.496-0.256c0.117-0.24,0.181-0.61,0.191-1.112c0.16,0.16,0.325,0.283,0.496,0.368
			c0.171,0.086,0.352,0.149,0.544,0.192c-0.16,0.532-0.322,0.951-0.488,1.256c-0.165,0.304-0.338,0.515-0.52,0.632
			s-0.379,0.149-0.592,0.096c-0.214-0.053-0.454-0.176-0.721-0.367c-0.213-0.148-0.487-0.425-0.823-0.823
			c-0.336-0.4-0.675-0.938-1.017-1.608c-0.191,0.277-0.384,0.534-0.576,0.77c-0.191,0.233-0.392,0.461-0.6,0.68
			s-0.43,0.432-0.664,0.64c-0.234,0.208-0.485,0.431-0.752,0.664c-0.128-0.182-0.254-0.322-0.376-0.424
			c-0.123-0.102-0.302-0.211-0.536-0.328c0.31-0.19,0.595-0.381,0.856-0.567c0.261-0.187,0.512-0.393,0.752-0.615
			c0.24-0.226,0.479-0.479,0.72-0.761c0.24-0.282,0.488-0.615,0.744-1c-0.256-0.673-0.488-1.575-0.696-2.712
			s-0.339-2.402-0.392-3.801h-4.08c-0.438,0-0.886,0.003-1.344,0.009c-0.459,0.005-0.904,0.014-1.336,0.023
			c-0.433,0.011-0.835,0.026-1.208,0.048c-0.374,0.021-0.688,0.043-0.944,0.064v-0.944c0.224,0.021,0.496,0.04,0.815,0.056
			c0.32,0.018,0.667,0.03,1.04,0.04c0.374,0.012,0.763,0.021,1.168,0.032c0.405,0.011,0.811,0.017,1.217,0.017v-1.168
			c-0.278,0-0.568,0.002-0.872,0.009c-0.305,0.005-0.595,0.014-0.872,0.022c-0.277,0.011-0.534,0.024-0.769,0.04
			c-0.234,0.018-0.421,0.029-0.56,0.04v-0.88c0.139,0.021,0.325,0.038,0.56,0.048c0.234,0.011,0.491,0.02,0.769,0.024
			c0.277,0.005,0.567,0.014,0.872,0.022c0.304,0.011,0.594,0.018,0.872,0.018c0-0.438-0.006-0.789-0.017-1.058
			c-0.011-0.266-0.026-0.483-0.048-0.654c0.234,0.03,0.43,0.056,0.584,0.07c0.154,0.018,0.328,0.024,0.521,0.024
			c0.128,0,0.199,0.025,0.216,0.08c0.016,0.054-0.035,0.111-0.152,0.176c-0.074,0.043-0.128,0.099-0.16,0.168
			C72.917,9.463,72.9,9.54,72.9,9.626v0.96c0.267,0,0.536-0.007,0.809-0.018c0.271-0.01,0.533-0.019,0.783-0.022
			c0.251-0.006,0.48-0.015,0.688-0.024s0.376-0.026,0.504-0.048v0.88c-0.128-0.011-0.296-0.021-0.504-0.032
			c-0.208-0.01-0.438-0.021-0.688-0.03c-0.25-0.012-0.512-0.021-0.783-0.032c-0.272-0.012-0.542-0.017-0.809-0.017L72.901,12.41
			L72.901,12.41z M72.836,14.587c0.672-0.012,1.258-0.026,1.76-0.049c0.501-0.021,0.949-0.054,1.344-0.097v0.85
			c-0.395-0.044-0.843-0.075-1.344-0.098c-0.502-0.021-1.088-0.037-1.76-0.048v0.736c0.714,0,1.316-0.005,1.808-0.017
			c0.49-0.011,0.869-0.031,1.136-0.063c-0.031,0.096-0.059,0.254-0.08,0.472c-0.021,0.219-0.031,0.437-0.031,0.648v1.712
			c0,0.214,0.013,0.419,0.04,0.616c0.026,0.196,0.05,0.354,0.071,0.472c-0.267-0.032-0.646-0.053-1.136-0.063
			c-0.491-0.011-1.094-0.017-1.808-0.017v0.896c0.704-0.011,1.312-0.025,1.823-0.048c0.513-0.021,0.977-0.054,1.393-0.097v0.912
			c-0.416-0.042-0.88-0.074-1.393-0.096c-0.512-0.021-1.119-0.037-1.823-0.049c0.021,0.342,0.04,0.712,0.056,1.111
			c0.016,0.4,0.04,0.771,0.072,1.112h-1.104c0.032-0.311,0.057-0.67,0.072-1.08c0.016-0.411,0.029-0.792,0.04-1.145
			c-0.886,0-1.648,0.012-2.288,0.031c-0.64,0.021-1.194,0.061-1.664,0.112V20.39c0.48,0.054,1.037,0.091,1.672,0.112
			c0.635,0.021,1.395,0.031,2.28,0.031v-0.896c-0.715,0-1.32,0.006-1.816,0.017c-0.496,0.012-0.872,0.031-1.128,0.063
			c0.021-0.117,0.037-0.274,0.048-0.473c0.011-0.197,0.017-0.401,0.017-0.615v-1.712c0-0.214-0.006-0.425-0.017-0.633
			s-0.026-0.37-0.048-0.487c0.256,0.031,0.632,0.054,1.128,0.063s1.102,0.017,1.816,0.017v-0.736c-1.493,0-2.64,0.048-3.44,0.145
			v-0.849c0.405,0.054,0.889,0.091,1.448,0.112c0.561,0.021,1.219,0.032,1.977,0.032c-0.012-0.277-0.027-0.513-0.049-0.704
			c-0.022-0.192-0.042-0.348-0.063-0.465c0.245,0.063,0.442,0.104,0.592,0.12c0.149,0.017,0.32,0.023,0.512,0.023
			c0.139,0,0.219,0.04,0.24,0.12s-0.026,0.151-0.144,0.216c-0.064,0.032-0.115,0.086-0.152,0.16
			c-0.037,0.075-0.056,0.197-0.056,0.368L72.836,14.587L72.836,14.587z M71.973,16.49H69.94v0.96h2.032V16.49z M71.973,17.994H69.94
			v1.071h2.032V17.994z M72.836,17.45h2.048v-0.96h-2.048V17.45z M72.836,19.066h2.048v-1.071h-2.048V19.066z M78.98,9.37
			c0.448,0.234,0.856,0.479,1.224,0.729c0.368,0.251,0.718,0.515,1.049,0.792l-0.544,0.704c-0.342-0.311-0.691-0.592-1.049-0.849
			c-0.358-0.256-0.738-0.495-1.144-0.721L78.98,9.37z"/>
		<path fill="#FFFFFF" d="M86.771,18.905c-0.096,0.032-0.205,0.129-0.327,0.288c-0.123,0.16-0.259,0.357-0.408,0.593
			c-0.214,0.342-0.422,0.65-0.624,0.929c-0.203,0.276-0.4,0.539-0.592,0.784c-0.118-0.117-0.251-0.226-0.4-0.32
			c-0.149-0.095-0.314-0.183-0.496-0.256c0.245-0.213,0.459-0.41,0.64-0.593c0.182-0.182,0.345-0.379,0.488-0.593
			c0.145-0.213,0.28-0.453,0.408-0.72c0.128-0.267,0.272-0.592,0.432-0.976c0.139,0.116,0.272,0.208,0.4,0.271
			c0.128,0.064,0.267,0.118,0.416,0.16c0.192,0.054,0.288,0.126,0.288,0.216C86.996,18.78,86.921,18.853,86.771,18.905z
			 M92.1,12.202c-0.458-0.031-1.023-0.059-1.695-0.08c-0.672-0.021-1.425-0.031-2.256-0.031c-0.832,0-1.585,0.011-2.257,0.031
			c-0.672,0.021-1.237,0.049-1.695,0.08v-1.009c0.469,0.032,1.037,0.061,1.704,0.08c0.666,0.021,1.416,0.032,2.248,0.032
			c0.831,0,1.584-0.013,2.256-0.04c0.672-0.026,1.237-0.051,1.695-0.072V12.202z M88.644,21.658c0,0.256-0.026,0.467-0.08,0.633
			c-0.053,0.164-0.165,0.298-0.336,0.398c-0.17,0.103-0.407,0.179-0.712,0.232c-0.304,0.053-0.706,0.085-1.208,0.096
			c-0.031-0.171-0.082-0.347-0.151-0.527c-0.069-0.182-0.179-0.357-0.328-0.527c0.416,0.053,0.749,0.082,1,0.088
			c0.25,0.005,0.439-0.02,0.567-0.072c0.129-0.054,0.211-0.144,0.248-0.271c0.038-0.129,0.057-0.295,0.057-0.496V17.26
			c-0.555,0-1.014,0.006-1.376,0.016c-0.363,0.011-0.715,0.027-1.057,0.048c0.021-0.287,0.038-0.581,0.049-0.88
			c0.01-0.298,0.016-0.666,0.016-1.104c0-0.448-0.006-0.847-0.016-1.192c-0.011-0.347-0.027-0.674-0.049-0.983
			c0.192,0.021,0.385,0.04,0.576,0.057c0.192,0.016,0.4,0.025,0.624,0.032c0.225,0.005,0.47,0.011,0.736,0.016
			c0.267,0.006,0.576,0.008,0.928,0.008c0.353,0,0.658-0.002,0.92-0.008c0.262-0.005,0.501-0.011,0.72-0.016
			c0.219-0.007,0.419-0.018,0.601-0.032c0.181-0.017,0.368-0.034,0.56-0.057c-0.011,0.311-0.016,0.641-0.016,0.991
			c0,0.354,0,0.747,0,1.186c0,0.438,0,0.806,0,1.104c0,0.299,0.005,0.587,0.016,0.864c-0.33-0.021-0.661-0.034-0.991-0.04
			c-0.331-0.005-0.764-0.008-1.297-0.008L88.644,21.658L88.644,21.658z M89.924,14.026h-3.632v2.513h3.632V14.026z M88.228,11.113
			c-0.256-0.403-0.506-0.757-0.752-1.056c-0.245-0.299-0.544-0.604-0.896-0.912l0.736-0.576c0.319,0.278,0.615,0.574,0.888,0.89
			c0.271,0.313,0.562,0.675,0.872,1.079L88.228,11.113z M90.788,20.762c-0.246-0.438-0.491-0.829-0.736-1.176
			c-0.245-0.348-0.527-0.701-0.848-1.064l0.64-0.56c0.277,0.299,0.558,0.621,0.84,0.968c0.283,0.347,0.59,0.766,0.92,1.256
			L90.788,20.762z M96.003,13.321c0.661,0,1.176-0.008,1.544-0.022c0.368-0.016,0.69-0.04,0.968-0.072v1.008
			c-0.139-0.01-0.285-0.022-0.439-0.04c-0.155-0.016-0.331-0.025-0.528-0.031c-0.197-0.006-0.424-0.011-0.68-0.017
			c-0.256-0.005-0.55-0.008-0.88-0.008h-1.584c-0.054,1.323-0.155,2.448-0.305,3.376s-0.365,1.739-0.647,2.432
			c-0.283,0.694-0.643,1.306-1.08,1.832c-0.438,0.528-0.966,1.049-1.584,1.562c-0.139-0.203-0.285-0.363-0.44-0.48
			c-0.154-0.117-0.359-0.202-0.615-0.256c0.618-0.416,1.148-0.845,1.592-1.288c0.442-0.441,0.813-0.976,1.111-1.6
			c0.299-0.624,0.531-1.382,0.696-2.272c0.165-0.89,0.285-1.991,0.36-3.304c-0.448,0.011-0.83,0.023-1.145,0.04
			c-0.315,0.016-0.589,0.035-0.823,0.056v-1.008c0.245,0.021,0.522,0.04,0.832,0.057c0.309,0.017,0.698,0.029,1.168,0.039
			c0.021-0.394,0.031-0.8,0.031-1.216s-0.008-0.821-0.023-1.216c-0.017-0.396-0.04-0.771-0.072-1.128
			c-0.032-0.357-0.064-0.675-0.096-0.952c0.234,0.064,0.445,0.107,0.632,0.128c0.187,0.021,0.397,0.027,0.632,0.018
			c0.128-0.012,0.197,0.022,0.208,0.104c0.011,0.081-0.043,0.152-0.16,0.216c-0.043,0.021-0.074,0.06-0.096,0.112
			s-0.04,0.154-0.056,0.304c-0.017,0.149-0.03,0.36-0.04,0.632c-0.011,0.272-0.017,0.634-0.017,1.08
			c0,0.342-0.003,0.673-0.008,0.992c-0.006,0.32-0.014,0.63-0.024,0.928h1.568V13.321z M98.979,21.211
			c-0.085,0.318-0.181,0.589-0.287,0.808c-0.107,0.219-0.246,0.393-0.416,0.521c-0.171,0.129-0.385,0.222-0.641,0.279
			c-0.256,0.059-0.57,0.088-0.943,0.088c-0.406,0-0.724-0.019-0.952-0.056c-0.229-0.037-0.406-0.12-0.528-0.248
			c-0.123-0.128-0.2-0.317-0.232-0.567c-0.031-0.251-0.048-0.59-0.048-1.017v-3.439c0-0.49-0.008-0.897-0.023-1.225
			c-0.017-0.325-0.035-0.6-0.057-0.824c0.203,0.055,0.385,0.089,0.544,0.104c0.16,0.016,0.363,0.014,0.608-0.008
			c0.149-0.012,0.229,0.008,0.24,0.056c0.011,0.048-0.043,0.142-0.16,0.28c-0.086,0.085-0.152,0.222-0.2,0.407
			c-0.048,0.187-0.072,0.418-0.072,0.695v4.192c0,0.267,0.072,0.459,0.217,0.576c0.144,0.116,0.413,0.176,0.808,0.176
			c0.202,0,0.373-0.02,0.512-0.057s0.251-0.106,0.336-0.208c0.086-0.102,0.155-0.242,0.208-0.425
			c0.054-0.181,0.102-0.416,0.145-0.703c0.139,0.17,0.27,0.29,0.392,0.359C98.551,21.048,98.735,21.125,98.979,21.211z
			 M97.124,12.618c-0.245-0.427-0.507-0.812-0.784-1.159c-0.277-0.348-0.624-0.707-1.04-1.08l0.672-0.562
			c0.31,0.288,0.641,0.63,0.992,1.024c0.353,0.395,0.678,0.784,0.977,1.168L97.124,12.618z"/>
		<path fill="#FFFFFF" d="M107.94,13.963c1.089,0,1.964-0.003,2.624-0.009c0.661-0.006,1.189-0.014,1.584-0.023
			s0.69-0.024,0.889-0.04c0.197-0.016,0.375-0.034,0.535-0.056v1.056c-0.147-0.021-0.32-0.04-0.512-0.056
			c-0.191-0.018-0.484-0.026-0.88-0.032c-0.396-0.005-0.926-0.011-1.593-0.017c-0.666-0.006-1.549-0.009-2.647-0.009v6.656
			c1.034,0,1.888-0.002,2.56-0.008c0.674-0.005,1.248-0.012,1.729-0.017c0.479-0.006,0.912-0.017,1.296-0.031
			c0.385-0.018,0.807-0.04,1.264-0.072v1.072c-0.317-0.012-0.616-0.024-0.896-0.04c-0.276-0.018-0.558-0.029-0.84-0.04
			c-0.283-0.012-0.584-0.02-0.904-0.024c-0.319-0.005-0.683-0.011-1.088-0.016c-0.405-0.006-0.87-0.008-1.394-0.008
			c-0.522,0-1.129,0-1.822,0c-0.736,0-1.416,0.002-2.04,0.008c-0.624,0.005-1.214,0.014-1.769,0.023
			c-0.556,0.011-1.086,0.023-1.592,0.039c-0.507,0.018-1.016,0.035-1.528,0.058v-1.072c0.48,0.021,0.938,0.04,1.376,0.056
			c0.438,0.018,0.889,0.03,1.353,0.04c0.464,0.011,0.957,0.021,1.479,0.024c0.521,0.006,1.109,0.008,1.761,0.008V11.098
			c0-0.544-0.009-0.957-0.024-1.24c-0.016-0.282-0.039-0.53-0.072-0.744c0.522,0.129,0.972,0.183,1.346,0.16
			c0.158-0.01,0.245,0.018,0.256,0.08c0.01,0.064-0.043,0.134-0.16,0.208c-0.191,0.118-0.287,0.379-0.287,0.784v3.616H107.94z"/>
	</g>
</g>
</svg>
