<?xml version="1.0" encoding="utf-8"?>
<!-- Generator: Adobe Illustrator 15.1.0, SVG Export Plug-In . SVG Version: 6.00 Build 0)  -->
<!DOCTYPE svg PUBLIC "-//W3C//DTD SVG 1.1//EN" "http://www.w3.org/Graphics/SVG/1.1/DTD/svg11.dtd">
<svg version="1.1" id="SemiBold" xmlns="http://www.w3.org/2000/svg" xmlns:xlink="http://www.w3.org/1999/xlink" x="0px" y="0px"
	 width="229.5px" height="91.5px" viewBox="0 0 229.5 91.5" enable-background="new 0 0 229.5 91.5" xml:space="preserve">
<path stroke="#FFFFFF" stroke-width="1.5" stroke-miterlimit="10" d="M221.985,71.05c0,6.53-4.797,10.59-11.322,10.59H18.849
	c-6.528,0-11.821-5.297-11.821-11.827V19.856c0-6.529,5.293-11.824,11.821-11.824h191.814c6.525,0,11.322,5.295,11.322,11.824V71.05
	z"/>
<g>
	<g>
		<path fill="#FFFFFF" d="M153.929,60.867l-1.614,1.522c-0.372,0.205-0.743,0.443-1.113,0.612c-1.121,0.509-2.261,0.637-3.274,0.637
			c-1.078,0-2.768-0.069-4.491-1.316c-2.396-1.688-3.442-4.587-3.442-7.114c0-5.232,4.259-7.798,7.732-7.798
			c1.215,0,2.462,0.304,3.476,0.945c1.686,1.114,2.122,2.563,2.364,3.34l-7.934,3.205l-2.598,0.202
			c0.841,4.289,3.743,6.784,6.95,6.784c1.602,0,2.791-0.522,3.882-1.062C153.866,60.825,154.085,60.711,153.929,60.867z
			 M149.143,52.334c0.645-0.234,0.979-0.437,0.979-0.906c0-1.348-1.525-2.904-3.345-2.904c-1.349,0-3.879,1.05-3.879,4.695
			c0,0.569,0.067,1.175,0.102,1.781L149.143,52.334z"/>
		<path fill="#FFFFFF" d="M137.342,60.605c0,1.312,0.234,1.516,1.343,1.618c0.578,0.068,1.154,0.099,1.725,0.166l-1.248,0.743
			h-5.947c0.78-1.012,0.914-1.112,0.914-1.787v-0.753l-0.013-20.063h-2.626l2.527-1.218h4.826c-1.046,0.605-1.358,0.975-1.493,2.155
			L137.342,60.605z"/>
		<path fill="#FFFFFF" d="M128.119,49.066c0.774,0.637,2.392,1.988,2.392,4.553c0,2.499-1.409,3.677-2.83,4.792
			c-0.436,0.438-0.945,0.915-0.945,1.651c0,0.746,0.51,1.151,0.877,1.453l1.219,0.941c1.482,1.251,2.833,2.398,2.833,4.728
			c0,3.175-3.072,6.375-8.877,6.375c-4.89,0-7.254-2.328-7.254-4.825c0-1.216,0.604-2.937,2.601-4.115
			c2.092-1.279,4.927-1.45,6.444-1.55c-0.474-0.612-1.015-1.253-1.015-2.299c0-0.572,0.172-0.913,0.338-1.315
			c-0.369,0.035-0.741,0.071-1.079,0.071c-3.579,0-5.603-2.67-5.603-5.302c0-1.552,0.708-3.273,2.162-4.521
			c1.924-1.584,4.218-1.857,6.041-1.857h6.954l-2.162,1.221H128.119z M125.728,64.047c-0.276-0.036-0.442-0.036-0.776-0.036
			c-0.306,0-2.129,0.066-3.541,0.54c-0.747,0.273-2.906,1.08-2.906,3.478c0,2.392,2.331,4.116,5.938,4.116
			c3.239,0,4.96-1.553,4.96-3.644C129.401,66.78,128.288,65.872,125.728,64.047z M126.698,57.635
			c0.78-0.778,0.848-1.854,0.848-2.466c0-2.427-1.447-6.207-4.252-6.207c-0.875,0-1.823,0.439-2.361,1.118
			c-0.57,0.703-0.741,1.615-0.741,2.492c0,2.26,1.317,6.008,4.217,6.008C125.254,58.58,126.164,58.169,126.698,57.635z"/>
		<path fill="#FFFFFF" d="M107.197,63.569c-5.364,0-8.234-4.178-8.234-7.959c0-4.419,3.608-8.2,8.74-8.2
			c4.961,0,8.068,3.884,8.068,7.962C115.771,59.354,112.7,63.569,107.197,63.569z M111.417,60.839
			c0.816-1.08,1.014-2.428,1.014-3.742c0-2.972-1.416-8.64-5.601-8.64c-1.113,0-2.234,0.435-3.042,1.146
			c-1.318,1.181-1.553,2.664-1.553,4.12c0,3.334,1.647,8.833,5.737,8.833C109.293,62.556,110.64,61.917,111.417,60.839z"/>
		<path fill="#FFFFFF" d="M89.238,63.569c-5.365,0-8.23-4.178-8.23-7.959c0-4.419,3.609-8.2,8.739-8.2
			c4.958,0,8.062,3.884,8.062,7.962C97.809,59.354,94.742,63.569,89.238,63.569z M93.459,60.839c0.81-1.08,1.012-2.428,1.012-3.742
			c0-2.972-1.42-8.64-5.601-8.64c-1.117,0-2.226,0.435-3.036,1.146c-1.32,1.181-1.554,2.664-1.554,4.12
			c0,3.334,1.654,8.833,5.737,8.833C91.335,62.556,92.68,61.917,93.459,60.839z"/>
		<path fill="#FFFFFF" d="M78.863,62.398l-4.524,1.035c-1.833,0.289-3.479,0.544-5.222,0.544c-8.727,0-12.051-6.424-12.051-11.45
			c0-6.14,4.711-11.831,12.778-11.831c1.707,0,3.35,0.251,4.846,0.658c2.371,0.667,3.479,1.487,4.173,1.969l-2.628,2.496
			l-1.108,0.248l0.79-1.26c-1.07-1.045-3.037-2.974-6.77-2.974c-4.991,0-8.757,3.794-8.757,9.333c0,5.949,4.3,11.545,11.194,11.545
			c2.026,0,3.069-0.407,4.016-0.787v-5.1l-4.776,0.257l2.532-1.36h6.703l-0.819,0.789c-0.222,0.188-0.251,0.252-0.313,0.504
			c-0.033,0.288-0.063,1.204-0.063,1.526V62.398z"/>
	</g>
	<g>
		<path fill="#FFFFFF" d="M163.656,61.011v8.596h-1.707V47.735h1.707v2.49c1.111-1.609,3.144-2.886,5.504-2.886
			c4.232,0,7.084,3.211,7.084,8.294c0,5.049-2.852,8.327-7.084,8.327C166.932,63.961,164.937,62.812,163.656,61.011z M174.41,55.634
			c0-3.831-1.997-6.753-5.538-6.753c-2.199,0-4.302,1.729-5.216,3.235v7.001c0.914,1.51,3.017,3.301,5.216,3.301
			C172.413,62.418,174.41,59.471,174.41,55.634z"/>
		<path fill="#FFFFFF" d="M178.575,63.567V41.696h1.706v21.871H178.575z"/>
		<path fill="#FFFFFF" d="M199.436,68.192c0.364,0.162,0.987,0.263,1.383,0.263c1.044,0,1.771-0.427,2.424-1.936l1.245-2.82
			l-6.725-15.964h1.904l5.769,13.834l5.712-13.834h1.931l-8.201,19.313c-0.851,1.99-2.189,2.947-4.029,2.947
			c-0.552,0-1.279-0.099-1.706-0.229L199.436,68.192z"/>
		<path fill="#FFFFFF" d="M194.449,63.52c-0.114-0.549-0.2-1.032-0.263-1.437c-0.053-0.403-0.082-0.815-0.082-1.234
			c-0.586,0.859-1.415,1.574-2.474,2.138c-1.06,0.566-2.066,0.845-3.448,0.845c-1.663,0-2.953-0.409-3.875-1.239
			c-0.918-0.829-1.38-1.952-1.38-3.373c0-1.419,0.669-2.571,2.003-3.452c1.334-0.885,3.059-1.324,5.192-1.324h3.981v-1.968
			c0-1.133-0.387-2.023-1.157-2.67c-0.774-0.646-1.86-0.974-3.269-0.974c-1.287,0-2.331,0.299-3.126,0.881
			c-0.788,0.594-1.185,1.33-1.185,2.217h-1.747l-0.036-0.085c-0.063-1.195,0.484-2.245,1.647-3.15
			c1.157-0.905,2.675-1.36,4.542-1.36c1.86,0,3.366,0.448,4.502,1.342c1.134,0.885,1.703,2.164,1.703,3.836v7.811
			c0,0.561,0.026,1.103,0.097,1.631c0.072,0.529,0.187,1.057,0.34,1.567H194.449z M188.392,62.276c1.45,0,2.492-0.324,3.558-0.965
			c1.058-0.638,1.777-1.469,2.155-2.475v-3.04h-4c-1.528,0-2.793,0.338-3.788,1.021c-0.997,0.68-1.503,1.503-1.503,2.46
			c0,0.902,0.32,1.625,0.957,2.172C186.408,62.002,187.28,62.276,188.392,62.276z"/>
	</g>
</g>
<g>
	<polygon fill="none" points="34.776,54.742 40.252,49.266 40.25,49.266 34.776,54.742 17.299,37.267 17.298,37.267 34.776,54.745 
		17.271,72.251 17.271,72.251 34.776,54.745 40.276,60.245 40.279,60.245 	"/>
	
		<linearGradient id="SVGID_1_" gradientUnits="userSpaceOnUse" x1="519.5732" y1="-432.9976" x2="496.4961" y2="-447.4402" gradientTransform="matrix(0.7071 0.7071 -0.7071 0.7071 -642.4706 -7.8795)">
		<stop  offset="0" style="stop-color:#D6FFA1"/>
		<stop  offset="0.3264" style="stop-color:#93E2A7"/>
		<stop  offset="1" style="stop-color:#00A3B5"/>
	</linearGradient>
	<path fill="url(#SVGID_1_)" d="M40.25,49.266L18.914,37.534c-0.604-0.331-1.163-0.408-1.615-0.268l17.478,17.476L40.25,49.266z"/>
	
		<linearGradient id="SVGID_2_" gradientUnits="userSpaceOnUse" x1="506.1582" y1="-445.3345" x2="536.076" y2="-437.5135" gradientTransform="matrix(0.7071 0.7071 -0.7071 0.7071 -642.4706 -7.8795)">
		<stop  offset="0" style="stop-color:#FF177B"/>
		<stop  offset="0.6721" style="stop-color:#FFA976"/>
		<stop  offset="1" style="stop-color:#FFEC73"/>
	</linearGradient>
	<path fill="url(#SVGID_2_)" d="M40.279,60.245l7.283-4.005c1.477-0.815,1.477-2.142,0-2.954l-7.311-4.02l-5.476,5.476
		L40.279,60.245z"/>
	
		<linearGradient id="SVGID_3_" gradientUnits="userSpaceOnUse" x1="522.8574" y1="-422.0444" x2="490.413" y2="-441.1328" gradientTransform="matrix(0.7071 0.7071 -0.7071 0.7071 -642.4706 -7.8795)">
		<stop  offset="0" style="stop-color:#63FFD4"/>
		<stop  offset="0.4854" style="stop-color:#32A0BA"/>
		<stop  offset="0.8349" style="stop-color:#1262A9"/>
		<stop  offset="1" style="stop-color:#064AA2"/>
	</linearGradient>
	<path fill="url(#SVGID_3_)" d="M17.298,37.267c-0.649,0.203-1.069,0.86-1.069,1.854l0.004,31.284c0,0.982,0.407,1.63,1.038,1.846
		l17.506-17.506L17.298,37.267z"/>
	
		<linearGradient id="SVGID_4_" gradientUnits="userSpaceOnUse" x1="534.6367" y1="-437.1992" x2="514.66" y2="-410.8809" gradientTransform="matrix(0.7071 0.7071 -0.7071 0.7071 -642.4706 -7.8795)">
		<stop  offset="0" style="stop-color:#FF4521"/>
		<stop  offset="0.3411" style="stop-color:#D43E65"/>
		<stop  offset="0.7935" style="stop-color:#9F36B9"/>
		<stop  offset="1" style="stop-color:#8A33DB"/>
	</linearGradient>
	<path fill="url(#SVGID_4_)" d="M17.271,72.251c0.454,0.154,1.024,0.082,1.643-0.258l21.363-11.748l-5.5-5.5L17.271,72.251z"/>
</g>
<g>
	<g>
		<path fill="#FFFFFF" d="M63.598,17.005c-0.74,0-1.391,0.003-1.95,0.008c-0.561,0.005-1.053,0.013-1.478,0.022
			s-0.795,0.022-1.11,0.037c-0.314,0.016-0.607,0.033-0.877,0.053V16.15c0.3,0.02,0.625,0.037,0.975,0.052
			c0.351,0.016,0.763,0.028,1.237,0.038c0.476,0.01,1.038,0.018,1.688,0.022c0.65,0.005,1.431,0.007,2.341,0.007
			c0.87,0,1.63-0.002,2.279-0.007c0.65-0.005,1.221-0.013,1.71-0.022c0.49-0.01,0.918-0.022,1.283-0.038
			c0.364-0.015,0.697-0.032,0.997-0.052v0.975c-0.28-0.02-0.593-0.037-0.938-0.053c-0.345-0.015-0.758-0.027-1.237-0.037
			c-0.48-0.01-1.045-0.018-1.695-0.022s-1.41-0.008-2.279-0.008v8.865c0,0.43,0.01,0.854,0.029,1.274
			c0.021,0.421,0.055,0.855,0.105,1.306h-1.215c0.05-0.45,0.084-0.878,0.104-1.283c0.021-0.404,0.03-0.837,0.03-1.297V17.005z
			 M69.327,23.935c-0.279-0.35-0.555-0.68-0.824-0.989c-0.271-0.311-0.553-0.618-0.848-0.923s-0.61-0.617-0.945-0.938
			s-0.713-0.67-1.133-1.05l0.556-0.57c0.439,0.39,0.842,0.753,1.207,1.088s0.707,0.655,1.027,0.96s0.623,0.603,0.908,0.893
			c0.284,0.29,0.567,0.585,0.847,0.885L69.327,23.935z"/>
		<path fill="#FFFFFF" d="M77.787,18.28h3.511c-0.021-0.521-0.038-0.97-0.053-1.351c-0.015-0.38-0.03-0.705-0.045-0.975
			c-0.016-0.271-0.03-0.49-0.045-0.66c-0.016-0.17-0.028-0.31-0.038-0.42c0.23,0.03,0.418,0.048,0.562,0.053
			c0.146,0.005,0.303,0.002,0.473-0.008c0.14-0.01,0.22,0.027,0.24,0.112c0.02,0.085-0.035,0.193-0.165,0.322
			c-0.04,0.041-0.07,0.104-0.09,0.188c-0.021,0.086-0.035,0.23-0.045,0.436c-0.011,0.205-0.011,0.49,0,0.854
			c0.01,0.365,0.024,0.848,0.045,1.448c0.39,0,0.78-0.005,1.17-0.016c0.39-0.01,0.768-0.02,1.133-0.029
			c0.364-0.01,0.702-0.022,1.012-0.038c0.311-0.015,0.575-0.032,0.795-0.053v0.886c-0.22-0.021-0.482-0.038-0.787-0.053
			s-0.638-0.027-0.997-0.037c-0.36-0.011-0.735-0.021-1.125-0.03c-0.391-0.01-0.78-0.016-1.17-0.016
			c0.02,0.48,0.05,0.971,0.09,1.471c0.039,0.5,0.09,0.984,0.149,1.455c0.061,0.47,0.13,0.907,0.21,1.312
			c0.08,0.404,0.165,0.752,0.255,1.042c0.13-0.24,0.268-0.532,0.413-0.877c0.145-0.346,0.279-0.713,0.405-1.103
			c0.124-0.391,0.237-0.777,0.337-1.163c0.1-0.385,0.165-0.737,0.195-1.058c0.189,0.141,0.388,0.255,0.593,0.346
			c0.204,0.09,0.362,0.145,0.472,0.165c0.141,0.029,0.208,0.092,0.203,0.188c-0.006,0.095-0.067,0.167-0.188,0.217
			c-0.19,0.061-0.386,0.365-0.585,0.915c-0.551,1.46-1.03,2.545-1.44,3.255c0.38,0.74,0.718,1.301,1.013,1.681
			s0.542,0.603,0.742,0.667c0.2,0.065,0.355-0.015,0.465-0.24c0.11-0.225,0.17-0.572,0.181-1.042
			c0.149,0.15,0.305,0.265,0.465,0.345s0.33,0.141,0.51,0.181c-0.149,0.499-0.303,0.892-0.457,1.177
			c-0.155,0.285-0.318,0.482-0.488,0.593s-0.354,0.14-0.555,0.09s-0.425-0.165-0.675-0.345c-0.2-0.141-0.458-0.397-0.772-0.772
			c-0.315-0.375-0.633-0.878-0.952-1.508c-0.181,0.261-0.36,0.5-0.54,0.72c-0.181,0.221-0.368,0.434-0.562,0.638
			c-0.195,0.205-0.403,0.405-0.623,0.601c-0.22,0.194-0.455,0.402-0.705,0.622c-0.12-0.17-0.237-0.303-0.353-0.397
			s-0.282-0.197-0.502-0.308c0.29-0.18,0.557-0.357,0.802-0.532s0.48-0.367,0.705-0.577c0.226-0.21,0.45-0.448,0.676-0.713
			c0.225-0.265,0.457-0.577,0.697-0.938c-0.24-0.63-0.458-1.478-0.652-2.543c-0.195-1.064-0.318-2.252-0.368-3.562h-3.824
			c-0.41,0-0.831,0.003-1.261,0.008s-0.848,0.013-1.252,0.022c-0.405,0.01-0.783,0.025-1.133,0.045
			c-0.35,0.021-0.645,0.04-0.885,0.061v-0.886c0.21,0.021,0.465,0.038,0.765,0.053c0.3,0.016,0.625,0.028,0.976,0.038
			c0.35,0.01,0.715,0.02,1.095,0.029c0.38,0.011,0.76,0.016,1.14,0.016v-1.096c-0.26,0-0.532,0.003-0.817,0.008
			s-0.558,0.013-0.817,0.022s-0.5,0.022-0.72,0.038c-0.221,0.015-0.396,0.027-0.525,0.037v-0.825
			c0.13,0.021,0.305,0.035,0.525,0.045c0.22,0.011,0.46,0.018,0.72,0.022c0.26,0.006,0.532,0.013,0.817,0.022
			c0.285,0.011,0.558,0.016,0.817,0.016c0-0.41-0.005-0.74-0.015-0.99s-0.025-0.455-0.045-0.615c0.22,0.03,0.402,0.053,0.547,0.067
			c0.146,0.016,0.308,0.022,0.488,0.022c0.12,0,0.188,0.025,0.202,0.075s-0.032,0.105-0.143,0.165c-0.07,0.04-0.12,0.093-0.15,0.157
			c-0.029,0.065-0.045,0.138-0.045,0.218v0.9c0.25,0,0.503-0.005,0.758-0.016c0.255-0.01,0.5-0.017,0.735-0.022
			c0.234-0.005,0.45-0.012,0.645-0.022c0.195-0.01,0.353-0.024,0.473-0.045v0.825c-0.12-0.01-0.277-0.02-0.473-0.03
			c-0.194-0.01-0.41-0.02-0.645-0.03c-0.235-0.01-0.48-0.02-0.735-0.029s-0.508-0.016-0.758-0.016V18.28z M77.728,20.32
			c0.63-0.01,1.18-0.025,1.65-0.045c0.47-0.021,0.89-0.051,1.26-0.091v0.795c-0.37-0.039-0.79-0.069-1.26-0.09
			c-0.471-0.02-1.021-0.034-1.65-0.045v0.69c0.67,0,1.235-0.005,1.695-0.016c0.46-0.01,0.814-0.029,1.064-0.06
			c-0.03,0.09-0.055,0.237-0.075,0.442c-0.02,0.205-0.029,0.407-0.029,0.607v1.605c0,0.2,0.012,0.393,0.037,0.577
			c0.025,0.186,0.048,0.333,0.067,0.442c-0.25-0.03-0.604-0.05-1.064-0.06s-1.025-0.016-1.695-0.016V25.9
			c0.66-0.011,1.229-0.025,1.71-0.046c0.48-0.02,0.915-0.05,1.305-0.09v0.855c-0.39-0.04-0.824-0.07-1.305-0.09
			c-0.48-0.021-1.05-0.035-1.71-0.045c0.02,0.319,0.037,0.667,0.053,1.042c0.015,0.375,0.037,0.723,0.067,1.043h-1.035
			c0.03-0.29,0.053-0.628,0.067-1.013s0.027-0.742,0.038-1.072c-0.831,0-1.546,0.01-2.146,0.029c-0.6,0.021-1.12,0.056-1.56,0.105
			v-0.855c0.449,0.051,0.972,0.085,1.567,0.105c0.595,0.02,1.307,0.03,2.138,0.03V25.06c-0.671,0-1.238,0.006-1.703,0.016
			s-0.817,0.029-1.058,0.06c0.021-0.109,0.035-0.257,0.045-0.442c0.01-0.185,0.016-0.377,0.016-0.577V22.51
			c0-0.2-0.006-0.397-0.016-0.593c-0.01-0.194-0.024-0.347-0.045-0.457c0.24,0.03,0.593,0.05,1.058,0.06
			c0.465,0.011,1.032,0.016,1.703,0.016v-0.69c-1.4,0-2.476,0.045-3.226,0.135v-0.795c0.38,0.051,0.833,0.086,1.357,0.105
			c0.525,0.021,1.143,0.03,1.853,0.03c-0.01-0.261-0.025-0.48-0.045-0.66c-0.021-0.181-0.04-0.325-0.06-0.436
			c0.229,0.061,0.414,0.098,0.555,0.113c0.14,0.015,0.3,0.022,0.479,0.022c0.13,0,0.205,0.037,0.226,0.112
			c0.02,0.075-0.025,0.143-0.135,0.202c-0.061,0.03-0.108,0.08-0.143,0.15c-0.035,0.07-0.053,0.185-0.053,0.345V20.32z
			 M76.918,22.104h-1.905v0.9h1.905V22.104z M76.918,23.515h-1.905v1.005h1.905V23.515z M77.728,23.005h1.92v-0.9h-1.92V23.005z
			 M77.728,24.52h1.92v-1.005h-1.92V24.52z M83.487,15.43c0.42,0.221,0.803,0.448,1.147,0.683c0.346,0.235,0.673,0.482,0.982,0.742
			l-0.51,0.66c-0.32-0.29-0.647-0.555-0.982-0.795s-0.692-0.465-1.072-0.675L83.487,15.43z"/>
		<path fill="#FFFFFF" d="M93.732,24.85c-0.38-0.489-0.72-0.859-1.02-1.109l0.689-0.63c0.46,0.489,0.902,1,1.328,1.529
			c0.425,0.53,0.867,1.136,1.327,1.815l-0.855,0.57c-0.14-0.261-0.29-0.516-0.449-0.766c-0.16-0.25-0.325-0.489-0.495-0.72
			l-2.88,1.215c-0.4,0.17-0.743,0.328-1.028,0.473c-0.284,0.145-0.558,0.303-0.817,0.473c-0.069-0.17-0.157-0.333-0.263-0.487
			c-0.104-0.155-0.217-0.303-0.337-0.443c0.109-0.109,0.207-0.222,0.292-0.337s0.155-0.245,0.21-0.391
			c0.056-0.145,0.096-0.312,0.12-0.502c0.025-0.189,0.038-0.415,0.038-0.675V17.32c0-0.13-0.003-0.28-0.008-0.45
			s-0.013-0.338-0.022-0.503s-0.021-0.324-0.03-0.479s-0.02-0.287-0.029-0.397c0.26,0.05,0.617,0.093,1.072,0.127
			c0.455,0.035,1.027,0.053,1.718,0.053c0.689,0,1.31-0.018,1.859-0.053c0.55-0.034,0.96-0.077,1.23-0.127
			c-0.011,0.12-0.021,0.257-0.03,0.412s-0.018,0.315-0.022,0.48s-0.01,0.33-0.015,0.495c-0.006,0.164-0.008,0.312-0.008,0.442v2.85
			c0,0.76,0.03,1.41,0.09,1.95c-0.26-0.03-0.603-0.053-1.027-0.067c-0.425-0.016-0.862-0.022-1.312-0.022h-2.535v4.109
			c0.78-0.26,1.423-0.495,1.928-0.705S93.383,25.03,93.732,24.85z M94.407,16.435h-3.885v2.056h3.885V16.435z M94.407,19.24h-3.885
			v2.024h3.885V19.24z M101.428,15.79c-0.051,0.24-0.088,0.51-0.112,0.81c-0.025,0.301-0.038,0.716-0.038,1.245v6.705
			c0,0.32-0.032,0.588-0.098,0.803c-0.064,0.215-0.188,0.397-0.367,0.548c-0.18,0.149-0.43,0.27-0.75,0.359s-0.74,0.165-1.26,0.226
			c0.02-0.23-0.008-0.436-0.083-0.615s-0.202-0.365-0.382-0.555c0.479,0.029,0.854,0.032,1.125,0.007
			c0.27-0.024,0.472-0.075,0.607-0.149c0.135-0.075,0.22-0.175,0.255-0.301c0.035-0.125,0.053-0.271,0.053-0.442v-7.755h-2.91v11.91
			h-0.99c0.04-0.59,0.069-1.147,0.09-1.673c0.021-0.524,0.03-1.103,0.03-1.732v-7.335c0-0.35-0.01-0.72-0.03-1.109
			c-0.021-0.391-0.04-0.705-0.06-0.945c0.29,0.04,0.637,0.07,1.042,0.09c0.405,0.021,0.872,0.03,1.402,0.03
			c0.5,0,0.965-0.01,1.396-0.03C100.777,15.86,101.138,15.83,101.428,15.79z"/>
		<path fill="#FFFFFF" d="M110.638,19.735c1.02,0,1.84-0.003,2.46-0.008s1.115-0.013,1.484-0.022c0.37-0.01,0.647-0.022,0.833-0.038
			c0.185-0.015,0.353-0.032,0.503-0.052v0.989c-0.141-0.02-0.301-0.037-0.48-0.052c-0.18-0.016-0.455-0.025-0.825-0.03
			s-0.867-0.01-1.492-0.015s-1.453-0.008-2.482-0.008v6.24c0.97,0,1.77-0.003,2.399-0.008c0.631-0.005,1.17-0.01,1.62-0.015
			s0.855-0.016,1.215-0.03c0.36-0.015,0.755-0.037,1.186-0.067v1.005c-0.3-0.01-0.58-0.022-0.84-0.037
			c-0.261-0.016-0.522-0.028-0.788-0.038c-0.265-0.01-0.547-0.018-0.848-0.022c-0.3-0.005-0.64-0.01-1.02-0.015
			c-0.38-0.006-0.815-0.008-1.305-0.008c-0.49,0-1.061,0-1.71,0c-0.69,0-1.328,0.002-1.913,0.008
			c-0.585,0.005-1.138,0.012-1.657,0.022c-0.521,0.01-1.018,0.022-1.492,0.037c-0.476,0.016-0.953,0.032-1.433,0.053V26.62
			c0.45,0.02,0.88,0.037,1.29,0.053c0.409,0.015,0.832,0.027,1.268,0.037c0.435,0.01,0.897,0.018,1.387,0.022
			c0.49,0.005,1.04,0.008,1.65,0.008v-9.69c0-0.51-0.008-0.897-0.022-1.162s-0.037-0.498-0.067-0.697
			c0.489,0.119,0.91,0.17,1.26,0.149c0.15-0.01,0.23,0.015,0.24,0.075c0.01,0.06-0.04,0.125-0.15,0.195
			c-0.18,0.109-0.27,0.354-0.27,0.734V19.735z"/>
	</g>
</g>
</svg>
