<?xml version="1.0" encoding="utf-8"?>
<!-- Generator: Adobe Illustrator 15.1.0, SVG Export Plug-In . SVG Version: 6.00 Build 0)  -->
<!DOCTYPE svg PUBLIC "-//W3C//DTD SVG 1.1//EN" "http://www.w3.org/Graphics/SVG/1.1/DTD/svg11.dtd">
<svg version="1.1" id="SemiBold" xmlns="http://www.w3.org/2000/svg" xmlns:xlink="http://www.w3.org/1999/xlink" x="0px" y="0px"
	 width="216.457px" height="75.107px" viewBox="0 0 216.457 75.107" enable-background="new 0 0 216.457 75.107"
	 xml:space="preserve">
<g>
	<path d="M215.707,63.767c0,6.531-4.797,10.592-11.321,10.592H12.572c-6.528,0-11.821-5.299-11.821-11.828V12.573
		C0.75,6.045,6.043,0.75,12.572,0.75h191.814c6.524,0,11.321,5.295,11.321,11.823V63.767z"/>
	<path fill="#FFFFFF" d="M204.386,75.109H12.572C5.64,75.109,0,69.466,0,62.531V12.573C0,5.64,5.641,0,12.572,0h191.814
		c6.769,0,12.071,5.522,12.071,12.573v51.194C216.457,70.55,211.606,75.109,204.386,75.109z M12.572,1.5
		C6.468,1.5,1.5,6.468,1.5,12.573v49.958c0,6.107,4.967,11.078,11.071,11.078h191.814c6.323,0,10.571-3.955,10.571-9.842V12.573
		c0-6.209-4.645-11.073-10.571-11.073H12.572z"/>
</g>
<g>
	<g>
		<path fill="#FFFFFF" d="M147.652,53.585l-1.615,1.52c-0.371,0.205-0.742,0.443-1.111,0.613c-1.121,0.508-2.262,0.637-3.273,0.637
			c-1.078,0-2.769-0.07-4.49-1.316c-2.396-1.688-3.442-4.588-3.442-7.113c0-5.23,4.259-7.797,7.731-7.797
			c1.215,0,2.463,0.303,3.477,0.943c1.686,1.113,2.122,2.562,2.363,3.34l-7.935,3.205l-2.598,0.201
			c0.841,4.289,3.741,6.785,6.948,6.785c1.604,0,2.791-0.521,3.884-1.062C147.589,53.542,147.808,53.429,147.652,53.585z
			 M142.865,45.052c0.646-0.234,0.979-0.439,0.979-0.906c0-1.348-1.524-2.904-3.345-2.904c-1.351,0-3.879,1.051-3.879,4.695
			c0,0.568,0.065,1.176,0.102,1.781L142.865,45.052z"/>
		<path fill="#FFFFFF" d="M131.064,53.322c0,1.312,0.234,1.518,1.344,1.617c0.578,0.068,1.153,0.1,1.726,0.166l-1.248,0.744h-5.947
			c0.78-1.012,0.914-1.113,0.914-1.787v-0.754l-0.013-20.063h-2.626l2.526-1.218h4.825c-1.046,0.605-1.358,0.976-1.493,2.155
			L131.064,53.322z"/>
		<path fill="#FFFFFF" d="M121.842,41.782c0.773,0.639,2.393,1.988,2.393,4.555c0,2.498-1.41,3.676-2.83,4.791
			c-0.437,0.438-0.945,0.916-0.945,1.65c0,0.746,0.511,1.15,0.877,1.453l1.22,0.941c1.481,1.25,2.833,2.396,2.833,4.727
			c0,3.176-3.072,6.375-8.877,6.375c-4.891,0-7.254-2.328-7.254-4.824c0-1.217,0.604-2.938,2.602-4.113
			c2.092-1.279,4.928-1.451,6.443-1.553c-0.475-0.609-1.016-1.252-1.016-2.299c0-0.57,0.172-0.912,0.338-1.312
			c-0.368,0.035-0.74,0.068-1.079,0.068c-3.578,0-5.603-2.67-5.603-5.301c0-1.553,0.707-3.271,2.161-4.52
			c1.925-1.584,4.218-1.857,6.041-1.857h6.954l-2.162,1.221h-2.096V41.782z M119.451,56.765c-0.275-0.037-0.441-0.037-0.775-0.037
			c-0.307,0-2.129,0.066-3.541,0.541c-0.747,0.273-2.906,1.08-2.906,3.479c0,2.393,2.331,4.115,5.938,4.115
			c3.238,0,4.959-1.553,4.959-3.645C123.123,59.495,122.011,58.589,119.451,56.765z M120.421,50.353
			c0.78-0.777,0.848-1.854,0.848-2.467c0-2.426-1.446-6.207-4.252-6.207c-0.875,0-1.823,0.438-2.36,1.119
			c-0.57,0.703-0.742,1.613-0.742,2.49c0,2.262,1.317,6.01,4.219,6.01C118.977,51.298,119.887,50.886,120.421,50.353z"/>
		<path fill="#FFFFFF" d="M100.919,56.284c-5.364,0-8.234-4.178-8.234-7.959c0-4.418,3.608-8.197,8.74-8.197
			c4.961,0,8.068,3.883,8.068,7.961C109.494,52.072,106.423,56.284,100.919,56.284z M105.14,53.556
			c0.815-1.08,1.015-2.428,1.015-3.74c0-2.973-1.416-8.641-5.602-8.641c-1.113,0-2.234,0.436-3.042,1.145
			c-1.318,1.182-1.553,2.664-1.553,4.119c0,3.334,1.647,8.834,5.737,8.834C103.016,55.275,104.363,54.634,105.14,53.556z"/>
		<path fill="#FFFFFF" d="M82.96,56.284c-5.365,0-8.23-4.178-8.23-7.959c0-4.418,3.609-8.197,8.739-8.197
			c4.958,0,8.062,3.883,8.062,7.961C91.532,52.072,88.465,56.284,82.96,56.284z M87.182,53.556c0.81-1.08,1.012-2.428,1.012-3.74
			c0-2.973-1.42-8.641-5.601-8.641c-1.117,0-2.226,0.436-3.036,1.145c-1.32,1.182-1.554,2.664-1.554,4.119
			c0,3.334,1.654,8.834,5.737,8.834C85.058,55.275,86.403,54.634,87.182,53.556z"/>
		<path fill="#FFFFFF" d="M72.585,55.115l-4.524,1.035c-1.833,0.289-3.479,0.543-5.222,0.543c-8.727,0-12.051-6.424-12.051-11.449
			c0-6.141,4.711-11.832,12.778-11.832c1.707,0,3.35,0.251,4.846,0.658c2.371,0.667,3.479,1.487,4.173,1.969l-2.628,2.496
			l-1.108,0.248l0.79-1.259c-1.07-1.045-3.037-2.974-6.77-2.974c-4.991,0-8.757,3.793-8.757,9.333c0,5.949,4.3,11.545,11.194,11.545
			c2.026,0,3.069-0.406,4.016-0.787v-5.1l-4.776,0.258l2.532-1.361h6.703l-0.819,0.791c-0.222,0.188-0.251,0.252-0.313,0.504
			c-0.033,0.287-0.063,1.203-0.063,1.525L72.585,55.115L72.585,55.115z"/>
	</g>
	<g>
		<path fill="#FFFFFF" d="M157.379,53.728v8.598h-1.707V40.45h1.707v2.49c1.111-1.607,3.144-2.885,5.504-2.885
			c4.232,0,7.084,3.211,7.084,8.293c0,5.049-2.852,8.328-7.084,8.328C160.654,56.679,158.66,55.529,157.379,53.728z M168.133,48.351
			c0-3.83-1.997-6.752-5.538-6.752c-2.199,0-4.302,1.729-5.216,3.234v7.002c0.914,1.51,3.017,3.301,5.216,3.301
			C166.136,55.136,168.133,52.189,168.133,48.351z"/>
		<path fill="#FFFFFF" d="M172.298,56.282v-21.87h1.706v21.872h-1.706V56.282z"/>
		<path fill="#FFFFFF" d="M193.158,60.907c0.364,0.162,0.987,0.266,1.383,0.266c1.045,0,1.771-0.43,2.426-1.938l1.244-2.818
			l-6.725-15.967h1.903l5.769,13.834l5.713-13.834h1.932l-8.201,19.314c-0.852,1.99-2.188,2.947-4.027,2.947
			c-0.554,0-1.279-0.1-1.707-0.23L193.158,60.907z"/>
		<path fill="#FFFFFF" d="M188.172,56.238c-0.114-0.549-0.2-1.031-0.264-1.438c-0.054-0.402-0.082-0.814-0.082-1.232
			c-0.586,0.857-1.414,1.572-2.475,2.137c-1.061,0.566-2.064,0.846-3.447,0.846c-1.662,0-2.953-0.408-3.875-1.238
			c-0.918-0.83-1.381-1.953-1.381-3.373s0.67-2.572,2.004-3.453c1.334-0.885,3.059-1.324,5.191-1.324h3.98v-1.967
			c0-1.133-0.388-2.021-1.158-2.67c-0.772-0.645-1.858-0.975-3.268-0.975c-1.287,0-2.332,0.299-3.127,0.881
			c-0.787,0.594-1.186,1.33-1.186,2.217h-1.746l-0.036-0.084c-0.063-1.195,0.483-2.246,1.647-3.15
			c1.155-0.904,2.674-1.359,4.541-1.359c1.859,0,3.367,0.449,4.502,1.342c1.135,0.887,1.703,2.164,1.703,3.838v7.811
			c0,0.561,0.025,1.104,0.098,1.631c0.072,0.529,0.188,1.057,0.34,1.566h-1.965v-0.004H188.172z M182.115,54.991
			c1.449,0,2.491-0.322,3.559-0.965c1.058-0.637,1.775-1.469,2.154-2.475v-3.039h-4c-1.527,0-2.793,0.338-3.789,1.02
			s-1.502,1.504-1.502,2.461c0,0.902,0.319,1.625,0.957,2.174C180.131,54.72,181.002,54.991,182.115,54.991z"/>
	</g>
</g>
<g>
	<polygon fill="none" points="28.499,47.46 33.975,41.984 33.973,41.984 28.499,47.46 11.021,29.984 11.021,29.984 28.499,47.462 
		10.994,64.968 10.994,64.968 28.499,47.462 33.999,52.962 34.001,52.962 	"/>
	
		<linearGradient id="SVGID_1_" gradientUnits="userSpaceOnUse" x1="1252.7607" y1="-215.8582" x2="1229.6826" y2="-230.3014" gradientTransform="matrix(0.7071 0.7071 -0.7071 0.7071 -1013.6454 -687.1373)">
		<stop  offset="0" style="stop-color:#D6FFA1"/>
		<stop  offset="0.3264" style="stop-color:#93E2A7"/>
		<stop  offset="1" style="stop-color:#00A3B5"/>
	</linearGradient>
	<path fill="url(#SVGID_1_)" d="M33.973,41.984L12.637,30.252c-0.604-0.331-1.163-0.408-1.615-0.269L28.5,47.46L33.973,41.984z"/>
	
		<linearGradient id="SVGID_2_" gradientUnits="userSpaceOnUse" x1="1239.3398" y1="-228.1965" x2="1269.2637" y2="-220.374" gradientTransform="matrix(0.7071 0.7071 -0.7071 0.7071 -1013.6454 -687.1373)">
		<stop  offset="0" style="stop-color:#FF177B"/>
		<stop  offset="0.6721" style="stop-color:#FFA976"/>
		<stop  offset="1" style="stop-color:#FFEC73"/>
	</linearGradient>
	<path fill="url(#SVGID_2_)" d="M34.001,52.962l7.283-4.004c1.477-0.816,1.477-2.145,0-2.955l-7.311-4.021l-5.476,5.479
		L34.001,52.962z"/>
	
		<linearGradient id="SVGID_3_" gradientUnits="userSpaceOnUse" x1="1256.0459" y1="-204.905" x2="1223.6006" y2="-223.994" gradientTransform="matrix(0.7071 0.7071 -0.7071 0.7071 -1013.6454 -687.1373)">
		<stop  offset="0" style="stop-color:#63FFD4"/>
		<stop  offset="0.4854" style="stop-color:#32A0BA"/>
		<stop  offset="0.8349" style="stop-color:#1262A9"/>
		<stop  offset="1" style="stop-color:#064AA2"/>
	</linearGradient>
	<path fill="url(#SVGID_3_)" d="M11.021,29.984c-0.649,0.203-1.069,0.86-1.069,1.854L9.956,63.12c0,0.982,0.407,1.633,1.038,1.848
		L28.5,47.462L11.021,29.984z"/>
	
		<linearGradient id="SVGID_4_" gradientUnits="userSpaceOnUse" x1="1267.8223" y1="-220.0603" x2="1247.8451" y2="-193.7414" gradientTransform="matrix(0.7071 0.7071 -0.7071 0.7071 -1013.6454 -687.1373)">
		<stop  offset="0" style="stop-color:#FF4521"/>
		<stop  offset="0.3411" style="stop-color:#D43E65"/>
		<stop  offset="0.7935" style="stop-color:#9F36B9"/>
		<stop  offset="1" style="stop-color:#8A33DB"/>
	</linearGradient>
	<path fill="url(#SVGID_4_)" d="M10.994,64.968c0.454,0.152,1.024,0.082,1.643-0.258L34,52.962l-5.5-5.5L10.994,64.968z"/>
</g>
<g>
	<g>
		<path fill="#FFFFFF" d="M57.321,9.722c-0.74,0-1.391,0.003-1.95,0.008c-0.561,0.005-1.053,0.013-1.478,0.022
			c-0.425,0.009-0.795,0.021-1.11,0.036c-0.314,0.017-0.607,0.033-0.877,0.054V8.867c0.3,0.021,0.625,0.037,0.975,0.053
			c0.351,0.016,0.763,0.027,1.237,0.038c0.476,0.01,1.038,0.018,1.688,0.021c0.65,0.005,1.431,0.007,2.341,0.007
			c0.87,0,1.63-0.002,2.279-0.007c0.65-0.005,1.221-0.013,1.71-0.021c0.49-0.011,0.918-0.022,1.283-0.038
			c0.364-0.016,0.697-0.032,0.997-0.053v0.976c-0.28-0.021-0.593-0.037-0.938-0.054c-0.345-0.015-0.758-0.026-1.237-0.036
			c-0.48-0.011-1.045-0.019-1.695-0.022c-0.65-0.004-1.41-0.008-2.279-0.008v8.865c0,0.43,0.01,0.854,0.029,1.273
			c0.021,0.421,0.055,0.855,0.105,1.307h-1.215c0.05-0.45,0.084-0.879,0.104-1.283c0.021-0.404,0.03-0.837,0.03-1.297L57.321,9.722
			L57.321,9.722z M63.05,16.652c-0.279-0.35-0.555-0.68-0.824-0.989c-0.271-0.311-0.553-0.617-0.848-0.923
			c-0.295-0.305-0.61-0.616-0.945-0.938s-0.713-0.67-1.133-1.05l0.556-0.57c0.439,0.39,0.842,0.753,1.207,1.088
			c0.365,0.335,0.707,0.655,1.027,0.96c0.32,0.305,0.623,0.604,0.908,0.894c0.284,0.289,0.567,0.585,0.847,0.885L63.05,16.652z"/>
		<path fill="#FFFFFF" d="M71.51,10.997h3.511c-0.021-0.521-0.038-0.97-0.053-1.351c-0.015-0.38-0.03-0.705-0.045-0.975
			c-0.016-0.271-0.03-0.49-0.045-0.66c-0.016-0.17-0.028-0.311-0.038-0.42c0.23,0.029,0.418,0.048,0.562,0.053
			c0.146,0.005,0.303,0.002,0.473-0.008c0.14-0.01,0.22,0.026,0.24,0.112c0.02,0.085-0.035,0.192-0.165,0.321
			c-0.04,0.041-0.07,0.104-0.09,0.188c-0.021,0.086-0.035,0.229-0.045,0.436c-0.011,0.205-0.011,0.49,0,0.854
			c0.01,0.364,0.024,0.848,0.045,1.447c0.39,0,0.78-0.005,1.17-0.016c0.39-0.01,0.768-0.02,1.133-0.029
			c0.364-0.01,0.702-0.021,1.012-0.038c0.311-0.015,0.575-0.031,0.795-0.053v0.886c-0.22-0.021-0.482-0.037-0.787-0.053
			c-0.305-0.015-0.638-0.026-0.997-0.037c-0.36-0.011-0.735-0.021-1.125-0.029c-0.391-0.011-0.78-0.017-1.17-0.017
			c0.02,0.48,0.05,0.972,0.09,1.472c0.039,0.5,0.09,0.983,0.149,1.454c0.061,0.471,0.13,0.907,0.21,1.312
			c0.08,0.404,0.165,0.752,0.255,1.042c0.13-0.24,0.268-0.532,0.413-0.877c0.145-0.346,0.279-0.713,0.405-1.104
			c0.124-0.391,0.237-0.776,0.337-1.163c0.1-0.385,0.165-0.736,0.195-1.058c0.189,0.141,0.388,0.255,0.593,0.346
			c0.204,0.091,0.362,0.146,0.472,0.165c0.141,0.029,0.208,0.093,0.203,0.188c-0.006,0.095-0.067,0.167-0.188,0.217
			c-0.19,0.062-0.386,0.365-0.585,0.915c-0.551,1.46-1.03,2.545-1.44,3.255c0.38,0.74,0.718,1.301,1.013,1.682
			c0.295,0.38,0.542,0.603,0.742,0.667c0.2,0.064,0.355-0.016,0.465-0.24c0.11-0.226,0.17-0.572,0.181-1.042
			c0.149,0.149,0.305,0.265,0.465,0.345s0.33,0.141,0.51,0.181c-0.149,0.499-0.303,0.893-0.457,1.178
			c-0.155,0.284-0.318,0.481-0.488,0.593s-0.354,0.14-0.555,0.09c-0.201-0.05-0.425-0.165-0.675-0.345
			c-0.2-0.142-0.458-0.397-0.772-0.772c-0.315-0.375-0.633-0.878-0.952-1.508c-0.181,0.261-0.36,0.5-0.54,0.72
			c-0.181,0.222-0.368,0.435-0.562,0.639c-0.195,0.205-0.403,0.404-0.623,0.601c-0.22,0.194-0.455,0.402-0.705,0.622
			c-0.12-0.17-0.237-0.303-0.353-0.397c-0.116-0.094-0.282-0.196-0.502-0.308c0.29-0.18,0.557-0.357,0.802-0.532
			s0.48-0.367,0.705-0.577c0.226-0.21,0.45-0.447,0.676-0.713c0.225-0.265,0.457-0.577,0.697-0.938
			c-0.24-0.63-0.458-1.479-0.652-2.543c-0.195-1.064-0.318-2.252-0.368-3.562h-3.824c-0.41,0-0.831,0.003-1.261,0.008
			c-0.43,0.006-0.848,0.014-1.252,0.022c-0.405,0.01-0.783,0.025-1.133,0.045c-0.35,0.021-0.645,0.04-0.885,0.062v-0.887
			c0.21,0.021,0.465,0.038,0.765,0.054c0.3,0.016,0.625,0.027,0.976,0.037c0.35,0.011,0.715,0.021,1.095,0.029
			c0.38,0.011,0.76,0.017,1.14,0.017V9.903c-0.26,0-0.532,0.003-0.817,0.008c-0.285,0.006-0.558,0.014-0.817,0.022
			c-0.259,0.009-0.5,0.021-0.72,0.038c-0.221,0.015-0.396,0.027-0.525,0.037V9.183c0.13,0.021,0.305,0.035,0.525,0.045
			c0.22,0.011,0.46,0.018,0.72,0.022c0.26,0.006,0.532,0.013,0.817,0.021c0.285,0.011,0.558,0.016,0.817,0.016
			c0-0.409-0.005-0.739-0.015-0.989c-0.01-0.25-0.025-0.455-0.045-0.615c0.22,0.03,0.402,0.053,0.547,0.067
			c0.146,0.016,0.308,0.021,0.488,0.021c0.12,0,0.188,0.025,0.202,0.075s-0.032,0.104-0.143,0.165c-0.07,0.04-0.12,0.093-0.15,0.157
			c-0.029,0.064-0.045,0.138-0.045,0.218v0.899c0.25,0,0.503-0.005,0.758-0.016c0.255-0.01,0.5-0.017,0.735-0.021
			c0.234-0.006,0.45-0.013,0.645-0.022c0.195-0.01,0.353-0.024,0.473-0.045v0.825c-0.12-0.011-0.277-0.021-0.473-0.03
			c-0.194-0.01-0.41-0.02-0.645-0.03c-0.235-0.01-0.48-0.02-0.735-0.028c-0.255-0.01-0.508-0.017-0.758-0.017v1.095H71.51z
			 M71.451,13.037c0.63-0.01,1.18-0.024,1.65-0.045c0.47-0.021,0.89-0.051,1.26-0.091v0.795c-0.37-0.039-0.79-0.068-1.26-0.09
			c-0.471-0.02-1.021-0.034-1.65-0.045v0.69c0.67,0,1.235-0.006,1.695-0.017c0.46-0.01,0.814-0.028,1.064-0.06
			c-0.03,0.09-0.055,0.236-0.075,0.441s-0.029,0.407-0.029,0.607v1.604c0,0.2,0.012,0.394,0.037,0.577
			c0.025,0.187,0.048,0.333,0.067,0.442c-0.25-0.03-0.604-0.05-1.064-0.061c-0.46-0.01-1.025-0.016-1.695-0.016v0.845
			c0.66-0.011,1.229-0.024,1.71-0.046c0.48-0.02,0.915-0.05,1.305-0.09v0.855c-0.39-0.04-0.824-0.07-1.305-0.091
			c-0.48-0.021-1.05-0.034-1.71-0.045c0.02,0.319,0.037,0.667,0.053,1.042c0.015,0.375,0.037,0.724,0.067,1.043h-1.035
			c0.03-0.29,0.053-0.628,0.067-1.013c0.014-0.385,0.027-0.742,0.038-1.072c-0.831,0-1.546,0.011-2.146,0.029
			c-0.6,0.021-1.12,0.056-1.56,0.105V18.48c0.449,0.051,0.972,0.085,1.567,0.105c0.595,0.02,1.307,0.029,2.138,0.029v-0.838
			c-0.671,0-1.238,0.006-1.703,0.017c-0.465,0.01-0.817,0.028-1.058,0.06c0.021-0.109,0.035-0.257,0.045-0.442
			c0.01-0.185,0.016-0.377,0.016-0.576v-1.607c0-0.2-0.006-0.397-0.016-0.593c-0.01-0.194-0.024-0.348-0.045-0.457
			c0.24,0.03,0.593,0.05,1.058,0.06c0.465,0.012,1.032,0.017,1.703,0.017v-0.69c-1.4,0-2.476,0.045-3.226,0.135v-0.795
			c0.38,0.051,0.833,0.086,1.357,0.105c0.525,0.021,1.143,0.029,1.853,0.029c-0.01-0.261-0.025-0.479-0.045-0.659
			c-0.021-0.182-0.04-0.325-0.06-0.437c0.229,0.062,0.414,0.099,0.555,0.113c0.14,0.015,0.3,0.021,0.479,0.021
			c0.13,0,0.205,0.037,0.226,0.112c0.02,0.075-0.025,0.144-0.135,0.202c-0.061,0.03-0.108,0.08-0.143,0.15
			c-0.035,0.069-0.053,0.185-0.053,0.345v0.15H71.451z M70.641,14.821h-1.905v0.9h1.905V14.821z M70.641,16.232h-1.905v1.005h1.905
			V16.232z M71.451,15.722h1.92v-0.9h-1.92V15.722z M71.451,17.237h1.92v-1.005h-1.92V17.237z M77.209,8.147
			c0.42,0.221,0.803,0.448,1.147,0.683c0.346,0.235,0.673,0.482,0.982,0.742l-0.51,0.66c-0.32-0.29-0.647-0.555-0.982-0.795
			s-0.692-0.465-1.072-0.675L77.209,8.147z"/>
		<path fill="#FFFFFF" d="M87.455,17.567c-0.38-0.489-0.72-0.858-1.02-1.108l0.689-0.631c0.46,0.489,0.902,1,1.328,1.529
			c0.425,0.53,0.867,1.136,1.327,1.815l-0.855,0.569c-0.14-0.261-0.29-0.516-0.449-0.766c-0.16-0.25-0.325-0.489-0.495-0.72
			l-2.88,1.215c-0.4,0.17-0.743,0.328-1.028,0.473c-0.284,0.146-0.558,0.303-0.817,0.474c-0.069-0.171-0.157-0.333-0.263-0.487
			c-0.104-0.155-0.217-0.303-0.337-0.443c0.109-0.108,0.207-0.222,0.292-0.337s0.155-0.245,0.21-0.391
			c0.056-0.146,0.096-0.312,0.12-0.502c0.025-0.189,0.038-0.415,0.038-0.675v-7.546c0-0.13-0.003-0.279-0.008-0.449
			s-0.013-0.338-0.022-0.503s-0.021-0.324-0.03-0.479c-0.009-0.155-0.02-0.287-0.029-0.396c0.26,0.05,0.617,0.093,1.072,0.127
			c0.455,0.034,1.027,0.053,1.718,0.053c0.689,0,1.31-0.019,1.859-0.053c0.55-0.034,0.96-0.077,1.23-0.127
			c-0.011,0.119-0.021,0.257-0.03,0.411c-0.009,0.155-0.018,0.315-0.022,0.48s-0.01,0.33-0.015,0.495
			c-0.006,0.164-0.008,0.312-0.008,0.441v2.851c0,0.76,0.03,1.41,0.09,1.95c-0.26-0.03-0.603-0.054-1.027-0.067
			c-0.425-0.016-0.862-0.021-1.312-0.021h-2.535v4.108c0.78-0.26,1.423-0.495,1.928-0.705
			C86.679,17.942,87.105,17.747,87.455,17.567z M88.13,9.152h-3.885v2.057h3.885V9.152z M88.13,11.958h-3.885v2.023h3.885V11.958z
			 M95.151,8.508c-0.051,0.239-0.088,0.51-0.112,0.81C95.014,9.618,95,10.033,95,10.562v6.705c0,0.32-0.032,0.588-0.098,0.803
			c-0.064,0.215-0.188,0.397-0.367,0.548c-0.18,0.149-0.43,0.271-0.75,0.359s-0.74,0.165-1.26,0.226
			c0.02-0.229-0.008-0.436-0.083-0.614c-0.075-0.18-0.202-0.365-0.382-0.556c0.479,0.029,0.854,0.032,1.125,0.008
			c0.27-0.024,0.472-0.075,0.607-0.149c0.135-0.075,0.22-0.175,0.255-0.301c0.035-0.125,0.053-0.271,0.053-0.442V9.393h-2.91v11.91
			h-0.99c0.04-0.59,0.069-1.147,0.09-1.673c0.021-0.524,0.03-1.104,0.03-1.732v-7.335c0-0.35-0.01-0.72-0.03-1.109
			C90.27,9.063,90.25,8.75,90.23,8.51c0.29,0.04,0.637,0.069,1.042,0.09c0.405,0.021,0.872,0.03,1.402,0.03
			c0.5,0,0.965-0.011,1.396-0.03C94.5,8.577,94.861,8.548,95.151,8.508z"/>
		<path fill="#FFFFFF" d="M104.361,12.452c1.02,0,1.84-0.003,2.459-0.008c0.62-0.005,1.115-0.013,1.484-0.021
			c0.37-0.011,0.646-0.022,0.833-0.038c0.185-0.016,0.353-0.032,0.503-0.052v0.988c-0.141-0.02-0.301-0.037-0.48-0.052
			c-0.18-0.016-0.455-0.025-0.824-0.03c-0.37-0.005-0.867-0.01-1.492-0.015s-1.453-0.008-2.482-0.008v6.24
			c0.971,0,1.771-0.004,2.399-0.009c0.631-0.005,1.17-0.01,1.62-0.015c0.449-0.005,0.855-0.016,1.215-0.03s0.755-0.037,1.186-0.066
			v1.005c-0.3-0.01-0.58-0.022-0.84-0.037c-0.261-0.017-0.521-0.028-0.787-0.038c-0.266-0.01-0.548-0.018-0.849-0.022
			c-0.3-0.005-0.64-0.01-1.021-0.015c-0.379-0.006-0.814-0.008-1.305-0.008s-1.061,0-1.71,0c-0.69,0-1.327,0.002-1.913,0.008
			c-0.585,0.005-1.138,0.012-1.657,0.022c-0.521,0.01-1.018,0.021-1.492,0.036c-0.476,0.017-0.953,0.032-1.433,0.054v-1.004
			c0.45,0.02,0.88,0.037,1.29,0.053c0.409,0.015,0.832,0.027,1.268,0.037c0.435,0.01,0.897,0.018,1.387,0.021
			c0.49,0.005,1.04,0.009,1.65,0.009v-9.69c0-0.51-0.008-0.897-0.022-1.162s-0.037-0.498-0.067-0.697
			c0.489,0.119,0.91,0.17,1.26,0.149c0.15-0.01,0.23,0.015,0.24,0.075c0.01,0.06-0.039,0.125-0.149,0.194
			c-0.181,0.109-0.271,0.354-0.271,0.734V12.452L104.361,12.452z"/>
	</g>
</g>
</svg>
