<?xml version="1.0" encoding="utf-8"?>
<!-- Generator: Adobe Illustrator 15.1.0, SVG Export Plug-In . SVG Version: 6.00 Build 0)  -->
<!DOCTYPE svg PUBLIC "-//W3C//DTD SVG 1.1//EN" "http://www.w3.org/Graphics/SVG/1.1/DTD/svg11.dtd">
<svg version="1.1" id="SemiBold" xmlns="http://www.w3.org/2000/svg" xmlns:xlink="http://www.w3.org/1999/xlink" x="0px" y="0px"
	 width="229.5px" height="91.5px" viewBox="0 0 229.5 91.5" enable-background="new 0 0 229.5 91.5" xml:space="preserve">
<path stroke="#FFFFFF" stroke-width="1.5" stroke-miterlimit="10" d="M221.985,71.05c0,6.53-4.797,10.59-11.322,10.59H18.849
	c-6.528,0-11.821-5.297-11.821-11.827V19.856c0-6.529,5.293-11.824,11.821-11.824h191.814c6.525,0,11.322,5.295,11.322,11.824V71.05
	z"/>
<g>
	<g>
		<path fill="#FFFFFF" d="M153.929,60.867l-1.614,1.522c-0.372,0.205-0.743,0.443-1.113,0.612c-1.121,0.509-2.261,0.637-3.274,0.637
			c-1.078,0-2.768-0.069-4.491-1.316c-2.396-1.688-3.442-4.587-3.442-7.114c0-5.232,4.259-7.798,7.732-7.798
			c1.215,0,2.462,0.304,3.476,0.945c1.686,1.114,2.122,2.563,2.364,3.34l-7.934,3.205l-2.598,0.202
			c0.841,4.289,3.743,6.784,6.95,6.784c1.602,0,2.791-0.522,3.882-1.062C153.866,60.825,154.085,60.711,153.929,60.867z
			 M149.143,52.334c0.645-0.234,0.979-0.437,0.979-0.906c0-1.348-1.525-2.904-3.345-2.904c-1.349,0-3.879,1.05-3.879,4.695
			c0,0.569,0.067,1.175,0.102,1.781L149.143,52.334z"/>
		<path fill="#FFFFFF" d="M137.342,60.605c0,1.312,0.234,1.516,1.343,1.618c0.578,0.068,1.154,0.099,1.725,0.166l-1.248,0.743
			h-5.947c0.78-1.012,0.914-1.112,0.914-1.787v-0.753l-0.013-20.063h-2.626l2.527-1.218h4.826c-1.046,0.605-1.358,0.975-1.493,2.155
			L137.342,60.605z"/>
		<path fill="#FFFFFF" d="M128.119,49.066c0.774,0.637,2.392,1.988,2.392,4.553c0,2.499-1.409,3.677-2.83,4.792
			c-0.436,0.438-0.945,0.915-0.945,1.651c0,0.746,0.51,1.151,0.877,1.453l1.219,0.941c1.482,1.251,2.833,2.398,2.833,4.728
			c0,3.175-3.072,6.375-8.877,6.375c-4.89,0-7.254-2.328-7.254-4.825c0-1.216,0.604-2.937,2.601-4.115
			c2.092-1.279,4.927-1.45,6.444-1.55c-0.474-0.612-1.015-1.253-1.015-2.299c0-0.572,0.172-0.913,0.338-1.315
			c-0.369,0.035-0.741,0.071-1.079,0.071c-3.579,0-5.603-2.67-5.603-5.302c0-1.552,0.708-3.273,2.162-4.521
			c1.924-1.584,4.218-1.857,6.041-1.857h6.954l-2.162,1.221H128.119z M125.728,64.047c-0.276-0.036-0.442-0.036-0.776-0.036
			c-0.306,0-2.129,0.066-3.541,0.54c-0.747,0.273-2.906,1.08-2.906,3.478c0,2.392,2.331,4.116,5.938,4.116
			c3.239,0,4.96-1.553,4.96-3.644C129.401,66.78,128.288,65.872,125.728,64.047z M126.698,57.635
			c0.78-0.778,0.848-1.854,0.848-2.466c0-2.427-1.447-6.207-4.252-6.207c-0.875,0-1.823,0.439-2.361,1.118
			c-0.57,0.703-0.741,1.615-0.741,2.492c0,2.26,1.317,6.008,4.217,6.008C125.254,58.58,126.164,58.169,126.698,57.635z"/>
		<path fill="#FFFFFF" d="M107.197,63.569c-5.364,0-8.234-4.178-8.234-7.959c0-4.419,3.608-8.2,8.74-8.2
			c4.961,0,8.068,3.884,8.068,7.962C115.771,59.354,112.7,63.569,107.197,63.569z M111.417,60.839
			c0.816-1.08,1.014-2.428,1.014-3.742c0-2.972-1.416-8.64-5.601-8.64c-1.113,0-2.234,0.435-3.042,1.146
			c-1.318,1.181-1.553,2.664-1.553,4.12c0,3.334,1.647,8.833,5.737,8.833C109.293,62.556,110.64,61.917,111.417,60.839z"/>
		<path fill="#FFFFFF" d="M89.238,63.569c-5.365,0-8.23-4.178-8.23-7.959c0-4.419,3.609-8.2,8.739-8.2
			c4.958,0,8.062,3.884,8.062,7.962C97.809,59.354,94.742,63.569,89.238,63.569z M93.459,60.839c0.81-1.08,1.012-2.428,1.012-3.742
			c0-2.972-1.42-8.64-5.601-8.64c-1.117,0-2.226,0.435-3.036,1.146c-1.32,1.181-1.554,2.664-1.554,4.12
			c0,3.334,1.654,8.833,5.737,8.833C91.335,62.556,92.68,61.917,93.459,60.839z"/>
		<path fill="#FFFFFF" d="M78.863,62.398l-4.524,1.035c-1.833,0.289-3.479,0.544-5.222,0.544c-8.727,0-12.051-6.424-12.051-11.45
			c0-6.14,4.711-11.831,12.778-11.831c1.707,0,3.35,0.251,4.846,0.658c2.371,0.667,3.479,1.487,4.173,1.969l-2.628,2.496
			l-1.108,0.248l0.79-1.26c-1.07-1.045-3.037-2.974-6.77-2.974c-4.991,0-8.757,3.794-8.757,9.333c0,5.949,4.3,11.545,11.194,11.545
			c2.026,0,3.069-0.407,4.016-0.787v-5.1l-4.776,0.257l2.532-1.36h6.703l-0.819,0.789c-0.222,0.188-0.251,0.252-0.313,0.504
			c-0.033,0.288-0.063,1.204-0.063,1.526V62.398z"/>
	</g>
	<g>
		<path fill="#FFFFFF" d="M163.656,61.011v8.596h-1.707V47.735h1.707v2.49c1.111-1.609,3.144-2.886,5.504-2.886
			c4.232,0,7.084,3.211,7.084,8.294c0,5.049-2.852,8.327-7.084,8.327C166.932,63.961,164.937,62.812,163.656,61.011z M174.41,55.634
			c0-3.831-1.997-6.753-5.538-6.753c-2.199,0-4.302,1.729-5.216,3.235v7.001c0.914,1.51,3.017,3.301,5.216,3.301
			C172.413,62.418,174.41,59.471,174.41,55.634z"/>
		<path fill="#FFFFFF" d="M178.575,63.567V41.696h1.706v21.871H178.575z"/>
		<path fill="#FFFFFF" d="M199.436,68.192c0.364,0.162,0.987,0.263,1.383,0.263c1.044,0,1.771-0.427,2.424-1.936l1.245-2.82
			l-6.725-15.964h1.904l5.769,13.834l5.712-13.834h1.931l-8.201,19.313c-0.851,1.99-2.189,2.947-4.029,2.947
			c-0.552,0-1.279-0.099-1.706-0.229L199.436,68.192z"/>
		<path fill="#FFFFFF" d="M194.449,63.52c-0.114-0.549-0.2-1.032-0.263-1.437c-0.053-0.403-0.082-0.815-0.082-1.234
			c-0.586,0.859-1.415,1.574-2.474,2.138c-1.06,0.566-2.066,0.845-3.448,0.845c-1.663,0-2.953-0.409-3.875-1.239
			c-0.918-0.829-1.38-1.952-1.38-3.373c0-1.419,0.669-2.571,2.003-3.452c1.334-0.885,3.059-1.324,5.192-1.324h3.981v-1.968
			c0-1.133-0.387-2.023-1.157-2.67c-0.774-0.646-1.86-0.974-3.269-0.974c-1.287,0-2.331,0.299-3.126,0.881
			c-0.788,0.594-1.185,1.33-1.185,2.217h-1.747l-0.036-0.085c-0.063-1.195,0.484-2.245,1.647-3.15
			c1.157-0.905,2.675-1.36,4.542-1.36c1.86,0,3.366,0.448,4.502,1.342c1.134,0.885,1.703,2.164,1.703,3.836v7.811
			c0,0.561,0.026,1.103,0.097,1.631c0.072,0.529,0.187,1.057,0.34,1.567H194.449z M188.392,62.276c1.45,0,2.492-0.324,3.558-0.965
			c1.058-0.638,1.777-1.469,2.155-2.475v-3.04h-4c-1.528,0-2.793,0.338-3.788,1.021c-0.997,0.68-1.503,1.503-1.503,2.46
			c0,0.902,0.32,1.625,0.957,2.172C186.408,62.002,187.28,62.276,188.392,62.276z"/>
	</g>
</g>
<g>
	<polygon fill="none" points="34.776,54.742 40.252,49.266 40.25,49.266 34.776,54.742 17.299,37.267 17.298,37.267 34.776,54.745 
		17.271,72.251 17.271,72.251 34.776,54.745 40.276,60.245 40.279,60.245 	"/>
	
		<linearGradient id="SVGID_1_" gradientUnits="userSpaceOnUse" x1="519.5732" y1="-432.9976" x2="496.4961" y2="-447.4402" gradientTransform="matrix(0.7071 0.7071 -0.7071 0.7071 -642.4706 -7.8795)">
		<stop  offset="0" style="stop-color:#D6FFA1"/>
		<stop  offset="0.3264" style="stop-color:#93E2A7"/>
		<stop  offset="1" style="stop-color:#00A3B5"/>
	</linearGradient>
	<path fill="url(#SVGID_1_)" d="M40.25,49.266L18.914,37.534c-0.604-0.331-1.163-0.408-1.615-0.268l17.478,17.476L40.25,49.266z"/>
	
		<linearGradient id="SVGID_2_" gradientUnits="userSpaceOnUse" x1="506.1582" y1="-445.3345" x2="536.076" y2="-437.5135" gradientTransform="matrix(0.7071 0.7071 -0.7071 0.7071 -642.4706 -7.8795)">
		<stop  offset="0" style="stop-color:#FF177B"/>
		<stop  offset="0.6721" style="stop-color:#FFA976"/>
		<stop  offset="1" style="stop-color:#FFEC73"/>
	</linearGradient>
	<path fill="url(#SVGID_2_)" d="M40.279,60.245l7.283-4.005c1.477-0.815,1.477-2.142,0-2.954l-7.311-4.02l-5.476,5.476
		L40.279,60.245z"/>
	
		<linearGradient id="SVGID_3_" gradientUnits="userSpaceOnUse" x1="522.8574" y1="-422.0444" x2="490.413" y2="-441.1328" gradientTransform="matrix(0.7071 0.7071 -0.7071 0.7071 -642.4706 -7.8795)">
		<stop  offset="0" style="stop-color:#63FFD4"/>
		<stop  offset="0.4854" style="stop-color:#32A0BA"/>
		<stop  offset="0.8349" style="stop-color:#1262A9"/>
		<stop  offset="1" style="stop-color:#064AA2"/>
	</linearGradient>
	<path fill="url(#SVGID_3_)" d="M17.298,37.267c-0.649,0.203-1.069,0.86-1.069,1.854l0.004,31.284c0,0.982,0.407,1.63,1.038,1.846
		l17.506-17.506L17.298,37.267z"/>
	
		<linearGradient id="SVGID_4_" gradientUnits="userSpaceOnUse" x1="534.6367" y1="-437.1992" x2="514.66" y2="-410.8809" gradientTransform="matrix(0.7071 0.7071 -0.7071 0.7071 -642.4706 -7.8795)">
		<stop  offset="0" style="stop-color:#FF4521"/>
		<stop  offset="0.3411" style="stop-color:#D43E65"/>
		<stop  offset="0.7935" style="stop-color:#9F36B9"/>
		<stop  offset="1" style="stop-color:#8A33DB"/>
	</linearGradient>
	<path fill="url(#SVGID_4_)" d="M17.271,72.251c0.454,0.154,1.024,0.082,1.643-0.258l21.363-11.748l-5.5-5.5L17.271,72.251z"/>
</g>
<g>
	<g>
		<path fill="#FFFFFF" d="M62.386,27.701c-0.405-0.522-0.769-0.917-1.088-1.185l0.735-0.672c0.491,0.523,0.963,1.067,1.416,1.632
			c0.453,0.565,0.926,1.211,1.416,1.937l-0.912,0.607c-0.149-0.276-0.31-0.549-0.479-0.815c-0.171-0.267-0.347-0.522-0.528-0.769
			l-3.072,1.297c-0.427,0.181-0.792,0.349-1.096,0.504c-0.304,0.154-0.595,0.322-0.872,0.504c-0.074-0.182-0.168-0.355-0.279-0.521
			c-0.112-0.165-0.232-0.322-0.36-0.472c0.117-0.117,0.221-0.237,0.312-0.36c0.091-0.122,0.166-0.261,0.225-0.416
			c0.059-0.154,0.101-0.333,0.128-0.536c0.026-0.202,0.04-0.442,0.04-0.72v-8.048c0-0.139-0.003-0.299-0.008-0.48
			c-0.006-0.181-0.014-0.359-0.024-0.535c-0.011-0.177-0.021-0.347-0.032-0.513c-0.011-0.165-0.021-0.307-0.032-0.424
			c0.277,0.054,0.659,0.099,1.145,0.136c0.485,0.038,1.096,0.057,1.832,0.057s1.397-0.019,1.984-0.057
			c0.586-0.037,1.023-0.082,1.312-0.136c-0.011,0.128-0.021,0.275-0.032,0.44s-0.019,0.336-0.023,0.512
			c-0.006,0.176-0.011,0.352-0.017,0.528c-0.005,0.176-0.008,0.333-0.008,0.472v3.04c0,0.811,0.032,1.504,0.096,2.08
			c-0.277-0.032-0.643-0.056-1.096-0.072c-0.453-0.016-0.92-0.023-1.4-0.023h-2.703v4.384c0.832-0.277,1.517-0.528,2.056-0.752
			C61.556,28.101,62.012,27.893,62.386,27.701z M63.105,18.725h-4.144v2.192h4.144V18.725z M63.105,21.717h-4.144v2.16h4.144V21.717
			z M70.594,18.037c-0.054,0.256-0.094,0.544-0.12,0.864c-0.027,0.319-0.04,0.763-0.04,1.327v7.152c0,0.342-0.035,0.627-0.104,0.856
			s-0.199,0.424-0.392,0.584s-0.459,0.288-0.8,0.384c-0.342,0.096-0.79,0.176-1.344,0.24c0.021-0.245-0.009-0.464-0.089-0.656
			c-0.079-0.192-0.216-0.39-0.407-0.592c0.512,0.031,0.912,0.034,1.199,0.008c0.288-0.026,0.505-0.08,0.648-0.16
			s0.234-0.187,0.272-0.32c0.037-0.133,0.056-0.29,0.056-0.472v-8.271h-3.104v12.703h-1.056c0.043-0.629,0.074-1.224,0.096-1.783
			c0.021-0.561,0.032-1.177,0.032-1.849v-7.824c0-0.373-0.011-0.768-0.032-1.184s-0.042-0.752-0.063-1.008
			c0.309,0.043,0.68,0.074,1.111,0.096c0.433,0.021,0.931,0.032,1.496,0.032c0.533,0,1.029-0.011,1.488-0.032
			S70.284,18.08,70.594,18.037z"/>
		<path fill="#FFFFFF" d="M76.994,20.405c-0.395,0-0.729,0.002-1,0.008c-0.272,0.006-0.534,0.014-0.784,0.023
			c-0.251,0.011-0.507,0.027-0.769,0.049c-0.261,0.021-0.573,0.048-0.936,0.08v-1.089c0.416,0.032,0.768,0.06,1.056,0.08
			c0.288,0.021,0.576,0.038,0.864,0.048c0.288,0.011,0.613,0.02,0.977,0.024c0.362,0.006,0.826,0.008,1.392,0.008
			c0.544,0,0.997-0.002,1.36-0.008c0.362-0.005,0.69-0.014,0.983-0.024c0.293-0.01,0.59-0.026,0.889-0.048
			c0.298-0.021,0.655-0.048,1.071-0.08v1.089c-0.459-0.043-0.843-0.075-1.151-0.097c-0.31-0.021-0.63-0.037-0.96-0.048
			c-0.331-0.011-0.71-0.016-1.137-0.016s-0.981,0-1.664,0c0.331,0.234,0.619,0.41,0.864,0.527c0.117,0.054,0.171,0.118,0.16,0.192
			c-0.011,0.075-0.091,0.123-0.24,0.144c-0.063,0.011-0.162,0.078-0.296,0.2c-0.134,0.123-0.243,0.232-0.328,0.328
			c-0.149,0.182-0.282,0.342-0.399,0.48c-0.118,0.139-0.232,0.277-0.345,0.416c-0.111,0.139-0.231,0.285-0.359,0.439
			c-0.128,0.155-0.272,0.334-0.433,0.536l2.896-0.128c0.234-0.31,0.439-0.629,0.616-0.96c0.176-0.331,0.338-0.698,0.487-1.104
			c0.192,0.171,0.363,0.308,0.513,0.408c0.148,0.102,0.298,0.195,0.447,0.28c0.139,0.063,0.192,0.134,0.16,0.208
			s-0.106,0.134-0.224,0.176c-0.064,0.011-0.152,0.064-0.265,0.16c-0.111,0.096-0.274,0.288-0.487,0.576
			c-0.32,0.438-0.635,0.84-0.944,1.208s-0.65,0.73-1.023,1.088c-0.374,0.357-0.795,0.728-1.265,1.112
			c-0.47,0.384-1.014,0.805-1.632,1.264c-0.149-0.192-0.291-0.342-0.424-0.448c-0.134-0.106-0.296-0.202-0.488-0.288
			c0.362-0.17,0.686-0.336,0.968-0.496c0.283-0.159,0.555-0.333,0.816-0.52c0.261-0.187,0.522-0.395,0.784-0.624
			c0.261-0.229,0.552-0.499,0.872-0.808l0.464-0.465l-2.225,0.177c-0.234,0.021-0.453,0.056-0.655,0.104
			c-0.203,0.048-0.379,0.099-0.528,0.152c-0.021-0.245-0.062-0.442-0.12-0.592s-0.136-0.299-0.231-0.448
			c0.202-0.064,0.424-0.194,0.664-0.393c0.239-0.197,0.482-0.439,0.728-0.728s0.48-0.616,0.704-0.984S76.834,20.832,76.994,20.405z
			 M79.105,28.021c-0.287,0.299-0.592,0.579-0.911,0.841c-0.32,0.261-0.664,0.52-1.032,0.775s-0.766,0.51-1.192,0.76
			c-0.427,0.251-0.896,0.515-1.408,0.792c-0.128-0.224-0.245-0.402-0.352-0.535c-0.106-0.134-0.283-0.275-0.528-0.425
			c0.864-0.224,1.718-0.581,2.561-1.071c0.842-0.491,1.632-1.12,2.368-1.889c0.501-0.512,0.922-1.026,1.264-1.544
			c0.341-0.517,0.64-1.111,0.896-1.783c0.203,0.17,0.376,0.304,0.521,0.399c0.144,0.096,0.29,0.182,0.439,0.256
			c0.117,0.054,0.168,0.123,0.152,0.208c-0.016,0.086-0.083,0.149-0.2,0.192c-0.063,0.021-0.151,0.08-0.264,0.176
			s-0.274,0.288-0.488,0.576c-0.416,0.619-0.843,1.179-1.28,1.68c0.523,0.342,1.029,0.686,1.521,1.032
			c0.49,0.347,0.923,0.675,1.296,0.984l-0.848,0.863c-0.246-0.352-0.587-0.732-1.024-1.144
			C80.156,28.755,79.66,28.373,79.105,28.021z M78.546,19.381c-0.203-0.202-0.39-0.384-0.56-0.544
			c-0.171-0.16-0.348-0.312-0.528-0.456c-0.182-0.144-0.374-0.29-0.576-0.439c-0.203-0.149-0.432-0.315-0.688-0.496l0.56-0.688
			c0.299,0.192,0.562,0.368,0.792,0.528s0.442,0.314,0.64,0.464s0.387,0.302,0.568,0.456s0.368,0.317,0.56,0.488L78.546,19.381z
			 M84.226,19.541c-0.117,0.074-0.176,0.219-0.176,0.432v5.248c0,0.16,0.003,0.347,0.008,0.561c0.006,0.213,0.014,0.435,0.024,0.664
			s0.021,0.458,0.032,0.688c0.01,0.229,0.026,0.44,0.048,0.632H83.01c0.011-0.191,0.024-0.402,0.04-0.632s0.029-0.461,0.04-0.696
			c0.011-0.234,0.019-0.455,0.024-0.663c0.005-0.208,0.008-0.393,0.008-0.553v-3.983c0-0.405-0.011-0.809-0.032-1.208
			c-0.021-0.4-0.054-0.707-0.096-0.92c0.213,0.053,0.416,0.091,0.607,0.111c0.192,0.021,0.374,0.027,0.544,0.017
			c0.139-0.021,0.217,0.005,0.232,0.08C84.394,19.392,84.343,19.467,84.226,19.541z M86.978,17.573
			c-0.139,0.074-0.208,0.219-0.208,0.432v11.616c0,0.342-0.021,0.624-0.063,0.848c-0.043,0.225-0.149,0.408-0.32,0.552
			c-0.171,0.145-0.419,0.262-0.744,0.353s-0.766,0.168-1.319,0.231c0-0.224-0.027-0.429-0.08-0.615
			c-0.054-0.188-0.188-0.393-0.4-0.616c0.448,0.042,0.803,0.059,1.064,0.048c0.261-0.011,0.458-0.054,0.592-0.128
			c0.133-0.075,0.219-0.176,0.256-0.304s0.056-0.283,0.056-0.464v-9.856c0-0.565-0.013-1.088-0.04-1.568
			c-0.026-0.479-0.056-0.832-0.088-1.056c0.214,0.054,0.411,0.091,0.592,0.112c0.182,0.021,0.374,0.031,0.576,0.031
			c0.149,0,0.237,0.049,0.265,0.145C87.141,17.429,87.095,17.509,86.978,17.573z"/>
		<path fill="#FFFFFF" d="M99.521,18.805c0.843,0,1.616-0.008,2.319-0.023c0.704-0.017,1.312-0.051,1.824-0.104v1.057
			c-0.512-0.054-1.12-0.089-1.824-0.104c-0.703-0.016-1.477-0.024-2.319-0.024v1.217h-0.944v-1.217h-3.744v1.232H93.89v-1.232
			c-0.832,0-1.601,0.009-2.305,0.024s-1.312,0.051-1.823,0.104v-1.057c0.512,0.054,1.119,0.088,1.823,0.104
			c0.704,0.016,1.473,0.023,2.305,0.023c-0.011-0.725-0.043-1.264-0.097-1.616c0.214,0.032,0.408,0.057,0.584,0.072
			c0.177,0.017,0.365,0.024,0.568,0.024c0.085,0,0.136,0.032,0.152,0.096c0.016,0.064-0.02,0.123-0.104,0.176
			c-0.054,0.032-0.094,0.099-0.12,0.2s-0.04,0.2-0.04,0.296v0.752h3.744c0-0.704-0.032-1.258-0.096-1.664
			c0.213,0.032,0.41,0.057,0.592,0.072s0.368,0.024,0.561,0.024c0.085,0,0.136,0.023,0.151,0.071
			c0.017,0.049-0.014,0.099-0.088,0.152c-0.063,0.043-0.109,0.112-0.136,0.208c-0.027,0.096-0.04,0.192-0.04,0.288V18.805z
			 M92.85,23.701c-0.342,0.277-0.691,0.541-1.048,0.792c-0.358,0.251-0.724,0.488-1.097,0.712c-0.074-0.171-0.157-0.302-0.248-0.393
			c-0.091-0.09-0.216-0.184-0.376-0.279c0.448-0.225,0.858-0.456,1.232-0.696c0.373-0.24,0.72-0.482,1.04-0.728
			c-0.214-0.235-0.448-0.475-0.704-0.721c-0.256-0.245-0.502-0.442-0.736-0.592l0.528-0.656c0.277,0.203,0.555,0.427,0.832,0.672
			c0.277,0.246,0.522,0.491,0.736,0.736c0.469-0.416,0.9-0.891,1.296-1.424c0.148,0.16,0.288,0.294,0.416,0.4
			s0.271,0.219,0.432,0.336c0.064,0.042,0.08,0.111,0.048,0.208c-0.032,0.096-0.091,0.144-0.176,0.144
			c-0.117,0-0.296,0.062-0.536,0.184c-0.24,0.123-0.573,0.371-1,0.744c0.555,0.79,0.931,1.656,1.128,2.601
			c0.197,0.943,0.194,2.04-0.008,3.288c-0.064,0.405-0.166,0.744-0.304,1.016c-0.139,0.272-0.339,0.499-0.601,0.68
			c-0.262,0.182-0.595,0.325-1,0.433c-0.405,0.106-0.912,0.197-1.52,0.271c0.011-0.234-0.008-0.432-0.057-0.592
			c-0.048-0.16-0.146-0.347-0.296-0.56c0.544,0.053,0.992,0.071,1.345,0.056c0.352-0.016,0.637-0.086,0.855-0.208
			s0.384-0.304,0.496-0.544s0.2-0.558,0.264-0.952c0.16-0.981,0.149-1.914-0.031-2.8c-0.438,0.576-0.923,1.131-1.456,1.664
			c-0.534,0.533-1.062,0.992-1.584,1.376c-0.118-0.139-0.254-0.267-0.408-0.384c-0.155-0.117-0.317-0.229-0.488-0.336
			c0.8-0.448,1.515-0.949,2.145-1.505c0.629-0.554,1.136-1.136,1.52-1.743C93.308,24.453,93.095,24.053,92.85,23.701z
			 M98.081,25.077c-0.672,0.011-1.27,0.026-1.792,0.048s-0.986,0.059-1.392,0.112v-1.057c0.224,0.021,0.448,0.043,0.672,0.064
			s0.467,0.037,0.728,0.048c0.262,0.011,0.544,0.021,0.849,0.032c0.304,0.011,0.647,0.016,1.032,0.016
			c0.042-0.49,0.053-1.002,0.031-1.536c-0.021-0.533-0.08-1.088-0.176-1.664c0.234,0.086,0.448,0.145,0.64,0.177
			c0.192,0.031,0.395,0.042,0.608,0.031c0.149-0.01,0.234,0.04,0.256,0.152s-0.043,0.216-0.191,0.312
			c-0.097,0.064-0.174,0.28-0.232,0.648s-0.094,0.995-0.104,1.88c0.885,0,1.717-0.013,2.495-0.04
			c0.779-0.026,1.408-0.066,1.889-0.12v1.057c-0.48-0.054-1.051-0.094-1.712-0.12c-0.662-0.026-1.436-0.04-2.32-0.04
			c0.416,1.142,0.979,2.142,1.688,3c0.71,0.858,1.598,1.565,2.664,2.12c-0.149,0.106-0.287,0.234-0.416,0.384
			c-0.128,0.149-0.256,0.33-0.384,0.544c-0.981-0.778-1.8-1.61-2.456-2.496c-0.655-0.885-1.197-1.894-1.624-3.024
			c-0.213,1.035-0.618,2.038-1.216,3.009s-1.456,1.877-2.576,2.72c-0.117-0.149-0.237-0.272-0.359-0.368
			c-0.123-0.096-0.307-0.197-0.553-0.304c1.089-0.63,1.966-1.402,2.633-2.32C97.428,27.424,97.868,26.336,98.081,25.077z
			 M101.697,24.021c-0.214-0.276-0.49-0.57-0.832-0.88c-0.342-0.309-0.698-0.575-1.072-0.8l0.561-0.624
			c0.319,0.225,0.626,0.456,0.92,0.696c0.293,0.24,0.643,0.558,1.048,0.952L101.697,24.021z"/>
		<path fill="#FFFFFF" d="M107.346,18.821c-0.234,0-0.453,0.011-0.656,0.031c-0.202,0.021-0.395,0.054-0.576,0.097v-1.024
			c0.139,0.021,0.312,0.04,0.521,0.057c0.208,0.016,0.461,0.029,0.76,0.039c0.299,0.011,0.65,0.02,1.056,0.024
			c0.405,0.006,0.875,0.008,1.408,0.008c1.014,0,1.784-0.011,2.312-0.032c0.527-0.021,0.914-0.053,1.16-0.096v1.024
			c-0.171-0.043-0.323-0.072-0.456-0.088c-0.134-0.017-0.296-0.029-0.488-0.04v8.144c0.299-0.074,0.592-0.146,0.88-0.216
			s0.576-0.142,0.864-0.216c-0.021,0.149-0.029,0.31-0.024,0.479c0.006,0.171,0.019,0.31,0.04,0.416
			c-0.31,0.054-0.61,0.109-0.904,0.168c-0.293,0.059-0.578,0.115-0.855,0.168v0.688c0,0.416,0.003,0.775,0.008,1.08
			c0.006,0.304,0.014,0.578,0.024,0.824c0.01,0.245,0.026,0.464,0.048,0.655c0.021,0.192,0.042,0.384,0.063,0.576h-1.231
			c0.042-0.299,0.074-0.698,0.096-1.2c0.021-0.501,0.032-1.146,0.032-1.936v-0.496c-2.432,0.501-4.176,0.901-5.232,1.2
			c-0.021-0.149-0.069-0.336-0.144-0.561c-0.075-0.224-0.155-0.426-0.24-0.607c0.234-0.011,0.48-0.024,0.736-0.04
			c0.256-0.017,0.522-0.04,0.8-0.072V18.821z M111.426,21.109v-2.305h-3.136v2.305H111.426z M108.29,21.861v2.479h3.136v-2.479
			H108.29z M108.29,27.749l3.136-0.576v-2.063h-3.136V27.749z M114.146,19.477c-0.106,0-0.208,0.003-0.304,0.009
			c-0.096,0.005-0.187,0.013-0.272,0.023v-0.943c0.405,0.031,0.88,0.056,1.425,0.071c0.544,0.017,1.114,0.024,1.712,0.024
			c0.618,0,1.144-0.008,1.575-0.024c0.433-0.016,0.846-0.04,1.24-0.071c-0.171,0.96-0.341,1.842-0.512,2.647
			s-0.354,1.547-0.552,2.224c-0.198,0.678-0.408,1.299-0.632,1.864c-0.225,0.565-0.47,1.088-0.736,1.568
			c0.405,0.512,0.885,0.986,1.439,1.424s1.2,0.869,1.937,1.296c-0.192,0.139-0.353,0.283-0.48,0.432
			c-0.128,0.149-0.229,0.331-0.304,0.545c-0.693-0.47-1.285-0.937-1.776-1.4c-0.49-0.464-0.938-0.952-1.344-1.464
			c-0.384,0.544-0.837,1.072-1.359,1.584c-0.523,0.512-1.142,1.045-1.856,1.6c-0.117-0.202-0.237-0.357-0.36-0.464
			c-0.122-0.106-0.29-0.219-0.504-0.336c0.8-0.438,1.482-0.917,2.048-1.44c0.565-0.522,1.051-1.104,1.456-1.743
			c-0.234-0.385-0.447-0.851-0.64-1.4c-0.192-0.549-0.365-1.152-0.52-1.808c-0.155-0.656-0.288-1.345-0.4-2.064
			S114.22,20.191,114.146,19.477z M114.962,19.429c0.063,0.576,0.141,1.182,0.231,1.816s0.2,1.248,0.328,1.84
			s0.274,1.144,0.44,1.656c0.165,0.512,0.344,0.934,0.536,1.264c0.234-0.479,0.45-0.954,0.647-1.424s0.371-0.966,0.521-1.488
			s0.277-1.082,0.384-1.68s0.197-1.259,0.271-1.984H114.962z"/>
	</g>
</g>
</svg>
