<?xml version="1.0" encoding="utf-8"?>
<!-- Generator: Adobe Illustrator 15.1.0, SVG Export Plug-In . SVG Version: 6.00 Build 0)  -->
<!DOCTYPE svg PUBLIC "-//W3C//DTD SVG 1.1//EN" "http://www.w3.org/Graphics/SVG/1.1/DTD/svg11.dtd">
<svg version="1.1" id="SemiBold" xmlns="http://www.w3.org/2000/svg" xmlns:xlink="http://www.w3.org/1999/xlink" x="0px" y="0px"
	 width="216.457px" height="75.107px" viewBox="0 0 216.457 75.107" enable-background="new 0 0 216.457 75.107"
	 xml:space="preserve">
<g>
	<path d="M215.707,63.767c0,6.531-4.797,10.592-11.321,10.592H12.572c-6.528,0-11.821-5.299-11.821-11.828V12.573
		C0.75,6.045,6.043,0.75,12.572,0.75h191.814c6.524,0,11.321,5.295,11.321,11.823V63.767z"/>
	<path fill="#FFFFFF" d="M204.386,75.109H12.572C5.64,75.109,0,69.466,0,62.531V12.573C0,5.64,5.641,0,12.572,0h191.814
		c6.769,0,12.071,5.522,12.071,12.573v51.194C216.457,70.55,211.606,75.109,204.386,75.109z M12.572,1.5
		C6.468,1.5,1.5,6.468,1.5,12.573v49.958c0,6.107,4.967,11.078,11.071,11.078h191.814c6.323,0,10.571-3.955,10.571-9.842V12.573
		c0-6.209-4.645-11.073-10.571-11.073H12.572z"/>
</g>
<g>
	<g>
		<path fill="#FFFFFF" d="M147.652,53.585l-1.615,1.52c-0.371,0.205-0.742,0.443-1.111,0.613c-1.121,0.508-2.262,0.637-3.273,0.637
			c-1.078,0-2.769-0.07-4.49-1.316c-2.396-1.688-3.442-4.588-3.442-7.113c0-5.23,4.259-7.797,7.731-7.797
			c1.215,0,2.463,0.303,3.477,0.943c1.686,1.113,2.122,2.562,2.363,3.34l-7.935,3.205l-2.598,0.201
			c0.841,4.289,3.741,6.785,6.948,6.785c1.604,0,2.791-0.521,3.884-1.062C147.589,53.542,147.808,53.429,147.652,53.585z
			 M142.865,45.052c0.646-0.234,0.979-0.439,0.979-0.906c0-1.348-1.524-2.904-3.345-2.904c-1.351,0-3.879,1.051-3.879,4.695
			c0,0.568,0.065,1.176,0.102,1.781L142.865,45.052z"/>
		<path fill="#FFFFFF" d="M131.064,53.322c0,1.312,0.234,1.518,1.344,1.617c0.578,0.068,1.153,0.1,1.726,0.166l-1.248,0.744h-5.947
			c0.78-1.012,0.914-1.113,0.914-1.787v-0.754l-0.013-20.063h-2.626l2.526-1.218h4.825c-1.046,0.605-1.358,0.976-1.493,2.155
			L131.064,53.322z"/>
		<path fill="#FFFFFF" d="M121.842,41.782c0.773,0.639,2.393,1.988,2.393,4.555c0,2.498-1.41,3.676-2.83,4.791
			c-0.437,0.438-0.945,0.916-0.945,1.65c0,0.746,0.511,1.15,0.877,1.453l1.22,0.941c1.481,1.25,2.833,2.396,2.833,4.727
			c0,3.176-3.072,6.375-8.877,6.375c-4.891,0-7.254-2.328-7.254-4.824c0-1.217,0.604-2.938,2.602-4.113
			c2.092-1.279,4.928-1.451,6.443-1.553c-0.475-0.609-1.016-1.252-1.016-2.299c0-0.57,0.172-0.912,0.338-1.312
			c-0.368,0.035-0.74,0.068-1.079,0.068c-3.578,0-5.603-2.67-5.603-5.301c0-1.553,0.707-3.271,2.161-4.52
			c1.925-1.584,4.218-1.857,6.041-1.857h6.954l-2.162,1.221h-2.096V41.782z M119.451,56.765c-0.275-0.037-0.441-0.037-0.775-0.037
			c-0.307,0-2.129,0.066-3.541,0.541c-0.747,0.273-2.906,1.08-2.906,3.479c0,2.393,2.331,4.115,5.938,4.115
			c3.238,0,4.959-1.553,4.959-3.645C123.123,59.495,122.011,58.589,119.451,56.765z M120.421,50.353
			c0.78-0.777,0.848-1.854,0.848-2.467c0-2.426-1.446-6.207-4.252-6.207c-0.875,0-1.823,0.438-2.36,1.119
			c-0.57,0.703-0.742,1.613-0.742,2.49c0,2.262,1.317,6.01,4.219,6.01C118.977,51.298,119.887,50.886,120.421,50.353z"/>
		<path fill="#FFFFFF" d="M100.919,56.284c-5.364,0-8.234-4.178-8.234-7.959c0-4.418,3.608-8.197,8.74-8.197
			c4.961,0,8.068,3.883,8.068,7.961C109.494,52.072,106.423,56.284,100.919,56.284z M105.14,53.556
			c0.815-1.08,1.015-2.428,1.015-3.74c0-2.973-1.416-8.641-5.602-8.641c-1.113,0-2.234,0.436-3.042,1.145
			c-1.318,1.182-1.553,2.664-1.553,4.119c0,3.334,1.647,8.834,5.737,8.834C103.016,55.275,104.363,54.634,105.14,53.556z"/>
		<path fill="#FFFFFF" d="M82.96,56.284c-5.365,0-8.23-4.178-8.23-7.959c0-4.418,3.609-8.197,8.739-8.197
			c4.958,0,8.062,3.883,8.062,7.961C91.532,52.072,88.465,56.284,82.96,56.284z M87.182,53.556c0.81-1.08,1.012-2.428,1.012-3.74
			c0-2.973-1.42-8.641-5.601-8.641c-1.117,0-2.226,0.436-3.036,1.145c-1.32,1.182-1.554,2.664-1.554,4.119
			c0,3.334,1.654,8.834,5.737,8.834C85.058,55.275,86.403,54.634,87.182,53.556z"/>
		<path fill="#FFFFFF" d="M72.585,55.115l-4.524,1.035c-1.833,0.289-3.479,0.543-5.222,0.543c-8.727,0-12.051-6.424-12.051-11.449
			c0-6.141,4.711-11.832,12.778-11.832c1.707,0,3.35,0.251,4.846,0.658c2.371,0.667,3.479,1.487,4.173,1.969l-2.628,2.496
			l-1.108,0.248l0.79-1.259c-1.07-1.045-3.037-2.974-6.77-2.974c-4.991,0-8.757,3.793-8.757,9.333c0,5.949,4.3,11.545,11.194,11.545
			c2.026,0,3.069-0.406,4.016-0.787v-5.1l-4.776,0.258l2.532-1.361h6.703l-0.819,0.791c-0.222,0.188-0.251,0.252-0.313,0.504
			c-0.033,0.287-0.063,1.203-0.063,1.525L72.585,55.115L72.585,55.115z"/>
	</g>
	<g>
		<path fill="#FFFFFF" d="M157.379,53.728v8.598h-1.707V40.45h1.707v2.49c1.111-1.607,3.144-2.885,5.504-2.885
			c4.232,0,7.084,3.211,7.084,8.293c0,5.049-2.852,8.328-7.084,8.328C160.654,56.679,158.66,55.529,157.379,53.728z M168.133,48.351
			c0-3.83-1.997-6.752-5.538-6.752c-2.199,0-4.302,1.729-5.216,3.234v7.002c0.914,1.51,3.017,3.301,5.216,3.301
			C166.136,55.136,168.133,52.189,168.133,48.351z"/>
		<path fill="#FFFFFF" d="M172.298,56.282v-21.87h1.706v21.872h-1.706V56.282z"/>
		<path fill="#FFFFFF" d="M193.158,60.907c0.364,0.162,0.987,0.266,1.383,0.266c1.045,0,1.771-0.43,2.426-1.938l1.244-2.818
			l-6.725-15.967h1.903l5.769,13.834l5.713-13.834h1.932l-8.201,19.314c-0.852,1.99-2.188,2.947-4.027,2.947
			c-0.554,0-1.279-0.1-1.707-0.23L193.158,60.907z"/>
		<path fill="#FFFFFF" d="M188.172,56.238c-0.114-0.549-0.2-1.031-0.264-1.438c-0.054-0.402-0.082-0.814-0.082-1.232
			c-0.586,0.857-1.414,1.572-2.475,2.137c-1.061,0.566-2.064,0.846-3.447,0.846c-1.662,0-2.953-0.408-3.875-1.238
			c-0.918-0.83-1.381-1.953-1.381-3.373s0.67-2.572,2.004-3.453c1.334-0.885,3.059-1.324,5.191-1.324h3.98v-1.967
			c0-1.133-0.388-2.021-1.158-2.67c-0.772-0.645-1.858-0.975-3.268-0.975c-1.287,0-2.332,0.299-3.127,0.881
			c-0.787,0.594-1.186,1.33-1.186,2.217h-1.746l-0.036-0.084c-0.063-1.195,0.483-2.246,1.647-3.15
			c1.155-0.904,2.674-1.359,4.541-1.359c1.859,0,3.367,0.449,4.502,1.342c1.135,0.887,1.703,2.164,1.703,3.838v7.811
			c0,0.561,0.025,1.104,0.098,1.631c0.072,0.529,0.188,1.057,0.34,1.566h-1.965v-0.004H188.172z M182.115,54.991
			c1.449,0,2.491-0.322,3.559-0.965c1.058-0.637,1.775-1.469,2.154-2.475v-3.039h-4c-1.527,0-2.793,0.338-3.789,1.02
			s-1.502,1.504-1.502,2.461c0,0.902,0.319,1.625,0.957,2.174C180.131,54.72,181.002,54.991,182.115,54.991z"/>
	</g>
</g>
<g>
	<polygon fill="none" points="28.499,47.46 33.975,41.984 33.973,41.984 28.499,47.46 11.021,29.984 11.021,29.984 28.499,47.462 
		10.994,64.968 10.994,64.968 28.499,47.462 33.999,52.962 34.001,52.962 	"/>
	
		<linearGradient id="SVGID_1_" gradientUnits="userSpaceOnUse" x1="1252.7607" y1="-215.8582" x2="1229.6826" y2="-230.3014" gradientTransform="matrix(0.7071 0.7071 -0.7071 0.7071 -1013.6454 -687.1373)">
		<stop  offset="0" style="stop-color:#D6FFA1"/>
		<stop  offset="0.3264" style="stop-color:#93E2A7"/>
		<stop  offset="1" style="stop-color:#00A3B5"/>
	</linearGradient>
	<path fill="url(#SVGID_1_)" d="M33.973,41.984L12.637,30.252c-0.604-0.331-1.163-0.408-1.615-0.269L28.5,47.46L33.973,41.984z"/>
	
		<linearGradient id="SVGID_2_" gradientUnits="userSpaceOnUse" x1="1239.3398" y1="-228.1965" x2="1269.2637" y2="-220.374" gradientTransform="matrix(0.7071 0.7071 -0.7071 0.7071 -1013.6454 -687.1373)">
		<stop  offset="0" style="stop-color:#FF177B"/>
		<stop  offset="0.6721" style="stop-color:#FFA976"/>
		<stop  offset="1" style="stop-color:#FFEC73"/>
	</linearGradient>
	<path fill="url(#SVGID_2_)" d="M34.001,52.962l7.283-4.004c1.477-0.816,1.477-2.145,0-2.955l-7.311-4.021l-5.476,5.479
		L34.001,52.962z"/>
	
		<linearGradient id="SVGID_3_" gradientUnits="userSpaceOnUse" x1="1256.0459" y1="-204.905" x2="1223.6006" y2="-223.994" gradientTransform="matrix(0.7071 0.7071 -0.7071 0.7071 -1013.6454 -687.1373)">
		<stop  offset="0" style="stop-color:#63FFD4"/>
		<stop  offset="0.4854" style="stop-color:#32A0BA"/>
		<stop  offset="0.8349" style="stop-color:#1262A9"/>
		<stop  offset="1" style="stop-color:#064AA2"/>
	</linearGradient>
	<path fill="url(#SVGID_3_)" d="M11.021,29.984c-0.649,0.203-1.069,0.86-1.069,1.854L9.956,63.12c0,0.982,0.407,1.633,1.038,1.848
		L28.5,47.462L11.021,29.984z"/>
	
		<linearGradient id="SVGID_4_" gradientUnits="userSpaceOnUse" x1="1267.8223" y1="-220.0603" x2="1247.8451" y2="-193.7414" gradientTransform="matrix(0.7071 0.7071 -0.7071 0.7071 -1013.6454 -687.1373)">
		<stop  offset="0" style="stop-color:#FF4521"/>
		<stop  offset="0.3411" style="stop-color:#D43E65"/>
		<stop  offset="0.7935" style="stop-color:#9F36B9"/>
		<stop  offset="1" style="stop-color:#8A33DB"/>
	</linearGradient>
	<path fill="url(#SVGID_4_)" d="M10.994,64.968c0.454,0.152,1.024,0.082,1.643-0.258L34,52.962l-5.5-5.5L10.994,64.968z"/>
</g>
<g>
	<g>
		<path fill="#FFFFFF" d="M57.184,21.802l-3.57-4.515l-0.944,1.104v3.409h-1.872V11.126h1.872v5.073l4.178-5.073h2.321l-4.338,5.025
			l4.674,5.65L57.184,21.802L57.184,21.802z"/>
		<path fill="#FFFFFF" d="M61.133,17.576v-6.45h1.904v6.402c0,1.696,0.944,2.801,2.722,2.801c1.776,0,2.721-1.104,2.721-2.801
			v-6.402h1.905v6.45c0,2.642-1.521,4.418-4.626,4.418C62.668,21.994,61.133,20.218,61.133,17.576z"/>
		<path fill="#FFFFFF" d="M75.598,21.802v-9.027h-3.233v-1.648h8.339v1.648h-3.232v9.027H75.598z"/>
		<path fill="#FFFFFF" d="M90.112,21.802v-4.674h-5.555v4.674h-1.872V11.126h1.872v4.354h5.555v-4.354h1.873v10.677H90.112z"/>
		<path fill="#FFFFFF" d="M94.188,16.472c0-3.187,2.257-5.522,5.459-5.522c3.186,0,5.458,2.337,5.458,5.522
			c0,3.185-2.272,5.521-5.458,5.521C96.445,21.994,94.188,19.657,94.188,16.472z M103.184,16.472c0-2.209-1.393-3.857-3.537-3.857
			c-2.161,0-3.538,1.648-3.538,3.857c0,2.191,1.377,3.856,3.538,3.856C101.791,20.329,103.184,18.664,103.184,16.472z"/>
		<path fill="#FFFFFF" d="M107.164,21.802V11.126h1.871v9.027h4.707v1.648L107.164,21.802L107.164,21.802z"/>
		<path fill="#FFFFFF" d="M115.787,21.802V11.126h7.313v1.648h-5.44v2.753h5.33v1.648h-5.33v2.978h5.44v1.648L115.787,21.802
			L115.787,21.802z"/>
		<path fill="#FFFFFF" d="M136.334,21.802l-3.569-4.515l-0.944,1.104v3.409h-1.871V11.126h1.871v5.073l4.178-5.073h2.322
			l-4.339,5.025l4.675,5.65L136.334,21.802L136.334,21.802z"/>
		<path fill="#FFFFFF" d="M140.285,17.576v-6.45h1.902v6.402c0,1.696,0.944,2.801,2.723,2.801c1.775,0,2.722-1.104,2.722-2.801
			v-6.402h1.905v6.45c0,2.642-1.521,4.418-4.627,4.418C141.82,21.994,140.285,20.218,140.285,17.576z"/>
		<path fill="#FFFFFF" d="M151.548,18.649V17.21h3.841v1.439H151.548z"/>
	</g>
</g>
</svg>
